<svg width="339" height="339" viewBox="0 0 339 339" fill="none" xmlns="http://www.w3.org/2000/svg">
<path d="M150.12 232.187C160.066 233.205 254.604 232.847 258.826 231.825C259.887 218.685 259.418 174.504 258.21 170.54H150.12V232.187ZM216.856 103.44C206.864 102.39 112.316 102.766 108.145 103.818C107.083 116.949 107.551 161.151 108.757 165.103H216.856V103.44ZM145.996 170.56C144.756 170.411 143.995 170.239 143.233 170.24C107.796 170.28 72.3574 170.335 36.9189 170.401C36.7565 170.401 36.5869 170.579 36.435 170.695C36.2758 170.814 36.1333 170.959 36.0579 171.025V232.338C37.1178 232.46 37.8814 232.624 38.6449 232.624C74.0834 232.589 109.522 232.54 144.962 232.48C145.125 232.48 145.298 232.311 145.451 232.198C145.612 232.081 145.753 231.936 145.996 231.72V170.56ZM194.567 299.462C204.936 300.449 299.007 300.09 303.319 299.087V236.679H194.567V299.462ZM189.229 236.776C177.367 235.724 84.7278 236.145 80.4755 237.218V299.576H189.229V236.776ZM35.8725 99.2416C37.6048 99.2416 38.7769 99.2425 39.9478 99.2404C74.9716 99.1912 109.995 99.1409 145.019 99.0781C145.179 99.0781 145.347 98.8886 145.494 98.7681C145.648 98.6414 145.782 98.4895 145.921 98.346C146.703 83.3698 146.366 40.984 145.376 35.8865C144.269 35.8363 143.1 35.7347 141.931 35.7368C106.907 35.7818 71.884 35.8373 36.8602 35.9054C36.702 35.9054 36.5334 36.1003 36.3889 36.228C36.2401 36.36 36.1155 36.5192 35.8725 36.7842V99.2416ZM32.3083 102.978V32.2679C33.9328 32.1705 35.2787 32.0198 36.6245 32.0198C72.26 32.0073 107.895 32.0093 143.532 32.0103C144.533 32.0103 145.537 31.9748 146.534 32.0355C148.689 32.1675 149.782 33.3688 149.829 35.5086C149.86 36.9089 149.846 38.3113 149.846 39.7126V98.9085C151.908 99.0321 153.641 99.2248 155.375 99.2269C174.996 99.2489 194.615 99.2405 214.235 99.2416C215.637 99.2416 217.038 99.2437 218.439 99.2573C220.621 99.2793 221.756 100.454 221.893 102.567C221.984 103.962 221.925 105.369 221.925 106.77C221.926 124.187 221.925 141.604 221.925 159.022V165.422H227.766C236.575 165.422 245.385 165.48 254.193 165.407C263.238 165.33 262.883 165.252 262.859 173.785C262.809 191.203 262.844 208.621 262.843 226.038V232.622C277.73 232.668 292.222 232.617 307 232.654V301.567C306.887 301.681 306.754 301.834 306.601 301.962C306.454 302.084 306.29 302.272 306.128 302.278C304.13 302.359 302.133 302.461 300.136 302.461C225.883 302.471 151.631 302.47 77.1019 302.47C75.8242 296.877 76.6537 291.503 76.5102 286.192C76.3583 280.591 76.4756 274.981 76.4756 269.376V236.586H33.4688C32.8865 235.978 32.742 235.837 32.61 235.687C32.4822 235.541 32.2591 235.384 32.2581 235.232C32.1617 214.219 32.0821 193.206 32.0036 172.191C31.9962 170.217 32.0025 168.242 32.0025 165.656C38.2972 165.208 44.2399 165.483 50.1638 165.433C56.1694 165.382 62.176 165.422 68.1816 165.422H103.79V103.528C99.2411 102.398 94.4724 103.128 89.7677 103.005C84.9655 102.879 80.1582 102.978 75.3539 102.978H32.3083Z" fill="#E04C2D"/>
</svg>
