<svg width="339" height="339" viewBox="0 0 339 339" fill="none" xmlns="http://www.w3.org/2000/svg">
<path d="M108.809 92.7527C111.582 92.3867 113.083 92.2597 114.543 91.9844C122.289 90.5302 129.962 88.833 137.958 88.9226C145.307 89.0061 152.459 90.0976 159.704 91.2025C173.705 93.3418 185.975 99.4613 197.944 106.416C201.509 108.486 204.918 111.025 207.878 113.891C214.561 120.369 221.348 126.694 226.675 134.548C233.305 144.301 238.705 154.519 241.854 165.829C243.636 172.25 245.45 178.842 245.815 185.434C246.305 194.296 246.743 203.228 245.033 212.155C243.584 219.731 241.854 227.157 239.122 234.356C238.674 235.539 238.205 236.714 237.506 238.521C240.947 236.831 243.501 235.148 246.315 234.302C250.454 233.055 253.207 230.216 255.26 226.89C258.471 221.71 261.244 216.246 263.934 210.765C270.095 198.158 272.368 184.502 273.171 170.736C273.744 160.911 271.409 151.213 268.865 141.642C266.415 132.403 262.923 123.753 257.763 115.676C254.437 110.483 250.559 105.791 246.816 100.944C241.989 94.7011 236.068 89.8994 229.855 85.3238C223.12 80.3657 215.781 76.304 208.035 73.3152C197.558 69.2692 186.82 65.8478 175.29 66.3138C169.514 66.5473 163.728 66.3253 157.953 66.4535C156.003 66.4973 154.033 66.8402 152.125 67.302C146.402 68.6917 140.564 69.8073 135.028 71.7839C129.472 73.7729 124.217 76.6513 118.849 79.1836C118.161 79.5078 117.431 79.9811 117.014 80.5867C114.47 84.2584 112.01 87.9894 108.809 92.7527ZM242.802 196.409C242.239 190.51 241.979 184.564 241.03 178.727C240.154 173.312 239.018 167.845 237.162 162.701C233.482 152.467 228.593 142.801 221.911 134.099C215.833 126.185 208.942 119.126 200.925 113.18C193.106 107.375 184.589 102.836 175.509 99.3194C165.688 95.5174 155.399 93.7963 145.015 92.8372C133.464 91.7707 122.226 94.4207 110.978 96.5068C109.351 96.806 107.329 97.8245 106.547 99.139C104.525 102.517 102.721 106.13 101.522 109.87C100.094 114.337 99.5205 119.071 98.3216 123.622C95.8404 132.994 96.0282 142.582 96.8726 152.009C97.4773 158.765 99.0307 165.539 101.137 172.149C103.43 179.328 106.141 186.236 109.883 192.775C113.636 199.332 118.307 205.152 123.039 211.021C127.741 216.836 133.329 221.367 139.178 225.775C148.925 233.123 159.746 238.247 171.516 241.305C177.969 242.984 184.495 244.871 191.084 245.446C203.771 246.553 216.312 245.158 228.583 241.363C231.846 240.353 233.649 238.578 234.807 235.675C239.842 223.084 242.583 210.053 242.802 196.409ZM125.197 71.1343C128.554 70.0335 131.922 68.9689 135.268 67.8243C145.412 64.3486 155.743 62.03 166.554 62.6201C167.95 62.6962 169.347 62.6827 170.734 62.6232C182.525 62.1113 193.742 64.3507 204.897 68.2944C217.782 72.8449 229.354 79.4055 239.591 88.2104C248.161 95.5862 255.187 104.329 261.171 114.082C271.013 130.133 275.401 147.653 277.007 166.082C277.372 170.388 276.632 174.703 276.131 179.032C274.984 189.068 273.15 198.85 269.032 208.107C266.624 213.516 264.038 218.85 261.536 224.218C261.38 224.487 261.224 224.756 261.067 225.025C261.213 224.748 261.369 224.473 261.515 224.197C262.266 223.988 263.204 223.998 263.736 223.537C270.022 218.099 276.225 212.501 281.25 205.897C289.298 195.331 295.637 183.805 298.983 170.787C301.089 162.587 303.07 154.421 303.351 145.869C303.695 135.694 302.277 125.801 299.702 116.028C296.346 103.322 290.82 91.6758 282.928 81.1048C277.58 73.9334 271.576 67.4229 264.643 61.8143C258.482 56.8373 251.883 52.4306 244.7 49.0926C237.569 45.7773 230.23 42.8792 222.421 41.475C217.396 40.57 212.372 39.2878 207.305 39.098C200.216 38.8312 193.117 38.58 185.986 39.9508C176.885 41.6991 167.742 42.9971 159.412 47.385C154.877 49.7681 150.144 51.7884 145.766 54.4135C138.124 58.9869 130.775 63.9952 125.197 71.1384C125.041 71.397 124.874 71.6554 124.707 71.9151C124.874 71.6544 125.031 71.3939 125.197 71.1343ZM213.706 267.272C211.83 267.812 209.838 268.108 208.097 268.932C199.434 273.037 190.073 274.518 180.742 275.519C175.394 276.093 169.931 276.338 164.396 275.958C153.512 275.211 142.962 273.428 132.724 269.679C117.837 264.225 104.764 255.812 93.6825 244.578C84.9254 235.7 77.8572 225.526 72.6447 214.058C66.0977 199.657 62.1988 184.786 62.8763 168.86C63.0641 164.292 62.3134 159.573 63.2101 155.168C66.0038 141.281 69.3609 127.508 77.1797 115.347C77.3777 115.046 77.2942 114.57 77.3464 114.176C77.5132 113.906 77.6696 113.635 77.8363 113.365C77.6801 113.643 77.5236 113.923 77.3777 114.202C76.3352 114.683 75.032 114.915 74.2919 115.685C68.506 121.674 62.6054 127.568 57.1738 133.871C47.1555 145.516 42.1827 159.668 38.1169 174.184C37.481 176.444 36.8555 178.818 36.8868 181.131C37.0327 192.809 35.3855 204.563 38.0022 216.141C38.8676 219.959 40.4834 223.615 41.2653 227.444C42.9959 235.962 47.2284 243.288 51.6695 250.542C58.5604 261.834 67.5675 271.256 78.0761 279.181C85.8324 285.032 94.3497 289.705 103.565 292.864C111.561 295.601 119.464 298.937 128.21 298.402C138.051 301.234 148.007 299.281 157.63 297.852C167.471 296.393 177.198 293.26 186.028 288.216C189.968 285.969 193.898 283.688 197.693 281.213C203.677 277.321 209.338 273.036 213.675 267.249C213.842 266.988 214.019 266.726 214.186 266.464C214.019 266.734 213.862 267.003 213.706 267.272ZM229.25 245.746C227.686 245.938 226.102 246.054 224.548 246.338C219.346 247.295 214.175 248.897 208.931 249.179C198.663 249.733 188.415 249.392 178.24 247.112C168.138 244.85 158.38 241.573 149.404 236.694C135.549 229.163 123.456 219.223 114.032 206.376C107.1 196.914 101.449 186.629 97.9776 175.476C94.0369 162.813 91.7434 149.727 92.9006 136.327C93.3072 131.636 93.8701 126.927 94.8292 122.323C96.3825 114.912 97.9567 107.486 101.428 100.097C99.0514 101.026 97.3104 101.491 95.7884 102.344C92.0248 104.452 87.7714 105.92 85.113 109.605C75.105 123.507 68.975 139.162 66.9944 155.984C65.7746 166.316 65.6495 176.986 67.8387 187.439C69.6214 195.947 71.8837 204.281 75.595 212.164C81.8188 225.388 90.3673 236.831 101.387 246.503C113.48 257.119 127.126 264.75 142.711 268.769C146.694 269.796 150.864 270.039 154.877 270.965C163.947 273.055 173.174 272.526 182.17 271.639C191.48 270.721 200.717 268.36 209.484 264.591C218.481 260.723 226.154 255.687 229.229 245.726C229.385 245.466 229.552 245.207 229.719 244.947C229.563 245.214 229.406 245.48 229.25 245.746ZM244.762 239.734C238.757 241.783 234.063 246.029 230.678 252.475C236.057 247.886 241.249 244.775 244.804 239.771C244.981 239.687 245.179 239.63 245.315 239.505C245.398 239.424 245.398 239.244 245.44 239.107C245.211 239.317 244.992 239.525 244.762 239.734ZM107.266 87.8915C104.326 89.0914 98.5197 93.9298 95.2357 98.0194C101.741 97.2199 105.557 93.814 107.245 87.8696C107.412 87.5882 107.569 87.3066 107.735 87.0251C107.579 87.3139 107.423 87.6027 107.266 87.8915ZM141.429 303.349C115.627 302.911 94.1411 295.912 75.0529 281.369C60.4057 270.215 49.0632 256.433 41.6093 239.745C36.8764 229.151 33.3318 218.017 32.9774 206.162C32.8731 202.828 31.9035 199.496 32.0078 196.185C32.5917 177.36 36.8138 159.376 46.3319 143.037C51.3983 134.345 57.2052 125.931 64.7738 119.166C70.6535 113.915 77.2004 109.414 83.445 104.578C84.2166 103.976 85.1756 103.494 85.7386 102.731C93.2655 92.5234 102.95 84.7713 113.594 78.0783C114.731 77.3611 115.617 76.2102 116.565 75.2074C120.934 70.5974 124.895 65.5183 129.732 61.4651C135.143 56.9239 140.783 52.6392 147.121 49.1665C155.149 44.7609 163.416 41.2967 172.193 38.8447C184.13 35.5077 196.338 34.316 208.619 35.3752C215.426 35.9622 222.182 37.6459 228.854 39.2731C242.698 42.6519 254.718 49.668 266.05 58.1748C278.039 67.1738 287.13 78.6716 294.156 91.5664C300.37 102.972 304.31 115.382 306.051 128.488C306.812 134.246 306.812 139.927 306.979 145.651C307.177 152.41 305.947 159.041 304.435 165.546C301.412 178.539 296.22 190.767 288.819 201.832C282.084 211.905 274.098 221.01 263.882 227.867C261.432 229.515 258.899 231.061 256.49 232.778C255.208 233.692 253.905 234.712 252.977 235.954C245.471 245.907 236.057 253.67 225.549 260.211C224.882 260.622 224.194 261.093 223.735 261.704C217.657 269.919 210.214 276.852 202.061 282.82C195.879 287.349 189.041 291.232 182.004 294.283C174.643 297.477 166.814 299.862 158.964 301.609C152.657 303.014 146.027 302.938 141.429 303.349Z" fill="#E04C2D"/>
</svg>
