<svg width="339" height="339" viewBox="0 0 339 339" fill="none" xmlns="http://www.w3.org/2000/svg">
<path d="M156.559 157.081H96.6797C97.9733 152.753 101.227 150.229 103.383 146.671H163.673C165.181 144.692 166.555 142.892 168.192 140.746C168.998 141.758 169.739 142.373 170.07 143.16C171.332 146.161 173.658 146.699 176.64 146.684C194.502 146.592 212.365 146.638 230.228 146.638H236.09C238.341 149.901 240.476 152.99 242.514 155.934C242.048 156.538 241.951 156.701 241.815 156.821C241.68 156.945 241.515 157.06 241.34 157.118C241.165 157.18 240.962 157.186 240.768 157.186C220.592 157.189 200.411 157.189 179.593 157.189C182.706 161.745 185.521 165.861 188.352 170.005H251.898C254.189 173.189 256.411 176.267 259.08 179.978C257.187 180.212 255.8 180.531 254.412 180.533C236.934 180.567 219.457 180.556 201.986 180.556H195.463C198.536 185.035 201.201 188.92 204.041 193.06C205.445 193.145 206.954 193.316 208.464 193.318C226.715 193.337 244.969 193.401 263.214 193.269C266.669 193.243 269.114 193.949 270.638 197.361C271.598 199.522 273.306 201.355 275.111 203.966H211.476C214.744 208.918 217.545 213.164 220.466 217.589H284.767C285.786 221.382 289.551 223.497 290.211 227.293C289.823 227.649 289.687 227.794 289.532 227.906C289.387 228.014 289.212 228.164 289.047 228.164C269.066 228.175 249.084 228.174 228.424 228.174C230.413 232.608 233.111 235.959 235.585 239.4C236.226 240.304 237.808 240.806 239.03 240.971C240.933 241.228 242.902 241.039 244.843 241.039C261.933 241.039 279.013 241.106 296.102 240.979C299.363 240.956 301.624 241.763 303.079 244.843C304.03 246.86 305.467 248.648 307 251.024C301.187 252.194 296.005 251.47 290.871 251.605C285.825 251.738 280.779 251.635 275.723 251.635H244.436C246.464 257.178 250.414 260.689 252.985 265.059C255.605 269.506 258.546 273.766 261.447 278.04C264.31 282.261 267.309 286.394 270.589 291.045H65.9304C70.5041 284.035 74.6196 277.523 78.9439 271.154C83.241 264.826 87.7477 258.641 92.6833 251.658H32.3522C34.6395 247.792 36.5464 244.565 38.5882 241.113H99.718C102.56 236.886 105.224 232.926 108.154 228.57C106.536 228.462 105.127 228.285 103.718 228.283C87.409 228.264 71.0999 228.29 54.7907 228.243C52.9469 228.238 50.8362 228.962 49.0913 226.482C50.9099 223.725 52.8529 220.782 54.7985 217.833H115.481C118.591 213.201 121.533 208.823 124.922 203.775H64.6192C67.1006 199.928 69.1155 196.809 71.2455 193.506H131.96C134.661 189.477 137.287 185.559 140.236 181.158C134.987 180.022 130.216 180.71 125.505 180.585C120.655 180.456 115.798 180.556 110.945 180.556H81.5138C82.0785 177.353 83.5245 175.165 84.9918 173.033C86.5056 170.834 88.525 169.909 91.3887 169.932C108.667 170.076 125.948 169.929 143.228 170.067C146.697 170.096 149.017 169.298 150.626 165.943C152.015 163.047 154.199 160.535 156.559 157.081Z" fill="#E04C2D"/>
<path d="M112.908 132.342C115.014 129.347 116.846 126.665 118.765 124.045C119.733 122.722 121.072 122.027 122.795 122.256C123.367 122.332 123.958 122.267 124.54 122.267C155.586 122.268 186.633 122.267 217.681 122.272C218.253 122.273 218.836 122.331 219.816 122.387C221.815 125.318 223.94 128.435 226.405 132.048C225.231 132.383 224.425 132.808 223.629 132.809C187.342 132.836 151.057 132.824 114.772 132.803C114.406 132.803 114.04 132.63 112.908 132.342Z" fill="#E04C2D"/>
<path d="M128.681 109.205C131.248 105.343 133.233 102.354 135.355 99.1613C136.835 99.0875 138.347 98.9478 139.861 98.9469C159.417 98.9313 178.974 99.0313 198.528 98.8566C202.431 98.8217 205.123 99.6514 206.868 103.417C207.711 105.237 209.398 106.674 209.717 109.205H128.681Z" fill="#E04C2D"/>
<path d="M145.426 86.1507C145.784 84.5291 145.734 83.4724 146.214 82.7844C149.562 77.9813 154.248 75.5849 160.271 75.5953H187.733C189.886 78.5405 192.016 81.4539 194.475 84.8183C193.32 85.2696 192.196 86.0876 191.066 86.0944C176.14 86.1798 161.213 86.1507 145.426 86.1507Z" fill="#E04C2D"/>
<path d="M161.388 62.8301C163.115 56.6523 166.914 52.6569 169.633 47.531C172.858 52.5918 176.416 56.82 178.554 62.7552C172.897 62.9173 167.751 62.8058 161.388 62.8301Z" fill="#E04C2D"/>
</svg>
