<svg width="339" height="339" viewBox="0 0 339 339" fill="none" xmlns="http://www.w3.org/2000/svg">
<path d="M56.6468 238.098C60.342 230.911 64.778 224.962 68.7903 222.387C78.152 216.379 87.9703 212.93 99.5127 215.157C107.862 216.77 114.71 220.682 120.674 226.216C124.593 229.852 127.154 234.728 129.19 239.711C130.155 242.074 130.991 244.603 131.243 247.122C131.792 252.613 132.128 258.142 132.196 263.662C132.335 274.83 132.265 286.002 132.214 297.172C132.204 299.26 131.883 301.346 131.711 303.374C135.681 304.212 153.534 304.345 159.785 303.624V298.851C159.785 284.724 159.931 270.595 159.736 256.47C159.591 246.022 160.497 235.559 158.948 225.114C158.347 221.068 157.265 217.213 155.815 213.503C153.123 206.611 148.916 200.729 143.556 195.486C133.736 185.883 121.839 181.727 108.488 181C106.115 180.871 103.7 181.753 101.297 181.8C98.1616 181.863 95.2277 182.616 92.3267 183.647C85.5465 186.059 79.3775 189.375 73.8695 194.188C69.1419 198.319 65.2199 202.936 62.3575 208.418C57.6118 217.51 55.5256 227.199 56.6468 238.098ZM190.382 303.885V298.694C190.382 270.101 190.324 241.508 190.43 212.916C190.452 207.025 189.868 201.254 188.367 195.603C185.494 184.785 180.439 175.083 172.817 166.825C167.585 161.157 161.471 156.743 154.63 153.038C147.252 149.044 139.438 146.611 131.334 145.614C124.088 144.724 116.583 144.809 109.392 146.545C97.5752 149.398 86.8204 154.603 77.8447 162.941C69.4826 170.708 63.5017 180.172 59.7794 190.923C57.3129 198.043 55.7852 205.418 56.6402 213.699C58.0414 210.787 58.9384 208.314 60.333 206.164C62.7971 202.363 65.2306 198.454 68.2679 195.13C77.77 184.732 90.0122 179.56 103.772 177.956C110.761 177.142 117.761 178.184 124.389 180.464C135.18 184.177 144.558 190.003 151.466 199.462C158.452 209.029 162.61 219.629 162.769 231.398C163.076 254.07 162.861 276.75 162.862 299.428V303.885H190.382ZM193.457 304.051C198.36 304.051 202.775 304.066 207.19 304.047C211.739 304.025 216.29 304.134 220.996 303.977V301.065C220.988 263.108 220.955 225.152 221.004 187.196C221.012 181.804 220.109 176.594 219.016 171.345C215.928 156.458 208.314 144.042 198.183 133.053C190.577 124.799 181.185 119.004 170.965 114.5C161.229 110.21 150.976 108.273 140.4 107.986C136.348 107.876 132.329 108.208 128.259 108.743C120.501 109.763 113.095 111.785 105.968 114.808C90.6734 121.298 78.8361 132.048 69.6108 145.657C65.3505 151.943 62.0989 158.791 60.1038 166.26C58.9375 170.626 58.0307 174.985 57.1658 179.404C56.4939 182.838 56.4792 186.092 56.5137 189.843C58.2902 185.719 59.5133 181.8 61.551 178.365C66.3723 170.238 71.9131 162.73 79.5927 156.833C85.7134 152.133 92.0828 148.061 99.3238 145.53C107.458 142.685 115.836 140.94 124.551 141.352C127.792 141.505 130.987 141.76 134.222 142.207C140.709 143.104 146.842 145.025 152.677 147.72C165.389 153.589 175.416 162.568 182.885 174.508C189.577 185.208 193.375 196.722 193.419 209.326C193.522 239.066 193.455 268.807 193.457 298.548C193.458 300.183 193.457 301.818 193.457 304.051ZM283.057 303.897V288.297C283.057 262.825 283.262 237.351 282.999 211.881C282.728 186.31 284.198 160.716 282.087 135.17C281.808 131.789 281.537 128.365 280.781 125.073C278.285 114.174 274.605 103.665 269.176 93.8566C264.691 85.7384 259.591 77.9948 252.963 71.4323C248.544 67.0644 244.108 62.6644 239.246 58.818C234.696 55.214 229.735 52.0511 224.684 49.1682C214.811 43.5362 204.261 39.4894 193.092 37.2948C187.236 36.1441 181.354 34.9951 175.327 34.9614C166.369 34.9113 157.475 35.0509 148.604 36.8431C140.506 38.4792 132.591 40.7026 125.118 44.0299C115.633 48.2523 106.56 53.2552 98.4982 60.0715C91.3345 66.1289 84.7145 72.6496 79.173 80.1386C73.0951 88.3528 67.9895 97.1797 64.2318 106.779C60.0273 117.519 57.7736 128.664 56.425 140.044C56.3133 140.983 56.5736 141.966 56.6606 142.929C57.174 142.08 57.1083 141.236 57.3424 140.486C62.2548 124.756 70.1783 110.703 81.7206 98.9464C86.4729 94.1063 92.0154 89.97 97.5201 85.9544C111.426 75.8084 127.325 70.4007 144.23 68.6224C155.055 67.4841 166.105 67.8735 176.817 70.519C192.767 74.4573 207.239 81.5734 219.657 92.3494C228.306 99.8532 235.961 108.362 241.653 118.44C250.564 134.226 255.353 151.246 255.459 169.314C255.698 212.369 255.533 255.425 255.533 298.482V303.897H283.057ZM159.856 106.904L159.865 106.913C160.361 107.222 160.819 107.675 161.358 107.814C163.377 108.336 165.544 108.467 167.43 109.271C171.091 110.832 174.601 112.749 177.616 114.242C178.456 113.663 178.956 113.055 179.479 113.032C180.005 113.009 180.73 113.446 181.059 113.904C181.672 114.757 181.833 116.058 182.589 116.664C184.472 118.17 186.65 119.303 188.595 120.741C195.05 125.512 200.768 131.006 205.844 137.283C208.232 140.24 209.423 144.298 213.251 146.075C213.513 146.195 213.76 146.985 213.62 147.226C212.561 148.987 214.45 149.791 214.729 151.142C215.682 150.835 216.561 150.55 217.374 150.287C219.214 152.386 216.996 153.067 216.322 154.109C217.357 156.733 218.31 159.297 219.402 161.799C219.764 162.621 220.372 163.455 221.086 163.981C223.443 165.712 223.485 165.658 221.062 167.85C224.741 177.244 224.019 187.213 224.043 197.388C225.719 196.329 226.926 196.494 227.69 198.12C226.926 199.728 225.735 199.951 223.994 198.805C224.207 204.494 223.78 209.853 224.257 215.085C225.661 215.336 226.721 215.526 227.755 215.712C227.698 218.739 225.776 218.101 224.175 218.012V224.844C225.927 224.541 227.071 225.229 227.608 226.909C226.417 227.173 225.234 227.434 224.265 227.65V233.704C225.62 234.063 226.745 234.361 227.846 234.652C227.337 237.289 225.834 237.061 224.142 236.6V243.676C225.727 242.646 226.926 242.84 227.641 244.337C227.049 246.455 225.669 246.034 224.289 245.369V252.541C226.721 252.117 227.838 252.529 227.78 253.823C227.665 256.62 225.201 254.409 224.183 255.31V261.328C225.448 261.61 226.63 261.873 227.747 262.123C227.673 265.185 225.719 264.473 224.199 264.234V271.274C225.99 270.9 227.107 271.594 227.55 273.359C226.458 273.517 225.382 273.673 224.289 273.833V280.167C225.612 280.387 226.696 280.567 227.706 280.734C228.018 284.209 225.152 282.024 224.175 283.016V290.009C225.768 289.081 226.992 289.059 227.608 290.799C226.951 292.805 225.546 292.308 224.166 291.661V299.201C225.957 297.493 227.452 298.375 227.698 299.84C228.207 302.961 225.094 300.732 224.027 301.817C224.1 302.504 224.166 303.118 224.24 303.726C227.501 304.898 230.573 302.961 233.784 303.927C236.757 304.822 239.952 303.063 243.189 303.969C246.195 304.811 249.234 302.77 252.478 303.934V298.014C252.478 258.761 252.421 219.506 252.511 180.253C252.536 169.68 252.338 159.157 250.129 148.763C249.307 148.443 248.462 148.115 247.049 147.563C250.203 145.045 248.494 142.602 247.887 140.039C247.172 137.04 245.94 134.626 242.729 133.456C243.386 132.438 243.878 131.684 244.527 130.681C242.129 126.403 239.706 122.034 237.226 117.698C236.897 117.138 236.322 116.434 235.772 116.347C234.203 116.098 233.784 115.598 234.088 113.887C234.4 112.101 233.546 111.511 231.435 111.656C229.76 111.771 229.144 110.965 228.971 109.459C229.513 109.092 230.039 108.743 230.556 108.393C229.825 107.35 229.094 106.308 228.363 105.266C226.764 106.441 225.36 106.487 224.15 105.405C224.47 105.035 224.741 104.606 225.119 104.309C225.562 103.958 226.096 103.72 226.819 103.304C225.431 102.101 224.216 101.039 222.992 99.9772C222.655 99.6544 222.326 99.3316 221.998 99.0097C220.733 97.7538 219.476 96.498 218.22 95.2422C218.097 95.1338 217.982 95.0163 217.875 94.8874C216.38 92.2706 214.138 91.9552 211.247 93.2907C211.058 90.5301 211.197 87.7449 207.518 88.1761C207.138 88.2205 206.539 87.9076 206.321 87.5766C203.479 83.2621 198.761 82.0596 194.38 80.2921L194.366 80.2789C192.65 78.2059 190.459 78.8786 188.4 79.3607C187.603 78.3973 187.06 77.1086 186.164 76.7784C183.465 75.7846 180.667 74.8737 177.833 74.495C175.732 74.215 173.713 74.1337 171.796 73.0396C170.391 72.238 168.892 71.7361 167.6 73.631C166.648 75.0265 165.351 74.6881 164.372 73.4142C163.901 72.7999 163.524 72.1123 163.263 71.7042H159.014C157.832 72.9674 157.257 74.1469 156.461 74.3202C154.426 74.7645 155.317 72.4286 154.466 71.7296H148.382C148.616 72.4393 148.928 72.9164 148.865 73.3369C148.811 73.7033 148.388 74.2051 148.033 74.3046C145.627 74.9773 146.317 72.5912 145.512 71.6187C143.488 72.0516 140.932 71.8832 139.624 73.0791C138.333 74.2593 137.888 74.2503 136.526 73.6351C135.572 73.2055 134.227 73.2836 133.158 73.5464C130.538 74.1904 127.976 75.0724 125.673 75.7739C125.388 77.1537 125.173 78.1977 124.853 79.755C123.829 78.9936 123.279 78.3964 122.598 78.127C121.765 77.7961 120.671 77.3484 119.954 77.6285C116.276 79.0643 112.082 79.7993 110.399 84.1295C107.932 82.5607 106.237 83.543 104.684 85.1709L104.589 85.2571C103.976 85.4271 103.27 85.4559 102.764 85.7885C92.606 92.4759 83.7142 100.571 76.3147 110.218C73.4055 114.01 70.9553 118.154 68.6884 121.551C69.3726 122.982 70.1366 123.809 70.0363 124.513C69.73 126.658 67.371 124.921 66.0955 126.665C64.9431 129.335 63.547 132.569 62.1466 135.815C64.3861 136.672 65.0501 137.92 64.139 139.559C63.3037 138.956 62.4882 138.368 61.2546 137.477C61.5913 142.126 59.0813 145.594 58.237 149.359C59.3474 150.297 60.2304 151.043 61.9749 152.516C59.8221 152.762 58.7436 152.886 57.5576 153.022C57.1289 157.018 56.6683 161.317 56.2075 165.616C58.1737 159.636 61.4056 154.341 63.7826 148.961C63.2142 148.206 62.2837 147.46 62.4135 147.054C62.9686 145.323 64.2672 145.065 65.9814 146.062C66.4421 144.628 66.6589 143.123 67.385 141.928C68.0979 140.754 69.3701 139.933 70.3245 138.891C73.8497 135.035 77.1492 130.948 80.9125 127.344C84.0271 124.359 87.9753 122.27 90.5198 118.62C90.7793 118.249 91.2524 117.972 91.6844 117.786C93.093 117.183 94.6569 115.441 95.0709 114.078C95.2072 113.631 95.6245 113.269 95.9177 112.861C97.0741 113.629 97.9726 114.224 98.7924 114.769C100.716 113.771 102.513 112.977 104.159 111.943C105.615 111.029 107.334 110.909 108.801 109.703C110.082 108.648 112.396 108.854 114.252 108.491C114.405 108.461 114.531 108.303 114.684 108.263C117.162 107.617 119.641 106.981 121.864 106.408C122.678 105.452 123.37 104.639 124.301 103.547C125.541 105.249 126.496 106.315 128.728 105.346C130.908 104.401 133.41 103.844 136.053 104.773C137.464 105.269 139.372 104.998 140.845 104.477C142.218 103.99 143.192 104.282 144.495 104.525C146.963 104.986 149.707 106.509 152.133 103.593C154.112 106.384 156.738 107.304 159.856 106.904ZM58.1229 243.138C57.06 246.125 56.3814 249.171 56.3863 252.372C56.4101 268.291 56.3914 284.209 56.407 300.129C56.4078 301.385 56.5531 302.639 56.6516 304.226C59.0499 303.987 61.1255 303.634 63.2035 303.614C65.3891 303.593 67.5755 303.946 69.766 304.021C70.5439 304.047 71.3283 303.665 72.1192 303.601C72.8469 303.543 73.6156 303.552 74.3195 303.721C77.0907 304.388 79.7792 303.339 82.3992 303.349C85.0242 303.358 87.7667 304.468 90.4673 303.698C91.466 303.413 92.1214 303.371 93.1406 303.679C95.8347 304.499 98.5754 303.354 101.202 303.342C103.822 303.33 106.573 304.549 109.258 303.646C110.317 303.291 110.983 303.536 111.936 303.721C114.297 304.182 116.675 303.71 119.061 303.475C121.41 303.245 124.095 304.305 126.666 303.901C127.553 303.761 128.339 302.987 129.183 302.495C129.183 301.093 129.43 299.719 129.112 298.492C128.808 297.321 127.916 296.304 127.52 295.627C128.166 293.801 129.133 292.322 129.084 290.877C129.03 289.252 128.059 287.657 127.455 285.958C129.347 283.521 130.571 280.961 127.738 278.088C127.345 277.69 127.29 276.312 127.652 275.922C130.353 273.017 129.556 270.355 127.349 267.853C127.367 267.529 127.312 267.314 127.394 267.213C129.521 264.616 130.619 262.046 127.635 259.231C127.296 258.912 127.479 257.284 127.806 257.14C129.984 256.179 129.571 254.072 129.043 252.926C127.966 250.586 127.916 248.254 127.623 245.823C127.342 243.488 126.07 241.288 125.383 238.983C124.701 236.699 121.987 235.786 121.69 233.122C121.621 232.499 119.239 232.37 118.499 231.514C117.867 230.784 118.204 229.287 117.832 228.228C117.673 227.777 116.833 227.442 116.244 227.298C115.49 227.115 114.676 227.179 113.773 227.13C113.377 225.229 113.282 223.258 110.784 223.198C110.217 223.184 109.538 222.755 109.127 222.315C107.095 220.144 104.469 219.548 101.679 219.318L101.685 219.322C101.624 219.17 101.593 218.908 101.497 218.881C95.9833 217.355 90.4245 217.087 84.8476 218.462C83.6805 218.75 82.7514 219.285 83.7477 220.874C83.9974 221.272 83.0948 222.395 82.8049 223.009C80.2784 222.412 81.1795 220.886 81.5935 219.278C80.4535 219.731 79.5539 220.017 78.7178 220.432C76.533 221.516 74.2655 222.488 72.2417 223.825C70.3173 225.097 69.4491 227.643 66.8324 228.273C66.1686 228.433 65.7892 229.78 65.2831 230.583C64.9629 231.093 64.7599 231.744 64.3172 232.098C60.8651 234.87 59.2924 238.645 58.4423 242.828L58.1229 243.138ZM285.176 307H53.6341C53.5249 305.733 53.3227 304.484 53.3227 303.237C53.3113 250.176 53.2506 197.116 53.3853 144.056C53.4091 134.853 55.3276 125.838 57.6266 116.909C61.1033 103.41 67.5255 91.3449 75.2215 79.8904C77.0292 77.2014 79.2541 74.7654 81.471 72.3842C85.4545 68.1067 89.351 63.6912 93.8832 60.0082C99.1627 55.7176 104.489 51.3414 110.33 47.9173C121.096 41.6077 132.601 36.6237 144.861 34.1819C151.303 32.899 157.872 31.4337 164.619 31.8534C168.874 32.1187 173.159 31.8444 177.429 31.9306C184.893 32.0801 192.137 33.657 199.352 35.4328C208.364 37.6512 216.79 41.3317 224.922 45.7259C233.242 50.2219 241.086 55.3963 247.813 62.1248C250.211 64.5264 252.634 66.9083 255.016 69.3264C268.182 82.6863 276.601 98.8414 281.956 116.578C284.289 124.287 285.291 132.316 285.266 140.534C285.093 194.087 285.176 247.64 285.176 301.193V307Z" fill="#E04C2D"/>
<path d="M198.235 117.205C197.464 116.119 196.501 115.35 196.58 114.71C196.661 114.052 197.786 113.035 198.406 113.069C199.027 113.102 200.028 114.223 200.051 114.896C200.074 115.543 199.057 116.226 198.235 117.205Z" fill="#E04C2D"/>
<path d="M245.266 302.326C243.624 301.563 242.269 301.114 243.106 299.427C243.517 298.587 244.33 297.775 245.455 298.589C247.558 300.116 245.143 300.874 245.266 302.326Z" fill="#E04C2D"/>
<path d="M167.514 81.6613C167.136 82.4374 166.731 83.2662 166.18 84.3964C165.42 83.888 164.527 83.6005 164.272 83.0288C164.037 82.5032 164.278 81.497 164.681 81.0092C165.772 79.686 166.636 80.5984 167.514 81.6613Z" fill="#E04C2D"/>
<path d="M148.989 95.3374H153.63C154.11 96.9842 153.16 97.8605 152.066 97.8154C151.293 97.7841 150.563 96.6671 148.989 95.3374Z" fill="#E04C2D"/>
<path d="M231.879 270.003C229.458 268.388 229.343 266.92 231.534 265.598C231.64 266.937 231.731 268.073 231.879 270.003Z" fill="#E04C2D"/>
<path d="M225.25 117.795C225.127 115.458 225.07 114.306 225.02 113.229C226.827 112.604 227.682 113.611 227.682 114.659C227.682 115.411 226.581 116.163 225.25 117.795Z" fill="#E04C2D"/>
<path d="M224.963 190.867C224.963 189.612 224.799 188.936 225.012 188.408C225.226 187.857 225.809 187.448 226.236 186.97C227.589 188.407 227.164 189.706 224.963 190.867Z" fill="#E04C2D"/>
<path d="M249.307 182.264C249.899 183.175 250.515 183.711 250.572 184.306C250.704 185.494 249.825 186.065 248.79 185.707C248.281 185.528 247.689 184.622 247.722 184.079C247.747 183.562 248.544 183.088 249.307 182.264Z" fill="#E04C2D"/>
<path d="M237.34 133.283C236.421 133.863 235.879 134.465 235.279 134.527C234.088 134.648 233.529 133.766 233.899 132.736C234.08 132.221 234.991 131.631 235.533 131.669C236.051 131.707 236.519 132.506 237.34 133.283Z" fill="#E04C2D"/>
<path d="M237.34 179.754C236.38 180.274 235.731 180.917 235.222 180.822C234.671 180.719 233.932 179.972 233.85 179.418C233.669 178.245 234.556 177.672 235.608 177.986C236.166 178.153 236.552 178.915 237.34 179.754Z" fill="#E04C2D"/>
<path d="M217.546 112.701C218.425 114.653 218.162 115.814 216.479 116.502C215.444 115.214 215.799 113.948 217.546 112.701Z" fill="#E04C2D"/>
<path d="M232.601 146.824C232.33 147.195 232.1 147.846 231.772 147.897C230.926 148.03 230.031 147.9 229.152 147.875C229.185 147.436 229.045 146.881 229.258 146.579C229.957 145.614 230.794 144.804 231.977 146.033C232.199 146.263 232.371 146.533 232.601 146.824Z" fill="#E04C2D"/>
<path d="M103.224 91.6645C102.345 92.3216 101.839 92.9901 101.239 93.0878C100.048 93.2808 99.4567 92.411 99.7598 91.3638C99.9093 90.8439 100.778 90.2024 101.31 90.2131C101.846 90.2229 102.368 90.9729 103.224 91.6645Z" fill="#E04C2D"/>
<path d="M128.624 89.5766C129.376 90.3889 130.17 90.8635 130.198 91.3802C130.229 91.9305 129.649 92.8431 129.133 93.0254C128.092 93.3941 127.221 92.797 127.325 91.6274C127.379 91.032 128.02 90.4899 128.624 89.5766Z" fill="#E04C2D"/>
<path d="M240.174 219.472C242.433 221.015 241.776 222.14 239.78 223.315C238.236 222.03 238.351 220.871 240.174 219.472Z" fill="#E04C2D"/>
<path d="M145.486 91.8229C146.282 91.0574 146.745 90.2533 147.254 90.222C147.805 90.1883 148.723 90.7592 148.909 91.2734C149.284 92.305 148.706 93.1904 147.532 93.0984C146.94 93.0524 146.396 92.4167 145.486 91.8229Z" fill="#E04C2D"/>
<path d="M244.273 187.057C245.784 187.946 246.244 189.072 245.119 190.59C243.263 189.618 242.981 188.44 244.273 187.057Z" fill="#E04C2D"/>
<path d="M82.6495 117.201C83.2433 118.121 83.8569 118.662 83.9243 119.263C84.0598 120.472 83.1538 120.996 82.137 120.645C81.6253 120.469 81.039 119.564 81.0718 119.024C81.1038 118.503 81.889 118.03 82.6495 117.201Z" fill="#E04C2D"/>
<path d="M246.367 179.481C245.472 180.961 244.355 181.478 242.844 180.3C243.824 178.42 244.998 178.147 246.367 179.481Z" fill="#E04C2D"/>
<path d="M156.186 93.6668C155.605 92.7313 154.992 92.1761 154.942 91.574C154.84 90.3642 155.769 89.8549 156.778 90.2122C157.282 90.3912 157.853 91.3218 157.803 91.8574C157.753 92.3888 156.961 92.8496 156.186 93.6668Z" fill="#E04C2D"/>
<path d="M174.929 93.6586C174.344 92.7346 173.72 92.1826 173.673 91.5847C173.577 90.3954 174.483 89.8524 175.502 90.2196C176.011 90.4036 176.585 91.326 176.54 91.8648C176.496 92.3904 175.699 92.852 174.929 93.6586Z" fill="#E04C2D"/>
<path d="M223.526 138.179C222.597 138.764 222.039 139.384 221.448 139.431C220.249 139.525 219.723 138.605 220.084 137.596C220.265 137.093 221.193 136.53 221.735 136.576C222.261 136.622 222.721 137.412 223.526 138.179Z" fill="#E04C2D"/>
<path d="M202.847 89.5626C203.486 90.4423 204.21 91.0016 204.185 91.524C204.158 92.0734 203.497 92.9161 202.967 93.05C201.882 93.3235 201.09 92.6484 201.336 91.4821C201.461 90.8956 202.139 90.4267 202.847 89.5626Z" fill="#E04C2D"/>
<path d="M232.61 137.969C231.323 139.087 230.053 138.837 228.799 137.218C230.433 135.947 231.608 136.297 232.61 137.969Z" fill="#E04C2D"/>
<path d="M237.341 170.618C236.437 171.244 235.912 171.891 235.312 171.962C234.129 172.105 233.554 171.215 233.891 170.186C234.055 169.673 234.959 169.082 235.501 169.102C236.018 169.122 236.511 169.893 237.341 170.618Z" fill="#E04C2D"/>
<path d="M249.308 232.7C248.544 231.873 247.747 231.396 247.714 230.872C247.681 230.333 248.281 229.434 248.807 229.252C249.842 228.887 250.712 229.463 250.581 230.651C250.515 231.249 249.899 231.786 249.308 232.7Z" fill="#E04C2D"/>
<path d="M217.259 144.524C215.693 143.188 215.493 141.916 216.659 140.708C218.105 141.619 218.68 142.723 217.259 144.524Z" fill="#E04C2D"/>
<path d="M246.466 235.543C244.938 237.765 243.813 237.127 242.638 235.133C243.92 233.611 245.069 233.699 246.466 235.543Z" fill="#E04C2D"/>
<path d="M242.638 141.991C244.577 140.865 245.62 141.481 246.425 142.929C245.1 143.975 243.837 143.662 242.638 141.991Z" fill="#E04C2D"/>
<path d="M196.223 95.5518C198.176 94.7042 199.344 94.9407 200.027 96.6327C198.734 97.6419 197.466 97.2816 196.223 95.5518Z" fill="#E04C2D"/>
<path d="M101.182 102.765C100.759 102.462 100.621 102.376 100.498 102.273C99.4633 101.4 99.3081 100.348 100.201 99.3726C100.404 99.1509 101.412 99.3619 101.809 99.6765C103.353 100.902 102.517 101.847 101.182 102.765Z" fill="#E04C2D"/>
<path d="M233.053 240.162C231.476 240.557 230.409 240.827 228.667 241.264C229.111 239.999 229.176 239.375 229.505 238.968C230.696 237.498 231.673 238.144 233.053 240.162Z" fill="#E04C2D"/>
<path d="M237.34 244.63C236.437 245.238 235.903 245.875 235.304 245.939C234.121 246.068 233.546 245.184 233.891 244.149C234.064 243.633 234.975 243.037 235.517 243.067C236.035 243.094 236.519 243.882 237.34 244.63Z" fill="#E04C2D"/>
<path d="M110.876 98.9604C112.064 100.72 111.641 101.817 110.308 102.506C110.043 102.643 109.095 102.088 108.921 101.663C108.237 99.9952 109.48 99.5345 110.876 98.9604Z" fill="#E04C2D"/>
<path d="M120.054 102.822C118.309 101.786 117.838 100.668 119.004 99.1599C120.671 100.04 121.021 101.261 120.054 102.822Z" fill="#E04C2D"/>
<path d="M146.596 98.8798C148.304 100.148 148.635 101.422 147.59 102.702C145.969 101.96 145.629 100.817 146.596 98.8798Z" fill="#E04C2D"/>
<path d="M229.004 248.484C230.507 247.321 231.632 247.78 232.536 249.274C231.178 250.589 230 250.325 229.004 248.484Z" fill="#E04C2D"/>
<path d="M156.358 102.72C155.132 101.874 154.224 100.955 155.771 99.6988C156.17 99.3751 157.23 99.1509 157.377 99.3447C158.525 100.857 157.892 101.949 156.358 102.72Z" fill="#E04C2D"/>
<path d="M244.1 255.654C243.115 254.167 243.421 252.939 245.02 251.968C246.285 253.415 245.8 254.517 244.1 255.654Z" fill="#E04C2D"/>
<path d="M164.028 100.531C165.302 99.4334 166.561 99.6678 167.805 101.234C166.192 102.587 165.03 102.194 164.028 100.531Z" fill="#E04C2D"/>
<path d="M220.873 145.13C221.637 145.841 222.556 146.335 222.827 147.069C223.008 147.549 222.261 148.376 221.842 149.211C219.936 148.211 219.402 147.128 220.873 145.13Z" fill="#E04C2D"/>
<path d="M193.859 102.737C192.406 101.868 191.763 100.785 192.894 99.2068C194.827 100.077 195.148 101.254 193.859 102.737Z" fill="#E04C2D"/>
<path d="M203.66 99.1599C204.833 100.67 204.339 101.784 202.855 102.684C201.522 101.314 201.79 100.139 203.66 99.1599Z" fill="#E04C2D"/>
<path d="M232.601 258.289C231.723 259.726 230.638 260.388 229.061 259.238C229.949 257.299 231.129 256.983 232.601 258.289Z" fill="#E04C2D"/>
<path d="M235.32 261.14C235.977 262.004 236.643 262.493 236.749 263.082C236.955 264.251 236.15 264.905 235.074 264.597C234.548 264.448 233.899 263.591 233.899 263.048C233.891 262.526 234.638 261.995 235.32 261.14Z" fill="#E04C2D"/>
<path d="M235.098 214.807C235.862 215.612 236.659 216.077 236.692 216.59C236.725 217.137 236.15 218.049 235.64 218.233C234.606 218.602 233.727 218.035 233.833 216.854C233.883 216.262 234.507 215.722 235.098 214.807Z" fill="#E04C2D"/>
<path d="M230.893 218.709C231.386 220.647 231.657 221.717 232.109 223.467C230.827 223.017 230.146 222.978 229.809 222.619C228.79 221.554 228.84 221.506 230.893 218.709Z" fill="#E04C2D"/>
<path d="M228.667 212.7C230.042 211.062 231.339 210.827 232.56 211.997C231.682 213.544 230.515 213.884 228.667 212.7Z" fill="#E04C2D"/>
<path d="M89.4182 105.621C88.4918 106.217 87.9489 106.834 87.346 106.9C86.1338 107.035 85.6138 106.122 85.9612 105.106C86.1362 104.596 87.0462 104.01 87.5851 104.046C88.1115 104.081 88.5879 104.863 89.4182 105.621Z" fill="#E04C2D"/>
<path d="M237.275 272.766C236.24 273.12 235.501 273.643 235 273.472C234.482 273.298 233.883 272.453 233.875 271.888C233.842 270.626 234.901 270.333 235.829 270.726C236.363 270.951 236.634 271.807 237.275 272.766Z" fill="#E04C2D"/>
<path d="M246.375 272.008C245.661 273.706 244.47 273.883 242.909 273.258C243.692 271.176 244.848 270.76 246.375 272.008Z" fill="#E04C2D"/>
<path d="M96.6846 107.478C95.8165 106.697 95.0412 106.329 94.8597 105.769C94.5164 104.706 95.1159 103.837 96.2723 103.982C96.8202 104.051 97.5767 104.785 97.6884 105.331C97.7936 105.844 97.175 106.505 96.6846 107.478Z" fill="#E04C2D"/>
<path d="M234.934 223.712C235.78 224.495 236.528 224.871 236.708 225.429C237.037 226.484 236.478 227.364 235.304 227.197C234.754 227.119 233.99 226.394 233.883 225.854C233.784 225.34 234.425 224.685 234.934 223.712Z" fill="#E04C2D"/>
<path d="M114.647 107.474C114.124 106.51 113.478 105.86 113.574 105.35C113.678 104.803 114.431 104.066 114.986 103.984C116.164 103.808 116.721 104.704 116.407 105.752C116.24 106.31 115.481 106.691 114.647 107.474Z" fill="#E04C2D"/>
<path d="M228.733 276.029C230.688 275.142 231.854 275.405 232.56 277.088C231.263 278.15 229.987 277.797 228.733 276.029Z" fill="#E04C2D"/>
<path d="M159.856 106.904C159.859 106.279 159.639 105.509 159.924 105.065C160.257 104.547 161.007 104.117 161.625 104.037C161.966 103.993 162.773 104.793 162.728 105.129C162.649 105.75 162.221 106.502 161.703 106.837C161.26 107.124 160.49 106.907 159.865 106.913L159.856 106.904Z" fill="#E04C2D"/>
<path d="M219.435 119.464C220.257 118.689 220.725 117.891 221.25 117.857C221.793 117.821 222.704 118.408 222.885 118.925C223.263 119.967 222.671 120.827 221.489 120.711C220.897 120.654 220.355 120.046 219.435 119.464Z" fill="#E04C2D"/>
<path d="M232.626 119.243C232.322 119.666 232.232 119.803 232.133 119.925C231.263 120.951 230.211 121.114 229.234 120.224C229.012 120.024 229.226 119.014 229.546 118.618C230.77 117.081 231.715 117.91 232.626 119.243Z" fill="#E04C2D"/>
<path d="M235.082 292.849C234.499 291.922 233.883 291.374 233.833 290.776C233.727 289.576 234.63 289.046 235.649 289.412C236.158 289.596 236.733 290.516 236.683 291.056C236.642 291.578 235.854 292.04 235.082 292.849Z" fill="#E04C2D"/>
<path d="M189.133 103.392C189.736 104.304 190.365 104.842 190.426 105.438C190.55 106.626 189.663 107.19 188.634 106.837C188.121 106.661 187.536 105.755 187.565 105.21C187.592 104.693 188.378 104.216 189.133 103.392Z" fill="#E04C2D"/>
<path d="M235.09 153.81C234.499 152.89 233.883 152.345 233.833 151.751C233.727 150.565 234.622 150.016 235.649 150.384C236.158 150.568 236.725 151.484 236.684 152.029C236.651 152.542 235.854 153.003 235.09 153.81Z" fill="#E04C2D"/>
<path d="M207.812 103.394C208.429 104.297 209.078 104.827 209.144 105.423C209.275 106.607 208.388 107.177 207.358 106.842C206.846 106.675 206.252 105.77 206.277 105.228C206.303 104.706 207.079 104.219 207.812 103.394Z" fill="#E04C2D"/>
<path d="M79.8546 124.246C78.3417 125.28 77.1127 124.971 76.1676 123.318C77.6378 122.048 78.7408 122.572 79.8546 124.246Z" fill="#E04C2D"/>
<path d="M228.987 166.453C229.935 164.786 231.148 164.451 232.626 165.446C231.747 167.1 230.688 167.7 228.987 166.453Z" fill="#E04C2D"/>
<path d="M224.092 124.272C225.168 122.584 226.269 122.053 227.764 123.298C226.844 124.982 225.62 125.307 224.092 124.272Z" fill="#E04C2D"/>
<path d="M235.468 122.103C236.067 123.013 236.7 123.546 236.766 124.141C236.889 125.322 236.026 125.916 234.983 125.565C234.466 125.392 233.883 124.481 233.907 123.932C233.932 123.413 234.72 122.931 235.468 122.103Z" fill="#E04C2D"/>
<path d="M137.696 80.5114C139.164 81.359 139.766 82.444 138.693 84.0177C136.775 83.169 136.443 82.0002 137.696 80.5114Z" fill="#E04C2D"/>
<path d="M231.287 177.02C229.595 175.762 229.272 174.498 230.318 173.226C231.912 173.974 232.33 175.092 231.287 177.02Z" fill="#E04C2D"/>
<path d="M235.468 196.07C236.076 196.987 236.7 197.526 236.765 198.126C236.897 199.321 236.002 199.877 234.975 199.528C234.466 199.355 233.874 198.446 233.907 197.906C233.94 197.379 234.72 196.899 235.468 196.07Z" fill="#E04C2D"/>
<path d="M154.565 88.5318C152.396 87.9823 151.324 87.7105 150.025 87.3811C151.415 85.7111 152.928 86.0946 154.565 88.5318Z" fill="#E04C2D"/>
<path d="M70.6391 133.729C69.5977 134.09 68.8601 134.616 68.3475 134.449C67.8342 134.281 67.2372 133.431 67.2232 132.866C67.1921 131.618 68.227 131.282 69.1797 131.688C69.7152 131.915 69.9845 132.768 70.6391 133.729Z" fill="#E04C2D"/>
<path d="M224.183 133.053C225.453 131.948 226.715 132.194 227.969 133.791C226.343 135.096 225.177 134.734 224.183 133.053Z" fill="#E04C2D"/>
<path d="M232.61 184.314C231.328 185.425 230.058 185.175 228.799 183.565C230.433 182.289 231.608 182.656 232.61 184.314Z" fill="#E04C2D"/>
<path d="M246.548 207.084C245.915 207.576 245.382 208.203 244.708 208.453C244.207 208.638 243.534 208.331 242.876 208.235C243.687 206.154 244.911 205.771 246.548 207.084Z" fill="#E04C2D"/>
<path d="M232.618 156.716C231.304 157.795 230.047 157.525 228.848 155.907C230.499 154.644 231.64 155.082 232.618 156.716Z" fill="#E04C2D"/>
<path d="M78.4426 112.966C79.6154 114.475 79.1349 115.593 77.6385 116.489C76.3276 115.132 76.5956 113.958 78.4426 112.966Z" fill="#E04C2D"/>
<path d="M249.915 210.036C250.441 212.428 249.548 213.279 247.238 212.587C248.19 211.681 248.946 210.96 249.915 210.036Z" fill="#E04C2D"/>
<path d="M246.367 216.931C245.382 218.502 244.306 218.893 243.09 217.157C244.076 215.804 245.168 215.728 246.367 216.931Z" fill="#E04C2D"/>
<path d="M249.127 223.071C247.295 221.948 247.082 220.808 249.07 219.535C251.024 220.617 251.147 221.761 249.127 223.071Z" fill="#E04C2D"/>
<path d="M242.893 225.718C244.092 223.847 245.258 223.777 246.4 225.765C245.184 227.757 244.026 227.68 242.893 225.718Z" fill="#E04C2D"/>
<path d="M135.939 77.162C134.558 78.2478 133.799 78.8449 132.918 79.5365C132.36 77.2838 133.367 76.4923 135.939 77.162Z" fill="#E04C2D"/>
<path d="M144.725 78.3151C143.716 78.7841 142.932 79.3245 142.785 79.1866C142.167 78.6066 141.739 77.824 141.241 77.1152C141.739 76.8433 142.412 76.224 142.698 76.3694C143.358 76.7028 143.83 77.4083 144.725 78.3151Z" fill="#E04C2D"/>
<path d="M149.284 77.0683C151.897 76.5048 152.869 77.3289 152.2 79.5405C151.354 78.8227 150.622 78.2034 149.284 77.0683Z" fill="#E04C2D"/>
<path d="M159.25 77.5784C160.282 77.0478 160.948 76.5468 161.682 76.4104C161.954 76.3603 162.385 77.166 162.743 77.5816C162.066 78.127 161.421 78.7282 160.675 79.1537C160.575 79.2112 159.971 78.3866 159.25 77.5784Z" fill="#E04C2D"/>
<path d="M172.22 77.3862C171.607 78.2683 171.071 79.1586 170.999 79.1225C170.23 78.7364 169.535 78.2042 168.818 77.7122C169.14 77.2629 169.499 76.417 169.775 76.4433C170.505 76.5115 171.2 76.9591 172.22 77.3862Z" fill="#E04C2D"/>
<path d="M181.91 77.0601C180.983 78.0054 180.248 78.757 179.307 79.7171C178.726 77.3582 179.594 76.4725 181.91 77.0601Z" fill="#E04C2D"/>
<path d="M232.593 230.582C231.501 232.627 230.351 232.552 229.053 230.736C230.154 228.74 231.295 228.669 232.593 230.582Z" fill="#E04C2D"/>
<path d="M238.137 230.437C239.164 229.901 239.821 229.397 240.552 229.261C240.823 229.21 241.258 230.016 241.62 230.431C240.946 230.975 240.306 231.575 239.566 231.998C239.46 232.057 238.86 231.238 238.137 230.437Z" fill="#E04C2D"/>
<path d="M119.926 80.4892C121.926 81.9019 121.566 82.9795 119.954 84.0045C118.013 82.9541 117.825 81.8312 119.926 80.4892Z" fill="#E04C2D"/>
<path d="M128.691 80.426C130.562 81.5849 130.831 82.6666 129.093 83.8535C127.884 82.9335 127.75 81.7911 128.691 80.426Z" fill="#E04C2D"/>
<path d="M147.514 80.4802C148.884 81.3952 149.659 82.3454 148.142 83.5389C147.855 83.7647 146.963 83.6243 146.645 83.3319C145.415 82.2009 146.24 81.3927 147.514 80.4802Z" fill="#E04C2D"/>
<path d="M156.41 84.0645C154.382 82.6551 154.671 81.575 156.38 80.5171C158.346 81.575 158.365 82.7077 156.41 84.0645Z" fill="#E04C2D"/>
<path d="M175.034 80.4276C176.913 81.5841 177.189 82.6657 175.438 83.8542C174.221 82.9338 174.086 81.7915 175.034 80.4276Z" fill="#E04C2D"/>
<path d="M194.38 80.2921C194.856 81.5134 196.383 82.8021 194.067 83.7853C192.702 82.746 192.802 81.5772 194.366 80.2789L194.38 80.2921Z" fill="#E04C2D"/>
<path d="M185.07 85.1027C183.743 83.6127 183.085 82.8744 181.814 81.4469C183.559 81.5529 184.674 81.3064 185.149 81.7482C185.535 82.1072 185.156 83.2908 185.07 85.1027Z" fill="#E04C2D"/>
<path d="M104.684 85.1709C105.631 85.5626 106.578 85.9552 107.625 86.3889C106.673 87.7613 106.062 88.7495 104.634 87.7548C103.387 86.8867 104.417 86.0891 104.589 85.2571L104.684 85.1709Z" fill="#E04C2D"/>
<path d="M239.558 238.12C240.782 238.466 241.932 238.971 241.357 240.533C241.234 240.862 239.755 241.129 239.336 240.824C238.293 240.054 238.351 239.009 239.558 238.12Z" fill="#E04C2D"/>
<path d="M122.276 87.3023C122.821 86.5943 123.367 85.8847 124.354 84.6017C124.796 85.8946 125.471 86.8374 125.231 87.3655C124.594 88.775 123.503 88.4456 122.276 87.3023Z" fill="#E04C2D"/>
<path d="M135.607 87.4715C133.248 88.0536 132.37 87.1791 132.973 84.8481C133.913 85.7844 134.66 86.527 135.607 87.4715Z" fill="#E04C2D"/>
<path d="M143.027 88.7084C142.145 88.0867 141.256 87.5486 141.294 87.4731C141.678 86.701 142.214 86.0037 142.709 85.2859C143.159 85.6111 144.009 85.9734 143.982 86.2526C143.912 86.9852 143.459 87.6817 143.027 88.7084Z" fill="#E04C2D"/>
<path d="M246.4 244.421C245.308 246.405 244.166 246.504 242.901 244.507C243.994 242.525 245.135 242.423 246.4 244.421Z" fill="#E04C2D"/>
<path d="M160.63 84.8431C161.549 85.7844 162.279 86.5319 163.214 87.4879C160.829 88.0557 159.968 87.1741 160.63 84.8431Z" fill="#E04C2D"/>
<path d="M170.877 84.6468C171.872 86.6213 172.231 87.7302 170.694 88.1064C170.181 88.2321 169.478 87.584 168.862 87.2899C169.429 86.545 169.997 85.8008 170.877 84.6468Z" fill="#E04C2D"/>
<path d="M179.473 85.0904C180.174 85.6357 180.876 86.1827 182.146 87.1724C180.867 87.6135 179.922 88.2927 179.397 88.0529C177.995 87.4114 178.322 86.3191 179.473 85.0904Z" fill="#E04C2D"/>
<path d="M186.938 87.3967C187.929 86.4654 188.503 85.8082 189.211 85.3622C189.348 85.276 190.25 85.9463 190.374 86.3873C190.676 87.4624 190.183 88.2493 188.972 88.2C188.457 88.1787 187.956 87.8148 186.938 87.3967Z" fill="#E04C2D"/>
<path d="M242.219 248.713C241.217 249.631 240.642 250.276 239.928 250.71C239.788 250.795 238.909 250.119 238.786 249.678C238.491 248.604 238.983 247.823 240.199 247.889C240.708 247.917 241.201 248.282 242.219 248.713Z" fill="#E04C2D"/>
<path d="M249.488 247.371C249.94 248.392 250.4 249.078 250.482 249.806C250.515 250.088 249.685 250.467 249.242 250.803C248.741 250.096 248.19 249.412 247.796 248.649C247.755 248.567 248.626 248.018 249.488 247.371Z" fill="#E04C2D"/>
<path d="M196.542 86.6845C197.754 84.834 198.923 84.7445 200.066 86.7412C198.841 88.7486 197.676 88.6245 196.542 86.6845Z" fill="#E04C2D"/>
<path d="M110.496 89.6086C110.937 90.6525 111.392 91.3556 111.465 92.0965C111.493 92.3799 110.65 92.7502 110.204 93.0812C109.71 92.3634 109.161 91.671 108.788 90.8948C108.742 90.7979 109.627 90.2542 110.496 89.6086Z" fill="#E04C2D"/>
<path d="M117.599 91.7276C118.779 89.8681 119.869 89.5897 121.058 91.3317C120.124 92.5424 118.971 92.6744 117.599 91.7276Z" fill="#E04C2D"/>
<path d="M164.013 91.6668C165.103 89.6825 166.248 89.57 167.526 91.5782C166.435 93.5338 165.292 93.6767 164.013 91.6668Z" fill="#E04C2D"/>
<path d="M235.402 255.665C233.554 254.493 233.291 253.406 235.008 252.219C236.207 253.146 236.339 254.295 235.402 255.665Z" fill="#E04C2D"/>
<path d="M182.711 91.6858C183.82 89.7614 184.959 89.565 186.253 91.5608C185.164 93.5879 184.014 93.5724 182.711 91.6858Z" fill="#E04C2D"/>
<path d="M192.64 94.006C192.66 91.387 193.688 90.353 195.725 90.9038C194.792 91.8418 194.048 92.5908 192.64 94.006Z" fill="#E04C2D"/>
<path d="M107.664 95.8129C107.024 97.2174 106.536 98.3919 105.092 97.6552C104.739 97.4745 104.497 96.3739 104.705 95.9304C105.383 94.484 106.44 94.856 107.664 95.8129Z" fill="#E04C2D"/>
<path d="M125.073 99.0671C123.596 97.4253 122.936 96.691 121.654 95.266C123.401 95.3678 124.501 95.1214 124.991 95.5575C125.393 95.9173 125.073 97.0868 125.073 99.0671Z" fill="#E04C2D"/>
<path d="M135.601 95.8129C134.64 96.7411 133.886 97.468 132.937 98.3821C132.365 96.0539 133.253 95.1975 135.601 95.8129Z" fill="#E04C2D"/>
<path d="M163.23 95.7153C162.281 96.6845 161.543 97.4376 160.622 98.378C159.974 96.0942 160.843 95.2066 163.23 95.7153Z" fill="#E04C2D"/>
<path d="M171.316 98.6819C170.04 97.4787 169.324 96.8036 167.813 95.3802C169.686 95.3802 170.886 95.0606 171.218 95.4614C171.628 95.9559 171.316 97.0491 171.316 98.6819Z" fill="#E04C2D"/>
<path d="M179.181 97.9231C178.724 96.0756 179.459 95.2775 181.386 95.5288C181.487 97.1157 180.676 97.8064 179.181 97.9231Z" fill="#E04C2D"/>
<path d="M218.22 95.2422C218.055 96.1366 217.899 97.0302 217.604 98.6622C216.388 97.4582 215.641 96.7124 214.401 95.4819C216.084 95.1945 216.979 95.041 217.875 94.8874C217.982 95.0163 218.097 95.1338 218.22 95.2422Z" fill="#E04C2D"/>
<path d="M242.129 259.076C239.714 259.596 238.814 258.843 239.427 256.817C239.854 256.951 240.363 256.979 240.675 257.241C241.119 257.61 241.423 258.151 242.129 259.076Z" fill="#E04C2D"/>
<path d="M249.505 260.289C248.642 259.642 247.763 259.095 247.813 259.002C248.19 258.237 248.733 257.555 249.234 256.849C249.677 257.175 250.515 257.547 250.482 257.82C250.4 258.556 249.948 259.252 249.505 260.289Z" fill="#E04C2D"/>
<path d="M93.5654 100.423C92.5206 102.433 91.4028 102.545 90.0722 100.588C91.1515 98.6966 92.2701 98.6038 93.5654 100.423Z" fill="#E04C2D"/>
<path d="M128.782 99.1632C130.82 100.571 130.565 101.655 128.84 102.724C126.934 101.673 126.821 100.547 128.782 99.1632Z" fill="#E04C2D"/>
<path d="M175.133 99.1665C177.111 100.503 176.967 101.598 175.157 102.743C173.408 101.691 173.041 100.596 175.133 99.1665Z" fill="#E04C2D"/>
<path d="M184.848 99.0655C185.655 100.175 186.147 101.235 184.514 101.936C184.087 102.119 182.986 101.808 182.89 101.504C182.402 99.9566 183.441 99.3981 184.848 99.0655Z" fill="#E04C2D"/>
<path d="M246.367 263.278C245.373 264.854 244.306 265.246 243.082 263.502C244.073 262.141 245.168 262.067 246.367 263.278Z" fill="#E04C2D"/>
<path d="M221.973 99.0335C222.294 99.3669 222.614 99.6996 222.934 100.033C222.597 100.984 222.261 101.936 221.834 103.153C220.476 101.605 220.522 100.232 221.973 99.0335Z" fill="#E04C2D"/>
<path d="M103.889 105.383C105.157 103.432 106.293 103.521 107.378 105.479C106.101 107.46 104.965 107.349 103.889 105.383Z" fill="#E04C2D"/>
<path d="M168.385 106.099C169.327 105.192 170.079 104.466 171.052 103.529C171.559 105.922 170.67 106.778 168.385 106.099Z" fill="#E04C2D"/>
<path d="M200.067 105.478C198.797 107.445 197.652 107.354 196.555 105.388C197.825 103.437 198.972 103.52 200.067 105.478Z" fill="#E04C2D"/>
<path d="M84.5626 110.853C83.5523 111.315 82.767 111.85 82.6225 111.711C82.0082 111.126 81.5836 110.342 81.0899 109.63C81.5893 109.365 82.2636 108.757 82.5535 108.905C83.2081 109.238 83.6739 109.944 84.5626 110.853Z" fill="#E04C2D"/>
<path d="M240.199 265.836C242.244 267.267 241.874 268.346 240.265 269.38C238.277 268.334 238.203 267.204 240.199 265.836Z" fill="#E04C2D"/>
<path d="M249.102 265.859C251.123 267.186 250.885 268.267 249.102 269.417C247.484 268.345 246.967 267.269 249.102 265.859Z" fill="#E04C2D"/>
<path d="M100.437 112.561C99.8792 109.949 100.702 108.977 102.906 109.646C102.19 110.491 101.572 111.221 100.437 112.561Z" fill="#E04C2D"/>
<path d="M184.763 112.217C183.837 111.267 183.105 110.516 182.178 109.565C184.523 109 185.385 109.884 184.763 112.217Z" fill="#E04C2D"/>
<path d="M193.664 108.267C194.446 109.015 195.241 109.624 195.175 109.74C194.757 110.471 194.148 111.093 193.603 111.751C193.199 111.384 192.415 110.944 192.469 110.665C192.609 109.943 193.118 109.292 193.664 108.267Z" fill="#E04C2D"/>
<path d="M204.866 110.853C203.859 111.313 203.077 111.845 202.933 111.708C202.32 111.124 201.896 110.341 201.404 109.63C201.904 109.365 202.579 108.757 202.868 108.904C203.521 109.238 203.983 109.945 204.866 110.853Z" fill="#E04C2D"/>
<path d="M219.435 110.067C220.47 109.558 221.135 109.069 221.875 108.948C222.146 108.903 222.565 109.714 222.918 110.135C222.236 110.666 221.579 111.255 220.832 111.663C220.725 111.72 220.142 110.885 219.435 110.067Z" fill="#E04C2D"/>
<path d="M87.3518 112.986C89.406 114.411 89.0675 115.494 87.4323 116.534C85.4462 115.493 85.3716 114.361 87.3518 112.986Z" fill="#E04C2D"/>
<path d="M188.967 116.586C187.589 115.651 186.775 114.705 188.329 113.509C188.622 113.284 189.515 113.43 189.837 113.726C191.087 114.875 190.198 115.669 188.967 116.586Z" fill="#E04C2D"/>
<path d="M207.638 116.543C205.651 115.276 205.727 114.131 207.721 113.039C209.678 114.301 209.604 115.446 207.638 116.543Z" fill="#E04C2D"/>
<path d="M75.6444 119.756C73.7546 120.941 72.6754 121.222 72.1826 119.796C72.0093 119.294 72.6194 118.522 72.8724 117.873C73.6551 118.404 74.4371 118.936 75.6444 119.756Z" fill="#E04C2D"/>
<path d="M193.615 117.299C194.319 118.394 194.778 119.11 195.237 119.825C194.62 120.117 193.895 120.755 193.417 120.604C192.946 120.457 192.544 119.533 192.465 118.906C192.417 118.526 193.04 118.062 193.615 117.299Z" fill="#E04C2D"/>
<path d="M200.899 119.927C201.846 119.01 202.598 118.283 203.56 117.35C204.098 119.721 203.211 120.58 200.899 119.927Z" fill="#E04C2D"/>
<path d="M196.535 124.163C197.727 122.148 198.903 122.181 200.08 124.147C198.894 126.127 197.716 126.094 196.535 124.163Z" fill="#E04C2D"/>
<path d="M207.462 126.101C206.875 125.355 206.231 124.894 206.273 124.508C206.343 123.877 206.748 122.937 207.218 122.79C207.709 122.637 208.446 123.268 209.07 123.556C208.61 124.282 208.15 125.008 207.462 126.101Z" fill="#E04C2D"/>
<path d="M216.848 126.129C216.134 125.029 215.674 124.311 215.205 123.592C215.821 123.29 216.544 122.639 217.029 122.783C217.497 122.924 217.908 123.857 217.99 124.487C218.031 124.876 217.415 125.35 216.848 126.129Z" fill="#E04C2D"/>
<path d="M242.219 276.37C241.217 277.284 240.626 277.928 239.92 278.36C239.78 278.443 238.893 277.759 238.778 277.318C238.499 276.251 238.967 275.439 240.191 275.502C240.708 275.529 241.201 275.918 242.219 276.37Z" fill="#E04C2D"/>
<path d="M246.876 276.275C249.499 275.685 250.477 276.503 249.809 278.727C248.954 278.016 248.223 277.402 246.876 276.275Z" fill="#E04C2D"/>
<path d="M245.152 284.188C243.903 282.798 243.246 282.063 242.466 281.198C244.503 280.611 245.398 281.608 245.152 284.188Z" fill="#E04C2D"/>
<path d="M231.139 284.016C231.731 286.362 230.855 287.24 228.511 286.65C229.456 285.706 230.203 284.959 231.139 284.016Z" fill="#E04C2D"/>
<path d="M242.145 286.145C241.39 286.717 240.93 287.343 240.544 287.298C239.92 287.225 238.975 286.824 238.835 286.363C238.696 285.865 239.32 285.139 239.616 284.514C240.33 284.977 241.053 285.439 242.145 286.145Z" fill="#E04C2D"/>
<path d="M247.221 286.609C248.182 285.681 248.93 284.953 249.883 284.032C250.457 286.383 249.57 287.242 247.221 286.609Z" fill="#E04C2D"/>
<path d="M221.374 126.775C223.222 127.92 223.55 128.992 221.784 130.182C220.569 129.271 220.432 128.135 221.374 126.775Z" fill="#E04C2D"/>
<path d="M209.924 133.779C207.291 134.368 206.304 133.557 206.964 131.345C207.816 132.046 208.552 132.654 209.924 133.779Z" fill="#E04C2D"/>
<path d="M217.3 130.823C217.886 133.446 217.073 134.422 214.86 133.753C215.567 132.907 216.174 132.173 217.3 130.823Z" fill="#E04C2D"/>
<path d="M242.228 137.331C241.217 138.248 240.634 138.892 239.92 139.324C239.78 139.408 238.893 138.73 238.778 138.292C238.499 137.227 238.975 136.416 240.199 136.477C240.708 136.502 241.201 136.884 242.228 137.331Z" fill="#E04C2D"/>
<path d="M235.312 140.658C237.25 141.852 237.259 143.027 235.287 144.195C233.333 142.997 233.349 141.822 235.312 140.658Z" fill="#E04C2D"/>
<path d="M225.538 145.213C225.176 142.626 226.036 141.581 228.117 142.078C227.378 142.979 226.745 143.743 225.538 145.213Z" fill="#E04C2D"/>
<path d="M239.55 144.658C240.634 146.037 241.234 146.795 241.924 147.676C239.679 148.222 238.888 147.216 239.55 144.658Z" fill="#E04C2D"/>
<path d="M224.076 151.655C225.395 150.801 226.608 150.83 227.714 151.741C226.614 153.623 225.489 153.801 224.076 151.655Z" fill="#E04C2D"/>
<path d="M242.876 290.817C244.215 288.798 245.299 289.04 246.408 290.79C245.365 292.539 244.281 292.936 242.876 290.817Z" fill="#E04C2D"/>
<path d="M246.441 151.757C245.505 153.155 244.56 153.953 243.377 152.399C243.156 152.107 243.304 151.218 243.599 150.897C244.749 149.654 245.538 150.551 246.441 151.757Z" fill="#E04C2D"/>
<path d="M223.468 156.402C222.367 157.123 221.653 157.594 220.938 158.063C220.634 157.45 219.969 156.727 220.117 156.253C220.265 155.774 221.185 155.356 221.817 155.27C222.203 155.217 222.688 155.837 223.468 156.402Z" fill="#E04C2D"/>
<path d="M242.219 156.044C241.218 156.957 240.634 157.602 239.92 158.037C239.788 158.12 238.901 157.438 238.786 156.996C238.491 155.923 238.983 155.13 240.191 155.193C240.708 155.219 241.201 155.6 242.219 156.044Z" fill="#E04C2D"/>
<path d="M249.496 154.669C249.94 155.7 250.408 156.393 250.482 157.126C250.515 157.415 249.677 157.795 249.242 158.132C248.733 157.421 248.182 156.734 247.805 155.963C247.755 155.871 248.634 155.32 249.496 154.669Z" fill="#E04C2D"/>
<path d="M231.468 297.858C230.195 296.664 229.472 295.988 227.953 294.562C229.834 294.562 231.041 294.242 231.37 294.645C231.788 295.136 231.468 296.234 231.468 297.858Z" fill="#E04C2D"/>
<path d="M242.154 295.453C241.061 296.161 240.339 296.625 239.624 297.089C239.328 296.471 238.688 295.744 238.844 295.267C238.992 294.795 239.911 294.391 240.544 294.312C240.922 294.264 241.398 294.884 242.154 295.453Z" fill="#E04C2D"/>
<path d="M249.332 293.656C249.866 294.676 250.367 295.332 250.499 296.057C250.548 296.33 249.751 296.762 249.34 297.12C248.79 296.453 248.19 295.817 247.763 295.08C247.714 294.983 248.527 294.377 249.332 293.656Z" fill="#E04C2D"/>
<path d="M228.725 161.543C226.146 161.888 225.103 161.026 225.595 158.959C226.491 159.7 227.255 160.33 228.725 161.543Z" fill="#E04C2D"/>
<path d="M242.285 160.607C243.107 160.193 243.936 159.778 245.143 159.175C245.258 160.046 245.735 161.235 245.398 161.549C244.88 162.023 243.805 161.887 242.967 162.01C242.737 161.542 242.515 161.074 242.285 160.607Z" fill="#E04C2D"/>
<path d="M239.755 167.581C239.336 166.543 238.893 165.839 238.835 165.104C238.811 164.822 239.657 164.469 240.108 164.15C240.593 164.87 241.127 165.569 241.505 166.344C241.537 166.425 240.651 166.956 239.755 167.581Z" fill="#E04C2D"/>
<path d="M235.345 298.409C237.291 299.658 237.234 300.812 235.246 301.915C233.333 300.668 233.341 299.513 235.345 298.409Z" fill="#E04C2D"/>
<path d="M247.221 166.358C248.15 165.401 248.88 164.65 249.8 163.697C250.452 166.045 249.592 166.932 247.221 166.358Z" fill="#E04C2D"/>
<path d="M228.314 170.261C227.222 170.963 226.507 171.425 225.793 171.887C225.505 171.264 224.881 170.538 225.037 170.048C225.177 169.582 226.105 169.178 226.729 169.103C227.107 169.058 227.567 169.688 228.314 170.261Z" fill="#E04C2D"/>
<path d="M246.4 170.549C245.127 172.525 244.002 172.306 242.893 170.482C244.199 168.438 245.332 168.597 246.4 170.549Z" fill="#E04C2D"/>
<path d="M240.297 173.243C241.168 174.306 241.242 175.398 240.519 176.52C239.156 175.528 239.082 174.436 240.297 173.243Z" fill="#E04C2D"/>
<path d="M249.143 173.198C251.106 174.456 251.074 175.601 249.061 176.687C247.123 175.445 247.197 174.3 249.143 173.198Z" fill="#E04C2D"/>
<path d="M228.848 180.239C226.34 180.604 225.163 179.923 225.316 178.198C227.107 177.482 227.172 179.119 228.848 180.239Z" fill="#E04C2D"/>
<path d="M238.983 186.667C239.005 184.077 240.037 183.052 242.08 183.591C241.135 184.53 240.388 185.273 238.983 186.667Z" fill="#E04C2D"/>
<path d="M235.271 186.972C236.717 187.923 237.431 188.894 235.912 190.071C235.632 190.291 234.737 190.127 234.417 189.826C233.185 188.67 234.072 187.874 235.271 186.972Z" fill="#E04C2D"/>
<path d="M229.02 193.94C229.004 193.785 228.93 193.6 228.987 193.479C229.472 192.488 230.022 191.346 231.337 192.055C231.731 192.264 231.796 193.438 231.682 194.114C231.575 194.714 231 194.654 229.02 193.94Z" fill="#E04C2D"/>
<path d="M241.916 193.853C240.544 194.82 239.476 195.306 238.795 193.665C238.614 193.235 238.901 192.168 239.238 192.041C240.955 191.369 241.144 192.852 241.916 193.853Z" fill="#E04C2D"/>
<path d="M249.62 191.128C250.802 193.023 251.09 194.104 249.653 194.589C249.143 194.759 248.379 194.15 247.731 193.896C248.264 193.114 248.798 192.333 249.62 191.128Z" fill="#E04C2D"/>
<path d="M242.893 198.107C244.084 196.142 245.258 196.146 246.416 198.13C245.225 200.099 244.051 200.096 242.893 198.107Z" fill="#E04C2D"/>
<path d="M228.314 202.394C230.285 201.387 231.394 201.028 231.788 202.565C231.912 203.083 231.271 203.797 230.975 204.42C230.211 203.84 229.456 203.26 228.314 202.394Z" fill="#E04C2D"/>
<path d="M240.256 205.024C238.351 203.561 238.302 202.51 239.353 201.748C239.772 201.446 240.741 201.914 241.464 202.031C241.111 202.91 240.757 203.79 240.256 205.024Z" fill="#E04C2D"/>
<path d="M239.952 209.973C240.659 211.073 241.119 211.789 241.579 212.506C240.963 212.803 240.24 213.448 239.755 213.298C239.287 213.15 238.876 212.223 238.803 211.592C238.753 211.209 239.377 210.74 239.952 209.973Z" fill="#E04C2D"/>
<path d="M96.141 94.5885C96.8326 95.1757 97.6514 95.7769 97.6079 95.8475C97.1865 96.5325 96.6216 97.128 96.0967 97.7489C95.6697 97.3053 94.8894 96.8487 94.9058 96.4216C94.9263 95.8746 95.5883 95.3523 96.141 94.5885Z" fill="#E04C2D"/>
<path d="M136.078 91.6118C136.995 90.9687 137.696 90.4759 138.871 89.6513V93.6209C137.674 92.7593 136.98 92.2599 136.078 91.6118Z" fill="#E04C2D"/>
<path d="M75.43 127.832C74.6645 129.012 74.1963 129.732 73.5294 130.759C72.8855 129.708 72.4353 128.975 71.7347 127.832H75.43Z" fill="#E04C2D"/>
<path d="M113.392 87.478C113.841 86.761 114.293 86.0407 114.995 84.9179C115.586 86.012 116.481 86.959 116.277 87.4288C115.706 88.7446 114.593 88.3807 113.392 87.478Z" fill="#E04C2D"/>
<path d="M211.23 121.351C211.378 119.743 211.46 118.887 211.542 118.03C212.363 118.296 213.177 118.562 214.499 118.992C213.283 119.87 212.569 120.381 211.23 121.351Z" fill="#E04C2D"/>
<path d="M237.414 162.021C235.78 161.878 234.934 161.802 234.08 161.726C234.334 160.924 234.597 160.121 235.033 158.771C235.92 159.982 236.429 160.679 237.414 162.021Z" fill="#E04C2D"/>
<path d="M214.877 137.748C213.169 138.799 212.528 139.191 211.312 139.94C211.403 138.464 211.452 137.616 211.501 136.768C212.306 137.002 213.111 137.235 214.877 137.748Z" fill="#E04C2D"/>
<path d="M236.946 235.01C236.429 235.663 235.911 236.316 235.205 237.208C234.597 236.229 234.146 235.508 233.464 234.409C234.753 234.271 235.583 234.181 236.412 234.093C236.593 234.398 236.766 234.704 236.946 235.01Z" fill="#E04C2D"/>
<path d="M249.184 204.838C248.453 203.763 247.977 203.055 247.23 201.958C248.527 201.777 249.349 201.663 250.901 201.446C250.186 202.869 249.767 203.686 249.184 204.838Z" fill="#E04C2D"/>
<path d="M224.273 208.351C225.275 207.012 225.784 206.321 226.688 205.122C227.09 206.471 227.337 207.273 227.575 208.074C226.737 208.145 225.891 208.215 224.273 208.351Z" fill="#E04C2D"/>
<path d="M249.661 238.277C249.891 239.052 250.121 239.827 250.351 240.603C249.521 240.589 248.683 240.574 247.854 240.56C248.108 239.783 248.355 239.005 248.61 238.228C248.963 238.245 249.308 238.26 249.661 238.277Z" fill="#E04C2D"/>
<path d="M235.312 205.314C235.953 206.347 236.413 207.087 237.152 208.265H233.423C234.178 207.075 234.655 206.336 235.312 205.314Z" fill="#E04C2D"/>
<path d="M211.345 108.507C212.503 109.216 213.242 109.67 214.294 110.317C213.259 110.985 212.528 111.455 211.345 112.22V108.507Z" fill="#E04C2D"/>
<path d="M175.13 112.007C174.488 111.074 174.002 110.37 173.18 109.177H177.146C176.282 110.39 175.787 111.085 175.13 112.007Z" fill="#E04C2D"/>
<path d="M89.0684 110.595C90.7743 109.512 91.4026 109.113 92.6198 108.34C92.541 109.822 92.496 110.659 92.4516 111.496C91.6409 111.281 90.831 111.065 89.0684 110.595Z" fill="#E04C2D"/>
<path d="M214.902 105.421C215.838 104.781 216.544 104.297 217.735 103.488V107.418C216.519 106.562 215.821 106.069 214.902 105.421Z" fill="#E04C2D"/>
<path d="M178.929 103.485C180.056 104.215 180.688 104.624 181.667 105.257C180.913 105.92 180.438 106.655 179.819 106.807C178.9 107.034 178.769 106.623 178.929 103.485Z" fill="#E04C2D"/>
<path d="M240.445 131.36C239.369 129.652 238.975 129.018 238.203 127.794C239.69 127.883 240.536 127.933 241.373 127.984C241.152 128.786 240.938 129.588 240.445 131.36Z" fill="#E04C2D"/>
<path d="M204.873 127.728C203.889 129.064 203.377 129.76 202.489 130.967C202.062 129.615 201.808 128.811 201.555 128.008C202.406 127.936 203.256 127.864 204.873 127.728Z" fill="#E04C2D"/>
<path d="M115.232 98.8495C114.159 97.1296 113.763 96.4939 113.001 95.2725C114.48 95.3538 115.321 95.3998 116.163 95.4458C115.943 96.2491 115.723 97.0524 115.232 98.8495Z" fill="#E04C2D"/>
<path d="M211.271 98.6031C212.487 99.2996 213.144 99.6733 213.735 100.015C213.653 100.488 213.686 100.941 213.538 101.015C212.897 101.328 212.199 101.529 211.526 101.77C211.46 100.914 211.386 100.057 211.271 98.6031Z" fill="#E04C2D"/>
<path d="M230.688 131.366C229.587 129.692 229.176 129.063 228.445 127.946H231.55C231.345 128.741 231.148 129.536 230.688 131.366Z" fill="#E04C2D"/>
<path d="M135.8 100.24C137.146 99.827 137.948 99.5805 138.751 99.3349C138.824 100.189 138.898 101.042 139.037 102.647C137.694 101.649 137.003 101.135 135.8 100.24Z" fill="#E04C2D"/>
<path d="M207.656 98.1727C207.016 97.2429 206.531 96.539 205.726 95.3694H209.686C208.815 96.5719 208.314 97.2602 207.656 98.1727Z" fill="#E04C2D"/>
<path d="M235.443 284.195C234.441 282.463 234.064 281.814 233.349 280.589C234.811 280.712 235.665 280.784 236.519 280.854C236.256 281.657 236.002 282.459 235.443 284.195Z" fill="#E04C2D"/>
<path d="M188.441 97.8384C188.196 97.0622 187.949 96.2877 187.704 95.5115C188.537 95.5066 189.371 95.5016 190.204 95.4967C189.968 96.2712 189.731 97.0449 189.495 97.8194C189.143 97.826 188.793 97.8318 188.441 97.8384Z" fill="#E04C2D"/>
<path d="M142.566 94.4487C143.252 95.3218 144.078 95.9821 143.963 96.3131C143.759 96.8971 143.037 97.4663 142.415 97.6593C142.149 97.7415 141.238 96.8545 141.246 96.42C141.257 95.882 141.917 95.3563 142.566 94.4487Z" fill="#E04C2D"/>
<path d="M214.187 129.117C213.604 129.588 212.979 130.204 212.897 130.139C212.273 129.64 211.748 129.009 211.197 128.42C211.534 128.164 212.002 127.621 212.183 127.706C212.832 128.011 213.382 128.526 214.187 129.117Z" fill="#E04C2D"/>
<path d="M92.7825 218.863C92.6847 220.803 92.6257 221.957 92.5583 223.298C90.35 222.071 90.4247 220.593 92.7825 218.863Z" fill="#E04C2D"/>
<path d="M82.2421 232.687C81.6598 231.758 81.0463 231.207 80.9978 230.611C80.9001 229.414 81.8134 228.888 82.8244 229.255C83.3304 229.439 83.8905 230.362 83.8495 230.908C83.8109 231.423 83.0158 231.88 82.2421 232.687Z" fill="#E04C2D"/>
<path d="M100.956 232.692C100.374 231.767 99.7714 231.224 99.7106 230.624C99.5883 229.422 100.476 228.881 101.502 229.253C102.019 229.441 102.606 230.347 102.568 230.887C102.53 231.407 101.731 231.874 100.956 232.692Z" fill="#E04C2D"/>
<path d="M117.637 239.593C119.187 237.274 120.29 238.143 121.538 239.927C120.179 241.513 119.02 241.405 117.637 239.593Z" fill="#E04C2D"/>
<path d="M70.6916 244.501C69.8251 245.158 69.3267 245.824 68.7321 245.925C67.5535 246.125 66.9299 245.287 67.2346 244.226C67.3857 243.7 68.2499 243.052 68.7863 243.056C69.3169 243.06 69.8424 243.816 70.6916 244.501Z" fill="#E04C2D"/>
<path d="M117.033 244.288C116.211 245.041 115.732 245.832 115.207 245.864C114.669 245.897 113.768 245.297 113.589 244.779C113.231 243.745 113.793 242.859 114.986 242.986C115.584 243.05 116.121 243.683 117.033 244.288Z" fill="#E04C2D"/>
<path d="M59.8311 255.537C58.108 254.848 57.9913 253.637 58.549 252.083C60.6292 252.831 61.0566 253.982 59.8311 255.537Z" fill="#E04C2D"/>
<path d="M97.18 252.003C98.3948 253.544 97.7993 254.645 96.3398 255.552C95.0125 254.145 95.2926 252.962 97.18 252.003Z" fill="#E04C2D"/>
<path d="M123.825 255.687C122.812 254.183 123.103 252.947 124.699 251.978C126.012 253.421 125.458 254.509 123.825 255.687Z" fill="#E04C2D"/>
<path d="M84.4944 257.921C83.7199 258.758 83.3461 259.517 82.791 259.688C81.7437 260.01 80.8491 259.45 81.0093 258.28C81.0849 257.727 81.8242 256.969 82.3721 256.862C82.8796 256.762 83.5326 257.405 84.4944 257.921Z" fill="#E04C2D"/>
<path d="M101.19 256.228C101.859 257.103 102.531 257.599 102.634 258.193C102.838 259.375 101.987 259.99 100.932 259.695C100.411 259.549 99.7739 258.682 99.7739 258.141C99.773 257.613 100.515 257.083 101.19 256.228Z" fill="#E04C2D"/>
<path d="M120.718 259.945C119.664 259.549 118.61 259.152 117.346 258.675C119.002 257.124 120.126 257.548 120.718 259.945Z" fill="#E04C2D"/>
<path d="M121.395 286.74C119.704 287.871 118.601 287.469 117.917 286.123C117.781 285.855 118.334 284.994 118.766 284.731C119.671 284.182 119.725 284.272 121.395 286.74Z" fill="#E04C2D"/>
<path d="M70.6861 263.4C69.753 263.981 69.2002 264.592 68.6014 264.641C67.3949 264.739 66.8906 263.808 67.2537 262.806C67.436 262.303 68.3656 261.75 68.9126 261.792C69.4268 261.832 69.8819 262.627 70.6861 263.4Z" fill="#E04C2D"/>
<path d="M117.033 263.306C116.129 263.928 115.603 264.567 115.008 264.641C113.813 264.789 113.257 263.893 113.583 262.869C113.745 262.359 114.647 261.764 115.189 261.788C115.712 261.812 116.201 262.579 117.033 263.306Z" fill="#E04C2D"/>
<path d="M65.2569 266.091C65.008 267.166 64.76 268.242 64.4331 269.658C63.5789 269.158 63.1123 269.033 62.8815 268.727C61.408 266.783 63.2094 266.443 64.0217 265.621C64.4332 265.777 64.8446 265.934 65.2569 266.091Z" fill="#E04C2D"/>
<path d="M73.6791 269.482C71.9748 268.404 71.4851 267.294 72.6925 265.808C74.3439 266.728 74.6729 267.953 73.6791 269.482Z" fill="#E04C2D"/>
<path d="M92.7801 266.027C92.6873 267.173 92.5954 268.319 92.4081 270.645C91.1482 268.838 90.5666 268.004 89.9038 267.053C90.6126 266.479 91.2089 265.995 91.8044 265.512C92.1296 265.684 92.4549 265.856 92.7801 266.027Z" fill="#E04C2D"/>
<path d="M119.057 265.761C120.69 266.766 121.017 267.975 120.04 269.387C118.314 268.535 117.828 267.434 119.057 265.761Z" fill="#E04C2D"/>
<path d="M70.6384 272.756C69.592 273.118 68.94 273.551 68.3166 273.515C66.9786 273.435 66.9063 272.287 67.3177 271.463C67.5502 270.997 68.6409 270.602 69.1846 270.753C69.6906 270.894 69.9855 271.799 70.6384 272.756Z" fill="#E04C2D"/>
<path d="M79.7299 272.019C78.9808 273.634 77.8333 273.97 76.2596 273.201C77.0377 271.154 78.1945 270.76 79.7299 272.019Z" fill="#E04C2D"/>
<path d="M117.032 271.932C116.212 272.673 115.733 273.451 115.212 273.48C114.67 273.511 113.761 272.929 113.588 272.42C113.241 271.394 113.802 270.501 114.988 270.623C115.583 270.684 116.12 271.322 117.032 271.932Z" fill="#E04C2D"/>
<path d="M86.45 251.724C88.171 253.002 88.501 254.276 87.4398 255.546C85.807 254.805 85.4653 253.662 86.45 251.724Z" fill="#E04C2D"/>
<path d="M121.62 276.228C120.245 277.874 118.947 278.109 117.724 276.935C118.606 275.377 119.77 275.048 121.62 276.228Z" fill="#E04C2D"/>
<path d="M68.8 288.763C69.4135 289.67 70.0518 290.202 70.1166 290.797C70.2464 291.979 69.3669 292.56 68.3328 292.215C67.8186 292.044 67.2305 291.137 67.2552 290.59C67.2782 290.071 68.06 289.588 68.8 288.763Z" fill="#E04C2D"/>
<path d="M79.8554 290.888C78.3452 291.929 77.1159 291.625 76.1676 289.976C77.6336 288.696 78.7318 289.245 79.8554 290.888Z" fill="#E04C2D"/>
<path d="M89.4068 291.033C88.4705 291.613 87.9168 292.222 87.3147 292.273C86.1024 292.376 85.6064 291.444 85.9694 290.442C86.1526 289.937 87.0767 289.373 87.6163 289.418C88.137 289.462 88.5945 290.256 89.4068 291.033Z" fill="#E04C2D"/>
<path d="M114.777 292.843C114.192 291.92 113.58 291.374 113.525 290.778C113.415 289.582 114.314 289.045 115.332 289.412C115.842 289.597 116.42 290.51 116.379 291.05C116.339 291.569 115.545 292.033 114.777 292.843Z" fill="#E04C2D"/>
<path d="M87.4437 301.891C85.8166 301.149 85.4799 300.003 86.252 298.426C88.313 299.202 88.7102 300.358 87.4437 301.891Z" fill="#E04C2D"/>
<path d="M97.2466 298.056C98.1197 300.013 97.861 301.18 96.1764 301.882C95.1273 300.588 95.484 299.312 97.2466 298.056Z" fill="#E04C2D"/>
<path d="M114.117 298.025C115.816 299.351 116.11 300.652 114.999 301.927C113.479 301.081 113.052 299.94 114.117 298.025Z" fill="#E04C2D"/>
<path d="M79.7134 225.825C78.8296 227.37 77.6649 227.648 76.1455 226.722C77.1518 224.798 78.3412 224.499 79.7134 225.825Z" fill="#E04C2D"/>
<path d="M82.5108 274.941C83.1621 275.814 83.898 276.366 83.8758 276.886C83.8537 277.437 83.195 278.283 82.6628 278.422C81.5737 278.707 80.7884 278.025 81.0249 276.862C81.144 276.275 81.8184 275.801 82.5108 274.941Z" fill="#E04C2D"/>
<path d="M101.679 219.318C102.193 220.538 103.705 221.817 101.391 222.816C100.014 221.78 100.113 220.616 101.685 219.322L101.679 219.318Z" fill="#E04C2D"/>
<path d="M89.6122 226.469C86.991 227.047 86.007 226.236 86.6603 224.035C87.5103 224.736 88.2487 225.344 89.6122 226.469Z" fill="#E04C2D"/>
<path d="M94.3816 226.434C95.3426 225.511 96.0983 224.786 97.0568 223.866C97.6125 226.224 96.7208 227.08 94.3816 226.434Z" fill="#E04C2D"/>
<path d="M107.436 225.686C106.095 227.723 105.02 227.545 103.905 225.788C104.914 223.968 106.013 223.806 107.436 225.686Z" fill="#E04C2D"/>
<path d="M73.3356 232.6C72.7516 231.858 72.1168 231.404 72.1579 231.025C72.2277 230.389 72.6121 229.45 73.0819 229.293C73.5616 229.133 74.304 229.763 74.9315 230.048C74.4773 230.774 74.0239 231.5 73.3356 232.6Z" fill="#E04C2D"/>
<path d="M93.6105 230.644C92.684 231.996 91.7536 232.857 90.5519 231.281C90.3252 230.986 90.4648 230.095 90.7581 229.772C91.9021 228.515 92.6931 229.405 93.6105 230.644Z" fill="#E04C2D"/>
<path d="M110.752 232.906C109.656 231.51 109.062 230.751 108.374 229.876C110.602 229.298 111.394 230.308 110.752 232.906Z" fill="#E04C2D"/>
<path d="M87.4643 233.399C89.0282 234.399 89.4364 235.474 87.6845 236.695C86.3227 235.687 86.2493 234.588 87.4643 233.399Z" fill="#E04C2D"/>
<path d="M78.147 237.178C77.4382 236.633 76.7285 236.088 75.4472 235.104C76.7318 234.659 77.6673 233.982 78.1988 234.218C79.6337 234.852 79.2632 235.946 78.147 237.178Z" fill="#E04C2D"/>
<path d="M105.218 236.963C104.754 235.111 105.485 234.308 107.41 234.554C107.5 236.123 106.724 236.844 105.218 236.963Z" fill="#E04C2D"/>
<path d="M64.4743 237.352C65.0415 239.938 64.2254 240.909 62.0259 240.264C62.7371 239.418 63.3515 238.687 64.4743 237.352Z" fill="#E04C2D"/>
<path d="M74.9175 240.428C73.9056 241.257 72.8182 241.61 72.1916 240.157C71.9911 239.692 72.6276 238.299 72.9503 238.276C74.2801 238.177 74.9717 239.031 74.9175 240.428Z" fill="#E04C2D"/>
<path d="M93.5645 239.504C92.4762 241.458 91.3361 241.6 90.0844 239.581C91.1932 237.648 92.3382 237.641 93.5645 239.504Z" fill="#E04C2D"/>
<path d="M100.952 237.621C101.648 238.711 102.107 239.431 102.566 240.15C101.943 240.438 101.219 241.062 100.725 240.916C100.262 240.778 99.8551 239.844 99.7845 239.22C99.7409 238.834 100.372 238.374 100.952 237.621Z" fill="#E04C2D"/>
<path d="M110.841 237.687C111.429 240.018 110.545 240.887 108.189 240.295C109.147 239.353 109.898 238.615 110.841 237.687Z" fill="#E04C2D"/>
<path d="M76.2003 244.474C77.5359 242.475 78.6258 242.653 79.7651 244.45C78.717 246.193 77.627 246.589 76.2003 244.474Z" fill="#E04C2D"/>
<path d="M89.5916 243.809C88.2215 244.901 87.4677 245.501 86.5913 246.2C86.0131 243.936 87.0131 243.139 89.5916 243.809Z" fill="#E04C2D"/>
<path d="M98.4343 244.143C97.4388 244.984 96.9025 245.632 96.2159 245.919C95.9514 246.031 95.3435 245.325 94.8926 244.99C95.4495 244.337 95.9465 243.608 96.6085 243.089C96.7604 242.97 97.4798 243.577 98.4343 244.143Z" fill="#E04C2D"/>
<path d="M103.862 244.464C105.061 242.47 106.234 242.516 107.403 244.459C106.198 246.488 105.025 246.396 103.862 244.464Z" fill="#E04C2D"/>
<path d="M64.1834 250.966C63.5115 250.348 62.8117 249.702 61.5082 248.502C63.0877 248.272 64.1267 247.789 64.6055 248.119C65.6626 248.848 65.592 249.921 64.1834 250.966Z" fill="#E04C2D"/>
<path d="M72.696 251.703C72.3455 249.123 73.2119 248.081 75.2953 248.578C74.5471 249.476 73.9132 250.239 72.696 251.703Z" fill="#E04C2D"/>
<path d="M101.242 251.359C99.3294 249.895 99.2827 248.849 100.33 248.092C100.746 247.792 101.717 248.261 102.435 248.379C102.085 249.253 101.736 250.125 101.242 251.359Z" fill="#E04C2D"/>
<path d="M107.835 248.507C110.532 248.109 111.469 248.964 110.649 251.072C109.841 250.336 109.132 249.69 107.835 248.507Z" fill="#E04C2D"/>
<path d="M122.358 248.211C120.804 249.65 120.08 250.321 118.661 251.633C118.742 249.872 118.477 248.759 118.909 248.295C119.287 247.89 120.449 248.211 122.358 248.211Z" fill="#E04C2D"/>
<path d="M68.6877 255.572C66.7387 254.482 66.668 253.341 68.6278 252.027C70.4528 253.139 70.6976 254.27 68.6877 255.572Z" fill="#E04C2D"/>
<path d="M78.3007 251.485C78.8926 253.825 78.016 254.704 75.6714 254.124C76.6151 253.177 77.3603 252.429 78.3007 251.485Z" fill="#E04C2D"/>
<path d="M108.037 254.285C105.705 254.597 104.769 253.806 105.23 251.912C105.679 252.052 106.214 252.081 106.542 252.356C106.998 252.74 107.301 253.307 108.037 254.285Z" fill="#E04C2D"/>
<path d="M115.038 255.563C113.031 254.457 113.022 253.298 114.956 252.041C116.884 253.164 117.003 254.319 115.038 255.563Z" fill="#E04C2D"/>
<path d="M75.4128 258.956C73.1201 259.617 72.2333 258.755 72.7524 256.372C73.7225 257.314 74.474 258.045 75.4128 258.956Z" fill="#E04C2D"/>
<path d="M93.5505 258.216C92.4729 260.21 91.3353 260.297 90.0795 258.315C91.1694 256.349 92.3078 256.289 93.5505 258.216Z" fill="#E04C2D"/>
<path d="M107.851 258.937C109.233 257.844 109.988 257.245 110.865 256.552C111.43 258.791 110.426 259.586 107.851 258.937Z" fill="#E04C2D"/>
<path d="M78.2636 265.064C77.3363 264.11 76.6045 263.359 75.678 262.406C78.0244 261.842 78.8862 262.728 78.2636 265.064Z" fill="#E04C2D"/>
<path d="M87.1332 265.122C86.5558 264.376 85.9226 263.914 85.9686 263.535C86.045 262.904 86.445 261.968 86.9149 261.823C87.4035 261.671 88.1352 262.302 88.7619 262.591C88.2987 263.31 87.8363 264.03 87.1332 265.122Z" fill="#E04C2D"/>
<path d="M96.9582 265.051C96.0407 264.108 95.3115 263.358 94.3784 262.398C96.7538 261.843 97.6136 262.728 96.9582 265.051Z" fill="#E04C2D"/>
<path d="M107.412 263.195C105.983 265.249 104.913 264.84 103.895 263.238C104.952 261.276 106.081 261.137 107.412 263.195Z" fill="#E04C2D"/>
<path d="M121.447 262.343C123.946 261.983 125.119 262.663 124.967 264.384C123.186 265.09 123.106 263.475 121.447 262.343Z" fill="#E04C2D"/>
<path d="M82.472 269.437C80.4211 268.01 80.7596 266.932 82.4343 265.875C84.3243 266.948 84.4449 268.078 82.472 269.437Z" fill="#E04C2D"/>
<path d="M101.177 269.401C99.2292 268.22 99.1824 267.044 101.182 265.87C103.14 267.055 103.127 268.229 101.177 269.401Z" fill="#E04C2D"/>
<path d="M110.069 269.416C107.997 267.981 108.49 266.914 110.005 265.875C112.004 266.955 112.131 268.088 110.069 269.416Z" fill="#E04C2D"/>
<path d="M86.6824 270.224C87.6007 271.166 88.3309 271.916 89.2672 272.877C86.8853 273.427 86.0237 272.542 86.6824 270.224Z" fill="#E04C2D"/>
<path d="M97.4691 269.771C97.4823 272.341 96.4534 273.353 94.3825 272.807C95.3344 271.869 96.0844 271.133 97.4691 269.771Z" fill="#E04C2D"/>
<path d="M103.867 272.074C105.072 270.149 106.235 270.183 107.395 272.077C106.168 274.13 105.007 273.969 103.867 272.074Z" fill="#E04C2D"/>
<path d="M121.69 272.747C123.062 271.659 123.817 271.063 124.694 270.368C125.237 272.604 124.235 273.397 121.69 272.747Z" fill="#E04C2D"/>
<path d="M73.3668 274.908C74.1437 275.673 74.9363 276.287 74.8657 276.411C74.4493 277.146 73.8324 277.767 73.2821 278.425C72.8821 278.053 72.0994 277.608 72.1544 277.325C72.2957 276.601 72.8099 275.948 73.3668 274.908Z" fill="#E04C2D"/>
<path d="M93.581 276.974C92.4812 278.876 91.3476 279.027 90.0795 277.047C91.1522 275.048 92.2899 274.966 93.581 276.974Z" fill="#E04C2D"/>
<path d="M103.044 276.33C102.097 277.244 101.345 277.971 100.376 278.906C99.8398 276.508 100.729 275.65 103.044 276.33Z" fill="#E04C2D"/>
<path d="M110.347 274.939C110.86 275.971 111.353 276.642 111.475 277.373C111.521 277.65 110.711 278.07 110.292 278.424C109.757 277.744 109.165 277.095 108.753 276.348C108.697 276.244 109.53 275.651 110.347 274.939Z" fill="#E04C2D"/>
<path d="M61.349 281.29C60.8077 281.999 60.2697 282.704 59.2956 283.982C58.8512 282.715 58.1778 281.79 58.4095 281.263C59.0345 279.839 60.1227 280.214 61.349 281.29Z" fill="#E04C2D"/>
<path d="M64.93 283.577C64.9497 286.148 63.928 287.166 61.8648 286.631C62.8085 285.691 63.5551 284.947 64.93 283.577Z" fill="#E04C2D"/>
<path d="M75.7634 286.639C73.1668 287.198 72.1971 286.378 72.8542 284.181C73.6986 284.894 74.4287 285.511 75.7634 286.639Z" fill="#E04C2D"/>
<path d="M82.8753 287.896C82.0015 287.269 81.117 286.733 81.1581 286.648C81.535 285.877 82.073 285.184 82.5633 284.469C83.0101 284.794 83.8545 285.16 83.8274 285.438C83.7543 286.175 83.3041 286.875 82.8753 287.896Z" fill="#E04C2D"/>
<path d="M90.1067 285.813C91.0923 284.255 92.1591 283.827 93.3812 285.578C92.3934 286.941 91.302 287.02 90.1067 285.813Z" fill="#E04C2D"/>
<path d="M103.126 286.127C102.378 286.707 101.92 287.34 101.535 287.298C100.903 287.229 99.9538 286.834 99.8141 286.371C99.6638 285.874 100.292 285.142 100.58 284.512C101.305 284.971 102.028 285.431 103.126 286.127Z" fill="#E04C2D"/>
<path d="M107.848 286.552C109.234 285.468 109.991 284.875 110.868 284.19C111.44 286.427 110.433 287.215 107.848 286.552Z" fill="#E04C2D"/>
<path d="M94.3326 290.015C96.7583 289.481 97.6631 290.234 97.047 292.272C96.6216 292.141 96.1098 292.114 95.7936 291.853C95.3492 291.486 95.0504 290.943 94.3326 290.015Z" fill="#E04C2D"/>
<path d="M103.862 290.816C105.202 288.792 106.278 289.035 107.39 290.791C106.34 292.529 105.255 292.936 103.862 290.816Z" fill="#E04C2D"/>
<path d="M64.3626 297.314C63.6274 296.723 62.8831 296.124 61.5025 295.014C63.0146 294.655 64.0036 294.084 64.5095 294.369C65.6931 295.036 65.4977 296.126 64.3626 297.314Z" fill="#E04C2D"/>
<path d="M75.1368 294.991C74.5117 296.421 74.0075 297.577 72.5594 296.852C72.2071 296.676 71.9638 295.569 72.1708 295.122C72.8459 293.666 73.9064 294.025 75.1368 294.991Z" fill="#E04C2D"/>
<path d="M80.2095 294.999C82.8186 294.417 83.8116 295.223 83.1885 297.416C82.3327 296.722 81.5902 296.118 80.2095 294.999Z" fill="#E04C2D"/>
<path d="M100.498 297.572C99.8313 295.27 100.692 294.385 103.079 294.916C102.139 295.883 101.41 296.633 100.498 297.572Z" fill="#E04C2D"/>
<path d="M110.736 297.927C109.651 296.548 109.056 295.789 108.364 294.91C110.607 294.368 111.398 295.373 110.736 297.927Z" fill="#E04C2D"/>
<path d="M119.098 297.627C118.578 295.234 119.329 294.336 121.354 294.933C121.217 295.355 121.183 295.858 120.921 296.173C120.553 296.614 120.016 296.915 119.098 297.627Z" fill="#E04C2D"/>
<path d="M61.0952 300.589C60.0816 301.398 58.9942 301.778 58.3839 300.296C58.1893 299.823 58.8249 298.442 59.1403 298.421C60.4725 298.337 61.1494 299.2 61.0952 300.589Z" fill="#E04C2D"/>
<path d="M68.6555 301.947C66.6416 300.594 66.8882 299.507 68.6319 298.383C70.3698 299.449 70.7516 300.549 68.6555 301.947Z" fill="#E04C2D"/>
<path d="M78.3638 298.262C79.1539 299.377 79.6608 300.443 78.0009 301.123C77.568 301.302 76.4714 300.987 76.3802 300.687C75.9088 299.131 76.9503 298.577 78.3638 298.262Z" fill="#E04C2D"/>
<path d="M104.929 297.287C106.352 298.801 107.027 299.521 108.224 300.796C106.599 300.796 105.503 301.108 105.012 300.698C104.61 300.36 104.929 299.162 104.929 297.287Z" fill="#E04C2D"/>
<path d="M124.77 298.312C125.218 300.171 124.482 300.971 122.563 300.71C122.48 299.138 123.257 298.416 124.77 298.312Z" fill="#E04C2D"/>
<path d="M61.04 291.325C60.2671 291.574 59.4952 291.823 58.7231 292.072C58.719 291.236 58.714 290.401 58.7091 289.566C59.4894 289.805 60.268 290.044 61.0474 290.283C61.045 290.631 61.0424 290.979 61.04 291.325Z" fill="#E04C2D"/>
<path d="M82.4666 237.821C83.1179 238.868 83.5819 239.614 84.3162 240.795H80.5923C81.3445 239.601 81.8127 238.859 82.4666 237.821Z" fill="#E04C2D"/>
<path d="M62.0415 271.847C60.3363 272.917 59.7022 273.316 58.4808 274.081C58.5646 272.604 58.6122 271.763 58.6599 270.923C59.4607 271.141 60.2624 271.36 62.0415 271.847Z" fill="#E04C2D"/>
<path d="M125.04 293.227C123.603 291.928 123.058 291.435 122.337 290.783C123.155 290.177 123.829 289.677 125.04 288.78V293.227Z" fill="#E04C2D"/>
<path d="M64.7805 260.046C63.785 259.43 63.0607 258.982 62.0078 258.33C62.6763 257.554 63.151 257.002 63.5182 256.577C65.8935 257.399 65.1665 258.543 64.7805 260.046Z" fill="#E04C2D"/>
<path d="M58.4423 242.828C59.3622 243.259 60.2828 243.689 61.6824 244.345C60.4126 245.154 59.6874 245.615 58.5811 246.32C58.384 244.951 58.2534 244.044 58.1229 243.138L58.4423 242.828Z" fill="#E04C2D"/>
<path d="M92.2355 297.075C90.9246 297.113 89.9572 296.714 90.4681 295.202C90.6101 294.782 91.6408 294.235 91.9776 294.385C93.4502 295.042 93.0601 296.078 92.2355 297.075Z" fill="#E04C2D"/>
<path d="M64.893 279.414C63.445 278.12 62.8921 277.626 62.1603 276.973C62.9891 276.362 63.6734 275.858 64.893 274.96V279.414Z" fill="#E04C2D"/>
<path d="M124.665 246.074C123.947 245.622 123.226 245.168 122.103 244.461C123.197 243.866 124.147 242.965 124.615 243.168C125.934 243.743 125.567 244.863 124.665 246.074Z" fill="#E04C2D"/>
<path d="M59.859 261.229C60.3182 261.834 60.7774 262.438 61.5651 263.476C60.3141 263.876 59.5091 264.133 58.7042 264.39C58.6262 263.536 58.5482 262.681 58.4694 261.827C58.9326 261.628 59.3958 261.429 59.859 261.229Z" fill="#E04C2D"/>
<path d="M84.3072 248.136C83.5836 249.309 83.1244 250.053 82.4738 251.109C81.8135 250.064 81.3471 249.327 80.5939 248.136H84.3072Z" fill="#E04C2D"/>
<path d="M70.2876 281.07C69.8022 281.841 69.3505 282.558 68.6499 283.67C67.9 282.969 67.3726 282.475 66.9192 282.052C67.7907 279.827 68.8823 280.32 70.2876 281.07Z" fill="#E04C2D"/>
<path d="M75.4843 280.55C77.0941 280.707 77.9474 280.79 78.8008 280.873C78.524 281.671 78.2472 282.469 77.7815 283.814C76.9207 282.592 76.428 281.891 75.4843 280.55Z" fill="#E04C2D"/>
<path d="M89.8102 280.751C88.4804 282.197 87.9834 282.738 87.3371 283.442C86.7375 282.628 86.2356 281.947 85.3535 280.751H89.8102Z" fill="#E04C2D"/>
<path d="M95.7582 283.212C95.511 282.439 95.2646 281.666 95.0174 280.892C95.8519 280.882 96.6855 280.871 97.52 280.861C97.2834 281.634 97.0469 282.407 96.8103 283.181C96.4596 283.191 96.1089 283.202 95.7582 283.212Z" fill="#E04C2D"/>
<path d="M105.867 283.804C105.393 282.466 105.113 281.673 104.833 280.88C105.689 280.792 106.545 280.706 108.108 280.546C107.191 281.879 106.709 282.579 105.867 283.804Z" fill="#E04C2D"/>
<path d="M116.855 280.66C116.108 281.844 115.641 282.581 114.988 283.612C114.338 282.58 113.874 281.843 113.13 280.66H116.855Z" fill="#E04C2D"/>
<path d="M124.035 284.179C123.05 282.456 122.679 281.806 121.987 280.595C123.428 280.716 124.277 280.787 125.126 280.858C124.865 281.652 124.604 282.445 124.035 284.179Z" fill="#E04C2D"/>
<path d="M92.2315 250.725C90.9289 250.76 89.9622 250.363 90.4673 248.858C90.6078 248.442 91.6385 247.895 91.9761 248.046C93.4446 248.7 93.0611 249.733 92.2315 250.725Z" fill="#E04C2D"/>
<path d="M68.0814 236.831C67.8628 236.056 67.6445 235.282 67.4253 234.508C68.2581 234.527 69.0901 234.547 69.923 234.566C69.6601 235.341 69.398 236.117 69.1351 236.893C68.7836 236.872 68.4329 236.852 68.0814 236.831Z" fill="#E04C2D"/>
<path d="M95.6935 236.831C95.4874 236.056 95.281 235.28 95.0749 234.505C95.9085 234.526 96.7415 234.546 97.5752 234.567C97.2984 235.344 97.0206 236.123 96.743 236.902C96.3931 236.877 96.0433 236.854 95.6935 236.831Z" fill="#E04C2D"/>
<path d="M114.622 237.13C114.293 236.139 114.026 235.331 113.758 234.522C114.613 234.441 115.467 234.358 116.585 234.25C116.33 235.135 116.296 235.648 116.045 236.012C115.792 236.379 115.323 236.598 114.622 237.13Z" fill="#E04C2D"/>
</svg>
