<svg preserveAspectRatio="none" width="100%" height="100%" overflow="visible" style="display: block;" viewBox="0 0 240 288" fill="none" xmlns="http://www.w3.org/2000/svg">
<g id="Group 356">
<g id="Modalit&#195;&#160;_Isolamento" clip-path="url(#clip0_2964_2425)">
<path id="Vector" d="M144 0H48V2.4H144V0Z" fill="var(--fill-0, #E04C2D)"/>
<path id="Vector_2" d="M144 46.8H48V49.2H144V46.8Z" fill="var(--fill-0, #E04C2D)"/>
<path id="Vector_3" d="M144 23.3996H48V25.7996H144V23.3996Z" fill="var(--fill-0, #E04C2D)"/>
<path id="Vector_4" d="M144 35.0995H48V37.4995H144V35.0995Z" fill="var(--fill-0, #E04C2D)"/>
<path id="Vector_5" d="M144 11.6998H48V14.0998H144V11.6998Z" fill="var(--fill-0, #E04C2D)"/>
<path id="Vector_6" d="M144 58.4998H48V60.8998H144V58.4998Z" fill="var(--fill-0, #E04C2D)"/>
<path id="Vector_7" d="M144 70.1996H48V72.5996H144V70.1996Z" fill="var(--fill-0, #E04C2D)"/>
<path id="Vector_8" d="M144 81.8995H48V84.2995H144V81.8995Z" fill="var(--fill-0, #E04C2D)"/>
<path id="Vector_9" d="M144 93.6H48V96H144V93.6Z" fill="var(--fill-0, #E04C2D)"/>
<path id="Vector_10" d="M144 96H141.6V192H144V96Z" fill="var(--fill-0, #E04C2D)"/>
<path id="Vector_11" d="M97.2 96H94.8V192H97.2V96Z" fill="var(--fill-0, #E04C2D)"/>
<path id="Vector_12" d="M120.6 96H118.2V192H120.6V96Z" fill="var(--fill-0, #E04C2D)"/>
<path id="Vector_13" d="M108.9 96H106.5V192H108.9V96Z" fill="var(--fill-0, #E04C2D)"/>
<path id="Vector_14" d="M132.3 96H129.9V192H132.3V96Z" fill="var(--fill-0, #E04C2D)"/>
<path id="Vector_15" d="M85.5002 96H83.1002V192H85.5002V96Z" fill="var(--fill-0, #E04C2D)"/>
<path id="Vector_16" d="M73.8002 96H71.4002V192H73.8002V96Z" fill="var(--fill-0, #E04C2D)"/>
<path id="Vector_17" d="M62.0999 96H59.6999V192H62.0999V96Z" fill="var(--fill-0, #E04C2D)"/>
<path id="Vector_18" d="M50.4 96H48V192H50.4V96Z" fill="var(--fill-0, #E04C2D)"/>
<path id="Vector_19" d="M240 2.69842e-06H237.6V96H240V2.69842e-06Z" fill="var(--fill-0, #E04C2D)"/>
<path id="Vector_20" d="M193.2 2.69842e-06H190.8V96H193.2V2.69842e-06Z" fill="var(--fill-0, #E04C2D)"/>
<path id="Vector_21" d="M216.6 2.69842e-06H214.2V96H216.6V2.69842e-06Z" fill="var(--fill-0, #E04C2D)"/>
<path id="Vector_22" d="M204.9 2.69842e-06H202.5V96H204.9V2.69842e-06Z" fill="var(--fill-0, #E04C2D)"/>
<path id="Vector_23" d="M228.3 2.69842e-06H225.9V96H228.3V2.69842e-06Z" fill="var(--fill-0, #E04C2D)"/>
<path id="Vector_24" d="M181.5 2.69842e-06H179.1V96H181.5V2.69842e-06Z" fill="var(--fill-0, #E04C2D)"/>
<path id="Vector_25" d="M169.8 2.69842e-06H167.4V96H169.8V2.69842e-06Z" fill="var(--fill-0, #E04C2D)"/>
<path id="Vector_26" d="M158.1 2.69842e-06H155.7V96H158.1V2.69842e-06Z" fill="var(--fill-0, #E04C2D)"/>
<path id="Vector_27" d="M146.4 2.69842e-06H144V96H146.4V2.69842e-06Z" fill="var(--fill-0, #E04C2D)"/>
<path id="Vector_28" d="M240 96H144V98.4H240V96Z" fill="var(--fill-0, #E04C2D)"/>
<path id="Vector_29" d="M240 142.8H144V145.2H240V142.8Z" fill="var(--fill-0, #E04C2D)"/>
<path id="Vector_30" d="M240 119.4H144V121.8H240V119.4Z" fill="var(--fill-0, #E04C2D)"/>
<path id="Vector_31" d="M240 131.099H144V133.499H240V131.099Z" fill="var(--fill-0, #E04C2D)"/>
<path id="Vector_32" d="M240 107.7H144V110.1H240V107.7Z" fill="var(--fill-0, #E04C2D)"/>
<path id="Vector_33" d="M240 154.5H144V156.9H240V154.5Z" fill="var(--fill-0, #E04C2D)"/>
<path id="Vector_34" d="M240 166.2H144V168.6H240V166.2Z" fill="var(--fill-0, #E04C2D)"/>
<path id="Vector_35" d="M240 177.899H144V180.299H240V177.899Z" fill="var(--fill-0, #E04C2D)"/>
<path id="Vector_36" d="M240 189.6H144V192H240V189.6Z" fill="var(--fill-0, #E04C2D)"/>
</g>
<path id="Star 5" d="M90.6568 100.684C93.5187 98.507 97.4813 98.507 100.343 100.684L114.151 111.186C115.821 112.457 117.923 113.02 120.005 112.755L137.214 110.563C140.781 110.109 144.212 112.09 145.602 115.406L152.309 131.406C153.12 133.341 154.659 134.88 156.594 135.691L172.593 142.398C175.91 143.788 177.891 147.219 177.437 150.786L175.245 167.995C174.98 170.077 175.543 172.179 176.814 173.849L187.316 187.657C189.493 190.519 189.493 194.481 187.316 197.343L176.814 211.151C175.543 212.821 174.98 214.923 175.245 217.005L177.437 234.214C177.891 237.781 175.91 241.212 172.594 242.602L156.594 249.309C154.659 250.12 153.12 251.659 152.309 253.594L145.602 269.593C144.212 272.91 140.781 274.891 137.214 274.437L120.005 272.245C117.923 271.98 115.821 272.543 114.151 273.814L100.343 284.316C97.4813 286.493 93.5187 286.493 90.6568 284.316L76.8491 273.814C75.1791 272.543 73.0768 271.98 70.9953 272.245L53.7863 274.437C50.2194 274.891 46.7877 272.91 45.3976 269.594L38.6911 253.594C37.8799 251.659 36.3409 250.12 34.4057 249.309L18.4065 242.602C15.0904 241.212 13.109 237.781 13.5633 234.214L15.7549 217.005C16.02 214.923 15.4567 212.821 14.1864 211.151L3.68387 197.343C1.50703 194.481 1.50703 190.519 3.68387 187.657L14.1864 173.849C15.4567 172.179 16.02 170.077 15.7549 167.995L13.5633 150.786C13.109 147.219 15.0904 143.788 18.4065 142.398L34.4057 135.691C36.3409 134.88 37.8799 133.341 38.6911 131.406L45.3976 115.406C46.7877 112.09 50.2194 110.109 53.7863 110.563L70.9953 112.755C73.0768 113.02 75.1791 112.457 76.8491 111.186L90.6568 100.684Z" fill="var(--fill-0, #E04C2D)" fill-opacity="0.4"/>
</g>
<defs>
<clipPath id="clip0_2964_2425">
<rect width="192" height="192" fill="white" transform="translate(48)"/>
</clipPath>
</defs>
</svg>
