<svg preserveAspectRatio="none" width="100%" height="100%" overflow="visible" style="display: block;" viewBox="0 0 240 288" fill="none" xmlns="http://www.w3.org/2000/svg">
<g id="Group 353">
<path id="Star 5" d="M75.2003 137.508C77.1884 133.569 82.8116 133.569 84.7997 137.508V137.508C86.5072 140.89 91.0839 141.492 93.6086 138.667V138.667C96.5482 135.378 101.98 136.833 102.881 141.152V141.152C103.655 144.861 107.92 146.627 111.089 144.552V144.552C114.78 142.135 119.65 144.947 119.403 149.352V149.352C119.19 153.135 122.853 155.945 126.452 154.76V154.76C130.642 153.382 134.618 157.358 133.24 161.548V161.548C132.055 165.147 134.865 168.81 138.648 168.597V168.597C143.053 168.35 145.865 173.22 143.448 176.911V176.911C141.373 180.08 143.139 184.345 146.848 185.119V185.119C151.167 186.02 152.622 191.452 149.333 194.391V194.391C146.508 196.916 147.11 201.493 150.492 203.2V203.2C154.431 205.188 154.431 210.812 150.492 212.8V212.8C147.11 214.507 146.508 219.084 149.333 221.609V221.609C152.622 224.548 151.167 229.98 146.848 230.881V230.881C143.139 231.655 141.373 235.92 143.448 239.089V239.089C145.865 242.78 143.053 247.65 138.648 247.403V247.403C134.865 247.19 132.055 250.853 133.24 254.452V254.452C134.618 258.642 130.642 262.618 126.452 261.24V261.24C122.853 260.055 119.19 262.865 119.403 266.648V266.648C119.65 271.053 114.78 273.865 111.089 271.448V271.448C107.92 269.373 103.655 271.139 102.881 274.848V274.848C101.98 279.167 96.5482 280.622 93.6086 277.333V277.333C91.0839 274.508 86.5072 275.11 84.7997 278.492V278.492C82.8116 282.431 77.1884 282.431 75.2003 278.492V278.492C73.4928 275.11 68.9161 274.508 66.3914 277.333V277.333C63.4518 280.622 58.0201 279.167 57.119 274.848V274.848C56.3451 271.139 52.0804 269.373 48.9105 271.448V271.448C45.2197 273.865 40.3498 271.053 40.5971 266.648V266.648C40.8096 262.865 37.1473 260.055 33.5483 261.24V261.24C29.3578 262.618 25.3815 258.642 26.7605 254.452V254.452C27.9447 250.853 25.1346 247.19 21.3517 247.403V247.403C16.9471 247.65 14.1355 242.78 16.552 239.089V239.089C18.6274 235.92 16.8609 231.655 13.1519 230.881V230.881C8.83335 229.98 7.37794 224.548 10.6674 221.609V221.609C13.4925 219.084 12.89 214.507 9.50766 212.8V212.8C5.56949 210.812 5.56949 205.188 9.50766 203.2V203.2C12.89 201.493 13.4925 196.916 10.6674 194.391V194.391C7.37794 191.452 8.83335 186.02 13.1519 185.119V185.119C16.8609 184.345 18.6274 180.08 16.552 176.911V176.911C14.1355 173.22 16.9471 168.35 21.3517 168.597V168.597C25.1346 168.81 27.9447 165.147 26.7605 161.548V161.548C25.3815 157.358 29.3578 153.382 33.5483 154.76V154.76C37.1473 155.945 40.8096 153.135 40.5971 149.352V149.352C40.3498 144.947 45.2197 142.135 48.9105 144.552V144.552C52.0804 146.627 56.3451 144.861 57.119 141.152V141.152C58.0201 136.833 63.4518 135.378 66.3914 138.667V138.667C68.9161 141.492 73.4928 140.89 75.2003 137.508V137.508Z" fill="var(--fill-0, #E04C2D)" fill-opacity="0.4"/>
<g id="Vector">
<path d="M42.8863 178.416C46.0722 172.201 49.8969 167.056 53.3563 164.83C61.4278 159.634 69.8931 156.652 79.8448 158.578C87.0439 159.972 92.9477 163.355 98.0903 168.141C101.469 171.285 103.677 175.502 105.433 179.811C106.265 181.854 106.985 184.042 107.202 186.219C107.676 190.968 107.966 195.75 108.024 200.523C108.144 210.18 108.083 219.841 108.039 229.501C108.031 231.306 107.754 233.111 107.606 234.864C111.029 235.589 126.422 235.704 131.811 235.081V230.953C131.811 218.736 131.937 206.518 131.769 194.304C131.644 185.268 132.425 176.22 131.089 167.188C130.571 163.689 129.638 160.356 128.388 157.147C126.068 151.188 122.44 146.101 117.818 141.567C109.352 133.263 99.0946 129.669 87.5835 129.04C85.5369 128.929 83.4551 129.691 81.383 129.732C78.68 129.786 76.1504 130.437 73.6492 131.329C67.8033 133.415 62.4844 136.282 57.7356 140.444C53.6594 144.017 50.2779 148.009 47.81 152.75C43.7183 160.612 41.9196 168.991 42.8863 178.416ZM158.192 235.307V230.817C158.192 206.091 158.141 181.365 158.233 156.64C158.252 151.545 157.748 146.555 156.454 141.668C153.977 132.313 149.619 123.923 143.047 116.782C138.536 111.88 133.265 108.063 127.366 104.86C121.005 101.406 114.268 99.3011 107.281 98.4396C101.034 97.6696 94.5625 97.7429 88.3626 99.2444C78.1744 101.712 68.9017 106.213 61.1629 113.423C53.9532 120.14 48.7965 128.323 45.5872 137.621C43.4606 143.778 42.1434 150.156 42.8806 157.317C44.0887 154.799 44.8621 152.66 46.0645 150.801C48.189 147.514 50.2872 144.133 52.9059 141.259C61.0985 132.268 71.6536 127.794 83.5173 126.408C89.543 125.704 95.578 126.605 101.293 128.576C110.597 131.787 118.683 136.825 124.638 145.005C130.662 153.278 134.247 162.445 134.384 172.622C134.648 192.228 134.463 211.841 134.464 231.452V235.307H158.192ZM160.843 235.449C165.07 235.449 168.877 235.463 172.683 235.446C176.606 235.427 180.529 235.522 184.587 235.386V232.868C184.579 200.044 184.551 167.22 184.594 134.398C184.601 129.735 183.822 125.229 182.88 120.691C180.217 107.817 173.653 97.0802 164.918 87.5768C158.359 80.4393 150.262 75.4284 141.451 71.5333C133.056 67.8228 124.216 66.148 115.097 65.9001C111.604 65.805 108.138 66.0919 104.63 66.555C97.941 67.4364 91.5557 69.1851 85.411 71.7996C72.2237 77.4115 62.0177 86.7082 54.0637 98.4766C50.3905 103.912 47.587 109.834 45.8669 116.293C44.8613 120.069 44.0794 123.838 43.3337 127.659C42.7545 130.629 42.7417 133.443 42.7715 136.687C44.3032 133.121 45.3577 129.732 47.1146 126.761C51.2715 119.733 56.0488 113.241 62.67 108.141C67.9472 104.076 73.4389 100.555 79.682 98.3664C86.6955 95.9061 93.9187 94.3975 101.433 94.7534C104.227 94.8861 106.982 95.1064 109.771 95.4928C115.364 96.2691 120.652 97.9303 125.683 100.261C136.643 105.336 145.288 113.1 151.728 123.426C157.498 132.679 160.772 142.635 160.81 153.535C160.899 179.253 160.841 204.972 160.843 230.691C160.843 232.105 160.843 233.519 160.843 235.449ZM238.095 235.317V221.827C238.095 199.799 238.272 177.77 238.045 155.745C237.812 133.632 239.079 111.499 237.259 89.4079C237.018 86.4837 236.785 83.5233 236.133 80.6759C233.98 71.2513 230.808 62.1634 226.127 53.6814C222.26 46.6611 217.863 39.9648 212.148 34.2897C208.338 30.5125 204.514 26.7076 200.322 23.3814C196.399 20.2648 192.121 17.5296 187.766 15.0365C179.254 10.1662 170.158 6.66668 160.528 4.76885C155.479 3.77377 150.407 2.78015 145.212 2.75102C137.488 2.70772 129.819 2.82845 122.171 4.37826C115.189 5.79311 108.364 7.71579 101.922 10.5931C93.7438 14.2445 85.9207 18.5708 78.9702 24.4653C72.7937 29.7036 67.086 35.3424 62.3081 41.8186C57.0678 48.922 52.6658 56.5552 49.426 64.8561C45.8009 74.1442 43.8578 83.7818 42.6951 93.6226C42.5988 94.4344 42.8231 95.2846 42.8982 96.1178C43.3408 95.3834 43.2842 94.6532 43.486 94.0048C47.7215 80.4024 54.553 68.2497 64.5047 58.0829C68.6021 53.8973 73.3808 50.3204 78.1268 46.8479C90.1166 38.074 103.824 33.3976 118.4 31.8598C127.733 30.8755 137.26 31.2122 146.496 33.4999C160.248 36.9057 172.726 43.0594 183.432 52.3781C190.889 58.8671 197.489 66.2254 202.397 74.9404C210.08 88.5917 214.209 103.31 214.301 118.934C214.506 156.167 214.364 193.4 214.364 230.634V235.317H238.095ZM131.872 64.964L131.88 64.9725C132.308 65.2395 132.703 65.631 133.168 65.7517C134.908 66.2027 136.776 66.3163 138.403 67.0117C141.559 68.3612 144.585 70.0189 147.185 71.3102C147.909 70.8094 148.34 70.2832 148.792 70.2633C149.245 70.2434 149.87 70.6219 150.153 71.0176C150.681 71.7555 150.82 72.8806 151.473 73.4041C153.096 74.7067 154.974 75.6869 156.651 76.9298C162.217 81.0558 167.146 85.8068 171.523 91.2354C173.582 93.7917 174.609 97.301 177.909 98.8381C178.135 98.9418 178.348 99.625 178.227 99.8332C177.314 101.356 178.943 102.051 179.183 103.22C180.005 102.954 180.763 102.708 181.464 102.48C183.05 104.296 181.138 104.885 180.557 105.786C181.449 108.055 182.271 110.272 183.213 112.435C183.524 113.146 184.048 113.867 184.664 114.323C186.697 115.819 186.732 115.773 184.643 117.668C187.816 125.792 187.193 134.413 187.214 143.211C188.659 142.296 189.7 142.438 190.358 143.845C189.7 145.235 188.673 145.428 187.171 144.437C187.356 149.357 186.987 153.991 187.398 158.515C188.609 158.732 189.522 158.897 190.415 159.057C190.365 161.675 188.708 161.124 187.327 161.047V166.955C188.838 166.693 189.825 167.288 190.287 168.74C189.26 168.968 188.241 169.194 187.405 169.381V174.616C188.573 174.927 189.544 175.185 190.493 175.436C190.054 177.717 188.758 177.519 187.299 177.121V183.24C188.665 182.349 189.7 182.517 190.316 183.812C189.806 185.643 188.616 185.279 187.426 184.704V190.906C189.522 190.539 190.485 190.896 190.436 192.014C190.337 194.433 188.212 192.521 187.334 193.301V198.505C188.425 198.749 189.444 198.976 190.408 199.192C190.344 201.84 188.659 201.225 187.348 201.017V207.106C188.892 206.782 189.855 207.383 190.238 208.908C189.296 209.045 188.368 209.18 187.426 209.318V214.796C188.566 214.986 189.501 215.142 190.372 215.286C190.641 218.292 188.17 216.401 187.327 217.259V223.307C188.701 222.504 189.756 222.485 190.287 223.99C189.721 225.724 188.51 225.295 187.32 224.736V231.255C188.864 229.779 190.153 230.541 190.365 231.808C190.804 234.507 188.12 232.579 187.2 233.518C187.263 234.112 187.32 234.643 187.384 235.169C190.195 236.182 192.844 234.507 195.613 235.343C198.176 236.116 200.931 234.595 203.721 235.379C206.313 236.107 208.933 234.342 211.73 235.349V230.23C211.73 196.285 211.681 162.339 211.758 128.394C211.78 119.251 211.61 110.15 209.705 101.163C208.997 100.886 208.267 100.602 207.049 100.124C209.769 97.9474 208.296 95.8344 207.771 93.6183C207.155 91.0244 206.093 88.937 203.324 87.9255C203.891 87.0455 204.316 86.3935 204.875 85.5255C202.807 81.8264 200.718 78.0478 198.58 74.299C198.296 73.8139 197.801 73.2059 197.326 73.1306C195.974 72.9147 195.613 72.4822 195.875 71.0027C196.144 69.4586 195.407 68.9486 193.587 69.0736C192.143 69.1731 191.611 68.4763 191.463 67.1737C191.93 66.8562 192.383 66.5543 192.83 66.2524C192.199 65.3504 191.569 64.4491 190.939 63.5478C189.56 64.564 188.349 64.604 187.306 63.6678C187.582 63.3482 187.816 62.9774 188.141 62.7203C188.524 62.4163 188.984 62.2111 189.607 61.8509C188.411 60.8111 187.363 59.8927 186.307 58.9743C186.017 58.6952 185.734 58.4161 185.451 58.1376C184.36 57.0516 183.276 55.9656 182.193 54.8796C182.087 54.7859 181.988 54.6843 181.895 54.5728C180.607 52.3099 178.674 52.0371 176.181 53.1921C176.018 50.8048 176.138 48.3963 172.966 48.7692C172.639 48.8075 172.122 48.5369 171.934 48.2507C169.484 44.5197 165.415 43.4798 161.639 41.9513L161.626 41.94C160.147 40.1473 158.258 40.729 156.483 41.1459C155.795 40.3128 155.327 39.1983 154.554 38.9128C152.227 38.0534 149.815 37.2657 147.372 36.9383C145.561 36.6961 143.82 36.6257 142.167 35.6797C140.955 34.9865 139.663 34.5525 138.549 36.1911C137.728 37.3978 136.61 37.1052 135.766 36.0036C135.36 35.4723 135.035 34.8778 134.81 34.5248H131.146C130.127 35.6172 129.632 36.6372 128.945 36.7871C127.191 37.1713 127.959 35.1513 127.225 34.5468H121.979C122.181 35.1605 122.45 35.5731 122.396 35.9368C122.35 36.2536 121.985 36.6876 121.678 36.7735C119.604 37.3553 120.199 35.2919 119.505 34.4509C117.76 34.8252 115.556 34.6796 114.428 35.7138C113.315 36.7344 112.932 36.7266 111.757 36.1946C110.935 35.8231 109.775 35.8906 108.854 36.1179C106.595 36.6748 104.386 37.4376 102.4 38.0442C102.155 39.2374 101.969 40.1402 101.693 41.4869C100.81 40.8285 100.336 40.312 99.7489 40.0791C99.0308 39.7929 98.0876 39.4058 97.4693 39.648C94.2982 40.8896 90.6823 41.5252 89.2306 45.2698C87.1041 43.9131 85.6424 44.7626 84.3033 46.1704L84.2219 46.2449C83.6929 46.3919 83.084 46.4168 82.6477 46.7044C73.89 52.4874 66.2235 59.4879 59.8438 67.83C57.3355 71.1093 55.223 74.6926 53.2685 77.6302C53.8584 78.8682 54.517 79.5835 54.4306 80.1922C54.1665 82.0467 52.1326 80.5445 51.0328 82.0531C50.0393 84.3622 48.8355 87.1585 47.6281 89.9655C49.559 90.7065 50.1315 91.7858 49.3459 93.2035C48.6258 92.6815 47.9227 92.1736 46.8591 91.403C47.1494 95.4231 44.9853 98.4219 44.2573 101.678C45.2147 102.489 45.976 103.134 47.4801 104.408C45.624 104.621 44.6941 104.728 43.6715 104.846C43.3019 108.301 42.9048 112.019 42.5075 115.736C44.2027 110.565 46.9893 105.986 49.0387 101.334C48.5487 100.681 47.7463 100.036 47.8582 99.6847C48.3369 98.1875 49.4566 97.9645 50.9345 98.8267C51.3317 97.5866 51.5186 96.2853 52.1447 95.2519C52.7593 94.2369 53.8562 93.5266 54.6791 92.6253C57.7185 89.2914 60.5632 85.7571 63.808 82.6397C66.4933 80.0586 69.8974 78.2524 72.0913 75.096C72.315 74.7749 72.7229 74.5356 73.0954 74.375C74.3099 73.853 75.6582 72.3472 76.0152 71.1682C76.1327 70.7818 76.4925 70.4686 76.7453 70.1156C77.7423 70.7797 78.517 71.2947 79.2238 71.7656C80.8823 70.9026 82.4317 70.2164 83.8508 69.3222C85.1064 68.5317 86.5886 68.4273 87.8534 67.3847C88.9574 66.4727 90.953 66.6509 92.5527 66.337C92.6845 66.3107 92.7934 66.1743 92.9258 66.1395C95.0616 65.5812 97.1995 65.0308 99.1158 64.535C99.8176 63.709 100.415 63.0059 101.217 62.0612C102.286 63.5328 103.109 64.4548 105.034 63.6173C106.913 62.7998 109.071 62.3183 111.349 63.1216C112.566 63.5506 114.212 63.3162 115.481 62.8652C116.665 62.4447 117.505 62.6969 118.628 62.9071C120.756 63.3056 123.122 64.6224 125.213 62.1009C126.92 64.5144 129.184 65.3106 131.872 64.964ZM44.1589 182.775C43.2425 185.357 42.6574 187.992 42.6617 190.759C42.6822 204.526 42.6661 218.292 42.6795 232.058C42.6802 233.144 42.8055 234.229 42.8904 235.601C44.9582 235.395 46.7478 235.089 48.5394 235.072C50.4238 235.054 52.3089 235.359 54.1976 235.424C54.8682 235.447 55.5445 235.116 56.2264 235.061C56.8539 235.011 57.5166 235.018 58.1235 235.165C60.5129 235.741 62.8308 234.834 65.0898 234.843C67.3531 234.851 69.7176 235.81 72.046 235.145C72.9071 234.898 73.4721 234.861 74.3509 235.128C76.6737 235.837 79.0367 234.847 81.3014 234.836C83.5604 234.827 85.9321 235.881 88.2471 235.1C89.1606 234.792 89.7349 235.005 90.5564 235.165C92.5916 235.563 94.6425 235.155 96.6996 234.952C98.7249 234.753 101.039 235.67 103.256 235.32C104.021 235.199 104.698 234.53 105.426 234.104C105.426 232.892 105.639 231.703 105.365 230.642C105.103 229.63 104.334 228.75 103.992 228.165C104.55 226.586 105.383 225.307 105.341 224.057C105.294 222.652 104.457 221.273 103.936 219.804C105.568 217.696 106.623 215.482 104.181 212.998C103.842 212.654 103.794 211.462 104.106 211.125C106.435 208.613 105.748 206.311 103.845 204.147C103.861 203.867 103.813 203.681 103.884 203.594C105.718 201.347 106.664 199.126 104.091 196.691C103.8 196.415 103.957 195.008 104.239 194.883C106.117 194.052 105.76 192.23 105.306 191.239C104.377 189.215 104.334 187.199 104.081 185.096C103.839 183.077 102.742 181.174 102.15 179.181C101.562 177.206 99.222 176.417 98.9657 174.113C98.9062 173.575 96.8525 173.462 96.2145 172.722C95.6699 172.091 95.9603 170.797 95.6395 169.881C95.5028 169.491 94.7784 169.201 94.27 169.076C93.6206 168.919 92.9188 168.974 92.1398 168.931C91.7985 167.287 91.717 165.583 89.5628 165.531C89.0741 165.519 88.4886 165.148 88.1338 164.767C86.3825 162.89 84.1185 162.375 81.7129 162.176L81.7179 162.179C81.6648 162.048 81.6386 161.821 81.5557 161.798C76.8019 160.478 72.0091 160.246 67.2007 161.436C66.1945 161.685 65.3934 162.147 66.2524 163.521C66.4677 163.866 65.6895 164.837 65.4395 165.368C63.2612 164.852 64.0382 163.531 64.3951 162.141C63.4122 162.533 62.6366 162.78 61.9157 163.139C60.032 164.077 58.0769 164.917 56.3321 166.073C54.6728 167.173 53.9243 169.375 51.6682 169.92C51.0959 170.058 50.7687 171.223 50.3325 171.917C50.0563 172.359 49.8813 172.921 49.4996 173.228C46.5233 175.625 45.1673 178.889 44.4343 182.506L44.1589 182.775ZM239.922 238H40.2888C40.1946 236.904 40.0203 235.825 40.0203 234.746C40.0104 188.861 39.9581 142.976 40.0742 97.0922C40.0948 89.1337 41.7489 81.3378 43.731 73.6165C46.7286 61.9432 52.2658 51.5094 58.9012 41.604C60.4598 39.2786 62.3781 37.172 64.2895 35.1129C67.724 31.4139 71.0835 27.5955 74.9911 24.4106C79.5431 20.7002 84.1355 16.9159 89.1719 13.9548C98.4537 8.49849 108.373 4.18855 118.944 2.07691C124.498 0.967551 130.162 -0.299609 135.979 0.0633308C139.647 0.292747 143.342 0.0555279 147.023 0.130092C153.459 0.259368 159.705 1.62307 165.925 3.1587C173.695 5.07708 180.961 8.25985 187.972 12.0598C195.145 15.9478 201.908 20.4224 207.708 26.2409C209.776 28.3177 211.865 30.3775 213.918 32.4686C225.27 44.0218 232.529 57.9921 237.146 73.3303C239.157 79.9969 240.021 86.9397 240 94.0466C239.851 140.357 239.922 186.668 239.922 232.978V238Z" fill="var(--fill-0, #E04C2D)"/>
<path d="M164.962 73.8721C164.297 72.9332 163.467 72.2684 163.535 71.7144C163.605 71.1454 164.575 70.2662 165.109 70.2953C165.646 70.3244 166.508 71.2939 166.528 71.8756C166.548 72.4354 165.671 73.0255 164.962 73.8721Z" fill="var(--fill-0, #E04C2D)"/>
<path d="M205.512 233.958C204.096 233.298 202.928 232.91 203.65 231.451C204.004 230.725 204.705 230.022 205.675 230.727C207.488 232.047 205.406 232.703 205.512 233.958Z" fill="var(--fill-0, #E04C2D)"/>
<path d="M138.475 43.1354C138.149 43.8066 137.8 44.5233 137.324 45.5006C136.669 45.061 135.9 44.8123 135.679 44.318C135.478 43.8634 135.685 42.9933 136.032 42.5714C136.973 41.4272 137.718 42.2163 138.475 43.1354Z" fill="var(--fill-0, #E04C2D)"/>
<path d="M122.503 54.962H126.504C126.918 56.3861 126.099 57.1439 125.156 57.1048C124.489 57.0778 123.86 56.1119 122.503 54.962Z" fill="var(--fill-0, #E04C2D)"/>
<path d="M193.969 206.006C191.883 204.61 191.784 203.34 193.672 202.197C193.764 203.355 193.842 204.338 193.969 206.006Z" fill="var(--fill-0, #E04C2D)"/>
<path d="M188.255 74.3828C188.149 72.3614 188.099 71.3655 188.056 70.4337C189.614 69.8939 190.351 70.764 190.351 71.671C190.351 72.3209 189.402 72.9708 188.255 74.3828Z" fill="var(--fill-0, #E04C2D)"/>
<path d="M188.007 137.572C188.007 136.487 187.865 135.903 188.049 135.446C188.234 134.969 188.736 134.616 189.105 134.202C190.271 135.445 189.905 136.569 188.007 137.572Z" fill="var(--fill-0, #E04C2D)"/>
<path d="M208.996 130.133C209.506 130.921 210.037 131.385 210.087 131.899C210.2 132.926 209.443 133.42 208.55 133.11C208.111 132.955 207.601 132.172 207.63 131.702C207.651 131.255 208.338 130.846 208.996 130.133Z" fill="var(--fill-0, #E04C2D)"/>
<path d="M198.679 87.7756C197.886 88.2771 197.418 88.7983 196.901 88.8516C195.875 88.956 195.393 88.1939 195.712 87.3033C195.867 86.8572 196.653 86.3472 197.121 86.3806C197.567 86.4132 197.971 87.1037 198.679 87.7756Z" fill="var(--fill-0, #E04C2D)"/>
<path d="M198.679 127.963C197.85 128.412 197.291 128.968 196.852 128.886C196.377 128.797 195.74 128.151 195.669 127.672C195.514 126.657 196.278 126.162 197.185 126.433C197.666 126.578 197.999 127.237 198.679 127.963Z" fill="var(--fill-0, #E04C2D)"/>
<path d="M181.612 69.9778C182.37 71.6654 182.143 72.6697 180.692 73.2642C179.799 72.1509 180.106 71.0555 181.612 69.9778Z" fill="var(--fill-0, #E04C2D)"/>
<path d="M194.593 99.4858C194.359 99.8068 194.161 100.369 193.877 100.413C193.148 100.528 192.376 100.416 191.618 100.394C191.647 100.015 191.526 99.5348 191.71 99.2741C192.312 98.4396 193.035 97.7385 194.055 98.8018C194.246 99.0007 194.394 99.2343 194.593 99.4858Z" fill="var(--fill-0, #E04C2D)"/>
<path d="M83.0449 51.7857C82.2872 52.354 81.8502 52.9321 81.3333 53.0166C80.3065 53.1835 79.7966 52.4313 80.0579 51.5257C80.1868 51.0761 80.936 50.5214 81.3949 50.5306C81.8566 50.5392 82.3063 51.1877 83.0449 51.7857Z" fill="var(--fill-0, #E04C2D)"/>
<path d="M104.944 49.9802C105.593 50.6827 106.278 51.0931 106.302 51.5399C106.328 52.0158 105.828 52.805 105.383 52.9626C104.486 53.2815 103.735 52.7652 103.824 51.7537C103.871 51.2388 104.424 50.77 104.944 49.9802Z" fill="var(--fill-0, #E04C2D)"/>
<path d="M201.122 162.309C203.069 163.643 202.503 164.616 200.782 165.632C199.451 164.521 199.55 163.519 201.122 162.309Z" fill="var(--fill-0, #E04C2D)"/>
<path d="M119.482 51.9228C120.169 51.2608 120.568 50.5654 121.007 50.5384C121.482 50.5093 122.273 51.0029 122.434 51.4476C122.757 52.3397 122.259 53.1054 121.246 53.0258C120.736 52.986 120.267 52.4363 119.482 51.9228Z" fill="var(--fill-0, #E04C2D)"/>
<path d="M204.656 134.278C205.959 135.046 206.355 136.02 205.385 137.333C203.785 136.492 203.542 135.474 204.656 134.278Z" fill="var(--fill-0, #E04C2D)"/>
<path d="M65.3056 73.8686C65.8176 74.6648 66.3466 75.1323 66.4047 75.6522C66.5215 76.6977 65.7404 77.1508 64.8637 76.8475C64.4225 76.6947 63.917 75.912 63.9453 75.4454C63.9729 74.9951 64.6498 74.5853 65.3056 73.8686Z" fill="var(--fill-0, #E04C2D)"/>
<path d="M206.461 127.726C205.69 129.006 204.726 129.453 203.423 128.434C204.269 126.809 205.281 126.572 206.461 127.726Z" fill="var(--fill-0, #E04C2D)"/>
<path d="M128.708 53.5173C128.207 52.7083 127.679 52.2282 127.635 51.7075C127.548 50.6614 128.348 50.2209 129.219 50.5299C129.653 50.6847 130.145 51.4894 130.102 51.9526C130.059 52.4121 129.376 52.8106 128.708 53.5173Z" fill="var(--fill-0, #E04C2D)"/>
<path d="M144.868 53.5102C144.363 52.7111 143.826 52.2338 143.785 51.7167C143.703 50.6883 144.484 50.2188 145.362 50.5363C145.801 50.6954 146.296 51.493 146.257 51.959C146.219 52.4135 145.532 52.8127 144.868 53.5102Z" fill="var(--fill-0, #E04C2D)"/>
<path d="M186.768 92.0096C185.967 92.516 185.486 93.0516 184.976 93.0921C183.942 93.1738 183.489 92.3782 183.801 91.506C183.956 91.0707 184.757 90.5841 185.224 90.6239C185.677 90.663 186.074 91.3462 186.768 92.0096Z" fill="var(--fill-0, #E04C2D)"/>
<path d="M168.939 49.9681C169.49 50.7288 170.114 51.2126 170.092 51.6643C170.069 52.1394 169.499 52.8681 169.042 52.9839C168.107 53.2204 167.424 52.6366 167.636 51.628C167.744 51.1209 168.328 50.7154 168.939 49.9681Z" fill="var(--fill-0, #E04C2D)"/>
<path d="M194.6 91.8284C193.49 92.7953 192.395 92.5789 191.314 91.1792C192.723 90.0797 193.736 90.3823 194.6 91.8284Z" fill="var(--fill-0, #E04C2D)"/>
<path d="M198.679 120.062C197.9 120.603 197.447 121.163 196.93 121.224C195.91 121.348 195.414 120.578 195.705 119.688C195.846 119.245 196.625 118.733 197.093 118.751C197.539 118.768 197.964 119.435 198.679 120.062Z" fill="var(--fill-0, #E04C2D)"/>
<path d="M208.997 173.749C208.338 173.033 207.651 172.621 207.623 172.168C207.595 171.702 208.112 170.924 208.565 170.766C209.457 170.451 210.208 170.949 210.094 171.976C210.038 172.493 209.507 172.958 208.997 173.749Z" fill="var(--fill-0, #E04C2D)"/>
<path d="M181.364 97.4971C180.014 96.3417 179.842 95.2416 180.847 94.1966C182.094 94.9842 182.59 95.9395 181.364 97.4971Z" fill="var(--fill-0, #E04C2D)"/>
<path d="M206.546 176.207C205.229 178.128 204.259 177.576 203.246 175.852C204.351 174.536 205.343 174.612 206.546 176.207Z" fill="var(--fill-0, #E04C2D)"/>
<path d="M203.246 95.3067C204.918 94.3329 205.817 94.8649 206.511 96.1178C205.368 97.0217 204.28 96.7514 203.246 95.3067Z" fill="var(--fill-0, #E04C2D)"/>
<path d="M163.228 55.1474C164.911 54.4144 165.918 54.6189 166.507 56.0821C165.392 56.9548 164.299 56.6432 163.228 55.1474Z" fill="var(--fill-0, #E04C2D)"/>
<path d="M81.2845 61.3849C80.9191 61.1228 80.8001 61.0489 80.6946 60.9594C79.8023 60.2051 79.6685 59.2953 80.4382 58.4515C80.6131 58.2597 81.4828 58.4422 81.8248 58.7143C83.1561 59.774 82.4352 60.5908 81.2845 61.3849Z" fill="var(--fill-0, #E04C2D)"/>
<path d="M194.982 180.201C193.623 180.543 192.702 180.776 191.201 181.154C191.583 180.06 191.64 179.521 191.923 179.169C192.95 177.897 193.793 178.456 194.982 180.201Z" fill="var(--fill-0, #E04C2D)"/>
<path d="M198.679 184.065C197.9 184.591 197.44 185.141 196.923 185.197C195.903 185.308 195.407 184.544 195.705 183.649C195.853 183.203 196.639 182.687 197.107 182.713C197.553 182.736 197.971 183.418 198.679 184.065Z" fill="var(--fill-0, #E04C2D)"/>
<path d="M89.6421 58.095C90.6661 59.6164 90.3022 60.5653 89.1528 61.1612C88.9241 61.2798 88.1069 60.7997 87.9568 60.4325C87.3669 58.9899 88.439 58.5915 89.6421 58.095Z" fill="var(--fill-0, #E04C2D)"/>
<path d="M97.5551 61.4346C96.0509 60.5383 95.6444 59.5716 96.65 58.2676C98.0871 59.0285 98.3888 60.0842 97.5551 61.4346Z" fill="var(--fill-0, #E04C2D)"/>
<path d="M120.44 58.0253C121.912 59.122 122.198 60.2239 121.297 61.331C119.899 60.6889 119.606 59.7001 120.44 58.0253Z" fill="var(--fill-0, #E04C2D)"/>
<path d="M191.491 187.398C192.787 186.392 193.757 186.789 194.536 188.081C193.365 189.217 192.35 188.99 191.491 187.398Z" fill="var(--fill-0, #E04C2D)"/>
<path d="M128.856 61.3459C127.8 60.615 127.016 59.8202 128.35 58.7335C128.694 58.4536 129.608 58.2598 129.735 58.4274C130.725 59.735 130.179 60.6796 128.856 61.3459Z" fill="var(--fill-0, #E04C2D)"/>
<path d="M204.507 193.598C203.657 192.312 203.921 191.25 205.3 190.411C206.391 191.661 205.973 192.615 204.507 193.598Z" fill="var(--fill-0, #E04C2D)"/>
<path d="M135.47 59.4529C136.568 58.504 137.653 58.7068 138.726 60.061C137.336 61.2315 136.334 60.8912 135.47 59.4529Z" fill="var(--fill-0, #E04C2D)"/>
<path d="M184.48 98.0212C185.139 98.6356 185.932 99.0632 186.166 99.6975C186.322 100.113 185.677 100.828 185.316 101.55C183.673 100.685 183.213 99.7486 184.48 98.0212Z" fill="var(--fill-0, #E04C2D)"/>
<path d="M161.19 61.3608C159.937 60.6093 159.382 59.6725 160.358 58.3081C162.024 59.0609 162.301 60.0785 161.19 61.3608Z" fill="var(--fill-0, #E04C2D)"/>
<path d="M169.64 58.2676C170.651 59.5737 170.225 60.5369 168.946 61.3153C167.797 60.1301 168.028 59.1142 169.64 58.2676Z" fill="var(--fill-0, #E04C2D)"/>
<path d="M194.593 195.876C193.835 197.119 192.9 197.692 191.541 196.697C192.305 195.021 193.323 194.747 194.593 195.876Z" fill="var(--fill-0, #E04C2D)"/>
<path d="M196.937 198.342C197.503 199.089 198.077 199.512 198.169 200.021C198.346 201.032 197.652 201.598 196.724 201.332C196.271 201.202 195.712 200.462 195.712 199.991C195.705 199.541 196.349 199.082 196.937 198.342Z" fill="var(--fill-0, #E04C2D)"/>
<path d="M196.746 158.275C197.404 158.971 198.091 159.373 198.119 159.817C198.148 160.29 197.652 161.079 197.213 161.237C196.321 161.557 195.563 161.066 195.655 160.045C195.697 159.533 196.236 159.066 196.746 158.275Z" fill="var(--fill-0, #E04C2D)"/>
<path d="M193.12 161.649C193.545 163.325 193.778 164.25 194.168 165.764C193.063 165.374 192.475 165.341 192.185 165.031C191.307 164.109 191.349 164.068 193.12 161.649Z" fill="var(--fill-0, #E04C2D)"/>
<path d="M191.201 156.453C192.386 155.036 193.505 154.833 194.557 155.845C193.8 157.183 192.794 157.476 191.201 156.453Z" fill="var(--fill-0, #E04C2D)"/>
<path d="M71.1415 63.8545C70.3427 64.3702 69.8747 64.9036 69.3549 64.9611C68.3097 65.0776 67.8613 64.2878 68.1609 63.4099C68.3118 62.9689 69.0964 62.4617 69.561 62.493C70.0149 62.5235 70.4256 63.1997 71.1415 63.8545Z" fill="var(--fill-0, #E04C2D)"/>
<path d="M198.622 208.395C197.73 208.702 197.093 209.154 196.661 209.006C196.214 208.856 195.697 208.125 195.69 207.636C195.662 206.545 196.576 206.292 197.376 206.632C197.836 206.826 198.07 207.567 198.622 208.395Z" fill="var(--fill-0, #E04C2D)"/>
<path d="M206.469 207.74C205.853 209.209 204.826 209.361 203.48 208.821C204.155 207.021 205.151 206.661 206.469 207.74Z" fill="var(--fill-0, #E04C2D)"/>
<path d="M77.4065 65.4604C76.658 64.7857 75.9896 64.4675 75.8331 63.9831C75.5371 63.0633 76.054 62.3118 77.0511 62.4375C77.5234 62.4972 78.1757 63.1322 78.272 63.6038C78.3626 64.0477 77.8293 64.6195 77.4065 65.4604Z" fill="var(--fill-0, #E04C2D)"/>
<path d="M196.604 165.975C197.333 166.653 197.978 166.978 198.134 167.46C198.417 168.372 197.935 169.134 196.923 168.99C196.448 168.922 195.79 168.295 195.698 167.828C195.613 167.384 196.165 166.817 196.604 165.975Z" fill="var(--fill-0, #E04C2D)"/>
<path d="M92.8939 65.457C92.4428 64.6238 91.8855 64.0612 91.9684 63.6202C92.0576 63.1478 92.7077 62.5101 93.1857 62.439C94.2012 62.287 94.6814 63.0619 94.4108 63.9682C94.2671 64.4505 93.6126 64.7801 92.8939 65.457Z" fill="var(--fill-0, #E04C2D)"/>
<path d="M191.257 211.217C192.943 210.45 193.948 210.677 194.557 212.133C193.438 213.051 192.339 212.746 191.257 211.217Z" fill="var(--fill-0, #E04C2D)"/>
<path d="M131.872 64.964C131.875 64.4235 131.685 63.7579 131.931 63.3736C132.218 62.9262 132.864 62.554 133.398 62.4851C133.692 62.4467 134.387 63.1385 134.349 63.4297C134.28 63.9667 133.911 64.6166 133.465 64.9064C133.083 65.155 132.419 64.9668 131.88 64.9725L131.872 64.964Z" fill="var(--fill-0, #E04C2D)"/>
<path d="M183.241 75.8254C183.949 75.1556 184.353 74.4652 184.806 74.4361C185.274 74.4049 186.059 74.9127 186.215 75.3594C186.541 76.2608 186.031 77.0044 185.011 76.9043C184.502 76.8546 184.034 76.3289 183.241 75.8254Z" fill="var(--fill-0, #E04C2D)"/>
<path d="M194.614 75.6343C194.352 76.0008 194.274 76.1193 194.189 76.2245C193.438 77.1116 192.532 77.2522 191.689 76.483C191.498 76.3097 191.682 75.4368 191.959 75.0938C193.014 73.7648 193.828 74.4815 194.614 75.6343Z" fill="var(--fill-0, #E04C2D)"/>
<path d="M196.731 225.763C196.229 224.961 195.697 224.487 195.655 223.97C195.563 222.932 196.342 222.474 197.22 222.79C197.659 222.949 198.155 223.745 198.112 224.212C198.077 224.663 197.397 225.063 196.731 225.763Z" fill="var(--fill-0, #E04C2D)"/>
<path d="M157.114 61.9269C157.634 62.716 158.177 63.1812 158.23 63.6968C158.337 64.7239 157.572 65.2118 156.685 64.9064C156.242 64.7544 155.738 63.971 155.763 63.4994C155.786 63.0527 156.464 62.64 157.114 61.9269Z" fill="var(--fill-0, #E04C2D)"/>
<path d="M196.739 105.527C196.229 104.731 195.697 104.26 195.655 103.747C195.563 102.72 196.335 102.246 197.22 102.564C197.659 102.723 198.148 103.515 198.112 103.987C198.084 104.43 197.397 104.829 196.739 105.527Z" fill="var(--fill-0, #E04C2D)"/>
<path d="M173.219 61.929C173.752 62.7096 174.311 63.1684 174.368 63.6834C174.481 64.7076 173.716 65.2005 172.828 64.9107C172.387 64.7665 171.874 63.9838 171.896 63.515C171.918 63.0633 172.587 62.6421 173.219 61.929Z" fill="var(--fill-0, #E04C2D)"/>
<path d="M62.8958 79.9612C61.5914 80.8557 60.5318 80.5881 59.7169 79.1586C60.9845 78.0605 61.9356 78.5137 62.8958 79.9612Z" fill="var(--fill-0, #E04C2D)"/>
<path d="M191.477 116.46C192.294 115.019 193.339 114.729 194.614 115.59C193.856 117.019 192.943 117.539 191.477 116.46Z" fill="var(--fill-0, #E04C2D)"/>
<path d="M187.256 79.9834C188.184 78.5238 189.133 78.0643 190.422 79.141C189.629 80.5976 188.573 80.8783 187.256 79.9834Z" fill="var(--fill-0, #E04C2D)"/>
<path d="M197.064 78.1082C197.581 78.8952 198.126 79.3562 198.183 79.8704C198.289 80.8917 197.546 81.4053 196.646 81.102C196.2 80.9521 195.697 80.1644 195.719 79.6893C195.74 79.2411 196.42 78.8242 197.064 78.1082Z" fill="var(--fill-0, #E04C2D)"/>
<path d="M112.766 42.141C114.032 42.874 114.551 43.8123 113.626 45.1731C111.972 44.4392 111.685 43.4285 112.766 42.141Z" fill="var(--fill-0, #E04C2D)"/>
<path d="M193.46 125.598C192.001 124.51 191.723 123.417 192.624 122.317C193.998 122.964 194.359 123.931 193.46 125.598Z" fill="var(--fill-0, #E04C2D)"/>
<path d="M197.064 142.072C197.588 142.865 198.126 143.331 198.183 143.85C198.296 144.883 197.524 145.364 196.639 145.062C196.2 144.912 195.69 144.126 195.719 143.659C195.747 143.204 196.42 142.789 197.064 142.072Z" fill="var(--fill-0, #E04C2D)"/>
<path d="M127.31 49.0768C125.44 48.6016 124.516 48.3665 123.396 48.0817C124.595 46.6375 125.899 46.9692 127.31 49.0768Z" fill="var(--fill-0, #E04C2D)"/>
<path d="M54.9503 88.1614C54.0524 88.4739 53.4165 88.9284 52.9745 88.7842C52.532 88.6393 52.0172 87.9035 52.0052 87.4155C51.9783 86.336 52.8706 86.0454 53.692 86.3963C54.1537 86.593 54.3859 87.3303 54.9503 88.1614Z" fill="var(--fill-0, #E04C2D)"/>
<path d="M187.334 87.5775C188.43 86.6215 189.518 86.8341 190.599 88.2153C189.197 89.3439 188.191 89.0307 187.334 87.5775Z" fill="var(--fill-0, #E04C2D)"/>
<path d="M194.6 131.906C193.495 132.866 192.4 132.65 191.314 131.258C192.723 130.155 193.736 130.472 194.6 131.906Z" fill="var(--fill-0, #E04C2D)"/>
<path d="M206.617 151.596C206.072 152.022 205.612 152.564 205.031 152.78C204.599 152.941 204.018 152.675 203.452 152.592C204.151 150.792 205.206 150.46 206.617 151.596Z" fill="var(--fill-0, #E04C2D)"/>
<path d="M194.607 108.04C193.474 108.973 192.39 108.74 191.357 107.34C192.78 106.248 193.764 106.627 194.607 108.04Z" fill="var(--fill-0, #E04C2D)"/>
<path d="M61.6784 70.2065C62.6896 71.5112 62.2753 72.4779 60.9851 73.2528C59.8549 72.0799 60.086 71.0645 61.6784 70.2065Z" fill="var(--fill-0, #E04C2D)"/>
<path d="M209.521 154.149C209.974 156.218 209.204 156.953 207.212 156.356C208.033 155.571 208.685 154.949 209.521 154.149Z" fill="var(--fill-0, #E04C2D)"/>
<path d="M206.461 160.111C205.612 161.47 204.684 161.808 203.636 160.307C204.486 159.137 205.428 159.072 206.461 160.111Z" fill="var(--fill-0, #E04C2D)"/>
<path d="M208.841 165.421C207.262 164.45 207.078 163.465 208.791 162.364C210.477 163.299 210.583 164.289 208.841 165.421Z" fill="var(--fill-0, #E04C2D)"/>
<path d="M203.466 167.711C204.5 166.093 205.505 166.032 206.49 167.751C205.442 169.473 204.443 169.407 203.466 167.711Z" fill="var(--fill-0, #E04C2D)"/>
<path d="M111.252 39.2445C110.06 40.1835 109.406 40.6999 108.647 41.2979C108.165 39.3499 109.034 38.6654 111.252 39.2445Z" fill="var(--fill-0, #E04C2D)"/>
<path d="M118.827 40.2417C117.956 40.6473 117.281 41.1146 117.154 40.9953C116.621 40.4938 116.252 39.817 115.823 39.204C116.252 38.9689 116.832 38.4334 117.079 38.5591C117.648 38.8475 118.055 39.4576 118.827 40.2417Z" fill="var(--fill-0, #E04C2D)"/>
<path d="M122.757 39.1635C125.01 38.6763 125.848 39.3889 125.271 41.3014C124.542 40.6807 123.911 40.1451 122.757 39.1635Z" fill="var(--fill-0, #E04C2D)"/>
<path d="M131.35 39.6046C132.24 39.1458 132.814 38.7125 133.446 38.5946C133.681 38.5513 134.053 39.248 134.361 39.6074C133.778 40.079 133.221 40.599 132.578 40.9669C132.492 41.0166 131.971 40.3035 131.35 39.6046Z" fill="var(--fill-0, #E04C2D)"/>
<path d="M142.533 39.4384C142.004 40.2012 141.541 40.9712 141.48 40.9399C140.817 40.6061 140.217 40.1458 139.6 39.7204C139.877 39.3318 140.187 38.6003 140.425 38.6231C141.054 38.682 141.653 39.0691 142.533 39.4384Z" fill="var(--fill-0, #E04C2D)"/>
<path d="M150.887 39.1564C150.088 39.9739 149.454 40.6238 148.643 41.4541C148.142 39.4142 148.89 38.6483 150.887 39.1564Z" fill="var(--fill-0, #E04C2D)"/>
<path d="M194.586 171.916C193.644 173.685 192.652 173.62 191.534 172.05C192.482 170.324 193.467 170.262 194.586 171.916Z" fill="var(--fill-0, #E04C2D)"/>
<path d="M199.366 171.791C200.251 171.328 200.817 170.892 201.448 170.774C201.681 170.73 202.057 171.427 202.368 171.786C201.788 172.256 201.235 172.776 200.598 173.141C200.506 173.192 199.989 172.484 199.366 171.791Z" fill="var(--fill-0, #E04C2D)"/>
<path d="M97.4454 42.1218C99.1691 43.3434 98.8589 44.2753 97.4694 45.1617C95.7961 44.2533 95.634 43.2823 97.4454 42.1218Z" fill="var(--fill-0, #E04C2D)"/>
<path d="M105.002 42.0671C106.615 43.0693 106.847 44.0047 105.349 45.0311C104.306 44.2355 104.19 43.2476 105.002 42.0671Z" fill="var(--fill-0, #E04C2D)"/>
<path d="M121.232 42.114C122.412 42.9052 123.08 43.727 121.773 44.7591C121.525 44.9544 120.756 44.8329 120.482 44.58C119.421 43.602 120.133 42.9031 121.232 42.114Z" fill="var(--fill-0, #E04C2D)"/>
<path d="M128.901 45.2136C127.153 43.9948 127.402 43.0608 128.875 42.146C130.571 43.0608 130.587 44.0402 128.901 45.2136Z" fill="var(--fill-0, #E04C2D)"/>
<path d="M144.959 42.0685C146.578 43.0686 146.817 44.004 145.307 45.0317C144.257 44.2358 144.141 43.248 144.959 42.0685Z" fill="var(--fill-0, #E04C2D)"/>
<path d="M161.639 41.9513C162.049 43.0075 163.365 44.1219 161.368 44.9721C160.192 44.0734 160.278 43.0626 161.626 41.94L161.639 41.9513Z" fill="var(--fill-0, #E04C2D)"/>
<path d="M153.612 46.1114C152.467 44.8229 151.9 44.1844 150.804 42.95C152.309 43.0416 153.27 42.8285 153.68 43.2106C154.013 43.521 153.686 44.5445 153.612 46.1114Z" fill="var(--fill-0, #E04C2D)"/>
<path d="M84.3033 46.1704C85.1198 46.5091 85.9363 46.8486 86.8391 47.2236C86.0184 48.4104 85.4916 49.265 84.2602 48.4048C83.1852 47.6541 84.0731 46.9644 84.2219 46.2449L84.3033 46.1704Z" fill="var(--fill-0, #E04C2D)"/>
<path d="M200.591 178.436C201.646 178.735 202.637 179.171 202.142 180.522C202.035 180.806 200.761 181.037 200.4 180.774C199.5 180.107 199.55 179.204 200.591 178.436Z" fill="var(--fill-0, #E04C2D)"/>
<path d="M99.4714 48.0135C99.9409 47.4012 100.412 46.7876 101.263 45.6782C101.644 46.7961 102.226 47.6114 102.019 48.0682C101.47 49.287 100.529 49.0022 99.4714 48.0135Z" fill="var(--fill-0, #E04C2D)"/>
<path d="M110.965 48.1598C108.931 48.6632 108.175 47.9069 108.694 45.8912C109.504 46.7009 110.148 47.3431 110.965 48.1598Z" fill="var(--fill-0, #E04C2D)"/>
<path d="M117.363 49.2295C116.602 48.6918 115.835 48.2265 115.868 48.1612C116.199 47.4935 116.662 46.8905 117.088 46.2698C117.476 46.551 118.209 46.8643 118.186 47.1058C118.126 47.7393 117.735 48.3416 117.363 49.2295Z" fill="var(--fill-0, #E04C2D)"/>
<path d="M206.49 183.884C205.548 185.6 204.564 185.685 203.473 183.959C204.415 182.245 205.399 182.156 206.49 183.884Z" fill="var(--fill-0, #E04C2D)"/>
<path d="M132.539 45.8869C133.332 46.7009 133.961 47.3473 134.767 48.174C132.711 48.665 131.968 47.9026 132.539 45.8869Z" fill="var(--fill-0, #E04C2D)"/>
<path d="M141.375 45.7172C142.232 47.4246 142.542 48.3835 141.217 48.7088C140.774 48.8175 140.168 48.2571 139.637 48.0028C140.126 47.3586 140.616 46.7151 141.375 45.7172Z" fill="var(--fill-0, #E04C2D)"/>
<path d="M148.786 46.1007C149.39 46.5723 149.995 47.0453 151.091 47.9012C149.988 48.2826 149.173 48.87 148.72 48.6626C147.512 48.1079 147.794 47.1632 148.786 46.1007Z" fill="var(--fill-0, #E04C2D)"/>
<path d="M155.222 48.0952C156.077 47.2898 156.572 46.7215 157.182 46.3358C157.3 46.2612 158.077 46.8409 158.184 47.2223C158.445 48.152 158.02 48.8324 156.976 48.7898C156.532 48.7714 156.1 48.4567 155.222 48.0952Z" fill="var(--fill-0, #E04C2D)"/>
<path d="M202.885 187.596C202.021 188.389 201.526 188.948 200.91 189.323C200.789 189.396 200.032 188.811 199.925 188.43C199.67 187.501 200.095 186.826 201.143 186.883C201.582 186.907 202.007 187.223 202.885 187.596Z" fill="var(--fill-0, #E04C2D)"/>
<path d="M209.153 186.435C209.542 187.318 209.939 187.911 210.009 188.541C210.038 188.785 209.322 189.112 208.94 189.403C208.508 188.791 208.033 188.2 207.694 187.54C207.658 187.469 208.409 186.994 209.153 186.435Z" fill="var(--fill-0, #E04C2D)"/>
<path d="M163.503 47.4793C164.548 45.879 165.556 45.8016 166.541 47.5283C165.485 49.2642 164.481 49.1569 163.503 47.4793Z" fill="var(--fill-0, #E04C2D)"/>
<path d="M89.3149 50.0079C89.6945 50.9107 90.0867 51.5187 90.1498 52.1593C90.1738 52.4044 89.4473 52.7247 89.0628 53.0109C88.6365 52.3901 88.1633 51.7914 87.8419 51.1202C87.8022 51.0364 88.5649 50.5662 89.3149 50.0079Z" fill="var(--fill-0, #E04C2D)"/>
<path d="M95.4383 51.8404C96.456 50.2324 97.3956 49.9915 98.421 51.498C97.6156 52.5449 96.6214 52.6591 95.4383 51.8404Z" fill="var(--fill-0, #E04C2D)"/>
<path d="M135.456 51.7878C136.397 50.0718 137.383 49.9745 138.486 51.7111C137.545 53.4023 136.559 53.5258 135.456 51.7878Z" fill="var(--fill-0, #E04C2D)"/>
<path d="M197.008 193.608C195.414 192.594 195.188 191.654 196.668 190.627C197.702 191.429 197.815 192.422 197.008 193.608Z" fill="var(--fill-0, #E04C2D)"/>
<path d="M151.577 51.8042C152.534 50.14 153.515 49.9702 154.632 51.6961C153.693 53.4491 152.701 53.4357 151.577 51.8042Z" fill="var(--fill-0, #E04C2D)"/>
<path d="M160.138 53.8106C160.156 51.5458 161.042 50.6516 162.798 51.128C161.994 51.9391 161.352 52.5868 160.138 53.8106Z" fill="var(--fill-0, #E04C2D)"/>
<path d="M86.8732 55.3731C86.3207 56.5877 85.9001 57.6034 84.6552 56.9663C84.3507 56.81 84.1425 55.8583 84.3217 55.4747C84.9059 54.224 85.8172 54.5457 86.8732 55.3731Z" fill="var(--fill-0, #E04C2D)"/>
<path d="M101.883 58.1873C100.609 56.7675 100.04 56.1326 98.9345 54.9002C100.441 54.9883 101.39 54.7752 101.812 55.1523C102.159 55.4634 101.883 56.4748 101.883 58.1873Z" fill="var(--fill-0, #E04C2D)"/>
<path d="M110.96 55.3732C110.131 56.1758 109.481 56.8044 108.663 57.595C108.17 55.5816 108.935 54.841 110.96 55.3732Z" fill="var(--fill-0, #E04C2D)"/>
<path d="M134.781 55.2888C133.963 56.1269 133.327 56.7781 132.533 57.5914C131.974 55.6164 132.723 54.8489 134.781 55.2888Z" fill="var(--fill-0, #E04C2D)"/>
<path d="M141.753 57.8542C140.653 56.8137 140.035 56.2299 138.733 54.999C140.347 54.999 141.382 54.7226 141.669 55.0692C142.022 55.4969 141.753 56.4422 141.753 57.8542Z" fill="var(--fill-0, #E04C2D)"/>
<path d="M148.534 57.198C148.14 55.6003 148.774 54.9102 150.435 55.1275C150.522 56.4997 149.823 57.0971 148.534 57.198Z" fill="var(--fill-0, #E04C2D)"/>
<path d="M182.193 54.8796C182.051 55.6531 181.917 56.4259 181.662 57.8372C180.614 56.7959 179.969 56.151 178.9 55.087C180.352 54.8384 181.124 54.7056 181.895 54.5728C181.988 54.6843 182.087 54.7859 182.193 54.8796Z" fill="var(--fill-0, #E04C2D)"/>
<path d="M202.807 196.557C200.725 197.007 199.949 196.356 200.477 194.603C200.846 194.719 201.285 194.744 201.554 194.971C201.936 195.29 202.198 195.758 202.807 196.557Z" fill="var(--fill-0, #E04C2D)"/>
<path d="M209.166 197.606C208.423 197.047 207.665 196.574 207.708 196.493C208.033 195.831 208.501 195.242 208.933 194.631C209.315 194.913 210.038 195.235 210.009 195.471C209.939 196.108 209.549 196.709 209.166 197.606Z" fill="var(--fill-0, #E04C2D)"/>
<path d="M74.7171 59.3599C73.8163 61.0979 72.8526 61.1945 71.7054 59.5027C72.6359 57.8669 73.6003 57.7867 74.7171 59.3599Z" fill="var(--fill-0, #E04C2D)"/>
<path d="M105.08 58.2704C106.837 59.4878 106.618 60.4254 105.131 61.3494C103.487 60.441 103.39 59.4672 105.08 58.2704Z" fill="var(--fill-0, #E04C2D)"/>
<path d="M145.044 58.2732C146.749 59.4289 146.625 60.3756 145.064 61.3657C143.557 60.4566 143.24 59.5091 145.044 58.2732Z" fill="var(--fill-0, #E04C2D)"/>
<path d="M153.42 58.1859C154.116 59.1455 154.54 60.0624 153.132 60.6683C152.764 60.8266 151.814 60.5575 151.732 60.2947C151.311 58.9565 152.207 58.4735 153.42 58.1859Z" fill="var(--fill-0, #E04C2D)"/>
<path d="M206.461 200.191C205.605 201.553 204.684 201.893 203.629 200.384C204.483 199.208 205.428 199.143 206.461 200.191Z" fill="var(--fill-0, #E04C2D)"/>
<path d="M185.429 58.1582C185.706 58.4465 185.982 58.7342 186.258 59.0226C185.967 59.8451 185.677 60.6683 185.309 61.7209C184.138 60.3822 184.178 59.1947 185.429 58.1582Z" fill="var(--fill-0, #E04C2D)"/>
<path d="M83.6178 63.6486C84.7112 61.9617 85.6905 62.0391 86.626 63.7317C85.5256 65.4448 84.5462 65.349 83.6178 63.6486Z" fill="var(--fill-0, #E04C2D)"/>
<path d="M139.226 64.2686C140.038 63.4838 140.687 62.8559 141.525 62.0455C141.962 64.1147 141.196 64.8558 139.226 64.2686Z" fill="var(--fill-0, #E04C2D)"/>
<path d="M166.542 63.7316C165.447 65.432 164.46 65.3532 163.514 63.6535C164.609 61.9659 165.597 62.0376 166.542 63.7316Z" fill="var(--fill-0, #E04C2D)"/>
<path d="M66.955 68.379C66.084 68.7789 65.4069 69.2412 65.2823 69.1212C64.7526 68.6155 64.3865 67.9371 63.9609 67.322C64.3915 67.0926 64.9728 66.5671 65.2228 66.6949C65.7872 66.9826 66.1888 67.5934 66.955 68.379Z" fill="var(--fill-0, #E04C2D)"/>
<path d="M201.143 202.403C202.907 203.64 202.588 204.573 201.2 205.468C199.486 204.563 199.422 203.585 201.143 202.403Z" fill="var(--fill-0, #E04C2D)"/>
<path d="M208.82 202.423C210.562 203.57 210.356 204.505 208.82 205.499C207.425 204.573 206.978 203.642 208.82 202.423Z" fill="var(--fill-0, #E04C2D)"/>
<path d="M80.6414 69.8563C80.1609 67.5977 80.8705 66.7574 82.7702 67.3356C82.1534 68.0665 81.6201 68.6972 80.6414 69.8563Z" fill="var(--fill-0, #E04C2D)"/>
<path d="M153.347 69.5587C152.548 68.7369 151.917 68.0877 151.118 67.2652C153.14 66.777 153.883 67.5415 153.347 69.5587Z" fill="var(--fill-0, #E04C2D)"/>
<path d="M161.021 66.143C161.695 66.7901 162.381 67.3164 162.324 67.4165C161.964 68.0494 161.438 68.5871 160.968 69.156C160.621 68.8385 159.944 68.4578 159.991 68.2164C160.111 67.592 160.55 67.0294 161.021 66.143Z" fill="var(--fill-0, #E04C2D)"/>
<path d="M170.68 68.379C169.812 68.7774 169.137 69.2369 169.013 69.1183C168.485 68.6133 168.119 67.9364 167.694 67.322C168.126 67.0926 168.708 66.567 168.957 66.6942C169.52 66.9826 169.918 67.5941 170.68 68.379Z" fill="var(--fill-0, #E04C2D)"/>
<path d="M183.241 67.6999C184.133 67.2595 184.707 66.8363 185.344 66.7319C185.578 66.6928 185.939 67.3945 186.244 67.7582C185.656 68.2177 185.089 68.727 184.445 69.08C184.353 69.129 183.85 68.4073 183.241 67.6999Z" fill="var(--fill-0, #E04C2D)"/>
<path d="M69.3599 70.2235C71.131 71.4565 70.8391 72.3926 69.4292 73.2919C67.7169 72.3919 67.6525 71.4132 69.3599 70.2235Z" fill="var(--fill-0, #E04C2D)"/>
<path d="M156.972 73.3367C155.783 72.5284 155.082 71.7101 156.422 70.676C156.674 70.4814 157.444 70.6078 157.722 70.8635C158.799 71.8572 158.033 72.544 156.972 73.3367Z" fill="var(--fill-0, #E04C2D)"/>
<path d="M173.069 73.2997C171.356 72.2045 171.422 71.2143 173.141 70.2697C174.828 71.3614 174.765 72.3515 173.069 73.2997Z" fill="var(--fill-0, #E04C2D)"/>
<path d="M59.2659 76.0783C57.6364 77.1032 56.706 77.3461 56.2811 76.1131C56.1317 75.6791 56.6577 75.0108 56.8758 74.4497C57.5507 74.9092 58.2249 75.3695 59.2659 76.0783Z" fill="var(--fill-0, #E04C2D)"/>
<path d="M160.979 73.9539C161.586 74.9007 161.981 75.5194 162.377 76.138C161.846 76.3908 161.22 76.942 160.808 76.812C160.402 76.6842 160.056 75.8858 159.987 75.3432C159.946 75.015 160.483 74.613 160.979 73.9539Z" fill="var(--fill-0, #E04C2D)"/>
<path d="M167.259 76.226C168.076 75.4333 168.724 74.8041 169.554 73.9979C170.017 76.0482 169.253 76.7909 167.259 76.226Z" fill="var(--fill-0, #E04C2D)"/>
<path d="M163.497 79.8889C164.524 78.1466 165.539 78.175 166.553 79.8754C165.53 81.5878 164.515 81.5588 163.497 79.8889Z" fill="var(--fill-0, #E04C2D)"/>
<path d="M172.918 81.565C172.412 80.9201 171.857 80.521 171.893 80.1879C171.953 79.6417 172.302 78.8291 172.707 78.702C173.131 78.5699 173.766 79.1153 174.304 79.3647C173.907 79.9925 173.511 80.6204 172.918 81.565Z" fill="var(--fill-0, #E04C2D)"/>
<path d="M181.011 81.5893C180.394 80.6382 179.998 80.0174 179.594 79.3959C180.125 79.1345 180.748 78.5713 181.166 78.6963C181.57 78.8177 181.924 79.6246 181.995 80.1694C182.03 80.5061 181.499 80.9159 181.011 81.5893Z" fill="var(--fill-0, #E04C2D)"/>
<path d="M202.885 211.513C202.021 212.303 201.511 212.859 200.902 213.233C200.782 213.305 200.017 212.714 199.918 212.332C199.677 211.409 200.081 210.707 201.136 210.762C201.582 210.785 202.007 211.121 202.885 211.513Z" fill="var(--fill-0, #E04C2D)"/>
<path d="M206.9 211.43C209.162 210.92 210.005 211.627 209.429 213.55C208.692 212.935 208.062 212.405 206.9 211.43Z" fill="var(--fill-0, #E04C2D)"/>
<path d="M205.413 218.273C204.337 217.071 203.77 216.436 203.098 215.687C204.854 215.18 205.626 216.042 205.413 218.273Z" fill="var(--fill-0, #E04C2D)"/>
<path d="M193.332 218.125C193.842 220.153 193.087 220.912 191.066 220.402C191.881 219.586 192.525 218.94 193.332 218.125Z" fill="var(--fill-0, #E04C2D)"/>
<path d="M202.821 219.965C202.17 220.46 201.773 221.001 201.441 220.962C200.902 220.9 200.088 220.552 199.968 220.154C199.847 219.723 200.386 219.096 200.64 218.555C201.257 218.955 201.88 219.355 202.821 219.965Z" fill="var(--fill-0, #E04C2D)"/>
<path d="M207.198 220.366C208.027 219.564 208.671 218.934 209.492 218.138C209.988 220.171 209.223 220.914 207.198 220.366Z" fill="var(--fill-0, #E04C2D)"/>
<path d="M184.912 82.1482C186.506 83.1383 186.789 84.0652 185.266 85.0944C184.218 84.3065 184.1 83.3244 184.912 82.1482Z" fill="var(--fill-0, #E04C2D)"/>
<path d="M175.041 88.2046C172.77 88.7141 171.919 88.0126 172.488 86.1001C173.223 86.7066 173.858 87.2322 175.041 88.2046Z" fill="var(--fill-0, #E04C2D)"/>
<path d="M181.4 85.649C181.905 87.9167 181.204 88.7613 179.297 88.1826C179.906 87.4504 180.43 86.816 181.4 85.649Z" fill="var(--fill-0, #E04C2D)"/>
<path d="M202.892 91.2765C202.021 92.0692 201.519 92.6268 200.902 92.9997C200.782 93.0729 200.017 92.4862 199.918 92.1076C199.677 91.1864 200.088 90.4853 201.143 90.5379C201.582 90.5599 202.007 90.8902 202.892 91.2765Z" fill="var(--fill-0, #E04C2D)"/>
<path d="M196.93 94.1539C198.601 95.1859 198.608 96.2022 196.909 97.2122C195.223 96.176 195.237 95.1604 196.93 94.1539Z" fill="var(--fill-0, #E04C2D)"/>
<path d="M188.503 98.0922C188.191 95.8554 188.932 94.9519 190.726 95.3818C190.089 96.1602 189.544 96.8216 188.503 98.0922Z" fill="var(--fill-0, #E04C2D)"/>
<path d="M200.584 97.6128C201.519 98.8053 202.036 99.4609 202.63 100.222C200.695 100.694 200.013 99.8246 200.584 97.6128Z" fill="var(--fill-0, #E04C2D)"/>
<path d="M187.242 103.664C188.38 102.925 189.426 102.95 190.379 103.737C189.43 105.365 188.46 105.519 187.242 103.664Z" fill="var(--fill-0, #E04C2D)"/>
<path d="M203.452 224.006C204.606 222.26 205.541 222.469 206.497 223.982C205.598 225.494 204.663 225.838 203.452 224.006Z" fill="var(--fill-0, #E04C2D)"/>
<path d="M206.525 103.752C205.718 104.961 204.904 105.651 203.884 104.306C203.693 104.054 203.82 103.285 204.075 103.008C205.066 101.933 205.746 102.708 206.525 103.752Z" fill="var(--fill-0, #E04C2D)"/>
<path d="M186.718 107.768C185.769 108.392 185.153 108.799 184.537 109.204C184.275 108.675 183.701 108.05 183.829 107.64C183.956 107.226 184.749 106.864 185.295 106.79C185.627 106.743 186.045 107.28 186.718 107.768Z" fill="var(--fill-0, #E04C2D)"/>
<path d="M202.885 107.459C202.022 108.248 201.519 108.806 200.902 109.182C200.789 109.254 200.024 108.665 199.925 108.282C199.67 107.354 200.095 106.669 201.136 106.723C201.582 106.745 202.007 107.075 202.885 107.459Z" fill="var(--fill-0, #E04C2D)"/>
<path d="M209.159 106.27C209.542 107.162 209.946 107.76 210.009 108.395C210.038 108.645 209.315 108.973 208.94 109.265C208.501 108.65 208.027 108.056 207.701 107.389C207.658 107.309 208.416 106.833 209.159 106.27Z" fill="var(--fill-0, #E04C2D)"/>
<path d="M193.616 230.095C192.518 229.062 191.895 228.477 190.585 227.244C192.206 227.244 193.247 226.967 193.531 227.315C193.892 227.741 193.616 228.69 193.616 230.095Z" fill="var(--fill-0, #E04C2D)"/>
<path d="M202.829 228.014C201.887 228.627 201.264 229.028 200.648 229.429C200.393 228.895 199.84 228.266 199.975 227.854C200.102 227.445 200.895 227.097 201.441 227.028C201.766 226.986 202.177 227.523 202.829 228.014Z" fill="var(--fill-0, #E04C2D)"/>
<path d="M209.018 226.461C209.478 227.343 209.91 227.91 210.023 228.537C210.066 228.773 209.379 229.147 209.025 229.456C208.55 228.88 208.033 228.329 207.665 227.692C207.623 227.608 208.324 227.084 209.018 226.461Z" fill="var(--fill-0, #E04C2D)"/>
<path d="M191.25 112.215C189.027 112.512 188.127 111.767 188.552 109.979C189.324 110.621 189.983 111.165 191.25 112.215Z" fill="var(--fill-0, #E04C2D)"/>
<path d="M202.942 111.405C203.65 111.047 204.365 110.688 205.406 110.167C205.506 110.92 205.916 111.948 205.626 112.219C205.18 112.629 204.252 112.511 203.53 112.618C203.331 112.213 203.14 111.809 202.942 111.405Z" fill="var(--fill-0, #E04C2D)"/>
<path d="M200.761 117.436C200.4 116.538 200.017 115.929 199.967 115.293C199.946 115.05 200.676 114.744 201.065 114.468C201.483 115.091 201.943 115.696 202.269 116.366C202.297 116.436 201.533 116.895 200.761 117.436Z" fill="var(--fill-0, #E04C2D)"/>
<path d="M196.958 230.571C198.636 231.651 198.587 232.649 196.873 233.603C195.223 232.525 195.23 231.525 196.958 230.571Z" fill="var(--fill-0, #E04C2D)"/>
<path d="M207.198 116.378C207.998 115.551 208.628 114.901 209.422 114.077C209.983 116.107 209.242 116.874 207.198 116.378Z" fill="var(--fill-0, #E04C2D)"/>
<path d="M190.896 119.753C189.954 120.36 189.338 120.76 188.722 121.159C188.474 120.62 187.936 119.993 188.071 119.569C188.191 119.166 188.991 118.816 189.529 118.752C189.855 118.713 190.252 119.258 190.896 119.753Z" fill="var(--fill-0, #E04C2D)"/>
<path d="M206.49 120.003C205.392 121.711 204.422 121.522 203.466 119.944C204.592 118.176 205.569 118.314 206.49 120.003Z" fill="var(--fill-0, #E04C2D)"/>
<path d="M201.228 122.332C201.979 123.251 202.042 124.196 201.419 125.166C200.244 124.308 200.18 123.364 201.228 122.332Z" fill="var(--fill-0, #E04C2D)"/>
<path d="M208.855 122.293C210.547 123.381 210.519 124.371 208.784 125.31C207.113 124.236 207.177 123.246 208.855 122.293Z" fill="var(--fill-0, #E04C2D)"/>
<path d="M191.357 128.382C189.194 128.697 188.179 128.109 188.311 126.617C189.855 125.997 189.912 127.413 191.357 128.382Z" fill="var(--fill-0, #E04C2D)"/>
<path d="M200.095 133.94C200.114 131.701 201.004 130.814 202.765 131.28C201.951 132.092 201.306 132.735 200.095 133.94Z" fill="var(--fill-0, #E04C2D)"/>
<path d="M196.894 134.204C198.141 135.026 198.757 135.866 197.447 136.884C197.206 137.075 196.434 136.933 196.158 136.673C195.096 135.673 195.861 134.984 196.894 134.204Z" fill="var(--fill-0, #E04C2D)"/>
<path d="M191.505 140.23C191.491 140.096 191.427 139.936 191.477 139.831C191.895 138.974 192.369 137.987 193.502 138.6C193.842 138.781 193.899 139.796 193.8 140.38C193.708 140.899 193.212 140.847 191.505 140.23Z" fill="var(--fill-0, #E04C2D)"/>
<path d="M202.623 140.155C201.441 140.991 200.52 141.411 199.932 139.992C199.777 139.62 200.024 138.698 200.315 138.587C201.795 138.006 201.958 139.289 202.623 140.155Z" fill="var(--fill-0, #E04C2D)"/>
<path d="M209.266 137.798C210.286 139.437 210.533 140.372 209.294 140.791C208.855 140.938 208.196 140.411 207.637 140.192C208.097 139.516 208.558 138.84 209.266 137.798Z" fill="var(--fill-0, #E04C2D)"/>
<path d="M203.466 143.833C204.493 142.134 205.505 142.137 206.504 143.853C205.477 145.556 204.465 145.553 203.466 143.833Z" fill="var(--fill-0, #E04C2D)"/>
<path d="M190.896 147.541C192.596 146.67 193.552 146.359 193.892 147.688C193.998 148.136 193.446 148.753 193.191 149.293C192.532 148.791 191.881 148.29 190.896 147.541Z" fill="var(--fill-0, #E04C2D)"/>
<path d="M201.193 149.815C199.55 148.55 199.508 147.64 200.414 146.982C200.775 146.721 201.611 147.126 202.234 147.226C201.929 147.987 201.625 148.748 201.193 149.815Z" fill="var(--fill-0, #E04C2D)"/>
<path d="M200.931 154.095C201.54 155.046 201.936 155.665 202.333 156.285C201.802 156.542 201.179 157.1 200.761 156.97C200.357 156.842 200.003 156.04 199.939 155.495C199.897 155.164 200.435 154.758 200.931 154.095Z" fill="var(--fill-0, #E04C2D)"/>
<path d="M76.9378 54.3143C77.5341 54.8221 78.2401 55.342 78.2025 55.4031C77.8393 55.9955 77.3522 56.5104 76.8996 57.0474C76.5314 56.6638 75.8587 56.2689 75.8728 55.8996C75.8905 55.4265 76.4613 54.9749 76.9378 54.3143Z" fill="var(--fill-0, #E04C2D)"/>
<path d="M111.371 51.7402C112.161 51.1841 112.766 50.758 113.779 50.0448V53.4776C112.747 52.7325 112.149 52.3006 111.371 51.7402Z" fill="var(--fill-0, #E04C2D)"/>
<path d="M59.081 83.0623C58.421 84.0822 58.0173 84.7051 57.4423 85.5929C56.8871 84.6845 56.499 84.0502 55.895 83.0623H59.081Z" fill="var(--fill-0, #E04C2D)"/>
<path d="M91.8112 48.1655C92.1985 47.5454 92.5881 46.9225 93.1936 45.9516C93.7027 46.8977 94.4745 47.7166 94.2989 48.1229C93.8067 49.2607 92.8472 48.946 91.8112 48.1655Z" fill="var(--fill-0, #E04C2D)"/>
<path d="M176.166 77.4576C176.294 76.0669 176.365 75.3268 176.436 74.586C177.144 74.8154 177.845 75.0456 178.985 75.4177C177.937 76.177 177.321 76.6187 176.166 77.4576Z" fill="var(--fill-0, #E04C2D)"/>
<path d="M198.742 112.628C197.333 112.504 196.604 112.438 195.867 112.373C196.087 111.679 196.314 110.984 196.689 109.817C197.454 110.864 197.893 111.467 198.742 112.628Z" fill="var(--fill-0, #E04C2D)"/>
<path d="M179.311 91.6373C177.838 92.5458 177.285 92.8854 176.237 93.5324C176.315 92.256 176.358 91.523 176.4 90.7901C177.094 90.9918 177.788 91.1934 179.311 91.6373Z" fill="var(--fill-0, #E04C2D)"/>
<path d="M198.339 175.746C197.893 176.311 197.447 176.875 196.838 177.646C196.314 176.8 195.924 176.176 195.336 175.226C196.448 175.107 197.163 175.029 197.879 174.952C198.034 175.217 198.183 175.481 198.339 175.746Z" fill="var(--fill-0, #E04C2D)"/>
<path d="M208.89 149.654C208.26 148.724 207.849 148.112 207.205 147.164C208.324 147.007 209.032 146.908 210.37 146.721C209.754 147.952 209.393 148.658 208.89 149.654Z" fill="var(--fill-0, #E04C2D)"/>
<path d="M187.412 152.692C188.276 151.534 188.715 150.937 189.494 149.9C189.841 151.066 190.054 151.759 190.259 152.453C189.536 152.514 188.807 152.575 187.412 152.692Z" fill="var(--fill-0, #E04C2D)"/>
<path d="M209.301 178.571C209.499 179.241 209.698 179.912 209.896 180.583C209.181 180.57 208.458 180.557 207.743 180.545C207.963 179.873 208.175 179.201 208.395 178.529C208.699 178.543 208.997 178.556 209.301 178.571Z" fill="var(--fill-0, #E04C2D)"/>
<path d="M196.93 150.066C197.482 150.959 197.879 151.599 198.516 152.617H195.301C195.953 151.588 196.363 150.95 196.93 150.066Z" fill="var(--fill-0, #E04C2D)"/>
<path d="M176.266 66.3504C177.264 66.9634 177.902 67.3562 178.808 67.9158C177.916 68.4933 177.285 68.8995 176.266 69.5615V66.3504Z" fill="var(--fill-0, #E04C2D)"/>
<path d="M145.042 69.3768C144.488 68.5707 144.069 67.962 143.36 66.9299H146.78C146.035 67.979 145.608 68.5799 145.042 69.3768Z" fill="var(--fill-0, #E04C2D)"/>
<path d="M70.8399 68.1566C72.3107 67.2198 72.8524 66.8746 73.9019 66.2062C73.8339 67.4876 73.7951 68.2114 73.7569 68.9351C73.0579 68.7491 72.3596 68.5622 70.8399 68.1566Z" fill="var(--fill-0, #E04C2D)"/>
<path d="M179.332 63.6819C180.139 63.1286 180.748 62.7103 181.775 62.01V65.4086C180.727 64.6685 180.125 64.2423 179.332 63.6819Z" fill="var(--fill-0, #E04C2D)"/>
<path d="M148.317 62.0078C149.289 62.6386 149.834 62.9923 150.677 63.5399C150.028 64.1131 149.618 64.7494 149.085 64.8808C148.292 65.0769 148.179 64.7218 148.317 62.0078Z" fill="var(--fill-0, #E04C2D)"/>
<path d="M201.356 86.1129C200.428 84.6363 200.088 84.088 199.422 83.029C200.704 83.1063 201.434 83.1497 202.156 83.1937C201.965 83.8869 201.781 84.5809 201.356 86.1129Z" fill="var(--fill-0, #E04C2D)"/>
<path d="M170.686 82.9721C169.837 84.1277 169.396 84.7293 168.63 85.7727C168.262 84.6043 168.043 83.909 167.825 83.2143C168.558 83.1518 169.292 83.09 170.686 82.9721Z" fill="var(--fill-0, #E04C2D)"/>
<path d="M93.3981 57.9991C92.4732 56.5118 92.1313 55.962 91.4742 54.9059C92.7495 54.9762 93.4746 55.0159 94.2005 55.0557C94.0107 55.7503 93.8215 56.4451 93.3981 57.9991Z" fill="var(--fill-0, #E04C2D)"/>
<path d="M176.202 57.786C177.25 58.3883 177.817 58.7115 178.327 59.007C178.256 59.4161 178.284 59.8082 178.156 59.8713C177.604 60.1427 177.002 60.316 176.421 60.5248C176.365 59.784 176.301 59.0432 176.202 57.786Z" fill="var(--fill-0, #E04C2D)"/>
<path d="M192.943 86.1178C191.994 84.6703 191.64 84.127 191.01 83.1603H193.686C193.509 83.8479 193.339 84.5354 192.943 86.1178Z" fill="var(--fill-0, #E04C2D)"/>
<path d="M111.131 59.2016C112.292 58.8444 112.984 58.6312 113.675 58.4189C113.738 59.1575 113.802 59.8955 113.922 61.2834C112.765 60.4197 112.168 59.9751 111.131 59.2016Z" fill="var(--fill-0, #E04C2D)"/>
<path d="M173.085 57.4138C172.533 56.6098 172.115 56.0011 171.421 54.9897H174.835C174.085 56.0295 173.653 56.6247 173.085 57.4138Z" fill="var(--fill-0, #E04C2D)"/>
<path d="M197.043 218.279C196.179 216.781 195.853 216.22 195.237 215.161C196.498 215.267 197.234 215.329 197.971 215.39C197.744 216.084 197.525 216.778 197.043 218.279Z" fill="var(--fill-0, #E04C2D)"/>
<path d="M156.518 57.1247C156.306 56.4535 156.094 55.7838 155.882 55.1125C156.601 55.1083 157.32 55.104 158.038 55.0997C157.835 55.7695 157.631 56.4386 157.427 57.1083C157.124 57.114 156.821 57.1191 156.518 57.1247Z" fill="var(--fill-0, #E04C2D)"/>
<path d="M116.965 54.1934C117.556 54.9484 118.269 55.5195 118.169 55.8058C117.994 56.3108 117.371 56.803 116.835 56.9699C116.606 57.0409 115.82 56.2739 115.827 55.8982C115.836 55.4329 116.406 54.9783 116.965 54.1934Z" fill="var(--fill-0, #E04C2D)"/>
<path d="M178.716 84.1733C178.213 84.5809 177.675 85.1129 177.604 85.0575C177.066 84.6257 176.613 84.0802 176.138 83.5702C176.429 83.3494 176.832 82.8798 176.988 82.953C177.548 83.2172 178.022 83.6625 178.716 84.1733Z" fill="var(--fill-0, #E04C2D)"/>
<path d="M74.0421 161.783C73.9579 163.46 73.9069 164.458 73.8488 165.617C71.9448 164.556 72.0092 163.278 74.0421 161.783Z" fill="var(--fill-0, #E04C2D)"/>
<path d="M64.9543 173.737C64.4522 172.933 63.9233 172.457 63.8815 171.942C63.7973 170.907 64.5847 170.452 65.4564 170.769C65.8926 170.928 66.3756 171.726 66.3402 172.199C66.3069 172.643 65.6214 173.039 64.9543 173.737Z" fill="var(--fill-0, #E04C2D)"/>
<path d="M81.0892 173.741C80.5878 172.942 80.0679 172.471 80.0155 171.953C79.91 170.913 80.6756 170.446 81.5601 170.767C82.0055 170.93 82.5118 171.714 82.4792 172.18C82.4466 172.63 81.7577 173.034 81.0892 173.741Z" fill="var(--fill-0, #E04C2D)"/>
<path d="M95.4715 179.709C96.8079 177.703 97.7589 178.455 98.8346 179.998C97.6633 181.369 96.6641 181.276 95.4715 179.709Z" fill="var(--fill-0, #E04C2D)"/>
<path d="M54.9956 183.953C54.2485 184.521 53.8188 185.097 53.3061 185.185C52.2899 185.358 51.7523 184.633 52.015 183.716C52.1453 183.26 52.8904 182.7 53.3528 182.704C53.8103 182.707 54.2634 183.361 54.9956 183.953Z" fill="var(--fill-0, #E04C2D)"/>
<path d="M94.9511 183.769C94.2423 184.42 93.8294 185.104 93.3761 185.132C92.9123 185.16 92.1355 184.641 91.9811 184.194C91.6723 183.3 92.1575 182.533 93.1858 182.643C93.7013 182.699 94.1644 183.246 94.9511 183.769Z" fill="var(--fill-0, #E04C2D)"/>
<path d="M45.6318 193.497C44.1461 192.901 44.0455 191.854 44.5263 190.509C46.3198 191.156 46.6883 192.152 45.6318 193.497Z" fill="var(--fill-0, #E04C2D)"/>
<path d="M77.8337 190.441C78.881 191.773 78.3676 192.726 77.1093 193.51C75.9649 192.293 76.2063 191.27 77.8337 190.441Z" fill="var(--fill-0, #E04C2D)"/>
<path d="M100.807 193.627C99.9335 192.326 100.185 191.257 101.56 190.419C102.693 191.666 102.215 192.608 100.807 193.627Z" fill="var(--fill-0, #E04C2D)"/>
<path d="M66.8962 195.558C66.2284 196.282 65.9062 196.939 65.4275 197.086C64.5246 197.365 63.7533 196.881 63.8914 195.869C63.9565 195.39 64.594 194.735 65.0664 194.642C65.504 194.556 66.067 195.112 66.8962 195.558Z" fill="var(--fill-0, #E04C2D)"/>
<path d="M81.2908 194.094C81.868 194.851 82.4473 195.28 82.5358 195.794C82.7121 196.816 81.9778 197.347 81.0685 197.092C80.6196 196.966 80.0701 196.216 80.0701 195.748C80.0693 195.292 80.7094 194.834 81.2908 194.094Z" fill="var(--fill-0, #E04C2D)"/>
<path d="M98.128 197.309C97.2194 196.966 96.3107 196.623 95.2209 196.211C96.6485 194.869 97.6177 195.235 98.128 197.309Z" fill="var(--fill-0, #E04C2D)"/>
<path d="M98.7115 220.48C97.2534 221.458 96.303 221.11 95.7131 219.946C95.5956 219.715 96.0728 218.97 96.4453 218.743C97.225 218.268 97.2718 218.346 98.7115 220.48Z" fill="var(--fill-0, #E04C2D)"/>
<path d="M54.9908 200.296C54.1863 200.799 53.7097 201.328 53.1934 201.369C52.1532 201.454 51.7184 200.649 52.0314 199.783C52.1886 199.348 52.9901 198.869 53.4618 198.905C53.9051 198.94 54.2975 199.628 54.9908 200.296Z" fill="var(--fill-0, #E04C2D)"/>
<path d="M94.9504 200.215C94.1714 200.753 93.7182 201.306 93.2048 201.369C92.1744 201.497 91.6951 200.722 91.9762 199.837C92.1157 199.396 92.8932 198.881 93.3605 198.903C93.8116 198.923 94.2338 199.587 94.9504 200.215Z" fill="var(--fill-0, #E04C2D)"/>
<path d="M50.3098 202.624C50.0953 203.553 49.8814 204.483 49.5996 205.708C48.8631 205.276 48.4608 205.167 48.2618 204.903C46.9914 203.222 48.5445 202.928 49.2448 202.217C49.5996 202.352 49.9543 202.487 50.3098 202.624Z" fill="var(--fill-0, #E04C2D)"/>
<path d="M57.5713 205.556C56.1019 204.624 55.6798 203.664 56.7207 202.379C58.1446 203.174 58.4282 204.233 57.5713 205.556Z" fill="var(--fill-0, #E04C2D)"/>
<path d="M74.0401 202.568C73.96 203.559 73.8808 204.55 73.7194 206.562C72.6331 204.999 72.1316 204.277 71.5602 203.455C72.1713 202.959 72.6854 202.541 73.1988 202.123C73.4792 202.271 73.7597 202.42 74.0401 202.568Z" fill="var(--fill-0, #E04C2D)"/>
<path d="M96.6959 202.338C98.1037 203.207 98.3861 204.252 97.5429 205.474C96.0551 204.737 95.6358 203.785 96.6959 202.338Z" fill="var(--fill-0, #E04C2D)"/>
<path d="M54.9497 208.387C54.0475 208.7 53.4854 209.075 52.9478 209.043C51.7943 208.974 51.7319 207.982 52.0867 207.269C52.2871 206.866 53.2275 206.524 53.6963 206.655C54.1325 206.777 54.3867 207.559 54.9497 208.387Z" fill="var(--fill-0, #E04C2D)"/>
<path d="M62.7883 207.75C62.1425 209.146 61.1531 209.437 59.7963 208.772C60.4671 207.001 61.4645 206.661 62.7883 207.75Z" fill="var(--fill-0, #E04C2D)"/>
<path d="M94.9499 207.674C94.2431 208.315 93.8302 208.988 93.3805 209.013C92.9131 209.04 92.1292 208.537 91.9805 208.096C91.6816 207.209 92.1653 206.437 93.1879 206.542C93.7006 206.596 94.1638 207.147 94.9499 207.674Z" fill="var(--fill-0, #E04C2D)"/>
<path d="M68.5824 190.199C70.0662 191.304 70.3507 192.406 69.4357 193.505C68.0279 192.864 67.7333 191.875 68.5824 190.199Z" fill="var(--fill-0, #E04C2D)"/>
<path d="M98.9055 211.39C97.7205 212.813 96.6009 213.016 95.5467 212.001C96.3066 210.653 97.3107 210.369 98.9055 211.39Z" fill="var(--fill-0, #E04C2D)"/>
<path d="M53.3646 222.229C53.8936 223.014 54.4439 223.474 54.4998 223.989C54.6117 225.011 53.8534 225.513 52.9618 225.214C52.5185 225.067 52.0115 224.283 52.0327 223.809C52.0525 223.361 52.7266 222.942 53.3646 222.229Z" fill="var(--fill-0, #E04C2D)"/>
<path d="M62.8965 224.067C61.5944 224.967 60.5346 224.704 59.7169 223.278C60.9809 222.172 61.9278 222.646 62.8965 224.067Z" fill="var(--fill-0, #E04C2D)"/>
<path d="M71.1317 224.192C70.3244 224.694 69.847 225.22 69.3279 225.264C68.2827 225.354 67.855 224.547 68.168 223.681C68.3259 223.244 69.1226 222.757 69.5879 222.796C70.0369 222.834 70.4313 223.521 71.1317 224.192Z" fill="var(--fill-0, #E04C2D)"/>
<path d="M93.0057 225.758C92.5015 224.959 91.9733 224.487 91.9266 223.971C91.8317 222.937 92.6064 222.473 93.4845 222.79C93.9242 222.95 94.422 223.74 94.3866 224.207C94.3526 224.656 93.6679 225.057 93.0057 225.758Z" fill="var(--fill-0, #E04C2D)"/>
<path d="M69.4391 233.582C68.0362 232.94 67.7459 231.949 68.4116 230.586C70.1886 231.257 70.5311 232.256 69.4391 233.582Z" fill="var(--fill-0, #E04C2D)"/>
<path d="M77.8911 230.266C78.6438 231.958 78.4208 232.967 76.9684 233.574C76.0638 232.455 76.3714 231.352 77.8911 230.266Z" fill="var(--fill-0, #E04C2D)"/>
<path d="M92.4364 230.239C93.9014 231.386 94.1549 232.511 93.197 233.613C91.8869 232.882 91.5179 231.895 92.4364 230.239Z" fill="var(--fill-0, #E04C2D)"/>
<path d="M62.7741 167.803C62.0121 169.139 61.0079 169.38 59.6978 168.578C60.5655 166.915 61.591 166.656 62.7741 167.803Z" fill="var(--fill-0, #E04C2D)"/>
<path d="M65.186 210.277C65.7475 211.031 66.382 211.509 66.3629 211.958C66.3438 212.435 65.7759 213.167 65.317 213.287C64.378 213.534 63.7009 212.943 63.9049 211.938C64.0076 211.43 64.589 211.02 65.186 210.277Z" fill="var(--fill-0, #E04C2D)"/>
<path d="M81.7129 162.176C82.1555 163.231 83.4592 164.337 81.4644 165.201C80.2775 164.305 80.362 163.298 81.7179 162.179L81.7129 162.176Z" fill="var(--fill-0, #E04C2D)"/>
<path d="M71.3087 168.36C69.0488 168.86 68.2004 168.158 68.7636 166.255C69.4965 166.861 70.1332 167.387 71.3087 168.36Z" fill="var(--fill-0, #E04C2D)"/>
<path d="M75.4209 168.329C76.2494 167.531 76.901 166.904 77.7274 166.109C78.2066 168.148 77.4377 168.888 75.4209 168.329Z" fill="var(--fill-0, #E04C2D)"/>
<path d="M86.6763 167.683C85.5199 169.444 84.5929 169.29 83.6319 167.771C84.5022 166.197 85.4498 166.057 86.6763 167.683Z" fill="var(--fill-0, #E04C2D)"/>
<path d="M57.2752 173.662C56.7717 173.02 56.2244 172.627 56.2598 172.3C56.32 171.75 56.6514 170.937 57.0565 170.802C57.4701 170.663 58.1102 171.208 58.6512 171.454C58.2596 172.082 57.8686 172.71 57.2752 173.662Z" fill="var(--fill-0, #E04C2D)"/>
<path d="M74.756 171.97C73.9573 173.139 73.155 173.884 72.119 172.521C71.9235 172.266 72.0439 171.496 72.2967 171.216C73.2831 170.129 73.965 170.899 74.756 171.97Z" fill="var(--fill-0, #E04C2D)"/>
<path d="M89.5352 173.926C88.5905 172.719 88.0778 172.063 87.4851 171.306C89.4056 170.806 90.089 171.68 89.5352 173.926Z" fill="var(--fill-0, #E04C2D)"/>
<path d="M69.4569 174.353C70.8052 175.217 71.1572 176.147 69.6467 177.203C68.4726 176.331 68.4093 175.381 69.4569 174.353Z" fill="var(--fill-0, #E04C2D)"/>
<path d="M61.4236 177.62C60.8125 177.149 60.2005 176.678 59.0958 175.827C60.2034 175.442 61.01 174.857 61.4682 175.06C62.7053 175.609 62.386 176.555 61.4236 177.62Z" fill="var(--fill-0, #E04C2D)"/>
<path d="M84.7636 177.434C84.3638 175.833 84.9938 175.139 86.6537 175.351C86.7316 176.708 86.0624 177.332 84.7636 177.434Z" fill="var(--fill-0, #E04C2D)"/>
<path d="M49.635 177.771C50.1241 180.008 49.4205 180.847 47.5241 180.289C48.1373 179.558 48.667 178.926 49.635 177.771Z" fill="var(--fill-0, #E04C2D)"/>
<path d="M58.6391 180.431C57.7666 181.148 56.8291 181.453 56.2888 180.196C56.116 179.794 56.6647 178.59 56.943 178.57C58.0896 178.485 58.6858 179.223 58.6391 180.431Z" fill="var(--fill-0, #E04C2D)"/>
<path d="M74.7164 179.632C73.7781 181.321 72.7951 181.445 71.7159 179.698C72.6719 178.027 73.6591 178.021 74.7164 179.632Z" fill="var(--fill-0, #E04C2D)"/>
<path d="M81.0861 178.004C81.6859 178.946 82.0818 179.568 82.4777 180.191C81.9402 180.439 81.3163 180.979 80.89 180.853C80.4907 180.733 80.1401 179.926 80.0792 179.386C80.0416 179.053 80.5861 178.654 81.0861 178.004Z" fill="var(--fill-0, #E04C2D)"/>
<path d="M89.6124 178.06C90.1189 180.076 89.3567 180.828 87.3257 180.316C88.1514 179.502 88.7994 178.863 89.6124 178.06Z" fill="var(--fill-0, #E04C2D)"/>
<path d="M59.7452 183.93C60.8967 182.201 61.8364 182.355 62.8186 183.909C61.915 185.416 60.9752 185.759 59.7452 183.93Z" fill="var(--fill-0, #E04C2D)"/>
<path d="M71.291 183.355C70.1097 184.299 69.4598 184.818 68.7042 185.422C68.2056 183.465 69.0678 182.776 71.291 183.355Z" fill="var(--fill-0, #E04C2D)"/>
<path d="M78.9151 183.644C78.0568 184.371 77.5944 184.931 77.0024 185.18C76.7743 185.276 76.2503 184.665 75.8615 184.376C76.3416 183.812 76.7701 183.181 77.3409 182.732C77.4719 182.629 78.0921 183.154 78.9151 183.644Z" fill="var(--fill-0, #E04C2D)"/>
<path d="M83.5944 183.921C84.6283 182.197 85.6396 182.236 86.648 183.917C85.6085 185.671 84.5979 185.592 83.5944 183.921Z" fill="var(--fill-0, #E04C2D)"/>
<path d="M49.3843 189.544C48.805 189.009 48.2016 188.451 47.0777 187.413C48.4395 187.215 49.3354 186.797 49.7482 187.082C50.6596 187.712 50.5988 188.64 49.3843 189.544Z" fill="var(--fill-0, #E04C2D)"/>
<path d="M56.7237 190.181C56.4216 187.95 57.1685 187.049 58.9649 187.479C58.3197 188.256 57.7732 188.915 56.7237 190.181Z" fill="var(--fill-0, #E04C2D)"/>
<path d="M81.3361 189.884C79.6869 188.618 79.6466 187.713 80.5495 187.059C80.9078 186.799 81.7455 187.204 82.3645 187.307C82.0628 188.063 81.7617 188.817 81.3361 189.884Z" fill="var(--fill-0, #E04C2D)"/>
<path d="M87.0206 187.418C89.3452 187.073 90.1537 187.813 89.4461 189.636C88.7499 188.999 88.1387 188.44 87.0206 187.418Z" fill="var(--fill-0, #E04C2D)"/>
<path d="M99.5421 187.161C98.2016 188.406 97.5777 188.986 96.3547 190.121C96.4241 188.598 96.1961 187.636 96.5686 187.234C96.8944 186.883 97.8957 187.161 99.5421 187.161Z" fill="var(--fill-0, #E04C2D)"/>
<path d="M53.2678 193.527C51.5874 192.584 51.5265 191.598 53.2161 190.461C54.7897 191.423 55.0007 192.401 53.2678 193.527Z" fill="var(--fill-0, #E04C2D)"/>
<path d="M61.5561 189.993C62.0664 192.016 61.3106 192.777 59.2891 192.275C60.1028 191.456 60.7452 190.809 61.5561 189.993Z" fill="var(--fill-0, #E04C2D)"/>
<path d="M87.1947 192.414C85.1836 192.684 84.3767 192 84.7743 190.362C85.1617 190.483 85.6228 190.508 85.9053 190.746C86.299 191.078 86.5596 191.568 87.1947 192.414Z" fill="var(--fill-0, #E04C2D)"/>
<path d="M93.2305 193.519C91.5005 192.563 91.4926 191.561 93.1596 190.473C94.8223 191.445 94.9251 192.443 93.2305 193.519Z" fill="var(--fill-0, #E04C2D)"/>
<path d="M59.0661 196.454C57.0894 197.025 56.3248 196.28 56.7724 194.218C57.6088 195.033 58.2567 195.665 59.0661 196.454Z" fill="var(--fill-0, #E04C2D)"/>
<path d="M74.7043 195.814C73.7752 197.538 72.7944 197.613 71.7116 195.899C72.6514 194.199 73.6329 194.147 74.7043 195.814Z" fill="var(--fill-0, #E04C2D)"/>
<path d="M87.0341 196.437C88.2252 195.492 88.8767 194.974 89.633 194.375C90.1202 196.311 89.2539 196.998 87.0341 196.437Z" fill="var(--fill-0, #E04C2D)"/>
<path d="M61.5241 201.735C60.7245 200.91 60.0936 200.261 59.2948 199.437C61.3178 198.949 62.0609 199.716 61.5241 201.735Z" fill="var(--fill-0, #E04C2D)"/>
<path d="M69.1714 201.786C68.6736 201.14 68.1276 200.741 68.1673 200.413C68.2331 199.867 68.578 199.058 68.9831 198.932C69.4045 198.801 70.0353 199.347 70.5756 199.597C70.1762 200.219 69.7776 200.841 69.1714 201.786Z" fill="var(--fill-0, #E04C2D)"/>
<path d="M77.6424 201.724C76.8514 200.908 76.2226 200.26 75.4181 199.43C77.4661 198.95 78.2075 199.715 77.6424 201.724Z" fill="var(--fill-0, #E04C2D)"/>
<path d="M86.6558 200.119C85.4236 201.895 84.5009 201.541 83.6228 200.156C84.5342 198.46 85.5079 198.339 86.6558 200.119Z" fill="var(--fill-0, #E04C2D)"/>
<path d="M98.7568 199.382C100.911 199.071 101.922 199.659 101.791 201.147C100.256 201.758 100.187 200.362 98.7568 199.382Z" fill="var(--fill-0, #E04C2D)"/>
<path d="M65.1526 205.517C63.3843 204.283 63.6761 203.35 65.1201 202.437C66.7495 203.365 66.8535 204.342 65.1526 205.517Z" fill="var(--fill-0, #E04C2D)"/>
<path d="M81.2794 205.486C79.6004 204.464 79.5601 203.448 81.2844 202.432C82.972 203.457 82.9613 204.472 81.2794 205.486Z" fill="var(--fill-0, #E04C2D)"/>
<path d="M88.9468 205.499C87.1601 204.258 87.585 203.335 88.8908 202.437C90.6145 203.37 90.7243 204.35 88.9468 205.499Z" fill="var(--fill-0, #E04C2D)"/>
<path d="M68.7827 206.197C69.5744 207.012 70.2041 207.661 71.0113 208.492C68.9577 208.967 68.2148 208.202 68.7827 206.197Z" fill="var(--fill-0, #E04C2D)"/>
<path d="M78.0829 205.806C78.0943 208.028 77.2071 208.903 75.4216 208.431C76.2424 207.62 76.889 206.983 78.0829 205.806Z" fill="var(--fill-0, #E04C2D)"/>
<path d="M83.5987 207.797C84.6383 206.132 85.641 206.162 86.6409 207.8C85.5829 209.575 84.5823 209.436 83.5987 207.797Z" fill="var(--fill-0, #E04C2D)"/>
<path d="M98.9657 208.379C100.149 207.439 100.8 206.923 101.556 206.322C102.024 208.256 101.16 208.942 98.9657 208.379Z" fill="var(--fill-0, #E04C2D)"/>
<path d="M57.3021 210.248C57.972 210.91 58.6553 211.44 58.5944 211.548C58.2354 212.183 57.7036 212.72 57.2291 213.289C56.8842 212.968 56.2093 212.583 56.2568 212.338C56.3786 211.712 56.8219 211.148 57.3021 210.248Z" fill="var(--fill-0, #E04C2D)"/>
<path d="M74.7306 212.035C73.7824 213.679 72.805 213.81 71.7116 212.098C72.6365 210.369 73.6174 210.298 74.7306 212.035Z" fill="var(--fill-0, #E04C2D)"/>
<path d="M82.8899 211.478C82.0733 212.268 81.4247 212.897 80.589 213.705C80.1269 211.632 80.8938 210.889 82.8899 211.478Z" fill="var(--fill-0, #E04C2D)"/>
<path d="M89.1859 210.275C89.6285 211.167 90.0534 211.747 90.1582 212.379C90.1979 212.619 89.4998 212.982 89.1385 213.288C88.6775 212.7 88.1669 212.139 87.8121 211.493C87.7632 211.403 88.4813 210.891 89.1859 210.275Z" fill="var(--fill-0, #E04C2D)"/>
<path d="M46.9404 215.767C46.4738 216.38 46.0099 216.99 45.1701 218.095C44.7869 216.999 44.2063 216.199 44.4061 215.744C44.945 214.512 45.8832 214.836 46.9404 215.767Z" fill="var(--fill-0, #E04C2D)"/>
<path d="M50.028 217.745C50.045 219.968 49.1641 220.849 47.3852 220.386C48.1988 219.573 48.8425 218.929 50.028 217.745Z" fill="var(--fill-0, #E04C2D)"/>
<path d="M59.3684 220.392C57.1297 220.876 56.2936 220.167 56.8601 218.267C57.5881 218.884 58.2177 219.417 59.3684 220.392Z" fill="var(--fill-0, #E04C2D)"/>
<path d="M65.5003 221.48C64.7468 220.937 63.9843 220.474 64.0197 220.4C64.3447 219.733 64.8085 219.135 65.2313 218.516C65.6165 218.797 66.3445 219.113 66.3212 219.354C66.2581 219.991 65.87 220.596 65.5003 221.48Z" fill="var(--fill-0, #E04C2D)"/>
<path d="M71.7351 219.678C72.5849 218.331 73.5046 217.961 74.5584 219.475C73.7067 220.654 72.7657 220.722 71.7351 219.678Z" fill="var(--fill-0, #E04C2D)"/>
<path d="M82.96 219.95C82.3155 220.451 81.9204 220.999 81.5883 220.963C81.0437 220.903 80.2251 220.561 80.1047 220.161C79.9751 219.731 80.5169 219.098 80.7655 218.554C81.3901 218.95 82.0139 219.348 82.96 219.95Z" fill="var(--fill-0, #E04C2D)"/>
<path d="M87.0318 220.317C88.2265 219.38 88.8794 218.868 89.635 218.274C90.1283 220.21 89.2606 220.891 87.0318 220.317Z" fill="var(--fill-0, #E04C2D)"/>
<path d="M75.3786 223.312C77.47 222.851 78.2501 223.501 77.719 225.264C77.3522 225.151 76.9109 225.127 76.6383 224.901C76.2551 224.584 75.9975 224.115 75.3786 223.312Z" fill="var(--fill-0, #E04C2D)"/>
<path d="M83.5951 224.005C84.7501 222.255 85.6779 222.464 86.6367 223.983C85.7317 225.486 84.7961 225.838 83.5951 224.005Z" fill="var(--fill-0, #E04C2D)"/>
<path d="M49.5387 229.624C48.9049 229.112 48.2632 228.595 47.0728 227.635C48.3765 227.325 49.2292 226.83 49.6655 227.077C50.6859 227.654 50.5174 228.597 49.5387 229.624Z" fill="var(--fill-0, #E04C2D)"/>
<path d="M58.8281 227.615C58.2892 228.852 57.8545 229.851 56.606 229.225C56.3022 229.072 56.0925 228.115 56.2709 227.728C56.853 226.469 57.7673 226.78 58.8281 227.615Z" fill="var(--fill-0, #E04C2D)"/>
<path d="M63.2018 227.622C65.4514 227.119 66.3075 227.815 65.7703 229.712C65.0324 229.112 64.3922 228.59 63.2018 227.622Z" fill="var(--fill-0, #E04C2D)"/>
<path d="M80.6946 229.847C80.1196 227.857 80.8613 227.091 82.9197 227.55C82.1088 228.387 81.4807 229.035 80.6946 229.847Z" fill="var(--fill-0, #E04C2D)"/>
<path d="M89.5218 230.154C88.5863 228.961 88.0729 228.306 87.4767 227.545C89.4104 227.076 90.0921 227.946 89.5218 230.154Z" fill="var(--fill-0, #E04C2D)"/>
<path d="M96.7315 229.894C96.2825 227.825 96.9307 227.049 98.6761 227.565C98.5579 227.93 98.5288 228.365 98.3028 228.637C97.9856 229.019 97.5224 229.279 96.7315 229.894Z" fill="var(--fill-0, #E04C2D)"/>
<path d="M46.7216 232.456C45.8478 233.155 44.9101 233.484 44.384 232.203C44.2162 231.794 44.7642 230.599 45.0361 230.581C46.1848 230.509 46.7684 231.255 46.7216 232.456Z" fill="var(--fill-0, #E04C2D)"/>
<path d="M53.2401 233.63C51.5037 232.46 51.7163 231.52 53.2197 230.549C54.7181 231.471 55.0473 232.422 53.2401 233.63Z" fill="var(--fill-0, #E04C2D)"/>
<path d="M61.6105 230.444C62.2917 231.408 62.7287 232.329 61.2976 232.918C60.9244 233.072 59.9789 232.8 59.9003 232.541C59.4938 231.195 60.3917 230.716 61.6105 230.444Z" fill="var(--fill-0, #E04C2D)"/>
<path d="M84.5151 229.6C85.7417 230.91 86.3238 231.532 87.3555 232.635C85.9548 232.635 85.0095 232.905 84.586 232.55C84.2398 232.258 84.5151 231.222 84.5151 229.6Z" fill="var(--fill-0, #E04C2D)"/>
<path d="M101.621 230.487C102.007 232.095 101.373 232.786 99.7184 232.561C99.6468 231.201 100.317 230.577 101.621 230.487Z" fill="var(--fill-0, #E04C2D)"/>
<path d="M46.674 224.445C46.0076 224.66 45.3421 224.876 44.6765 225.091C44.6729 224.368 44.6686 223.646 44.6644 222.924C45.3371 223.13 46.0084 223.337 46.6804 223.544C46.6783 223.844 46.6762 224.145 46.674 224.445Z" fill="var(--fill-0, #E04C2D)"/>
<path d="M65.1478 178.176C65.7094 179.082 66.1094 179.727 66.7426 180.748H63.5318C64.1804 179.715 64.5841 179.074 65.1478 178.176Z" fill="var(--fill-0, #E04C2D)"/>
<path d="M47.5375 207.601C46.0673 208.526 45.5206 208.871 44.4675 209.533C44.5398 208.255 44.5808 207.528 44.6219 206.802C45.3124 206.991 46.0036 207.18 47.5375 207.601Z" fill="var(--fill-0, #E04C2D)"/>
<path d="M101.854 226.09C100.615 224.966 100.146 224.54 99.5238 223.976C100.229 223.452 100.81 223.02 101.854 222.244V226.09Z" fill="var(--fill-0, #E04C2D)"/>
<path d="M49.899 197.395C49.0408 196.863 48.4163 196.476 47.5085 195.912C48.0849 195.241 48.4941 194.764 48.8107 194.396C50.8587 195.107 50.2319 196.096 49.899 197.395Z" fill="var(--fill-0, #E04C2D)"/>
<path d="M44.4343 182.506C45.2275 182.879 46.0212 183.251 47.2279 183.818C46.1331 184.518 45.5079 184.917 44.554 185.526C44.384 184.342 44.2715 183.558 44.1589 182.775L44.4343 182.506Z" fill="var(--fill-0, #E04C2D)"/>
<path d="M73.5705 229.417C72.4403 229.45 71.6062 229.105 72.0467 227.798C72.1692 227.435 73.0578 226.961 73.3482 227.091C74.6179 227.659 74.2815 228.555 73.5705 229.417Z" fill="var(--fill-0, #E04C2D)"/>
<path d="M49.9961 214.144C48.7476 213.026 48.2709 212.599 47.64 212.033C48.3545 211.506 48.9445 211.07 49.9961 210.293V214.144Z" fill="var(--fill-0, #E04C2D)"/>
<path d="M101.531 185.313C100.912 184.922 100.291 184.53 99.3219 183.919C100.265 183.404 101.085 182.625 101.487 182.801C102.625 183.298 102.309 184.266 101.531 185.313Z" fill="var(--fill-0, #E04C2D)"/>
<path d="M45.6558 198.419C46.0517 198.942 46.4476 199.464 47.1268 200.362C46.0482 200.708 45.3542 200.93 44.6601 201.153C44.5929 200.414 44.5256 199.675 44.4577 198.936C44.8571 198.764 45.2564 198.592 45.6558 198.419Z" fill="var(--fill-0, #E04C2D)"/>
<path d="M66.7348 187.097C66.111 188.111 65.715 188.754 65.1541 189.668C64.5848 188.764 64.1827 188.127 63.5333 187.097H66.7348Z" fill="var(--fill-0, #E04C2D)"/>
<path d="M54.6472 215.577C54.2287 216.244 53.8393 216.863 53.2352 217.825C52.5887 217.219 52.1339 216.792 51.743 216.426C52.4944 214.501 53.4356 214.928 54.6472 215.577Z" fill="var(--fill-0, #E04C2D)"/>
<path d="M59.1278 215.127C60.5158 215.263 61.2515 215.335 61.9872 215.406C61.7486 216.097 61.5099 216.786 61.1084 217.95C60.3663 216.893 59.9415 216.286 59.1278 215.127Z" fill="var(--fill-0, #E04C2D)"/>
<path d="M71.4794 215.301C70.333 216.551 69.9044 217.019 69.3472 217.628C68.8302 216.924 68.3975 216.335 67.637 215.301H71.4794Z" fill="var(--fill-0, #E04C2D)"/>
<path d="M76.6078 217.429C76.3946 216.76 76.1822 216.092 75.9691 215.423C76.6886 215.414 77.4073 215.405 78.1268 215.396C77.9228 216.065 77.7189 216.733 77.5149 217.402C77.2125 217.411 76.9101 217.42 76.6078 217.429Z" fill="var(--fill-0, #E04C2D)"/>
<path d="M85.3231 217.941C84.9152 216.784 84.6737 216.098 84.4322 215.412C85.1701 215.336 85.908 215.262 87.2557 215.124C86.4654 216.276 86.0497 216.882 85.3231 217.941Z" fill="var(--fill-0, #E04C2D)"/>
<path d="M94.7975 215.222C94.1531 216.246 93.7509 216.883 93.1879 217.775C92.6271 216.882 92.227 216.245 91.5854 215.222H94.7975Z" fill="var(--fill-0, #E04C2D)"/>
<path d="M100.987 218.265C100.138 216.775 99.819 216.213 99.222 215.166C100.465 215.271 101.196 215.332 101.929 215.394C101.703 216.08 101.478 216.766 100.987 218.265Z" fill="var(--fill-0, #E04C2D)"/>
<path d="M73.5671 189.335C72.444 189.366 71.6105 189.022 72.046 187.721C72.1671 187.361 73.0558 186.888 73.3469 187.019C74.613 187.585 74.2824 188.477 73.5671 189.335Z" fill="var(--fill-0, #E04C2D)"/>
<path d="M52.7451 177.32C52.5566 176.651 52.3684 175.981 52.1794 175.312C52.8974 175.328 53.6148 175.345 54.3329 175.362C54.1063 176.032 53.8802 176.703 53.6536 177.374C53.3506 177.356 53.0481 177.338 52.7451 177.32Z" fill="var(--fill-0, #E04C2D)"/>
<path d="M76.552 177.32C76.3743 176.65 76.1964 175.98 76.0186 175.309C76.7374 175.327 77.4556 175.345 78.1744 175.362C77.9357 176.035 77.6962 176.708 77.4569 177.382C77.1552 177.36 76.8536 177.34 76.552 177.32Z" fill="var(--fill-0, #E04C2D)"/>
<path d="M92.872 177.579C92.5887 176.722 92.3579 176.023 92.127 175.324C92.8642 175.253 93.6007 175.182 94.5644 175.089C94.3442 175.854 94.3152 176.298 94.0985 176.612C93.8804 176.93 93.4767 177.119 92.872 177.579Z" fill="var(--fill-0, #E04C2D)"/>
</g>
</g>
</svg>
