<svg preserveAspectRatio="none" width="100%" height="100%" overflow="visible" style="display: block;" viewBox="0 0 240 288" fill="none" xmlns="http://www.w3.org/2000/svg">
<g id="Group 359">
<path id="Star 6" d="M90.5427 101.091C93.616 98.2241 98.384 98.2241 101.457 101.091L108.485 107.648C110.704 109.718 113.903 110.354 116.746 109.291L125.747 105.923C129.684 104.45 134.089 106.275 135.831 110.1L139.815 118.846C141.073 121.608 143.785 123.42 146.818 123.526L156.423 123.859C160.624 124.005 163.995 127.376 164.141 131.577L164.474 141.182C164.58 144.215 166.392 146.927 169.154 148.185L177.9 152.169C181.725 153.911 183.55 158.316 182.077 162.253L178.709 171.254C177.646 174.097 178.282 177.296 180.352 179.515L186.909 186.543C189.776 189.616 189.776 194.384 186.909 197.457L180.352 204.485C178.282 206.704 177.646 209.903 178.709 212.746L182.077 221.747C183.55 225.684 181.725 230.089 177.9 231.831L169.154 235.815C166.392 237.073 164.58 239.785 164.474 242.818L164.141 252.423C163.995 256.624 160.624 259.995 156.423 260.141L146.818 260.474C143.785 260.58 141.073 262.392 139.815 265.154L135.831 273.9C134.089 277.725 129.684 279.55 125.747 278.077L116.746 274.709C113.903 273.646 110.704 274.282 108.485 276.352L101.457 282.909C98.384 285.776 93.616 285.776 90.5427 282.909L83.515 276.352C81.296 274.282 78.0967 273.646 75.2544 274.709L66.2526 278.077C62.316 279.55 57.911 277.725 56.1689 273.9L52.1851 265.154C50.9272 262.392 48.215 260.58 45.1821 260.474L35.5767 260.141C31.3761 259.995 28.0047 256.624 27.8589 252.423L27.5256 242.818C27.4204 239.785 25.6081 237.073 22.8464 235.815L14.0997 231.831C10.2747 230.089 8.45004 225.684 9.92286 221.747L13.2908 212.746C14.3542 209.903 13.7178 206.704 11.6476 204.485L5.09125 197.457C2.22408 194.384 2.22409 189.616 5.09126 186.543L11.6476 179.515C13.7178 177.296 14.3542 174.097 13.2908 171.254L9.92286 162.253C8.45004 158.316 10.2747 153.911 14.0997 152.169L22.8464 148.185C25.6081 146.927 27.4204 144.215 27.5256 141.182L27.8589 131.577C28.0047 127.376 31.3761 124.005 35.5767 123.859L45.1821 123.526C48.215 123.42 50.9272 121.608 52.1851 118.846L56.1689 110.1C57.911 106.275 62.316 104.45 66.2526 105.923L75.2544 109.291C78.0967 110.354 81.296 109.718 83.515 107.648L90.5427 101.091Z" fill="var(--fill-0, #E04C2D)" fill-opacity="0.4"/>
<g id="Vector">
<path d="M81.3517 184.964C86.484 185.671 179.943 185.544 182.877 184.901C166.051 155.797 149.384 126.618 132.081 97.0045C114.996 126.62 98.2866 155.602 81.3517 184.964ZM129.665 92.5506C112.547 62.9177 95.6536 33.6844 78.7606 4.4494C78.5265 4.6091 78.2173 4.70848 78.1002 4.91576C61.7923 33.0968 45.5011 61.2854 29.2182 89.4766C28.817 90.1778 28.4826 90.9216 28.1399 91.6546C28.0897 91.7624 28.1232 91.9246 28.1567 92.0508C28.1817 92.1661 28.2653 92.2673 28.4326 92.5506L129.665 92.5506ZM132.106 90.2112C132.424 90.0023 132.875 89.8652 133.05 89.5652C149.501 61.028 165.926 32.4801 182.334 3.92122C182.443 3.73233 182.3 3.39884 182.275 3.13557C179.417 2.42014 85.899 2.29053 81.8617 2.99432C83.4331 7.44488 128.863 86.1 132.106 90.2112ZM236.774 95.3755L134.614 95.3755C151.624 124.749 168.099 154.128 185.427 183.127C186.079 182.694 186.53 182.555 186.706 182.254C203.356 153.386 219.99 124.505 236.774 95.3755ZM124.767 104.065C125.352 102.623 125.804 101.102 126.564 99.7593C127.375 98.3367 128.478 97.0822 129.715 95.3881L124.466 95.3881C124.366 96.1996 124.282 96.8474 124.09 98.3467C123.254 96.8056 122.845 96.0509 122.469 95.3538L117.997 95.3538C117.512 96.1812 117.085 96.8967 116.467 97.9439C115.915 96.7947 115.581 96.1102 115.247 95.414L111.343 95.414C110.942 96.2506 110.624 96.9193 110.031 98.1554C109.32 96.8657 108.894 96.0851 108.484 95.3388L104.071 95.3388C103.859 96.291 103.252 97.0157 102.249 97.5127L102.249 95.3405L97.6847 95.3405C97.2082 96.1654 96.7819 96.8892 96.1469 97.9815C95.5867 96.8256 95.2607 96.1445 94.893 95.3872L90.1117 95.3872C90.2538 96.3776 90.9475 97.501 89.326 97.5887C87.3617 97.6948 88.9582 95.8728 88.2226 95.3538L83.8259 95.3538C83.3327 96.1871 82.9148 96.9017 82.0204 98.4187C81.9119 96.7763 81.87 96.0935 81.8282 95.4266L76.4954 95.4266C76.3449 96.2732 76.2361 96.8917 75.9854 98.3267C75.2749 96.8432 74.9488 96.1679 74.5643 95.3689L69.6662 95.3689C70.2262 96.8641 69.6829 97.4968 68.2452 97.4358C67.894 96.6919 67.5681 95.9916 67.192 95.195C65.7876 95.2736 64.4754 95.3471 63.3636 95.4098C62.904 96.3476 62.5863 96.997 62.0094 98.1679C61.2572 96.829 60.8142 96.0459 60.4297 95.3563L55.9328 95.3563C56.2088 96.5398 56.0165 97.4951 54.7627 97.3814C54.445 97.3522 54.2359 96.0333 53.9935 95.3622L49.647 95.3622C49.1538 96.1863 48.7275 96.9 48.1173 97.908C47.5823 96.7789 47.2481 96.0826 46.9304 95.4132L42.5753 95.4132C42.1826 96.3384 42.0321 97.3873 41.6476 97.4776C39.5663 97.9715 40.937 95.8252 40.285 95.3822L35.8799 95.3822C35.3284 96.2347 34.8939 96.9076 33.9492 98.3568L33.9492 95.4784L28.1901 95.4784C28.8002 97.0948 29.3101 98.4454 29.7364 99.5754L31.8261 99.5754C31.734 100.68 31.2912 101.759 31.6506 102.414C33.3641 105.61 34.9857 108.956 37.2844 111.703C38.4379 113.076 39.3909 114.281 39.5079 115.971C40.628 116.248 41.5056 116.462 42.7008 116.758C42.0572 117.56 41.5975 118.133 41.0625 118.806C42.149 120.591 43.2859 122.402 44.3642 124.247C45.3839 125.989 45.9274 128.386 47.4153 129.382C49.5969 130.835 48.7443 133.382 50.3157 134.818C50.416 134.906 50.5581 134.943 50.6751 135.003L50.7251 135.053C50.951 135.666 51.0763 136.341 51.4106 136.885C52.957 139.385 54.9046 141.705 56.033 144.374C56.7938 146.184 57.6463 147.301 58.9753 147.46C59.2846 149.061 59.3097 150.376 59.8195 151.467C60.714 153.403 61.717 155.353 63.021 157.027C65.236 159.865 66.047 163.879 69.5994 165.018C69.4657 165.976 69.0895 166.758 69.3319 167.223C71.2795 170.988 72.6586 175.128 76.0859 177.969C76.3615 178.194 76.6625 178.726 76.5789 178.984C75.9018 180.912 77.4818 181.793 78.3427 183.008C78.3928 183.132 78.4179 183.274 78.5015 183.373C78.5516 183.437 78.6853 183.437 78.7774 183.464C78.6435 183.306 78.5015 183.149 78.3594 182.991C78.6352 182.461 78.8191 181.842 79.212 181.425C79.63 180.987 80.4742 180.871 80.7499 180.394C82.6557 177.051 84.4695 173.65 86.2166 170.437C85.6398 169.531 85.2302 168.886 84.5615 167.833L88.2061 167.833C88.2729 166.814 88.3312 165.823 88.3981 164.782C92.8283 161.87 93.7644 156.528 96.7485 152.747C96.1384 152.006 95.7789 151.568 95.0098 150.629C96.3975 150.736 97.0997 150.79 98.3451 150.886C98.0191 148.203 100.176 146.789 101.354 144.791C102.566 142.739 103.385 140.455 104.38 138.272L104.363 138.288C105.801 137.752 106.044 136.5 106.353 135.6C105.81 134.879 105.517 134.49 105.208 134.077C106.294 133.457 107.531 133.166 108.025 132.396C110.607 128.382 113.006 124.251 115.455 120.147C115.99 119.238 115.99 118.257 116.041 117.193C116.074 116.427 117.813 115.874 118.364 114.969C120.546 111.434 122.56 107.796 124.633 104.197L124.767 104.065ZM78.1086 0.00388149L181.857 0.00387242C182.802 0.00387234 183.755 0.0389754 184.699 0.00301134C185.92 -0.0454477 186.714 0.495324 187.316 1.54588C189.18 4.82051 191.085 8.07338 192.991 11.3221C198.374 20.4848 203.816 29.6166 209.149 38.8087C213.604 46.4928 217.934 54.2481 222.339 61.9615C227.747 71.4302 233.172 80.888 238.58 90.3558C239.048 91.1757 239.65 91.9956 239.825 92.8874C240.018 93.8678 240.143 95.1248 239.692 95.9271C236.022 102.506 232.211 109.007 228.432 115.531C224.32 122.636 220.207 129.737 216.095 136.841C211.172 145.341 206.232 153.832 201.333 162.341C196.962 169.923 192.565 177.49 188.31 185.137C187.182 187.153 185.853 188.004 183.512 188C149.242 187.94 114.971 187.942 80.6997 187.999C78.5514 188.003 77.2895 187.45 76.2195 185.443C73.4277 180.223 70.3266 175.17 67.3424 170.053C64.5674 165.289 61.7672 160.537 59.0004 155.767C55.3559 149.481 51.7283 143.182 48.0922 136.89C44.6566 130.948 41.2129 125.013 37.786 119.068C33.8238 112.187 29.8702 105.298 25.9166 98.4111C25.5154 97.7083 25.1976 96.9451 24.7379 96.2907C23.5259 94.6025 23.9687 93.0588 24.905 91.4306C30.2378 82.2253 35.4872 72.9781 40.8368 63.7878C44.6985 57.1642 48.6941 50.6242 52.5725 44.0131C55.1637 39.5993 57.6378 35.117 60.1873 30.6815C64.5422 23.0983 68.9054 15.5194 73.2937 7.9564C74.7817 5.40051 76.3532 2.89568 78.1086 0.00388149Z" fill="var(--fill-0, #E04C2D)"/>
<path d="M107.624 124.364C109.128 123.47 109.554 123.219 109.972 122.968C110.248 123.453 110.524 123.938 110.8 124.422C110.407 124.624 110.014 124.985 109.621 124.987C109.128 124.991 108.635 124.7 107.624 124.364Z" fill="var(--fill-0, #E04C2D)"/>
<path d="M57.2454 140.943C57.9059 140.554 58.3237 140.305 58.7416 140.057C59.0174 140.541 59.2848 141.027 59.5606 141.513C59.1677 141.712 58.7248 142.13 58.3988 142.053C58.0143 141.966 57.7385 141.444 57.2454 140.943Z" fill="var(--fill-0, #E04C2D)"/>
<path d="M106.62 111.742C106.997 112.563 107.364 113.023 107.373 113.494C107.389 113.868 106.98 114.257 106.754 114.639C106.278 114.346 105.81 114.054 105.333 113.761C105.601 113.344 105.868 112.927 106.62 111.742Z" fill="var(--fill-0, #E04C2D)"/>
<path d="M84.2105 120.671C85.2304 120.065 85.6317 119.638 86.0078 119.662C86.3923 119.688 86.7516 120.146 87.1279 120.414C86.735 120.835 86.4006 121.456 85.9241 121.608C85.5899 121.713 85.0549 121.164 84.2105 120.671Z" fill="var(--fill-0, #E04C2D)"/>
<path d="M91.5414 140.83C92.1683 140.639 92.7866 140.448 93.4135 140.256C93.4135 140.836 93.4221 141.416 93.4221 141.996C92.7952 141.813 92.1767 141.629 91.5498 141.445C91.5498 141.24 91.5498 141.035 91.5414 140.83Z" fill="var(--fill-0, #E04C2D)"/>
<path d="M60.6555 123.726C61.2824 123.542 61.9093 123.359 62.5362 123.175C62.5362 123.756 62.5279 124.336 62.5279 124.918C61.901 124.725 61.2741 124.533 60.6472 124.34C60.6472 124.136 60.6555 123.931 60.6555 123.726Z" fill="var(--fill-0, #E04C2D)"/>
<path d="M68.521 122.586C69.1396 123.179 69.8502 123.66 69.7834 123.826C69.5745 124.323 69.0729 124.696 68.6883 125.117C68.3874 124.763 67.9027 124.434 67.8441 124.045C67.794 123.678 68.1951 123.246 68.521 122.586Z" fill="var(--fill-0, #E04C2D)"/>
<path d="M89.3762 122.486C89.8359 123.057 90.3793 123.444 90.3458 123.76C90.2957 124.178 89.7857 124.542 89.4765 124.929C89.0669 124.521 88.5737 124.161 88.3147 123.674C88.2477 123.539 88.8747 123.033 89.3762 122.486Z" fill="var(--fill-0, #E04C2D)"/>
<path d="M88.9249 146.577C88.6073 145.697 88.2061 145.149 88.3231 144.771C88.4819 144.276 89.0587 143.914 89.46 143.495C89.7776 143.877 90.2789 144.231 90.3459 144.653C90.3961 144.963 89.8611 145.361 88.9249 146.577Z" fill="var(--fill-0, #E04C2D)"/>
<path d="M106.353 121.949C105.935 121.402 105.475 120.885 105.509 120.845C105.918 120.426 106.395 120.081 106.855 119.716C107.063 119.984 107.515 120.369 107.448 120.5C107.206 120.99 106.796 121.397 106.353 121.949Z" fill="var(--fill-0, #E04C2D)"/>
<path d="M78.8192 176.373C78.6771 175.944 78.3344 175.461 78.4347 175.104C78.5351 174.759 79.0867 174.547 79.4461 174.277C79.5966 174.739 79.8306 175.194 79.8724 175.666C79.9059 176.037 79.697 176.429 79.5883 176.811C79.3374 176.666 79.0783 176.519 78.8192 176.373Z" fill="var(--fill-0, #E04C2D)"/>
<path d="M81.2098 172.001C81.8283 171.534 82.1793 171.265 82.5389 170.996C82.7561 171.404 83.0988 171.797 83.1491 172.228C83.1825 172.465 82.6307 173.029 82.5389 172.988C82.1376 172.825 81.82 172.483 81.2098 172.001Z" fill="var(--fill-0, #E04C2D)"/>
<path d="M79.5047 119.304C79.6384 119.662 79.8891 120.028 79.8724 120.377C79.839 120.853 79.5966 121.315 79.4545 121.782C79.0951 121.511 78.5434 121.3 78.4347 120.953C78.3344 120.596 78.6605 120.108 78.8027 119.677C79.0366 119.553 79.2706 119.428 79.5047 119.304Z" fill="var(--fill-0, #E04C2D)"/>
<path d="M77.8913 168.315C78.3928 168.065 78.819 167.681 79.0363 167.777C79.4125 167.945 79.8973 168.405 79.8973 168.748C79.9057 169.084 79.3624 169.428 79.0698 169.768C78.7856 169.415 78.4932 169.063 77.8913 168.315Z" fill="var(--fill-0, #E04C2D)"/>
<path d="M71.9733 169.898C71.6808 169.229 71.405 168.702 71.2462 168.143C71.2294 168.085 72.0401 167.648 72.1072 167.719C72.4749 168.122 72.7841 168.607 72.9847 169.114C73.0181 169.202 72.4581 169.526 71.9733 169.898Z" fill="var(--fill-0, #E04C2D)"/>
<path d="M71.9733 121.924C71.6723 121.256 71.405 120.727 71.2462 120.168C71.2294 120.111 72.0401 119.674 72.1072 119.747C72.4749 120.148 72.7841 120.635 72.9847 121.142C73.0181 121.23 72.4581 121.554 71.9733 121.924Z" fill="var(--fill-0, #E04C2D)"/>
<path d="M89.7776 118.432C89.0169 117.808 88.6658 117.521 88.3148 117.233C88.6575 116.937 89.0002 116.411 89.3429 116.41C89.6772 116.41 90.1371 116.898 90.2959 117.276C90.3879 117.5 90.02 117.923 89.7776 118.432Z" fill="var(--fill-0, #E04C2D)"/>
<path d="M84.9629 161.489C85.3975 161.346 85.8824 161.009 86.2418 161.116C86.5845 161.221 86.7934 161.78 87.0693 162.14C86.6012 162.287 86.1415 162.515 85.6651 162.556C85.2889 162.589 84.8876 162.395 84.4948 162.302C84.6536 162.03 84.8124 161.76 84.9629 161.489Z" fill="var(--fill-0, #E04C2D)"/>
<path d="M91.4324 113.432C91.9924 113.003 92.2851 112.777 92.5777 112.549C92.937 113.019 93.3131 113.479 93.6139 113.982C93.6392 114.016 92.9788 114.619 92.845 114.552C92.3686 114.301 91.9757 113.88 91.4324 113.432Z" fill="var(--fill-0, #E04C2D)"/>
<path d="M71.9314 114.901C71.5637 114.37 71.1374 113.93 71.2127 113.834C71.5302 113.376 71.99 113.011 72.3996 112.614C72.6504 112.887 73.1685 113.301 73.11 113.408C72.851 113.902 72.4247 114.311 71.9314 114.901Z" fill="var(--fill-0, #E04C2D)"/>
<path d="M57.287 113.431C57.8387 113.002 58.1396 112.776 58.4323 112.549C58.7916 113.021 59.1677 113.484 59.4687 113.989C59.4855 114.024 58.8251 114.628 58.6912 114.559C58.2066 114.298 57.8053 113.87 57.287 113.431Z" fill="var(--fill-0, #E04C2D)"/>
<path d="M109.713 104.559C109.212 103.938 108.936 103.584 108.652 103.228C109.061 102.999 109.446 102.653 109.88 102.587C110.123 102.552 110.699 103.086 110.658 103.199C110.516 103.603 110.173 103.936 109.713 104.559Z" fill="var(--fill-0, #E04C2D)"/>
<path d="M101.781 103.051C102.483 102.816 102.976 102.477 103.335 102.586C103.67 102.689 103.87 103.258 104.129 103.622C103.661 103.771 103.202 104.028 102.742 104.026C102.5 104.025 102.266 103.564 101.781 103.051Z" fill="var(--fill-0, #E04C2D)"/>
<path d="M89.3262 104.561C88.8496 103.939 88.5821 103.579 88.3064 103.218C88.716 102.993 89.1088 102.649 89.5351 102.589C89.7776 102.556 90.3459 103.105 90.3041 103.209C90.1453 103.615 89.7941 103.947 89.3262 104.561Z" fill="var(--fill-0, #E04C2D)"/>
<path d="M68.9811 102.089C69.4575 102.716 69.7331 103.075 70.0008 103.433C69.591 103.656 69.1901 103.995 68.7553 104.056C68.5212 104.088 67.9611 103.536 67.9946 103.432C68.1617 103.029 68.5047 102.701 68.9811 102.089Z" fill="var(--fill-0, #E04C2D)"/>
<path d="M40.2602 102.957C40.6948 102.818 41.188 102.487 41.5475 102.597C41.8901 102.699 42.0907 103.264 42.3497 103.626C41.8818 103.771 41.4221 104.002 40.9457 104.032C40.5862 104.054 40.21 103.819 39.8421 103.698C39.9843 103.451 40.1182 103.204 40.2602 102.957Z" fill="var(--fill-0, #E04C2D)"/>
<path d="M87.1946 151.273C88.2561 150.838 88.6073 150.565 88.9416 150.584C89.4096 150.611 89.8694 150.856 90.3375 151.007C90.0618 151.364 89.8443 151.918 89.4932 152.022C89.1422 152.125 88.6574 151.781 87.1946 151.273Z" fill="var(--fill-0, #E04C2D)"/>
<path d="M66.8495 151.318C68.3039 150.814 68.7886 150.472 69.1479 150.572C69.4908 150.67 69.7166 151.222 69.9924 151.574C69.5242 151.73 69.0645 151.98 68.5963 152.01C68.2621 152.03 67.9027 151.754 66.8495 151.318Z" fill="var(--fill-0, #E04C2D)"/>
<path d="M83.9181 148.055C85.3975 147.549 85.8824 147.209 86.2418 147.311C86.5845 147.41 86.8018 147.962 87.0693 148.316C86.6096 148.465 86.1499 148.708 85.6818 148.735C85.3475 148.754 84.9879 148.486 83.9181 148.055Z" fill="var(--fill-0, #E04C2D)"/>
<path d="M96.2473 146.517C95.7457 145.065 95.4032 144.581 95.5118 144.223C95.6121 143.875 96.1637 143.655 96.5148 143.379C96.6653 143.844 96.9162 144.304 96.9412 144.776C96.958 145.113 96.6819 145.467 96.2473 146.517Z" fill="var(--fill-0, #E04C2D)"/>
<path d="M69.0477 143.229C69.474 143.788 69.6998 144.081 69.9336 144.374C69.4657 144.734 68.9976 145.094 68.5296 145.453C68.3207 145.18 67.8776 144.787 67.9443 144.653C68.1868 144.169 68.6047 143.772 69.0477 143.229Z" fill="var(--fill-0, #E04C2D)"/>
<path d="M62.0516 146.577C61.6168 145.478 61.3494 145.12 61.3661 144.78C61.3994 144.31 61.6419 143.853 61.7924 143.39C62.1435 143.659 62.695 143.874 62.7871 144.212C62.8874 144.576 62.553 145.057 62.0516 146.577Z" fill="var(--fill-0, #E04C2D)"/>
<path d="M98.2699 141.12C98.8968 140.649 99.2563 140.378 99.6158 140.105C99.8415 140.516 100.184 140.91 100.243 141.345C100.276 141.579 99.7243 142.148 99.624 142.106C99.2145 141.945 98.8885 141.598 98.2699 141.12Z" fill="var(--fill-0, #E04C2D)"/>
<path d="M85.7233 142.513C85.364 141.984 84.9545 141.539 85.0297 141.445C85.3557 140.993 85.8154 140.637 86.2331 140.246C86.484 140.52 87.0022 140.947 86.9437 141.04C86.6594 141.529 86.2331 141.931 85.7233 142.513Z" fill="var(--fill-0, #E04C2D)"/>
<path d="M77.8915 141.539C78.485 140.811 78.7776 140.458 79.07 140.105C79.3709 140.449 79.9142 140.791 79.9142 141.135C79.9142 141.471 79.421 141.928 79.0365 142.097C78.8192 142.19 78.4014 141.803 77.8915 141.539Z" fill="var(--fill-0, #E04C2D)"/>
<path d="M65.3785 143.328C64.8602 141.796 64.5173 141.312 64.6177 140.954C64.7179 140.611 65.2781 140.398 65.6291 140.128C65.7796 140.591 66.022 141.047 66.0556 141.517C66.0721 141.86 65.8132 142.22 65.3785 143.328Z" fill="var(--fill-0, #E04C2D)"/>
<path d="M85.6567 112.609C86.384 113.203 86.735 113.495 87.0859 113.786C86.7434 114.088 86.4006 114.624 86.0579 114.624C85.7235 114.624 85.2637 114.13 85.0966 113.749C85.0047 113.539 85.3976 113.116 85.6567 112.609Z" fill="var(--fill-0, #E04C2D)"/>
<path d="M84.9712 133.858C85.3974 133.718 85.8907 133.386 86.2501 133.495C86.5929 133.598 86.7934 134.16 87.0609 134.519C86.5928 134.667 86.1331 134.891 85.6567 134.935C85.2722 134.971 84.8626 134.79 84.4612 134.705C84.6285 134.423 84.7956 134.141 84.9712 133.858Z" fill="var(--fill-0, #E04C2D)"/>
<path d="M70.0007 134.163C71.1374 133.739 71.5052 133.479 71.8562 133.501C72.3245 133.53 72.7757 133.776 73.2439 133.929C72.9763 134.285 72.759 134.845 72.4164 134.942C72.0568 135.044 71.5721 134.703 70.0007 134.163Z" fill="var(--fill-0, #E04C2D)"/>
<path d="M89.3178 129.72C89.7941 130.334 90.0701 130.688 90.3459 131.043C89.9447 131.268 89.5519 131.611 89.1255 131.673C88.8915 131.707 88.3148 131.166 88.3564 131.064C88.5154 130.664 88.8496 130.335 89.3178 129.72Z" fill="var(--fill-0, #E04C2D)"/>
<path d="M95.2023 123.904C95.6202 123.506 95.8793 123.262 96.1386 123.017C96.4144 123.49 96.7404 123.945 96.9242 124.452C96.9661 124.548 96.2304 125.084 96.1551 125.024C95.8041 124.757 95.5533 124.347 95.2023 123.904Z" fill="var(--fill-0, #E04C2D)"/>
<path d="M81.1428 124.465C81.7613 123.724 82.0457 123.373 82.3382 123.022C82.6391 123.362 83.1907 123.708 83.1823 124.044C83.174 124.387 82.6892 124.845 82.3048 125.013C82.0873 125.109 81.6527 124.724 81.1428 124.465Z" fill="var(--fill-0, #E04C2D)"/>
<path d="M48.2931 121.804C48.7277 122.941 48.9868 123.303 48.97 123.648C48.9366 124.121 48.6942 124.583 48.5437 125.049C48.1844 124.775 47.6328 124.56 47.524 124.211C47.4237 123.856 47.7665 123.368 48.2931 121.804Z" fill="var(--fill-0, #E04C2D)"/>
<path d="M75.0325 124.669C75.2081 124.127 75.3836 123.585 75.5592 123.043C75.8935 123.17 76.2195 123.296 76.5455 123.422C76.3198 123.957 76.086 124.492 75.8601 125.028C75.5842 124.908 75.3084 124.789 75.0325 124.669Z" fill="var(--fill-0, #E04C2D)"/>
<path d="M75.1665 172.823C75.3254 172.209 75.4841 171.596 75.6514 170.983C75.8854 171.05 76.3199 171.163 76.3199 171.178C76.1779 171.809 76.0023 172.431 75.8353 173.053C75.6096 172.977 75.3922 172.9 75.1665 172.823Z" fill="var(--fill-0, #E04C2D)"/>
<path d="M99.6577 121.762C99.4237 121.186 99.1812 120.613 98.9806 120.025C98.9722 120.006 99.3983 119.842 99.624 119.745C99.8499 120.33 100.084 120.915 100.318 121.5C100.092 121.587 99.875 121.674 99.6577 121.762Z" fill="var(--fill-0, #E04C2D)"/>
<path d="M92.1011 121.35C92.3017 120.818 92.5023 120.287 92.7031 119.755C93.0125 119.913 93.6059 120.175 93.5892 120.215C93.3971 120.752 93.1127 121.259 92.8535 121.773C92.6027 121.632 92.352 121.491 92.1011 121.35Z" fill="var(--fill-0, #E04C2D)"/>
<path d="M69.5491 118.009C69.0226 117.807 68.4877 117.605 67.9611 117.403C68.12 117.094 68.379 116.503 68.4125 116.518C68.9558 116.715 69.4574 116.995 69.9673 117.254C69.8335 117.505 69.6914 117.758 69.5491 118.009Z" fill="var(--fill-0, #E04C2D)"/>
<path d="M73.2356 161.73C72.7256 161.994 72.2243 162.278 71.6894 162.478C71.6558 162.493 71.3884 161.903 71.2212 161.595C71.7478 161.384 72.2743 161.172 72.7926 160.961C72.9431 161.217 73.0851 161.474 73.2356 161.73Z" fill="var(--fill-0, #E04C2D)"/>
<path d="M91.5913 134.353C92.1011 134.08 92.6028 133.786 93.1377 133.576C93.1796 133.56 93.4554 134.141 93.6226 134.444C93.096 134.666 92.5777 134.887 92.0511 135.108C91.8922 134.856 91.7418 134.605 91.5913 134.353Z" fill="var(--fill-0, #E04C2D)"/>
<path d="M100.301 112.747C100.084 113.35 99.8664 113.953 99.6492 114.557C99.4235 114.471 98.9889 114.319 98.9889 114.306C99.1812 113.687 99.4151 113.078 99.6407 112.469C99.8581 112.562 100.084 112.655 100.301 112.747Z" fill="var(--fill-0, #E04C2D)"/>
<path d="M75.5342 159.48C75.1162 158.891 74.7318 158.54 74.6397 158.121C74.5897 157.922 75.1497 157.335 75.3252 157.377C75.7348 157.475 76.3533 157.816 76.3868 158.117C76.4284 158.467 75.9354 158.879 75.5342 159.48Z" fill="var(--fill-0, #E04C2D)"/>
<path d="M69.9506 158.416C69.3823 158.652 68.8137 158.895 68.2287 159.094C68.2119 159.101 68.0448 158.68 67.9444 158.458C68.5296 158.228 69.1061 157.997 69.6914 157.766C69.7749 157.984 69.867 158.199 69.9506 158.416Z" fill="var(--fill-0, #E04C2D)"/>
<path d="M91.5913 154.66C92.1931 154.463 92.7866 154.26 93.3885 154.099C93.4053 154.094 93.539 154.522 93.6226 154.748C93.0041 154.94 92.3937 155.132 91.7752 155.324C91.7166 155.102 91.6582 154.881 91.5913 154.66Z" fill="var(--fill-0, #E04C2D)"/>
<path d="M86.8353 155.353C86.2333 155.139 85.64 154.925 85.0382 154.712C85.1218 154.488 85.2805 154.066 85.2972 154.071C85.8906 154.258 86.4841 154.486 87.0693 154.708C86.994 154.923 86.9105 155.138 86.8353 155.353Z" fill="var(--fill-0, #E04C2D)"/>
<path d="M57.9474 121.35C58.148 120.817 58.3487 120.284 58.5493 119.75C58.8586 119.908 59.4521 120.17 59.4353 120.212C59.2431 120.751 58.9673 121.259 58.6999 121.775C58.449 121.633 58.1982 121.491 57.9474 121.35Z" fill="var(--fill-0, #E04C2D)"/>
<path d="M69.959 130.795C69.3822 131.031 68.8138 131.272 68.2203 131.471C68.2036 131.478 68.0448 131.055 67.9444 130.833C68.5463 130.595 69.1481 130.359 69.75 130.122C69.8171 130.347 69.8921 130.571 69.959 130.795Z" fill="var(--fill-0, #E04C2D)"/>
<path d="M60.9817 130.133C61.5751 130.367 62.1602 130.602 62.7453 130.836C62.6533 131.06 62.4863 131.484 62.4696 131.479C61.8762 131.273 61.2993 131.028 60.7226 130.788C60.8061 130.57 60.8981 130.351 60.9817 130.133Z" fill="var(--fill-0, #E04C2D)"/>
<path d="M91.8337 99.2652C92.4272 99.4817 93.0207 99.699 93.6226 99.9155C93.5307 100.136 93.3716 100.555 93.3549 100.549C92.7615 100.358 92.1847 100.128 91.5997 99.9029C91.6747 99.6907 91.7586 99.4783 91.8337 99.2652Z" fill="var(--fill-0, #E04C2D)"/>
<path d="M106.47 128.475C106.035 128.01 105.5 127.616 105.559 127.456C105.726 127.043 106.152 126.733 106.47 126.381C106.754 126.648 107.314 126.962 107.272 127.171C107.197 127.599 106.805 127.969 106.47 128.475Z" fill="var(--fill-0, #E04C2D)"/>
<path d="M100.326 126.621C100.084 127.19 99.8414 127.76 99.599 128.33C99.3733 128.232 98.9638 128.063 98.9638 128.049C99.1811 127.47 99.4319 126.905 99.6743 126.337C99.8918 126.432 100.109 126.526 100.326 126.621Z" fill="var(--fill-0, #E04C2D)"/>
<path d="M91.4074 127.252C91.9257 126.921 92.3017 126.527 92.728 126.469C92.9621 126.437 93.2715 126.969 93.5473 127.247C93.1879 127.566 92.8702 127.994 92.4523 128.15C92.2851 128.214 91.8922 127.685 91.4074 127.252Z" fill="var(--fill-0, #E04C2D)"/>
<path d="M86.1081 128.465C85.6735 127.995 85.1384 127.588 85.1969 127.445C85.3809 127.033 85.8071 126.728 86.133 126.382C86.4172 126.652 86.9605 126.971 86.9272 127.183C86.8519 127.604 86.4507 127.967 86.1081 128.465Z" fill="var(--fill-0, #E04C2D)"/>
<path d="M51.5111 121.718C51.2938 121.179 51.0764 120.64 50.8591 120.102C51.2018 119.999 51.5445 119.897 51.8788 119.794C52.0376 120.35 52.2049 120.906 52.3637 121.463C52.0794 121.547 51.7952 121.633 51.5111 121.718Z" fill="var(--fill-0, #E04C2D)"/>
<path d="M71.0873 127.328C71.5638 126.955 71.8982 126.537 72.3163 126.427C72.5169 126.376 73.152 127.047 73.1019 127.16C72.9013 127.571 72.5501 127.972 72.1573 128.185C72.0236 128.254 71.5806 127.739 71.0873 127.328Z" fill="var(--fill-0, #E04C2D)"/>
<path d="M43.9213 120.81C44.3392 120.385 44.6485 120.067 44.9661 119.75C45.2002 119.987 45.6934 120.335 45.6432 120.441C45.451 120.863 45.0915 121.21 44.799 121.586C44.5649 121.383 44.3392 121.179 43.9213 120.81Z" fill="var(--fill-0, #E04C2D)"/>
<path d="M57.2953 127.28C57.7886 126.868 58.2399 126.351 58.3653 126.418C58.7581 126.643 59.1092 127.044 59.3015 127.459C59.3517 127.566 58.7166 128.232 58.5159 128.18C58.0979 128.072 57.7635 127.653 57.2953 127.28Z" fill="var(--fill-0, #E04C2D)"/>
<path d="M52.4056 126.774C52.1882 127.288 51.9708 127.803 51.7534 128.317C51.4526 128.153 50.8843 127.882 50.8926 127.842C51.1016 127.313 51.3943 126.817 51.6616 126.312C51.9124 126.467 52.1632 126.621 52.4056 126.774Z" fill="var(--fill-0, #E04C2D)"/>
<path d="M55.1472 136.704C55.5233 137.177 55.941 137.512 56.0582 137.931C56.1084 138.124 55.4397 138.765 55.3227 138.711C54.9048 138.526 54.5034 138.169 54.2862 137.774C54.2109 137.654 54.7292 137.202 55.1472 136.704Z" fill="var(--fill-0, #E04C2D)"/>
<path d="M55.9163 117.942C55.3311 117.72 54.7377 117.498 54.1525 117.276C54.2445 117.055 54.3949 116.635 54.42 116.642C55.0135 116.838 55.6071 117.075 56.1922 117.306C56.1002 117.518 56.0082 117.73 55.9163 117.942Z" fill="var(--fill-0, #E04C2D)"/>
<path d="M60.7308 137.644C61.2992 137.411 61.8675 137.172 62.4526 136.974C62.4694 136.968 62.6364 137.387 62.7285 137.608C62.135 137.84 61.5332 138.072 60.9398 138.305C60.8729 138.084 60.7978 137.864 60.7308 137.644Z" fill="var(--fill-0, #E04C2D)"/>
<path d="M72.408 139.833C72.734 140.507 73.1436 140.969 73.0517 141.301C72.9764 141.601 72.3662 141.888 71.965 141.925C71.7644 141.945 71.2629 141.312 71.3297 141.132C71.4802 140.725 71.898 140.417 72.408 139.833Z" fill="var(--fill-0, #E04C2D)"/>
<path d="M73.2188 147.874C72.6504 148.11 72.0821 148.353 71.5052 148.555C71.4885 148.561 71.3213 148.145 71.2293 147.925C71.7978 147.691 72.3746 147.457 72.943 147.223C73.035 147.44 73.1268 147.657 73.2188 147.874Z" fill="var(--fill-0, #E04C2D)"/>
<path d="M52.3303 112.74C52.113 113.343 51.8957 113.948 51.6783 114.55C51.4526 114.458 51.0179 114.304 51.0263 114.283C51.2102 113.68 51.4442 113.09 51.6616 112.498C51.8873 112.578 52.113 112.66 52.3303 112.74Z" fill="var(--fill-0, #E04C2D)"/>
<path d="M75.7598 143.385C75.9772 143.984 76.1945 144.582 76.4035 145.181C76.1778 145.261 75.9521 145.342 75.718 145.422C75.5174 144.82 75.3084 144.217 75.1078 143.614C75.3252 143.538 75.5425 143.462 75.7598 143.385Z" fill="var(--fill-0, #E04C2D)"/>
<path d="M83.2075 143.625C82.9985 144.224 82.7812 144.823 82.5722 145.422C82.3466 145.34 82.1126 145.257 81.8867 145.173C82.1126 144.577 82.3382 143.981 82.5555 143.385C82.7729 143.464 82.9901 143.544 83.2075 143.625Z" fill="var(--fill-0, #E04C2D)"/>
<path d="M53.9103 123.888C54.5539 123.546 55.022 123.1 55.3229 123.192C55.6321 123.285 55.9164 123.898 55.9498 124.307C55.9749 124.518 55.3397 125.034 55.1808 124.97C54.7714 124.809 54.4704 124.396 53.9103 123.888Z" fill="var(--fill-0, #E04C2D)"/>
<path d="M108.668 117.256C109.27 117.052 109.855 116.843 110.465 116.673C110.482 116.668 110.616 117.093 110.7 117.317C110.081 117.515 109.471 117.713 108.852 117.91C108.794 117.692 108.735 117.474 108.668 117.256Z" fill="var(--fill-0, #E04C2D)"/>
<path d="M103.812 117.978C103.269 117.813 102.725 117.669 102.207 117.441C102.174 117.423 102.391 116.818 102.491 116.485C103.018 116.701 103.544 116.918 104.071 117.133C103.987 117.415 103.904 117.697 103.812 117.978Z" fill="var(--fill-0, #E04C2D)"/>
<path d="M44.005 113.022C44.5482 113.204 45.0831 113.387 45.6182 113.568C45.4843 113.894 45.3591 114.22 45.2253 114.546C44.6986 114.311 44.1639 114.076 43.6373 113.841C43.7627 113.568 43.8879 113.295 44.005 113.022Z" fill="var(--fill-0, #E04C2D)"/>
<path d="M117.896 110.612C117.361 110.827 116.818 111.042 116.283 111.257L115.957 110.247C116.517 110.089 117.069 109.932 117.62 109.774C117.712 110.054 117.804 110.333 117.896 110.612Z" fill="var(--fill-0, #E04C2D)"/>
<path d="M108.902 109.823C109.504 110.03 110.106 110.237 110.716 110.444C110.624 110.668 110.474 111.092 110.457 111.087C109.839 110.901 109.237 110.674 108.635 110.452C108.727 110.242 108.81 110.033 108.902 109.823Z" fill="var(--fill-0, #E04C2D)"/>
<path d="M69.959 110.568C69.3486 110.736 68.7471 110.904 68.1367 111.073C68.0698 110.838 68.003 110.602 67.9444 110.365C68.5547 110.208 69.1734 110.05 69.7835 109.893C69.842 110.118 69.9005 110.343 69.959 110.568Z" fill="var(--fill-0, #E04C2D)"/>
<path d="M61.1321 109.746C61.6672 109.939 62.2102 110.132 62.7453 110.325C62.5865 110.639 62.3275 111.24 62.2774 111.224C61.734 111.036 61.2241 110.756 60.7058 110.5C60.8478 110.248 60.99 109.998 61.1321 109.746Z" fill="var(--fill-0, #E04C2D)"/>
<path d="M114.277 107.452C113.734 107.26 113.19 107.069 112.639 106.878C112.806 106.56 113.065 105.952 113.107 105.968C113.65 106.156 114.168 106.436 114.686 106.693C114.553 106.946 114.419 107.199 114.277 107.452Z" fill="var(--fill-0, #E04C2D)"/>
<path d="M91.6164 106.62C92.2266 106.453 92.8284 106.285 93.4386 106.117C93.4972 106.353 93.5641 106.588 93.631 106.823C93.0208 106.984 92.4105 107.143 91.8003 107.304C91.7418 107.076 91.6833 106.847 91.6164 106.62Z" fill="var(--fill-0, #E04C2D)"/>
<path d="M86.7351 107.433C86.1917 107.266 85.6482 107.101 85.0966 106.934C85.1969 106.6 85.3055 106.266 85.4057 105.931C85.9408 106.151 86.4841 106.372 87.0191 106.593C86.9273 106.873 86.827 107.153 86.7351 107.433Z" fill="var(--fill-0, #E04C2D)"/>
<path d="M66.5234 107.314C65.9132 107.149 65.2947 106.985 64.6761 106.819C64.7513 106.587 64.8684 106.148 64.8851 106.151C65.5036 106.292 66.1054 106.475 66.7072 106.651C66.6488 106.872 66.5902 107.093 66.5234 107.314Z" fill="var(--fill-0, #E04C2D)"/>
<path d="M57.5042 106.803C58.0477 106.536 58.591 106.261 59.1427 106.028C59.1677 106.02 59.3599 106.429 59.477 106.643C58.9253 106.912 58.3737 107.181 57.8136 107.45C57.7133 107.235 57.6046 107.019 57.5042 106.803Z" fill="var(--fill-0, #E04C2D)"/>
<path d="M43.6539 106.784C44.214 106.523 44.774 106.257 45.3508 106.031C45.3676 106.024 45.5514 106.442 45.66 106.662C45.0665 106.925 44.4815 107.188 43.8964 107.451C43.8211 107.229 43.7375 107.006 43.6539 106.784Z" fill="var(--fill-0, #E04C2D)"/>
<path d="M91.8087 147.313C92.4105 147.478 93.0041 147.641 93.6059 147.806C93.5391 148.037 93.4303 148.471 93.4135 148.469C92.7951 148.328 92.1848 148.148 91.5746 147.973C91.6499 147.753 91.7251 147.534 91.8087 147.313Z" fill="var(--fill-0, #E04C2D)"/>
<path d="M102.182 123.662C102.583 123.497 103.001 123.191 103.394 123.219C103.645 123.236 104.121 123.892 104.054 124.006C103.828 124.392 103.436 124.867 103.051 124.926C102.616 124.993 102.115 124.651 101.647 124.486C101.822 124.211 102.006 123.937 102.182 123.662Z" fill="var(--fill-0, #E04C2D)"/>
<path d="M101.722 130.912C102.366 130.553 102.742 130.231 103.16 130.162C103.402 130.122 103.712 130.48 103.996 130.659C103.645 130.997 103.327 131.419 102.909 131.628C102.75 131.709 102.349 131.304 101.722 130.912Z" fill="var(--fill-0, #E04C2D)"/>
<path d="M69.7331 138.274C69.1398 138.06 68.5463 137.846 67.9444 137.632C68.0281 137.406 68.1785 136.978 68.1952 136.983C68.797 137.173 69.3822 137.401 69.9756 137.625C69.8921 137.841 69.817 138.058 69.7331 138.274Z" fill="var(--fill-0, #E04C2D)"/>
<path d="M121.215 99.9498C120.621 100.15 120.036 100.356 119.434 100.521C119.418 100.526 119.284 100.102 119.2 99.8779C119.802 99.6848 120.404 99.491 121.006 99.2979C121.073 99.5152 121.14 99.7325 121.215 99.9498Z" fill="var(--fill-0, #E04C2D)"/>
<path d="M105.76 99.2251C106.32 99.4817 106.88 99.7374 107.44 99.994C107.331 100.21 107.147 100.619 107.13 100.612C106.562 100.389 106.019 100.124 105.467 99.867C105.567 99.6531 105.659 99.4391 105.76 99.2251Z" fill="var(--fill-0, #E04C2D)"/>
<path d="M87.0693 99.9447C86.4757 100.146 85.8824 100.354 85.2806 100.522C85.2638 100.526 85.13 100.103 85.0466 99.8778C85.6482 99.6856 86.2585 99.4925 86.8601 99.2995C86.9273 99.5142 87.0024 99.7291 87.0693 99.9447Z" fill="var(--fill-0, #E04C2D)"/>
<path d="M73.1685 100.075C72.6337 100.285 72.0986 100.495 71.5721 100.704C71.4717 100.369 71.3716 100.036 71.2797 99.7015C71.8229 99.5427 72.3745 99.3831 72.9261 99.2243C73.0014 99.5084 73.085 99.7918 73.1685 100.075Z" fill="var(--fill-0, #E04C2D)"/>
<path d="M44.0133 99.2075C44.5566 99.3931 45.0998 99.5786 45.6433 99.765C45.5011 100.084 45.3591 100.403 45.217 100.722C44.6904 100.48 44.1721 100.238 43.6454 99.9957C43.7709 99.7332 43.8878 99.4699 44.0133 99.2075Z" fill="var(--fill-0, #E04C2D)"/>
<path d="M39.065 99.8928C38.4966 100.131 37.9283 100.375 37.3514 100.579C37.3346 100.585 37.1675 100.17 37.0755 99.9521C37.6606 99.7131 38.2543 99.474 38.8477 99.235C38.9229 99.454 38.9898 99.6738 39.065 99.8928Z" fill="var(--fill-0, #E04C2D)"/>
<path d="M75.0912 152.444C75.3002 151.836 75.5091 151.228 75.7181 150.619C75.9438 150.71 76.3701 150.861 76.3617 150.883C76.1862 151.488 75.9689 152.079 75.7516 152.672C75.5342 152.596 75.3085 152.52 75.0912 152.444Z" fill="var(--fill-0, #E04C2D)"/>
<path d="M112.338 113.932C112.814 113.591 113.14 113.193 113.349 113.247C113.608 113.316 113.826 113.732 113.951 114.043C113.984 114.13 113.592 114.542 113.45 114.515C113.132 114.457 112.856 114.217 112.338 113.932Z" fill="var(--fill-0, #E04C2D)"/>
<path d="M75.5008 138.446C75.1831 138.204 74.9241 138.001 74.6649 137.797C74.899 137.52 75.1331 137.242 75.3671 136.964C75.7098 137.255 76.0525 137.545 76.3952 137.836C76.111 138.026 75.8352 138.216 75.5008 138.446Z" fill="var(--fill-0, #E04C2D)"/>
<path d="M78.2256 147.953C78.7271 147.687 79.0114 147.456 79.329 147.4C79.4627 147.377 79.8306 147.794 79.7971 147.888C79.6717 148.19 79.4377 148.602 79.187 148.649C78.9696 148.69 78.6686 148.293 78.2256 147.953Z" fill="var(--fill-0, #E04C2D)"/>
<path d="M79.0782 112.877C79.4294 113.355 79.8389 113.681 79.7888 113.891C79.7135 114.159 79.2957 114.38 78.9864 114.513C78.9028 114.548 78.4848 114.156 78.5097 114.004C78.56 113.687 78.794 113.398 79.0782 112.877Z" fill="var(--fill-0, #E04C2D)"/>
<path d="M65.2864 133.26C65.6207 133.728 66.022 134.055 65.9635 134.259C65.8966 134.519 65.4787 134.732 65.1694 134.851C65.0775 134.886 64.6678 134.495 64.7013 134.355C64.7597 134.041 65.0021 133.762 65.2864 133.26Z" fill="var(--fill-0, #E04C2D)"/>
<path d="M55.3479 131.646C54.9884 131.395 54.5955 131.248 54.4618 130.975C54.3781 130.797 54.7126 130.183 54.7793 130.195C55.214 130.275 55.6152 130.474 56.0332 130.634C55.8242 130.94 55.6153 131.246 55.3479 131.646Z" fill="var(--fill-0, #E04C2D)"/>
<path d="M57.8555 134.177C58.357 133.896 58.6411 133.657 58.9587 133.597C59.1009 133.571 59.4854 133.989 59.4435 134.078C59.318 134.384 59.0924 134.796 58.8334 134.856C58.6244 134.906 58.3068 134.51 57.8555 134.177Z" fill="var(--fill-0, #E04C2D)"/>
<path d="M80.9005 165.058C81.6947 164.737 82.0291 164.533 82.3801 164.484C82.5723 164.458 82.9902 164.709 82.9821 164.813C82.9568 165.146 82.7813 165.469 82.6727 165.796C82.3467 165.662 82.0291 165.527 80.9005 165.058Z" fill="var(--fill-0, #E04C2D)"/>
<path d="M76.8048 164.939C76.412 165.31 76.1612 165.723 75.9187 165.724C75.6846 165.725 75.3839 165.32 75.2502 165.031C75.1915 164.915 75.5176 164.444 75.6346 164.458C75.969 164.502 76.2782 164.707 76.8048 164.939Z" fill="var(--fill-0, #E04C2D)"/>
<path d="M78.1838 161.902C78.652 161.559 78.9781 161.159 79.1785 161.214C79.446 161.283 79.6633 161.696 79.7888 162.007C79.8221 162.096 79.4376 162.51 79.2956 162.484C78.9781 162.426 78.6938 162.187 78.1838 161.902Z" fill="var(--fill-0, #E04C2D)"/>
<path d="M101.99 109.957L104.146 109.957C103.419 111.724 102.851 111.234 101.99 109.957Z" fill="var(--fill-0, #E04C2D)"/>
<path d="M88.2143 109.959L90.3877 109.959C89.6019 111.554 89.0336 111.346 88.2143 109.959Z" fill="var(--fill-0, #E04C2D)"/>
<path d="M81.469 110.645C81.9371 110.315 82.2463 109.935 82.4718 109.983C82.7142 110.035 82.9399 110.456 83.0487 110.761C83.0822 110.856 82.6976 111.26 82.564 111.233C82.2464 111.172 81.9705 110.933 81.469 110.645Z" fill="var(--fill-0, #E04C2D)"/>
<path d="M74.4057 109.961L76.5373 109.961C75.8016 111.668 75.2417 111.321 74.4057 109.961Z" fill="var(--fill-0, #E04C2D)"/>
<path d="M90.3543 158.414C89.878 158.597 89.4097 158.818 88.9166 158.918C88.8413 158.932 88.6575 158.345 88.5238 158.036C89.0838 157.976 89.6439 157.916 90.2123 157.856C90.2541 158.042 90.3041 158.228 90.3543 158.414Z" fill="var(--fill-0, #E04C2D)"/>
<path d="M83.1323 157.341C83.0739 157.892 83.0237 158.445 82.9652 158.997C82.6476 158.868 82.0373 158.669 82.054 158.62C82.171 158.126 82.3883 157.658 82.5805 157.185C82.7645 157.236 82.9485 157.288 83.1323 157.341Z" fill="var(--fill-0, #E04C2D)"/>
<path d="M54.1023 109.926C54.838 109.891 55.4063 109.865 56.1836 109.829C55.5261 110.742 54.8323 110.775 54.1023 109.926Z" fill="var(--fill-0, #E04C2D)"/>
<path d="M48.1675 109.63C48.5185 110.088 48.9282 110.409 48.8697 110.601C48.7945 110.869 48.4015 111.087 48.0922 111.223C48.0171 111.258 47.5991 110.878 47.6242 110.729C47.6661 110.42 47.9 110.137 48.1675 109.63Z" fill="var(--fill-0, #E04C2D)"/>
<path d="M42.3834 110.439C41.907 110.623 41.4305 110.838 40.929 110.947C40.8705 110.96 40.6865 110.376 40.5612 110.069C41.1213 110.011 41.6812 109.952 42.2495 109.894C42.2914 110.075 42.3417 110.257 42.3834 110.439Z" fill="var(--fill-0, #E04C2D)"/>
<path d="M119.217 106.685C119.702 106.524 120.187 106.364 120.663 106.205C120.763 106.522 120.872 106.837 120.972 107.154C120.429 107.189 119.886 107.224 119.343 107.258C119.301 107.066 119.259 106.876 119.217 106.685Z" fill="var(--fill-0, #E04C2D)"/>
<path d="M77.3399 130.988C76.5958 131.313 76.2699 131.53 75.9104 131.585C75.7181 131.615 75.2918 131.353 75.3002 131.247C75.3253 130.906 75.5093 130.576 75.6263 130.242C75.9523 130.384 76.2782 130.526 77.3399 130.988Z" fill="var(--fill-0, #E04C2D)"/>
<path d="M105.542 107.386C106.102 105.381 106.704 105.994 107.615 107.246C106.771 107.303 106.203 107.341 105.542 107.386Z" fill="var(--fill-0, #E04C2D)"/>
<path d="M97.7854 106.713C99.1143 106.191 99.4319 106.062 99.7579 105.934C99.875 106.268 100.042 106.598 100.067 106.938C100.076 107.036 99.6494 107.274 99.4402 107.253C99.0808 107.217 98.7215 107.033 97.7854 106.713Z" fill="var(--fill-0, #E04C2D)"/>
<path d="M78.2005 127.725C78.6603 127.393 78.9781 127.004 79.1785 127.057C79.4376 127.125 79.6551 127.527 79.7721 127.83C79.8055 127.921 79.4294 128.329 79.2956 128.302C78.9863 128.243 78.7022 128.007 78.2005 127.725Z" fill="var(--fill-0, #E04C2D)"/>
<path d="M65.2612 126.729C65.6039 127.181 65.9969 127.496 65.9466 127.686C65.8713 127.948 65.4786 128.161 65.1777 128.292C65.1025 128.326 64.7012 127.953 64.7177 127.81C64.768 127.505 64.9937 127.228 65.2612 126.729Z" fill="var(--fill-0, #E04C2D)"/>
<path d="M79.1118 105.649C79.4377 106.12 79.8391 106.459 79.7722 106.659C79.697 106.921 79.2706 107.124 78.9614 107.24C78.8694 107.272 78.4766 106.873 78.5016 106.735C78.5684 106.42 78.8191 106.144 79.1118 105.649Z" fill="var(--fill-0, #E04C2D)"/>
<path d="M73.3025 107.274C72.5669 107.309 71.9902 107.335 71.054 107.377C71.9567 105.811 72.5335 105.635 73.3025 107.274Z" fill="var(--fill-0, #E04C2D)"/>
<path d="M89.2927 138.43C88.9833 138.196 88.7243 137.996 88.4568 137.797C88.6992 137.524 89.0503 136.982 89.159 137.025C89.5519 137.195 89.8611 137.552 90.2039 137.839C89.9196 138.023 89.6355 138.207 89.2927 138.43Z" fill="var(--fill-0, #E04C2D)"/>
<path d="M96.1887 136.549C96.5147 137.019 96.9076 137.352 96.8491 137.554C96.774 137.813 96.356 138.016 96.0383 138.132C95.9547 138.164 95.5618 137.768 95.5869 137.628C95.6538 137.316 95.8962 137.041 96.1887 136.549Z" fill="var(--fill-0, #E04C2D)"/>
<path d="M49.9145 106.539C50.7588 106.213 51.1349 105.938 51.4609 105.982C51.7369 106.018 52.0211 106.4 52.1797 106.693C52.23 106.797 51.9041 107.279 51.7871 107.265C51.4443 107.23 51.1183 107.031 49.9145 106.539Z" fill="var(--fill-0, #E04C2D)"/>
<path d="M104.38 138.272L102.316 138.272C102.884 137.313 103.567 137.318 104.363 138.288L104.38 138.272Z" fill="var(--fill-0, #E04C2D)"/>
<path d="M36.2646 107.01C37.2509 106.455 37.5768 106.148 37.9113 106.123C38.2122 106.101 38.5968 106.34 38.8057 106.583C38.8893 106.68 38.6218 107.313 38.4631 107.331C38.045 107.378 37.6021 107.229 36.2646 107.01Z" fill="var(--fill-0, #E04C2D)"/>
<path d="M99.7326 135.68C99.1643 134.691 98.8299 134.365 98.8884 134.139C98.9553 133.891 99.3733 133.736 99.6406 133.54C99.8329 133.808 100.151 134.063 100.176 134.346C100.201 134.663 99.9751 135.004 99.7326 135.68Z" fill="var(--fill-0, #E04C2D)"/>
<path d="M65.278 148.948C65.0105 148.455 64.7848 148.173 64.7178 147.859C64.6929 147.731 65.1108 147.361 65.2027 147.399C65.5037 147.516 65.9132 147.745 65.9551 147.991C65.9969 148.208 65.6124 148.506 65.278 148.948Z" fill="var(--fill-0, #E04C2D)"/>
<path d="M116.526 102.352C116.868 102.825 117.261 103.151 117.211 103.361C117.144 103.621 116.718 103.838 116.408 103.959C116.317 103.993 115.907 103.602 115.94 103.459C115.991 103.142 116.233 102.859 116.526 102.352Z" fill="var(--fill-0, #E04C2D)"/>
<path d="M50.6751 135.003C50.7418 134.633 50.7004 134.061 50.9094 133.942C51.2269 133.765 51.7202 133.909 52.1381 133.916C52.0377 134.245 52.0463 134.709 51.8289 134.867C51.5529 135.062 51.1014 135.002 50.7251 135.053L50.6751 135.003Z" fill="var(--fill-0, #E04C2D)"/>
<path d="M81.5023 137.456C81.9955 137.176 82.2712 136.941 82.5889 136.876C82.7142 136.85 83.0905 137.258 83.0571 137.362C82.9484 137.66 82.7228 138.081 82.4804 138.119C82.2548 138.157 81.9537 137.782 81.5023 137.456Z" fill="var(--fill-0, #E04C2D)"/>
<path d="M95.3193 103.169C95.7623 102.934 96.0885 102.617 96.3141 102.679C96.5565 102.749 96.7068 103.165 96.8992 103.431C96.6316 103.623 96.3559 103.969 96.0968 103.96C95.8711 103.951 95.6621 103.538 95.3193 103.169Z" fill="var(--fill-0, #E04C2D)"/>
<path d="M94.5671 130.849C95.4531 130.526 95.7958 130.331 96.1636 130.293C96.3726 130.27 96.7905 130.519 96.7821 130.625C96.7655 130.963 96.5899 131.292 96.4646 131.624C96.1471 131.492 95.8209 131.359 94.5671 130.849Z" fill="var(--fill-0, #E04C2D)"/>
<path d="M82.3968 104.277C82.1042 103.771 81.8618 103.483 81.7949 103.16C81.7698 103.029 82.1879 102.64 82.2882 102.678C82.5975 102.798 83.0153 103.027 83.0739 103.284C83.1156 103.503 82.7228 103.818 82.3968 104.277Z" fill="var(--fill-0, #E04C2D)"/>
<path d="M76.044 104.281C75.6596 103.878 75.3588 103.663 75.2251 103.371C75.1665 103.233 75.4507 102.751 75.551 102.759C75.8936 102.783 76.2281 102.962 76.5624 103.081C76.4202 103.406 76.2865 103.731 76.044 104.281Z" fill="var(--fill-0, #E04C2D)"/>
<path d="M113.257 119.455C113.592 119.922 113.985 120.247 113.926 120.448C113.859 120.706 113.441 120.914 113.132 121.033C113.048 121.066 112.656 120.678 112.681 120.536C112.739 120.227 112.981 119.951 113.257 119.455Z" fill="var(--fill-0, #E04C2D)"/>
<path d="M61.0986 103.393C61.575 103.05 61.901 102.649 62.11 102.703C62.3692 102.774 62.5865 103.19 62.7202 103.503C62.7537 103.586 62.3608 103.996 62.2102 103.971C61.901 103.916 61.6169 103.677 61.0986 103.393Z" fill="var(--fill-0, #E04C2D)"/>
<path d="M53.8599 103.354C54.3366 103.028 54.6792 102.631 54.8799 102.694C55.1473 102.775 55.3479 103.205 55.465 103.525C55.4901 103.618 55.089 104.018 54.9468 103.985C54.6292 103.911 54.3533 103.659 53.8599 103.354Z" fill="var(--fill-0, #E04C2D)"/>
<path d="M46.6131 103.408C47.8418 102.907 48.1595 102.774 48.4855 102.642C48.6109 102.973 48.7863 103.3 48.8114 103.639C48.8197 103.743 48.3934 103.998 48.1928 103.976C47.8332 103.936 47.4823 103.737 46.6131 103.408Z" fill="var(--fill-0, #E04C2D)"/>
<path d="M81.4942 131.122C81.8954 130.745 82.1127 130.443 82.4052 130.308C82.5306 130.247 83.007 130.535 82.9986 130.635C82.9736 130.975 82.7896 131.301 82.6727 131.633C82.3467 131.493 82.0292 131.353 81.4942 131.122Z" fill="var(--fill-0, #E04C2D)"/>
<path d="M34.6516 102.363C34.8772 102.906 35.0193 103.229 35.153 103.554C34.8187 103.678 34.501 103.863 34.1584 103.894C34.0579 103.904 33.7572 103.422 33.8241 103.288C33.9578 102.994 34.2585 102.777 34.6516 102.363Z" fill="var(--fill-0, #E04C2D)"/>
<path d="M63.7484 120.332C64.5927 120.015 64.927 119.821 65.2865 119.779C65.4871 119.755 65.8966 120 65.8883 120.104C65.8715 120.435 65.6961 120.757 65.5873 121.082C65.2697 120.951 64.9438 120.822 63.7484 120.332Z" fill="var(--fill-0, #E04C2D)"/>
<path d="M113.249 101.558C112.94 100.78 112.739 100.45 112.689 100.101C112.664 99.9097 112.914 99.5018 113.015 99.5093C113.349 99.5328 113.667 99.7033 113.993 99.8169C113.859 100.133 113.725 100.449 113.249 101.558Z" fill="var(--fill-0, #E04C2D)"/>
<path d="M95.3028 117.085C95.7959 116.813 96.08 116.581 96.3892 116.524C96.523 116.499 96.8992 116.912 96.8574 117.006C96.7404 117.306 96.5147 117.717 96.2637 117.765C96.0466 117.808 95.7457 117.418 95.3028 117.085Z" fill="var(--fill-0, #E04C2D)"/>
<path d="M99.4653 100.984C99.1811 100.486 98.947 100.201 98.8801 99.8821C98.855 99.7559 99.273 99.3773 99.3733 99.4158C99.6742 99.5277 100.092 99.7592 100.134 100.003C100.176 100.229 99.7912 100.532 99.4653 100.984Z" fill="var(--fill-0, #E04C2D)"/>
<path d="M65.2779 115.417C64.9602 114.615 64.7513 114.278 64.7012 113.919C64.6761 113.723 64.9352 113.301 65.0355 113.309C65.3782 113.334 65.7042 113.51 66.0301 113.628C65.8965 113.952 65.7627 114.275 65.2779 115.417Z" fill="var(--fill-0, #E04C2D)"/>
<path d="M80.0645 134.351C79.6215 134.59 79.2872 134.913 79.0615 134.855C78.8191 134.794 78.6687 134.363 78.4764 134.094C78.7439 133.907 79.028 133.561 79.2788 133.58C79.5213 133.598 79.7303 134 80.0645 134.351Z" fill="var(--fill-0, #E04C2D)"/>
<path d="M77.6323 100.097C78.7522 99.6405 79.0616 99.5126 79.3791 99.3847C79.4963 99.7065 79.6801 100.022 79.7136 100.353C79.722 100.45 79.304 100.708 79.1118 100.682C78.7607 100.635 78.4347 100.429 77.6323 100.097Z" fill="var(--fill-0, #E04C2D)"/>
<path d="M82.3799 118.066C82.1041 117.574 81.8702 117.294 81.8116 116.981C81.7865 116.851 82.1962 116.477 82.2881 116.513C82.589 116.63 82.9985 116.857 83.0487 117.103C83.0905 117.322 82.706 117.622 82.3799 118.066Z" fill="var(--fill-0, #E04C2D)"/>
<path d="M63.8237 99.9939C64.6177 99.6763 64.9438 99.4774 65.2865 99.4323C65.4871 99.4072 65.8966 99.6537 65.8883 99.7524C65.8632 100.082 65.6878 100.399 65.5791 100.721C65.2615 100.591 64.9438 100.46 63.8237 99.9939Z" fill="var(--fill-0, #E04C2D)"/>
<path d="M57.8723 99.8569C58.3989 99.6446 58.7081 99.5201 59.0173 99.3947C59.1427 99.7123 59.3266 100.023 59.36 100.351C59.3684 100.445 58.9003 100.734 58.7749 100.675C58.4823 100.545 58.2818 100.246 57.8723 99.8569Z" fill="var(--fill-0, #E04C2D)"/>
<path d="M51.461 99.0939C51.8037 99.5536 52.1966 99.872 52.1381 100.071C52.0712 100.331 51.6699 100.546 51.3689 100.671C51.2855 100.706 50.8759 100.326 50.901 100.185C50.9512 99.8754 51.1852 99.5971 51.461 99.0939Z" fill="var(--fill-0, #E04C2D)"/>
<path d="M76.8048 116.967C76.412 117.336 76.1946 117.634 75.9103 117.769C75.7767 117.829 75.3085 117.543 75.3169 117.443C75.3504 117.107 75.5259 116.783 75.643 116.456C75.9606 116.596 76.2782 116.736 76.8048 116.967Z" fill="var(--fill-0, #E04C2D)"/>
<path d="M62.0182 116.193C62.3526 116.655 62.7454 116.978 62.687 117.177C62.6118 117.435 62.2103 117.643 61.9011 117.765C61.8175 117.798 61.4164 117.414 61.4499 117.273C61.5 116.965 61.7424 116.69 62.0182 116.193Z" fill="var(--fill-0, #E04C2D)"/>
<path d="M61.1071 151.362C61.5751 151.021 61.9011 150.624 62.1101 150.678C62.3693 150.747 62.5867 151.16 62.7121 151.469C62.7454 151.553 62.3525 151.96 62.2103 151.935C61.9011 151.88 61.6169 151.643 61.1071 151.362Z" fill="var(--fill-0, #E04C2D)"/>
<path d="M82.3883 152.235C82.1041 151.734 81.8701 151.45 81.8032 151.13C81.7781 151 82.1961 150.617 82.2881 150.654C82.589 150.773 83.0068 151 83.0654 151.255C83.1071 151.469 82.7226 151.781 82.3883 152.235Z" fill="var(--fill-0, #E04C2D)"/>
<path d="M48.1926 116.193C48.5269 116.656 48.9199 116.978 48.8697 117.181C48.7945 117.438 48.3848 117.646 48.0755 117.767C48.0003 117.8 47.5992 117.415 47.6243 117.273C47.6827 116.965 47.9167 116.69 48.1926 116.193Z" fill="var(--fill-0, #E04C2D)"/>
<path d="M66.8828 154.643C66.0804 154.958 65.7462 155.158 65.3951 155.199C65.2028 155.224 64.785 154.975 64.7933 154.873C64.81 154.539 64.9855 154.217 65.1025 153.891C65.4201 154.025 65.7378 154.159 66.8828 154.643Z" fill="var(--fill-0, #E04C2D)"/>
<path d="M71.2212 154.736C71.6978 154.543 72.1657 154.32 72.6589 154.2C72.7092 154.187 72.9095 154.779 73.0434 155.09C72.4832 155.153 71.9232 155.216 71.3632 155.28C71.3214 155.098 71.2713 154.918 71.2212 154.736Z" fill="var(--fill-0, #E04C2D)"/>
<path d="M77.4653 154.69C78.7609 154.16 79.0784 154.029 79.4045 153.897C79.5131 154.228 79.6886 154.555 79.7053 154.891C79.7137 154.996 79.2958 155.235 79.0868 155.217C78.7273 155.184 78.3764 155.001 77.4653 154.69Z" fill="var(--fill-0, #E04C2D)"/>
<path d="M124.633 104.197C124.266 104.135 123.689 104.192 123.564 103.983C123.38 103.669 123.505 103.168 123.505 102.747C123.831 102.823 124.274 102.797 124.45 103.002C124.675 103.257 124.675 103.703 124.767 104.065L124.633 104.197Z" fill="var(--fill-0, #E04C2D)"/>
<path d="M95.4866 110.219C95.821 110.119 96.1471 109.999 96.4812 109.948C96.5231 109.943 96.7318 110.467 96.6651 110.519C96.3976 110.744 96.0631 110.884 95.7456 111.055C95.6704 110.817 95.6036 110.579 95.4866 110.219Z" fill="var(--fill-0, #E04C2D)"/>
</g>
</g>
</svg>
