<svg preserveAspectRatio="none" width="100%" height="100%" overflow="visible" style="display: block;" viewBox="0 0 240 288" fill="none" xmlns="http://www.w3.org/2000/svg">
<g id="Group 354">
<path id="Star 6" d="M91.7634 98.6449C94.3559 97.0264 97.6441 97.0264 100.237 98.6449L126.462 115.017C127.212 115.486 128.034 115.826 128.895 116.025L159.016 122.992C161.994 123.681 164.319 126.006 165.008 128.984L171.975 159.105C172.174 159.966 172.514 160.788 172.983 161.538L189.355 187.763C190.974 190.356 190.974 193.644 189.355 196.237L172.983 222.462C172.514 223.212 172.174 224.034 171.975 224.895L165.008 255.016C164.319 257.994 161.994 260.319 159.016 261.008L128.895 267.975C128.034 268.174 127.212 268.514 126.462 268.983L100.237 285.355C97.6441 286.974 94.3559 286.974 91.7634 285.355L65.5384 268.983C64.7884 268.514 63.966 268.174 63.1046 267.975L32.9837 261.008C30.0061 260.319 27.681 257.994 26.9923 255.016L20.0254 224.895C19.8262 224.034 19.4855 223.212 19.0173 222.462L2.64493 196.237C1.0264 193.644 1.0264 190.356 2.64493 187.763L19.0173 161.538C19.4855 160.788 19.8262 159.966 20.0254 159.105L26.9923 128.984C27.681 126.006 30.0061 123.681 32.9837 122.992L63.1046 116.025C63.966 115.826 64.7884 115.486 65.5384 115.017L91.7634 98.6449Z" fill="var(--fill-0, #E04C2D)" fill-opacity="0.4"/>
<g id="Vector">
<path d="M171.543 34.2816L171.76 34.4427L171.794 34.1631L171.543 34.2816ZM185.718 119.581C185.453 115.932 185.676 111.668 185.195 107.359C184.539 101.601 184.1 95.7872 183.703 89.9983C183.326 84.4179 181.918 79.0459 181.228 73.5393C180.572 68.3263 179.157 63.1558 177.574 58.1234C174.242 47.5384 170.616 37.0488 164.836 27.4629C160.367 20.0558 155.096 13.3681 148.068 8.19693C144.269 5.40039 139.897 3.82686 135.358 3.10387C132.13 2.5893 128.846 3.10314 125.528 4.0918C120.822 5.49248 116.868 7.86649 113.25 10.9767C106.187 17.0585 101.16 24.695 96.977 32.9165C93.1145 40.5035 90.1305 48.4503 87.7809 56.6265C86.3585 61.5892 84.9293 66.5499 84.0647 71.6681C83.5349 74.8048 82.9701 77.9311 82.4752 81.0768C81.6804 86.0926 80.5369 91.0484 80.516 96.1617C80.5091 96.762 80.6135 97.4006 80.4532 97.957C79.0867 102.587 80.3975 107.463 79.1216 112.095C79.4284 118.773 78.6056 125.461 79.6792 132.152C80.2649 135.762 80.1953 139.517 80.3277 143.174C80.516 148.314 81.8406 153.263 82.0359 158.366C82.1056 160.242 82.4055 162.133 82.8238 163.969C83.9254 168.895 85.0757 173.815 86.3516 178.699C87.3277 182.448 88.3805 186.194 89.6773 189.842C91.2878 194.376 93.003 198.895 95.004 203.267C99.6892 213.471 105.253 223.041 114.191 230.312C119.866 234.93 126.037 237.525 133.427 237.306C137.555 237.184 141.438 236.223 144.952 234.205C150.655 230.925 155.556 226.564 159.412 221.258C165.352 213.081 170.024 204.172 173.447 194.636C174.555 191.54 175.72 188.458 176.703 185.321C177.651 182.299 178.502 179.238 179.199 176.15C180.098 172.138 180.816 168.083 181.59 164.043C182.26 160.582 183.096 157.14 183.501 153.647C184.058 148.829 184.449 143.987 184.909 139.156C185.474 133.228 185.474 127.247 185.711 121.288C185.732 120.928 185.718 120.567 185.718 119.581ZM231.19 173.115C231.371 172.986 231.692 172.885 231.72 172.726C232.738 167.534 233.874 162.357 234.641 157.126C234.899 155.367 236.279 153.291 234.153 151.54C233.839 151.285 234.195 149.937 234.543 149.251C234.906 148.539 235.638 148.016 236.189 147.435V139.609C235.073 139.096 233.972 138.518 233.992 136.854C234.013 134.809 235.889 135.091 236.726 134.521C237.004 131.194 237.255 128.146 237.506 125.071C234.243 125.766 233.86 125.309 234.39 121.223C235.387 121.076 236.447 120.92 237.625 120.747C237.625 119.329 237.513 117.888 237.646 116.469C237.904 113.659 237.172 111.522 234.146 110.867V107.894C235.15 107.321 236.049 106.807 237.088 106.215C236.747 103.321 236.405 100.521 236.077 97.7373C235.415 97.5115 234.871 97.3246 234.125 97.0666C234.25 95.9002 233.393 94.5971 234.962 93.6531C235.275 93.4641 235.513 92.859 235.499 92.4581C235.408 90.4424 235.303 88.4192 235.038 86.4203C234.829 84.7979 234.104 83.2089 234.09 81.6011C234.041 76.3302 232.34 71.403 231.211 66.3566C230.96 65.2244 230.681 64.0963 230.381 62.8309C228.715 64.081 227.871 62.9857 227.237 62.034C225.814 59.8984 228.492 59.3191 229.105 57.4861C227.446 52.5757 225.675 47.348 223.918 42.1413C222.179 42.534 220.771 41.8752 219.693 40.1647C220.425 39.2959 221.164 38.4105 221.833 37.6164C220.655 35.2466 219.602 33.1123 218.528 30.9908C214.624 23.258 209.618 16.3292 203.071 10.633C199.23 7.28567 194.837 4.77918 189.713 3.82822C189.622 4.1287 189.49 4.34696 189.511 4.54637C189.538 4.76531 189.769 4.95698 189.81 5.17941C190.034 6.47621 189.427 7.77929 188.465 7.9759C187.461 8.1802 186.533 8.02195 185.969 7.03749C185.383 6.02445 185.704 4.57212 186.729 3.88746C187.175 3.59115 187.768 3.5166 188.806 3.1694C179.359 2.63253 147.706 2.82705 145.05 3.40013C147.211 3.79061 147.204 3.79963 148.738 5.17175C149.268 5.64652 149.86 6.05092 150.404 6.50761C152.593 8.33497 155.061 9.92808 156.902 12.0574C159.844 15.4549 162.34 19.2351 165.101 22.7958C165.645 23.502 166.461 24.0863 167.277 24.483C169.278 25.4598 169.557 25.6125 169.055 27.6491C168.859 28.4251 168.845 28.9278 169.194 29.5664C169.849 30.7761 170.463 32.0059 171.181 33.3997C172.373 32.3692 172.715 30.3982 174.611 31.2146C175.762 31.7089 176.703 33.2595 176.34 34.0718C175.532 35.8789 173.872 35.7458 172.387 35.7067C174.604 41.4984 176.828 47.302 179.031 53.0637C180.022 52.0772 180.956 51.5717 181.562 52.0332C182.162 52.4823 182.741 53.2303 182.887 53.9366C183.319 56.0917 181.36 56.2032 179.945 56.7631C180.245 57.9295 180.447 58.9656 180.782 59.9598C182.113 63.9855 182.866 68.1458 183.696 72.2885C184.184 74.7079 184.665 77.1285 185.083 79.5597C185.397 81.4199 185.516 83.3191 185.92 85.1569C186.031 85.6854 186.805 86.1211 187.356 86.4802C187.614 86.6489 188.081 86.4656 188.416 86.5618C190.326 87.1091 190.724 88.6702 189.204 90.013C188.472 90.6586 187.482 91.0072 186.917 91.3167C187.098 94.3531 187.266 97.1684 187.391 99.3249C188.632 100.562 189.469 101.402 190.403 102.336C189.497 103.511 188.799 104.413 188.039 105.402C187.879 109.068 187.51 112.927 190.257 116.153C188.897 118.002 188.43 119.9 188.632 122.008C188.751 123.317 188.66 124.648 188.646 125.969C188.625 127.056 188.618 128.069 189.538 128.934C190.535 129.865 190.25 130.876 189.274 131.703C188.855 132.061 188.381 132.356 188.193 132.491C187.928 135.532 187.684 138.237 187.44 141.048C188.534 141.735 190.061 142.259 190.089 143.97C190.11 145.779 188.263 145.507 187.112 146.303C186.757 149.336 186.387 152.456 185.997 155.788C186.819 155.537 187.468 155.341 188.179 155.122C188.521 155.399 188.946 155.647 189.246 156.002C190.633 157.648 190.333 158.554 188.416 159.546C186.882 160.336 186.192 159.03 185.502 158.412C184.77 162.412 184.065 166.235 183.354 170.053C182.992 172.014 182.078 174.048 182.357 175.908C182.65 177.876 183.633 179.542 181.081 180.617C180.809 180.73 180.823 181.473 180.677 181.915C179.241 186.269 177.86 190.645 176.305 194.958C175.922 196.024 175.483 196.844 176.187 197.943C176.821 198.939 176.277 199.949 175.42 200.407C173.586 201.393 172.966 203.164 172.101 204.826C170.191 208.508 168.225 212.162 166.308 215.842C165.987 216.459 165.819 217.153 165.575 217.81C165.331 218.046 165.087 218.281 164.843 218.516C163.449 220.346 162.055 222.177 160.688 223.965C161.469 224.854 162.096 225.563 162.78 226.34C162.347 227.132 161.957 227.848 161.594 228.502C160.095 228.841 158.764 228.941 157.976 227.574C156.742 228.72 155.522 229.863 154.295 231.006C156.163 233.908 156.1 234.263 153.179 235.889C152.377 235.311 151.485 234.67 150.474 233.944C148.933 234.887 147.288 235.889 145.029 237.269H148.94C160.228 237.269 171.516 237.217 182.803 237.298C186.499 237.325 190.061 236.918 193.492 235.456C192.829 234.511 191.602 233.701 192.578 232.339C193.54 231.008 194.893 231.449 196.127 231.617C196.643 232.308 197.11 232.941 197.654 233.672C205.086 228.856 210.699 222.627 215.189 215.303C213.292 213.88 212.79 212.872 213.271 211.738C213.773 210.548 214.798 210.376 217.671 211.166C218.305 209.889 218.996 208.552 219.63 207.191C220.174 206.037 220.634 204.841 221.178 203.688C221.631 202.726 222.252 201.834 222.635 200.848C224.134 197.01 225.507 193.123 227.062 189.307C227.543 188.113 227.822 187.085 227.111 185.927C226.483 184.907 226.951 184.134 227.745 183.426C228.331 182.898 229.224 182.367 229.349 181.719C229.893 178.828 231.531 176.171 231.204 173.101L231.19 173.115ZM158.073 0.0417478C166.726 0.0417478 175.378 0.052171 184.031 0.0368115C188.005 0.0298325 191.728 1.08331 195.325 2.65832C204.305 6.58433 210.608 13.502 215.977 21.377C221.659 29.7163 225.731 38.8637 229.056 48.3701C231.225 54.5934 233.17 60.8983 234.501 67.3391C235.478 72.0564 236.684 76.7388 237.088 81.5921C237.458 85.919 238.406 90.1957 239.096 94.4961C239.152 94.8495 239.145 95.2148 239.145 95.5753C239.208 102.743 240.302 109.872 239.919 117.06C239.786 119.577 239.968 122.108 239.884 124.629C239.668 131.552 239.577 138.486 239.068 145.389C238.754 149.595 237.702 153.743 237.081 157.932C236.788 159.917 236.83 161.906 236.398 163.925C234.955 170.711 233.386 177.449 231.531 184.142C229 193.304 225.57 202.08 221.143 210.456C217.406 217.515 213.153 224.273 207.276 229.78C203.016 233.773 198.309 237.241 192.578 238.861C190.11 239.561 187.496 240.132 184.944 240.147C167.04 240.261 149.135 240.248 131.231 240.188C127.668 240.175 124.259 239.239 120.975 237.776C112.859 234.166 106.954 228.129 101.885 221.03C98.2111 215.886 95.0807 210.431 92.4104 204.743C89.2172 197.912 86.6165 190.817 84.7689 183.484C83.4512 178.248 81.6245 173.145 81.0806 167.702C80.7948 164.805 79.7769 161.988 79.261 159.103C78.8078 156.548 78.766 153.914 78.2361 151.38C77.5877 148.312 77.9363 145.182 77.4831 142.155C75.9144 131.707 76.1515 121.21 76.2003 110.713C76.2143 108.717 76.6255 106.724 76.8347 104.728C77.0369 102.85 76.4443 100.914 77.4274 99.076C77.7342 98.5085 77.5529 97.6641 77.5529 96.9467C77.5181 93.255 77.8945 89.6371 78.8845 86.0479C79.4353 84.0198 79.4144 81.8368 79.7281 79.7354C80.244 76.3596 80.6485 72.9537 81.4085 69.6321C82.6704 64.1368 84.0857 58.672 85.6266 53.2485C86.4282 50.4255 87.6275 47.7154 88.6524 44.9559C90.6394 39.6194 92.8984 34.3917 95.6943 29.4437C98.5458 24.3952 101.6 19.4952 105.33 14.955C108.572 11.0053 112.497 8.03522 116.387 4.92076C116.847 4.55543 117.405 4.31283 117.935 4.04857C122.969 1.53932 128.184 -0.0998278 133.922 0.00472564C141.975 0.150519 150.028 0.0417478 158.073 0.0417478Z" fill="var(--fill-0, #E04C2D)"/>
<path d="M215.293 36.1516C213.662 35.1448 212.658 34.0635 213.313 32.2076C215.747 30.8898 216.611 30.8473 217.266 32.0172C217.985 33.3007 217.517 34.3305 215.293 36.1516Z" fill="var(--fill-0, #E04C2D)"/>
<path d="M194.293 111.832C191.435 109.229 191.442 109.196 194.363 106.845C195.702 107.134 196.943 107.896 197.012 109.214C197.089 110.566 195.827 111.327 194.293 111.832Z" fill="var(--fill-0, #E04C2D)"/>
<path d="M194.175 10.3772C195.381 10.313 197.089 11.916 197.11 12.6034C197.131 13.4909 195.883 15.0471 195.047 15.1782C193.861 15.3622 191.937 13.7063 192.341 12.6026C192.69 11.6426 193.701 10.9231 194.175 10.3772Z" fill="var(--fill-0, #E04C2D)"/>
<path d="M219.477 81.53C220.007 80.9011 220.264 80.4814 220.627 80.1865C222.21 78.896 224.273 79.6016 224.678 81.5705C224.88 82.5417 224.357 83.2996 223.527 83.5604C222.774 83.7995 221.77 83.8999 221.094 83.5875C220.46 83.2933 220.104 82.3799 219.477 81.53Z" fill="var(--fill-0, #E04C2D)"/>
<path d="M222.747 111.814C221.192 111.387 219.923 110.565 219.923 109.297C219.923 108.029 221.185 107.199 222.502 106.846C225.5 109.098 225.508 109.16 222.747 111.814Z" fill="var(--fill-0, #E04C2D)"/>
<path d="M194.391 222.377C193.213 221.178 191.553 220.505 192.55 218.761C192.962 218.051 193.896 217.499 194.712 217.218C195.318 217.01 197.096 218.88 197.068 219.513C197.054 219.827 196.894 220.212 196.671 220.425C195.96 221.097 195.193 221.702 194.391 222.377Z" fill="var(--fill-0, #E04C2D)"/>
<path d="M231.245 116.321C231.169 117.698 230.297 118.447 228.882 118.352C227.508 118.26 226.748 117.378 226.839 115.979C226.93 114.616 227.815 113.856 229.224 113.94C230.59 114.021 231.329 114.889 231.245 116.321Z" fill="var(--fill-0, #E04C2D)"/>
<path d="M201.544 127.664C202.974 127.623 203.782 128.373 203.824 129.785C203.873 131.204 203.113 132.014 201.698 132.056C200.275 132.099 199.453 131.337 199.418 129.942C199.383 128.525 200.15 127.706 201.544 127.664Z" fill="var(--fill-0, #E04C2D)"/>
<path d="M223.646 134.991C224.057 135.76 224.378 136.373 224.81 137.183C224.169 137.826 223.632 138.725 222.851 139.064C221.268 139.752 220.585 138.319 219.63 137.238C219.944 136.561 220.286 135.84 220.69 134.991H223.646Z" fill="var(--fill-0, #E04C2D)"/>
<path d="M217.545 116.33C217.455 117.708 216.583 118.448 215.161 118.352C213.787 118.261 213.048 117.394 213.139 115.973C213.23 114.601 214.101 113.854 215.516 113.94C216.869 114.023 217.629 114.924 217.545 116.33Z" fill="var(--fill-0, #E04C2D)"/>
<path d="M196.155 83.6475C194.51 83.7828 192.948 84.1398 192.327 82.3403C191.902 81.1069 192.892 80.3763 193.729 79.7237C194.475 79.1457 195.263 79.2029 195.974 79.8569C196.971 80.7744 197.04 81.726 196.155 83.6475Z" fill="var(--fill-0, #E04C2D)"/>
<path d="M203.831 116.089C203.859 117.512 203.106 118.315 201.684 118.352C200.262 118.389 199.453 117.623 199.418 116.213C199.39 114.802 200.171 113.969 201.565 113.941C202.988 113.911 203.796 114.68 203.831 116.089Z" fill="var(--fill-0, #E04C2D)"/>
<path d="M217.539 129.821C217.566 131.248 216.806 132.034 215.384 132.055C213.948 132.077 213.16 131.319 213.139 129.903C213.118 128.473 213.878 127.684 215.294 127.664C216.716 127.644 217.511 128.405 217.539 129.821Z" fill="var(--fill-0, #E04C2D)"/>
<path d="M220.801 97.3338C219.916 95.4172 219.979 94.4961 220.99 93.573C221.694 92.9246 222.482 92.8396 223.221 93.4364C224.043 94.0974 225.096 94.8141 224.636 96.0426C223.897 97.9969 222.238 97.4468 220.801 97.3338Z" fill="var(--fill-0, #E04C2D)"/>
<path d="M185.843 62.534V59.5326C186.554 59.1602 187.175 58.8374 188.026 58.3898C188.632 58.9699 189.511 59.4837 189.887 60.2471C190.675 61.8228 189.267 62.5333 188.179 63.5331C187.51 63.2465 186.785 62.937 185.843 62.534Z" fill="var(--fill-0, #E04C2D)"/>
<path d="M203.831 102.498C203.796 103.908 202.988 104.672 201.565 104.64C200.171 104.609 199.39 103.791 199.418 102.377C199.446 100.973 200.255 100.211 201.684 100.243C203.099 100.275 203.859 101.071 203.831 102.498Z" fill="var(--fill-0, #E04C2D)"/>
<path d="M215.28 100.242C216.702 100.216 217.511 100.982 217.538 102.384C217.566 103.798 216.792 104.611 215.391 104.638C213.962 104.666 213.167 103.911 213.139 102.492C213.111 101.061 213.864 100.27 215.28 100.242Z" fill="var(--fill-0, #E04C2D)"/>
<path d="M201.67 196.851C203.092 196.881 203.859 197.683 203.824 199.098C203.796 200.519 203.002 201.278 201.572 201.25C200.171 201.222 199.404 200.422 199.418 198.996C199.432 197.59 200.241 196.819 201.67 196.851Z" fill="var(--fill-0, #E04C2D)"/>
<path d="M215.377 201.248C213.941 201.266 213.16 200.515 213.139 199.091C213.118 197.664 213.878 196.874 215.294 196.851C216.716 196.828 217.524 197.604 217.539 199.008C217.552 200.442 216.792 201.231 215.377 201.248Z" fill="var(--fill-0, #E04C2D)"/>
<path d="M203.831 212.718C203.852 214.135 203.072 214.946 201.663 214.972C200.255 214.998 199.439 214.212 199.418 212.803C199.397 211.373 200.164 210.582 201.579 210.563C203.016 210.544 203.81 211.308 203.831 212.718Z" fill="var(--fill-0, #E04C2D)"/>
<path d="M231.204 173.101C230.43 173.321 229.649 173.542 228.875 173.763C226.96 172.119 226.974 170.484 228.917 168.856C229.14 168.913 229.377 168.931 229.579 169.034C230.088 169.305 230.583 169.613 231.19 169.966L231.19 173.115L231.204 173.101Z" fill="var(--fill-0, #E04C2D)"/>
<path d="M196.281 121.284C197.034 123.243 196.88 124.361 195.834 125.145C195.067 125.717 194.3 125.656 193.582 125.041C192.753 124.338 191.93 123.605 192.355 122.357C192.69 121.385 193.52 121.173 196.281 121.284Z" fill="var(--fill-0, #E04C2D)"/>
<path d="M210.35 219.685C210.322 221.244 209.59 222.183 208.433 222.133C207.478 222.093 206.216 220.742 206.167 219.71C206.111 218.564 207.512 217.045 208.572 217.102C209.709 217.164 210.371 218.131 210.35 219.685Z" fill="var(--fill-0, #E04C2D)"/>
<path d="M219.47 191.892C219.979 191.272 220.23 190.861 220.578 190.564C222.119 189.238 224.092 189.779 224.636 191.739C224.761 192.208 224.511 192.894 224.218 193.345C223.611 194.293 222.579 194.107 221.645 194.023C221.436 194.004 221.213 193.818 221.059 193.653C220.578 193.15 220.125 192.621 219.47 191.892Z" fill="var(--fill-0, #E04C2D)"/>
<path d="M201.447 228.669C200.08 228.585 199.327 227.709 199.418 226.298C199.509 224.931 200.401 224.175 201.802 224.269C203.176 224.362 203.915 225.229 203.831 226.647C203.748 228.015 202.876 228.755 201.447 228.669Z" fill="var(--fill-0, #E04C2D)"/>
<path d="M180.663 217.024C181.493 217.465 182.106 217.793 182.734 218.125C182.803 218.506 182.901 218.845 182.922 219.186C182.95 219.771 182.929 220.357 182.929 220.959C182.127 221.403 181.423 221.791 180.767 222.155C177.721 219.716 177.721 219.668 180.663 217.024Z" fill="var(--fill-0, #E04C2D)"/>
<path d="M188.046 173.852C187.37 173.529 186.652 173.182 185.843 172.795V169.899C186.52 169.526 187.224 169.14 187.886 168.778C190.926 171.213 190.926 171.259 188.046 173.852Z" fill="var(--fill-0, #E04C2D)"/>
<path d="M215.509 86.5242C216.876 86.605 217.629 87.4878 217.538 88.8934C217.448 90.2689 216.569 91.0275 215.168 90.9361C213.794 90.8469 213.055 89.9754 213.139 88.5551C213.223 87.1684 214.073 86.4384 215.509 86.5242Z" fill="var(--fill-0, #E04C2D)"/>
<path d="M201.447 90.9368C200.087 90.851 199.334 89.9635 199.418 88.5447C199.495 87.1761 200.38 86.4245 201.802 86.5242C203.176 86.6204 203.922 87.4967 203.831 88.9065C203.734 90.2744 202.848 91.026 201.447 90.9368Z" fill="var(--fill-0, #E04C2D)"/>
<path d="M197.096 53.6948C195.89 56.2097 194.872 56.8705 193.331 56.1357C192.118 55.5584 192.104 54.6061 193.289 52.1861C195.039 51.4261 196.183 52.2725 197.096 53.6948Z" fill="var(--fill-0, #E04C2D)"/>
<path d="M220.794 121.267C222.237 121.122 223.89 120.6 224.636 122.544C225.096 123.766 224.05 124.493 223.227 125.151C222.481 125.741 221.694 125.664 220.982 125.019C219.978 124.104 219.916 123.181 220.794 121.267Z" fill="var(--fill-0, #E04C2D)"/>
<path d="M197.117 150.366C196.908 150.844 196.755 151.167 196.622 151.498C196.218 152.484 195.451 153.295 194.454 152.843C193.589 152.445 192.822 151.542 192.327 150.678C191.895 149.915 192.767 148.835 193.777 148.6C195.297 148.245 196.28 149.017 197.117 150.366Z" fill="var(--fill-0, #E04C2D)"/>
<path d="M207.889 111.741C206.509 110.169 206.455 108.567 207.729 106.934C209.381 106.846 210.622 107.794 210.699 109.22C210.783 110.738 209.402 111.529 207.889 111.741Z" fill="var(--fill-0, #E04C2D)"/>
<path d="M197.208 136.602C196.803 137.344 196.552 138.041 196.106 138.573C195.395 139.426 194.516 139.495 193.596 138.777C192.327 137.794 191.923 136.686 192.55 135.753C193.275 134.67 194.586 134.494 196.009 135.363C196.399 135.604 196.671 136.039 197.208 136.602Z" fill="var(--fill-0, #E04C2D)"/>
<path d="M197.103 68.2636C196.19 69.727 194.984 70.641 193.262 69.7326C192.76 69.4704 192.362 68.6122 192.32 67.9973C192.244 67.0477 193.715 65.7369 194.663 65.6456C195.618 65.5528 195.911 65.8624 197.103 68.2636Z" fill="var(--fill-0, #E04C2D)"/>
<path d="M224.713 67.853C224.413 68.4435 224.092 69.0682 223.757 69.7333C221.805 70.6237 220.641 69.6294 219.735 68.0244C221.812 64.7887 222.252 64.7678 224.713 67.853Z" fill="var(--fill-0, #E04C2D)"/>
<path d="M228.882 155.019C229.649 155.399 230.269 155.702 231.064 156.095V159.185C230.458 159.407 229.781 159.904 229.23 159.792C228.491 159.641 227.724 159.137 227.195 158.575C226.4 157.731 226.741 157.071 228.882 155.019Z" fill="var(--fill-0, #E04C2D)"/>
<path d="M215.482 155.039C218.354 157.681 218.347 157.827 215.245 160.082C214.087 159.438 213.02 158.735 213.139 157.137C213.202 156.307 213.181 156.306 215.482 155.039Z" fill="var(--fill-0, #E04C2D)"/>
<path d="M223.646 148.682C224.064 149.486 224.392 150.105 225.019 151.299C224.357 151.77 223.66 152.511 222.809 152.806C221.206 153.359 220.501 152.033 219.651 150.897C220.327 149.156 221.464 148.217 223.646 148.682Z" fill="var(--fill-0, #E04C2D)"/>
<path d="M207.004 180.232C206.585 179.381 206.271 178.752 205.902 177.999C206.857 176.993 207.436 175.363 209.297 176.207C210.357 176.684 210.727 177.766 210.622 178.835C210.511 180.065 209.792 180.3 207.004 180.232Z" fill="var(--fill-0, #E04C2D)"/>
<path d="M219.623 178.211C222.147 175.11 222.189 175.11 224.74 178.128C224.385 178.796 224.001 179.51 223.66 180.153C221.729 180.806 220.62 179.86 219.623 178.211Z" fill="var(--fill-0, #E04C2D)"/>
<path d="M197.117 192.248C196.12 193.822 194.956 194.538 193.366 193.868C192.544 193.523 191.895 192.664 192.341 191.856C192.816 190.998 193.666 189.997 194.538 189.78C196.239 189.355 196.525 191.057 197.117 192.248Z" fill="var(--fill-0, #E04C2D)"/>
<path d="M189.127 201.075C187.538 201.407 186.241 201.394 185.794 199.742C185.537 198.815 185.592 197.78 186.554 197.21C187.53 196.635 188.597 196.571 189.483 197.419C191.024 198.889 189.385 199.92 189.127 201.075Z" fill="var(--fill-0, #E04C2D)"/>
<path d="M181.137 10.336C182.12 11.0332 183.229 11.7458 182.887 13.1584C182.706 13.8772 182.204 14.7173 181.597 15.0618C181.186 15.2946 180.21 14.9258 179.708 14.5402C178.055 13.2706 178.132 12.0379 179.84 10.8827C180.217 10.6268 180.698 10.5166 181.137 10.336Z" fill="var(--fill-0, #E04C2D)"/>
<path d="M171.502 19.9861C171.718 19.4764 171.829 18.9968 172.087 18.6189C173.245 16.9477 174.179 16.8654 175.546 18.2438C176.264 18.9689 176.759 19.7338 176.138 20.7656C175.552 21.7354 174.618 21.8392 173.635 21.6914C173.301 21.642 172.945 21.4726 172.694 21.2523C172.255 20.8633 171.878 20.3933 171.502 19.9861Z" fill="var(--fill-0, #E04C2D)"/>
<path d="M194.252 203.445C195.535 203.729 196.65 204.224 196.894 205.55C196.999 206.146 196.629 206.83 196.434 207.643C194.851 207.718 193.094 208.382 192.362 206.443C191.79 204.926 193.164 204.137 194.252 203.445Z" fill="var(--fill-0, #E04C2D)"/>
<path d="M176.431 212.754C173.928 215.824 173.9 215.824 171.341 212.811C172.094 211.163 173.196 210.146 175.308 210.734C175.671 211.382 176.061 212.091 176.431 212.754Z" fill="var(--fill-0, #E04C2D)"/>
<path d="M197.159 178.524C196.371 179.629 195.604 180.678 194.217 180.311C193.513 180.125 192.627 179.577 192.369 178.964C191.853 177.76 192.892 176.993 193.729 176.33C194.482 175.741 195.346 175.761 195.967 176.5C196.476 177.105 196.783 177.872 197.159 178.524Z" fill="var(--fill-0, #E04C2D)"/>
<path d="M201.468 21.7298C200.087 21.6517 199.348 20.8158 199.418 19.4185C199.488 18.1957 200.352 17.1792 201.356 17.3737C202.681 17.6317 204.061 18.2417 203.845 19.7351C203.65 21.094 202.883 21.81 201.468 21.7298Z" fill="var(--fill-0, #E04C2D)"/>
<path d="M197.201 26.1941C196.852 26.9443 196.692 27.5564 196.329 28.0012C195.346 29.2067 194.447 29.2297 193.303 28.1957C192.223 27.2203 191.965 26.2666 192.564 25.4083C193.303 24.3353 194.412 24.3102 195.437 24.6783C196.058 24.9007 196.511 25.5778 197.201 26.1941Z" fill="var(--fill-0, #E04C2D)"/>
<path d="M187.565 35.9509C186.317 35.1059 185.411 34.2643 185.774 32.8901C185.934 32.2703 186.38 31.4908 186.903 31.2649C187.412 31.0474 188.325 31.2566 188.82 31.6115C190.87 33.0805 190.508 34.3306 187.565 35.9509Z" fill="var(--fill-0, #E04C2D)"/>
<path d="M201.182 35.888C199.411 34.1534 198.951 33.0921 199.753 32.0254C200.115 31.5395 200.903 31.1455 201.51 31.1218C202.5 31.0835 203.817 32.5484 203.81 33.5035C203.789 35.2117 202.346 35.4111 201.182 35.888Z" fill="var(--fill-0, #E04C2D)"/>
<path d="M228.045 104.529C227.46 103.39 226.023 102.365 227.425 100.858C228.282 99.9336 229.349 100.051 230.339 100.569C231.35 101.094 231.42 102.115 231.19 103.058C230.785 104.734 229.489 104.772 228.045 104.529Z" fill="var(--fill-0, #E04C2D)"/>
<path d="M171.432 226.48C173.698 223.461 173.809 223.455 176.34 226.217C174.862 229.573 173.823 229.629 171.432 226.48Z" fill="var(--fill-0, #E04C2D)"/>
<path d="M179.645 42.4697C179.143 41.2949 177.686 40.2351 179.185 38.7738C179.91 38.0619 181.311 37.995 182.12 38.5786C183.034 39.2347 183.061 40.1905 182.873 41.1394C182.65 42.2299 182.002 42.4703 179.645 42.4697Z" fill="var(--fill-0, #E04C2D)"/>
<path d="M197.117 40.0406C196.908 40.5293 196.755 40.8536 196.622 41.1833C196.211 42.165 195.444 42.9835 194.447 42.5255C193.582 42.1246 192.815 41.2175 192.327 40.3523C191.895 39.5875 192.767 38.5186 193.777 38.2739C195.318 37.903 196.274 38.7131 197.117 40.0406Z" fill="var(--fill-0, #E04C2D)"/>
<path d="M224.775 53.9674C224.162 54.9909 224.169 56.2432 222.733 56.3442C221.136 56.4579 220.397 55.442 219.721 54.2867C221.819 51.1716 222.077 51.1458 224.775 53.9674Z" fill="var(--fill-0, #E04C2D)"/>
<path d="M185.85 73.172C188.967 72.7767 189.957 73.1177 190.096 74.5211C190.201 75.5774 188.848 77.0854 187.698 77.2047C186.303 77.349 185.76 76.2334 185.85 73.172Z" fill="var(--fill-0, #E04C2D)"/>
<path d="M201.823 63.4452C198.484 61.896 198.456 60.8691 201.677 58.5348C204.668 60.89 204.668 60.9569 201.823 63.4452Z" fill="var(--fill-0, #E04C2D)"/>
<path d="M215.259 58.3862C216.646 59.1894 217.657 59.9327 217.545 61.5286C217.448 62.9656 216.193 62.9516 215.349 63.4606C212.33 61.1633 212.323 61.0328 215.259 58.3862Z" fill="var(--fill-0, #E04C2D)"/>
<path d="M194.119 93.1114C195.723 93.3694 196.936 94.144 197.012 95.6751C197.047 96.3576 196.566 97.5157 195.263 97.4655C194.203 97.4258 193.059 97.6175 192.502 96.435C191.651 94.6334 193.22 94.0116 194.119 93.1114Z" fill="var(--fill-0, #E04C2D)"/>
<path d="M209.974 24.5892C210.748 26.7073 210.65 27.8332 209.507 28.4977C209.005 28.7905 208.112 28.8268 207.582 28.582C206.536 28.1017 206.16 26.6243 206.508 25.6593C207.178 23.8089 208.621 24.7049 209.974 24.5892Z" fill="var(--fill-0, #E04C2D)"/>
<path d="M164.878 218.552C165.115 218.307 165.352 218.062 165.582 217.818C166.126 217.599 166.802 217.065 167.172 217.229C167.883 217.549 168.559 218.17 169.013 218.828C169.668 219.773 169.278 220.343 167.039 222.119C165.492 221.445 164.53 220.412 164.878 218.552Z" fill="var(--fill-0, #E04C2D)"/>
<path d="M231.245 88.56C231.315 89.8129 230.618 90.796 229.572 90.9138C228.505 91.0351 226.971 89.693 226.853 88.5335C226.742 87.5079 227.655 86.6079 228.889 86.5249C230.304 86.4287 231.176 87.1788 231.245 88.56Z" fill="var(--fill-0, #E04C2D)"/>
<path d="M185.829 48.7264C185.787 45.9738 186.059 45.1163 187.245 45.1798C188.137 45.2272 189.127 45.8505 189.817 46.4912C190.11 46.7638 189.964 47.8744 189.643 48.3638C188.904 49.5142 187.837 49.5686 185.829 48.7264Z" fill="var(--fill-0, #E04C2D)"/>
<path d="M229.252 145.77C227.996 145.847 226.999 145.164 226.867 144.131C226.728 143.096 228.066 141.528 229.21 141.381C230.242 141.25 231.148 142.138 231.245 143.375C231.35 144.8 230.618 145.685 229.252 145.77Z" fill="var(--fill-0, #E04C2D)"/>
<path d="M205.853 67.7101C206.934 66.4941 207.624 65.0781 209.207 65.8283C210.873 66.6189 210.357 68.1715 210.169 69.8023C209.179 69.8964 208.175 69.9919 207.185 70.0861C206.711 69.2348 206.32 68.5398 205.853 67.7101Z" fill="var(--fill-0, #E04C2D)"/>
<path d="M229.098 132.056C227.864 132.075 226.895 131.303 226.846 130.268C226.804 129.195 228.248 127.701 229.363 127.666C230.402 127.632 231.218 128.571 231.246 129.818C231.273 131.258 230.534 132.035 229.098 132.056Z" fill="var(--fill-0, #E04C2D)"/>
<path d="M201.628 173.76C198.539 171.468 198.539 171.172 201.621 168.859C204.71 171.169 204.71 171.46 201.628 173.76Z" fill="var(--fill-0, #E04C2D)"/>
<path d="M215.593 168.851C218.354 171.352 218.347 171.424 215.44 173.76C212.205 171.557 212.226 170.822 215.593 168.851Z" fill="var(--fill-0, #E04C2D)"/>
<path d="M182.936 26.507C183.006 27.7648 182.329 28.7562 181.304 28.8838C180.252 29.0142 178.697 27.6909 178.55 26.5496C178.425 25.5205 179.324 24.6079 180.544 24.5236C181.995 24.4238 182.852 25.1335 182.936 26.507Z" fill="var(--fill-0, #E04C2D)"/>
<path d="M190.089 20.0516C189.978 21.0995 189.015 21.794 187.761 21.7305C186.359 21.6608 185.641 20.8318 185.725 19.3927C185.794 18.1538 186.673 17.246 187.698 17.3478C188.855 17.4615 190.201 18.9842 190.089 20.0516Z" fill="var(--fill-0, #E04C2D)"/>
<path d="M167.144 10.083C170.044 12.7526 170.038 12.8278 167.088 15.137C163.958 12.9045 163.951 12.6069 167.144 10.083Z" fill="var(--fill-0, #E04C2D)"/>
<path d="M207.011 97.4006C206.209 95.3124 206.299 94.1956 207.443 93.4949C207.938 93.1922 208.83 93.1428 209.36 93.3819C210.406 93.8525 210.796 95.3334 210.462 96.3018C209.813 98.1697 208.356 97.2695 207.011 97.4006Z" fill="var(--fill-0, #E04C2D)"/>
<path d="M197.375 164.501C194.74 167.49 194.712 167.49 192.32 164.595C194.405 161.405 194.781 161.383 197.375 164.501Z" fill="var(--fill-0, #E04C2D)"/>
<path d="M188.046 187.626C187.252 187.208 186.645 186.887 185.829 186.457C185.801 186.005 185.732 185.441 185.732 184.876C185.739 184.426 185.836 183.974 185.871 183.68C186.666 182.88 188.834 183.028 189.573 183.783C190.535 184.766 190.264 185.513 188.046 187.626Z" fill="var(--fill-0, #E04C2D)"/>
<path d="M219.595 164.579C222.056 161.442 222.119 161.439 224.643 164.166C222.844 167.43 222.293 167.495 219.595 164.579Z" fill="var(--fill-0, #E04C2D)"/>
<path d="M217.448 186.307C215.837 187.8 214.54 187.539 213.278 186.346C213.292 183.728 213.641 183.177 215.293 183.149C216.981 183.121 217.336 183.64 217.448 186.307Z" fill="var(--fill-0, #E04C2D)"/>
<path d="M171.279 5.93736C173.768 2.81179 173.809 2.81039 176.34 5.55318C174.5 8.81615 173.963 8.87611 171.279 5.93736Z" fill="var(--fill-0, #E04C2D)"/>
<path d="M182.929 192.066C182.852 193.447 181.995 194.178 180.559 194.077C179.338 193.991 178.432 193.083 178.55 192.057C178.683 190.908 180.224 189.572 181.284 189.694C182.309 189.812 183.006 190.812 182.929 192.066Z" fill="var(--fill-0, #E04C2D)"/>
<path d="M217.378 142.546C217.734 143.895 217.671 145.124 216.13 145.713C215.119 146.101 213.774 145.615 213.383 144.738C212.986 143.859 212.874 142.919 213.683 142.187C215.008 140.992 216.221 141.51 217.378 142.546Z" fill="var(--fill-0, #E04C2D)"/>
<path d="M210.176 193.977H207.066C206.662 193.199 206.292 192.494 205.923 191.776C206.745 190.66 207.436 189.25 208.963 189.774C210.908 190.441 210.343 192.161 210.176 193.977Z" fill="var(--fill-0, #E04C2D)"/>
<path d="M210.057 207.67H206.843C206.683 206.887 206.334 206.128 206.446 205.444C206.543 204.82 207.024 204.065 207.554 203.76C208.049 203.479 208.977 203.496 209.458 203.791C209.988 204.111 210.469 204.875 210.545 205.497C210.629 206.189 210.239 206.94 210.057 207.67Z" fill="var(--fill-0, #E04C2D)"/>
<path d="M180.6 203.312C181.395 203.724 182.002 204.041 182.776 204.441V207.254C181.988 208.04 179.819 207.894 179.08 207.144C178.111 206.16 178.383 205.406 180.6 203.312Z" fill="var(--fill-0, #E04C2D)"/>
<path d="M210.239 135.344C210.35 136.803 210.824 138.414 209.109 139.102C207.54 139.727 206.85 138.314 205.93 137.22C206.244 136.548 206.585 135.831 206.976 135.016C208.098 134.809 209.214 134.516 210.239 135.344Z" fill="var(--fill-0, #E04C2D)"/>
<path d="M229.586 77.1892C228.505 77.2994 226.979 75.9809 226.853 74.8292C226.742 73.805 227.648 72.9091 228.882 72.8303C230.318 72.7383 231.176 73.4647 231.246 74.8403C231.315 76.112 230.625 77.0825 229.586 77.1892Z" fill="var(--fill-0, #E04C2D)"/>
<path d="M210.162 83.6328H207.017C206.627 82.8289 206.278 82.1115 205.944 81.4164C206.767 80.2771 207.52 78.8917 209.019 79.4621C210.901 80.176 210.357 81.8793 210.162 83.6328Z" fill="var(--fill-0, #E04C2D)"/>
<path d="M213.264 76.0047C213 74.6243 212.993 73.3072 214.708 72.8854C215.663 72.6484 216.674 72.7474 217.232 73.7528C217.72 74.6396 217.824 75.6394 217.023 76.3736C215.705 77.5825 214.436 77.0889 213.264 76.0047Z" fill="var(--fill-0, #E04C2D)"/>
<path d="M166.977 235.893C166.175 235.418 165.575 235.064 164.997 234.724C164.962 232.214 165.227 231.682 166.586 231.476C167.751 231.299 168.915 231.83 169.152 232.785C169.285 233.331 169.382 234.159 169.082 234.48C168.497 235.113 167.625 235.479 166.977 235.893Z" fill="var(--fill-0, #E04C2D)"/>
<path d="M180.607 235.903C179.478 234.988 178.028 234.263 178.669 232.736C179.443 230.893 181.116 231.467 182.804 231.645C182.859 232.69 182.908 233.599 182.964 234.644C182.134 235.087 181.346 235.507 180.607 235.903Z" fill="var(--fill-0, #E04C2D)"/>
<path d="M206.99 121.267C208.51 121.149 210.211 120.559 210.518 122.591C210.643 123.398 209.981 124.501 209.367 125.196C208.754 125.892 207.784 125.629 207.192 124.91C206.76 124.378 206.265 123.71 206.23 123.079C206.202 122.476 206.732 121.843 206.99 121.267Z" fill="var(--fill-0, #E04C2D)"/>
<path d="M188.981 228.514C187.572 228.831 186.31 228.824 185.774 227.202C185.425 226.135 185.934 224.879 186.826 224.454C187.879 223.948 188.555 224.56 189.308 225.211C190.856 226.547 189.448 227.461 188.981 228.514Z" fill="var(--fill-0, #E04C2D)"/>
<path d="M205.902 150.935C206.285 150.163 206.641 149.447 206.976 148.769C208.433 148.342 209.667 148.375 210.287 149.917C210.692 150.927 210.225 152.283 209.332 152.691C207.505 153.534 206.892 151.98 205.902 150.935Z" fill="var(--fill-0, #E04C2D)"/>
<path d="M205.951 40.641C206.495 39.2027 206.885 37.9219 208.635 38.2307C209.716 38.4218 210.253 39.059 210.35 40.1376C210.448 41.1764 210.183 42.0975 209.172 42.4761C207.547 43.0819 206.878 41.7433 205.951 40.641Z" fill="var(--fill-0, #E04C2D)"/>
<path d="M201.809 187.578C200.359 186.981 199.076 186.553 199.439 184.813C199.662 183.753 200.303 183.217 201.398 183.139C202.458 183.063 203.364 183.39 203.706 184.385C204.25 185.991 202.911 186.668 201.809 187.578Z" fill="var(--fill-0, #E04C2D)"/>
<path d="M201.133 154.51C202.241 155.406 202.744 155.631 202.946 156.014C203.308 156.697 203.908 157.695 203.664 158.165C203.273 158.896 202.318 159.489 201.482 159.753C201.084 159.879 200.213 159.231 199.899 158.721C199.585 158.207 199.488 157.361 199.676 156.787C199.927 156.023 200.547 155.383 201.133 154.51Z" fill="var(--fill-0, #E04C2D)"/>
<path d="M215.412 44.6604C216.618 45.6281 217.957 46.3002 217.42 47.9073C217.092 48.9029 216.186 49.225 215.119 49.156C214.024 49.0841 213.397 48.5557 213.16 47.4966C212.763 45.732 214.171 45.4133 215.412 44.6604Z" fill="var(--fill-0, #E04C2D)"/>
<path d="M201.858 77.2269C200.38 76.7186 199.132 76.2989 199.432 74.5538C199.62 73.4731 200.255 72.9272 201.335 72.8261C202.374 72.7285 203.294 73.0052 203.678 74.0071C204.291 75.6212 202.96 76.3003 201.858 77.2269Z" fill="var(--fill-0, #E04C2D)"/>
<path d="M201.726 141.199C202.827 142.291 204.41 142.893 203.594 144.72C203.148 145.735 202.179 145.876 201.175 145.749C200.08 145.611 199.571 144.938 199.411 143.877C199.132 141.994 200.764 142.025 201.726 141.199Z" fill="var(--fill-0, #E04C2D)"/>
<path d="M189.023 210.656C189.462 211.497 189.783 212.111 190.061 212.64C189.95 213.652 188.5 214.958 187.593 214.971C186.568 214.987 185.76 214.052 185.725 212.83C185.676 211.131 186.227 210.749 189.023 210.656Z" fill="var(--fill-0, #E04C2D)"/>
<path d="M201.565 44.6805C203.957 46.6467 204.284 47.3543 203.399 48.4134C202.576 49.3979 200.812 49.4348 199.913 48.4866C198.958 47.4736 199.257 46.724 201.565 44.6805Z" fill="var(--fill-0, #E04C2D)"/>
<path d="M205.895 164.584C207.736 162.224 208.523 161.823 209.562 162.625C210.566 163.403 210.657 165.176 209.744 166.11C208.761 167.111 207.952 166.813 205.895 164.584Z" fill="var(--fill-0, #E04C2D)"/>
<path d="M205.895 54.2637C207.729 51.9078 208.516 51.5091 209.562 52.306C210.566 53.0715 210.657 54.8549 209.744 55.7836C208.768 56.7792 207.952 56.4802 205.895 54.2637Z" fill="var(--fill-0, #E04C2D)"/>
<path d="M162.501 6.26985C161.699 7.262 161.002 8.53651 159.391 7.83789C158.38 7.40074 158.06 6.40513 158.366 5.46251C158.589 4.78416 159.189 3.8743 159.782 3.73626C161.706 3.28655 161.943 4.99817 162.501 6.26985Z" fill="var(--fill-0, #E04C2D)"/>
</g>
</g>
</svg>
