<svg width="144" height="144" viewBox="0 0 144 144" fill="none" xmlns="http://www.w3.org/2000/svg">
<path d="M40.7784 59.4419C42.2093 58.3535 44.1907 58.3535 45.6216 59.4419L51.5127 63.9228C52.3477 64.558 53.3989 64.8396 54.4396 64.7071L61.7819 63.772C63.5653 63.5449 65.2812 64.5356 65.9762 66.1936L68.8376 73.0198C69.2431 73.9873 70.0126 74.7568 70.9802 75.1624L77.8063 78.0238C79.4644 78.7188 80.4551 80.4347 80.2279 82.2181L79.2929 89.5604C79.1603 90.6011 79.442 91.6523 80.0772 92.4873L84.5581 98.3784C85.6465 99.8093 85.6465 101.791 84.5581 103.222L80.0772 109.113C79.442 109.948 79.1603 110.999 79.2929 112.04L80.2279 119.382C80.4551 121.165 79.4644 122.881 77.8063 123.576L70.9802 126.438C70.0126 126.843 69.2431 127.613 68.8376 128.58L65.9762 135.406C65.2812 137.064 63.5653 138.055 61.7819 137.828L54.4396 136.893C53.3989 136.76 52.3477 137.042 51.5127 137.677L45.6216 142.158C44.1907 143.246 42.2093 143.246 40.7784 142.158L34.8873 137.677C34.0523 137.042 33.0011 136.76 31.9604 136.893L24.6181 137.828C22.8347 138.055 21.1188 137.064 20.4238 135.406L17.5624 128.58C17.1569 127.613 16.3874 126.843 15.4198 126.438L8.59367 123.576C6.93559 122.881 5.94494 121.165 6.17207 119.382L7.10711 112.04C7.23965 110.999 6.958 109.948 6.32285 109.113L1.84193 103.222C0.753516 101.791 0.753516 99.8093 1.84193 98.3784L6.32285 92.4873C6.958 91.6523 7.23965 90.6011 7.10711 89.5604L6.17207 82.2181C5.94494 80.4347 6.93559 78.7188 8.59367 78.0238L15.4198 75.1624C16.3874 74.7568 17.1569 73.9873 17.5624 73.0198L20.4238 66.1936C21.1188 64.5356 22.8347 63.5449 24.6181 63.772L31.9604 64.7071C33.0011 64.8396 34.0523 64.558 34.8873 63.9228L40.7784 59.4419Z" fill="#E04C2D" fill-opacity="0.4"/>
<path d="M114.157 86.8053C110.612 86.4311 89.1805 86.5613 87.7001 86.947C87.316 92.0837 87.4895 111.764 87.9178 113.211H114.157V86.8053ZM31.2742 84.7309C34.7239 85.1029 56.2458 84.9758 57.7258 84.5954C58.1045 79.538 57.9356 59.7887 57.5144 58.3343H31.2742V84.7309ZM114.153 58.3901C110.81 58.0318 89.2053 58.1488 87.7032 58.5145C87.3276 63.3909 87.4943 83.3244 87.9124 84.7889H114.153V58.3901ZM31.2778 113.153C34.5925 113.519 56.2255 113.401 57.724 113.028C58.0943 108.151 57.9307 88.2233 57.5205 86.7522H31.2778V113.153ZM31.2539 29.8443C31.2238 30.4439 31.184 30.8624 31.1849 31.2809C31.2026 39.6744 31.2251 48.0684 31.2516 56.4624C31.2516 56.5186 31.3189 56.5788 31.3645 56.6293C31.4119 56.6825 31.4706 56.7254 31.4834 56.7369H57.6621C58.0506 53.2251 57.913 31.3119 57.5019 29.8443H31.2539ZM86.0476 113.277C86.4153 109.995 86.3024 88.2322 85.9392 86.7623H59.3717C59.0098 89.9509 59.1231 111.734 59.5066 113.277H86.0476ZM86.0135 56.5695C86.3895 54.0926 86.3003 31.3602 85.9361 29.9187H59.197C59.197 30.6003 59.1947 31.1614 59.1974 31.722C59.2314 39.8985 59.2664 48.075 59.3053 56.2511C59.3058 56.3162 59.3562 56.3849 59.3956 56.4438C59.4354 56.5027 59.4907 56.5509 59.5265 56.5903C61.2804 56.9557 84.134 56.9575 86.0135 56.5695ZM143.925 114.6H29.7553C29.3721 113.002 29.259 3.1142 29.6173 0.288321C31.2517 -0.0673127 56.8193 -0.114693 59.1231 0.263075V28.3771C61.6229 28.4807 63.9641 28.4152 66.3016 28.4272C68.6682 28.4391 71.0352 28.4298 73.4018 28.4298H87.4665C87.713 30.9736 87.5607 33.3261 87.589 35.6701C87.6169 37.9672 87.5953 40.2648 87.5953 42.5619V56.6492C89.4898 57.0593 91.3418 56.7985 93.1739 56.8441C95.0379 56.8906 96.9032 56.8543 98.7681 56.8543H115.939C116.058 66.2681 115.92 75.4858 116.018 84.8603H143.527C143.708 85.0666 143.761 85.1176 143.806 85.1751C143.845 85.23 143.907 85.2916 143.907 85.3509C143.943 94.5372 143.974 103.723 144 112.91C144 113.403 143.956 113.895 143.925 114.6Z" fill="#E04C2D"/>
</svg>
