<svg width="144" height="144" viewBox="0 0 144 144" fill="none" xmlns="http://www.w3.org/2000/svg">
<path d="M40.9024 59.2835C42.1987 58.4742 43.8428 58.4742 45.139 59.2835L56.6128 66.4466C56.9878 66.6807 57.399 66.851 57.8297 66.9507L71.008 69.9987C72.4969 70.3431 73.6594 71.5056 74.0038 72.9945L77.0518 86.1728C77.1515 86.6035 77.3218 87.0147 77.5559 87.3897L84.719 98.8634C85.5283 100.16 85.5283 101.804 84.719 103.1L77.5559 114.574C77.3218 114.949 77.1515 115.36 77.0518 115.791L74.0037 128.969C73.6594 130.458 72.4969 131.62 71.008 131.965L57.8297 135.013C57.399 135.112 56.9878 135.283 56.6128 135.517L45.139 142.68C43.8428 143.489 42.1987 143.489 40.9024 142.68L29.4287 135.517C29.0537 135.283 28.6425 135.112 28.2118 135.013L15.0335 131.965C13.5446 131.62 12.3821 130.458 12.0377 128.969L8.98966 115.791C8.89004 115.36 8.71971 114.949 8.4856 114.574L1.32247 103.1C0.513202 101.804 0.513202 100.16 1.32247 98.8634L8.4856 87.3897C8.71971 87.0147 8.89004 86.6035 8.98966 86.1728L12.0377 72.9945C12.3821 71.5056 13.5446 70.3431 15.0335 69.9987L28.2118 66.9507C28.6425 66.851 29.0537 66.6807 29.4287 66.4466L40.9024 59.2835Z" fill="#E04C2D" fill-opacity="0.4"/>
<path d="M139.543 108.232C138.883 106.811 138.222 105.391 137.575 103.997C137.062 103.968 136.636 103.944 136.353 103.928C135.454 103.022 136.916 102.786 136.913 102.348C136.428 101.168 135.997 100.148 135.593 99.1224C135.422 98.6886 135.116 98.4351 134.506 98.4173C134.16 98.4067 133.816 98.3389 133.574 98.3095C132.966 97.238 134.254 97.4706 134.685 97.1128C134.066 95.7275 133.45 94.3459 132.788 92.8628C132.178 93.3828 131.669 93.1895 131.349 92.7334C131.206 92.5295 131.203 92.042 131.358 91.9688C132.42 91.4651 132.056 90.9013 131.693 90.2242C131.196 89.2971 130.853 88.3199 130.464 87.4102C130.052 87.3938 129.519 87.4926 129.308 87.3322C129.072 87.1536 129.013 86.7177 129.099 86.4351C129.159 86.2394 129.594 86.1132 129.827 85.976C129.168 84.5178 128.56 83.1701 127.983 81.8926C127.489 81.9716 127.222 82.0147 126.838 82.0767C126.838 81.6038 126.795 81.2186 126.85 80.8419C126.898 80.5135 127.26 80.1289 127.131 79.8826C126.437 78.5592 126.554 76.8376 124.343 76.2118C124.235 76.1814 124.183 76.0298 124.034 75.8468C124.326 75.5214 124.648 75.1639 124.87 74.9162C124.564 74.0232 124.323 73.2565 124.037 72.5004C123.744 71.7255 123.447 70.9348 122.114 70.905C122.031 70.9036 121.954 70.7336 121.784 70.5389C122.028 70.1646 122.305 69.7387 122.545 69.3719C122.367 68.9384 122.212 68.5614 122.058 68.1833C121.795 67.5371 121.417 66.9024 121.299 66.24C121.127 65.2738 119.609 65.6396 119.275 64.8198C119.619 64.6022 119.985 64.3703 120.253 64.2002C119.877 63.2303 119.556 62.3017 119.152 61.3964C118.85 60.7218 118.72 59.9489 117.444 59.8254C116.732 59.7563 116.762 59.1397 117.223 58.9235C118.058 58.5318 117.825 58.1818 117.535 57.6508C117.027 56.7209 116.652 55.7468 116.22 54.7895C115.829 54.6356 115.316 54.5199 114.972 54.2647C114.776 54.1196 114.736 53.7145 114.836 53.4819C115.264 52.4876 115.293 52.269 114.883 51.4568C114.616 50.9296 114.365 50.3972 114.124 49.8628C114.004 49.5973 114.002 49.2692 113.791 49.0687C113.644 48.9281 113.147 49.0266 112.963 48.8898C112.73 48.7146 112.442 48.3102 112.544 48.1771C113.375 47.0953 112.482 46.2246 112.075 45.2902C111.843 44.7595 111.641 44.2204 111.448 43.741C110.872 43.4995 110.335 43.2736 109.537 42.938C110.58 42.3605 110.538 41.7525 110.298 41.0758C109.796 39.6601 109.341 38.2388 107.618 37.441C107.995 36.6062 107.619 34.9676 106.49 32.5252C106.15 32.4575 105.81 32.3894 105.369 32.3011C105.693 31.1259 105.557 30.0978 105.062 28.9965C104.568 27.8955 104.1 26.9122 102.634 26.3261C102.976 25.918 103.243 25.5984 103.505 25.2847C102.426 23.7841 102.837 21.7176 100.523 20.8031C101.217 19.1783 100.094 16.5504 98.2736 15.4282C98.4111 14.9639 98.8066 14.4192 98.6502 14.0008C98.2251 12.8642 97.6931 11.7249 96.9522 10.6975C96.5117 10.0871 95.7515 9.64953 96.312 8.86227C95.7563 7.60802 95.2003 6.35341 94.5128 4.80252C94.3311 6.39757 94.3648 6.38524 95.0238 7.53891C95.1608 7.77874 95.0606 8.20057 94.8675 8.43837C94.1432 9.33065 94.0797 10.097 94.9073 10.9383C95.2987 11.3363 95.2751 11.6387 94.913 12.0044C94.0491 12.8772 94.0285 13.7685 94.8761 14.6566C95.2764 15.0761 95.3115 15.3734 94.7628 15.8134C94.0438 16.3899 94.1248 17.5391 94.8631 18.2118C95.294 18.6038 95.2961 18.8957 94.9507 19.2679C94.0556 20.2313 93.841 21.166 94.9764 22.1473C95.1695 22.3136 95.1389 22.8945 94.93 23.0437C94.0574 23.6657 94.296 24.4416 94.391 25.1519C94.4458 25.5587 95.1267 25.9286 95.1381 26.3217C95.1486 26.6741 94.4878 27.0121 94.3779 27.3997C94.2382 27.8951 94.243 28.4555 94.3998 28.9465C94.5018 29.265 94.9852 29.5093 95.3382 29.8227C94.3215 30.9651 93.6747 32.0692 95.0557 33.2622C95.3658 33.5301 95.3289 33.9653 94.8394 34.1391C94.2986 34.3314 94.3626 34.6533 94.3298 34.9923C94.2448 35.8665 94.3494 36.6948 95.2852 37.287C93.785 38.568 94.1134 39.748 95.304 40.8863C94.9471 41.2951 94.4134 41.6328 94.3889 41.9917C94.3363 42.755 93.9922 43.6011 94.9546 44.2669C95.1556 44.4058 95.1385 44.9385 94.9647 45.1728C94.1147 46.3187 94.0692 46.7586 94.9739 47.7785C95.2672 48.109 95.367 48.5261 94.9396 48.6715C94.278 48.8966 94.3271 49.2596 94.3376 49.6555C94.3551 50.3301 94.1485 51.0295 94.9734 51.5817C95.1656 51.7103 95.1254 52.2492 94.9463 52.4853C94.1152 53.5798 94.1178 53.9735 94.962 55.1056C95.1371 55.34 95.1539 55.8238 94.959 56.0195C94.0049 56.9761 94.0145 57.8759 94.9515 58.8161C95.3075 59.1729 95.4034 59.5438 94.8316 59.85C94.7129 59.9137 94.4848 59.9708 94.4843 60.0313C94.4782 60.823 93.8052 61.677 94.9183 62.3797C95.1289 62.5125 95.1753 63.0996 94.9879 63.2744C93.9742 64.2201 94.0285 65.1367 94.9235 66.0727C95.2869 66.4532 95.3146 66.7977 94.9458 67.1683C94.0145 68.1043 93.9987 69.0103 94.9651 69.9652C95.1582 70.1561 95.1262 70.6426 94.9488 70.879C94.1186 71.9875 94.12 72.3793 94.9555 73.5008C95.1311 73.7362 95.1516 74.2193 94.9576 74.4149C94.0079 75.3719 94.0123 76.2738 94.9502 77.2133C95.3084 77.5725 95.3456 77.8958 94.8451 78.2592C93.8915 78.9513 94.0416 80.0164 94.6314 80.5511C95.3093 81.1652 95.1853 81.3876 94.751 81.9634C94.1165 82.8037 93.8524 83.7258 94.9252 84.5606C95.3579 84.8972 95.3552 85.237 94.8066 85.5699C94.5679 85.7146 94.4029 86.0068 94.3494 86.2517C94.1454 87.1865 94.3946 88.051 95.2554 88.7076C94.0241 90.0374 94.0333 90.5038 95.0185 91.9571C95.1749 92.1881 95.0938 92.6448 94.892 92.873C94.0902 93.7797 94.0197 94.6514 94.8709 95.5386C95.2772 95.9625 95.4358 96.3659 94.7361 96.6697C94.1099 96.941 94.4076 97.3769 94.3367 97.746C94.201 98.4539 94.7391 98.9541 95.0807 99.5494C95.3289 99.9832 94.5933 100.747 94.3468 101.376C94.264 101.586 94.254 101.861 94.356 102.061C94.5911 102.524 95.1297 102.957 95.1398 103.408C95.1494 103.819 94.4944 104.212 94.3617 104.656C94.0832 105.584 94.4335 106.445 95.2532 107.112C94.0416 108.408 94.0386 109.002 95.0277 110.357C95.1701 110.551 95.1402 111.051 94.9948 111.108C93.8787 111.55 94.3854 112.326 94.3626 112.945C94.3324 113.792 95.0457 114.316 96.1185 114.36C97.2162 114.405 98.3573 114.517 99.0982 113.578C99.8601 113.968 100.396 114.396 101.316 114.411C102.311 114.427 102.948 114.025 103.585 113.639C105.355 114.734 107.014 114.619 108.678 113.604C109.291 114.309 110.123 114.357 111.047 114.394C111.936 114.43 112.552 114.208 112.936 113.632C114.808 114.639 116.046 114.638 117.906 113.672C119.497 114.755 121.157 114.653 122.682 113.69C123.299 113.946 123.778 114.227 124.314 114.342C124.796 114.444 125.371 114.445 125.853 114.343C126.351 114.238 126.787 113.954 127.404 113.679C127.879 114.247 128.677 114.348 129.603 114.401C130.664 114.463 131.364 113.988 132.215 113.595C132.885 114.376 133.825 114.332 134.8 114.402C135.69 114.465 135.984 113.884 136.668 113.642C137.335 114.286 138.221 114.357 139.214 114.399C140.327 114.445 140.901 113.821 141.691 113.512C141.097 112.109 140.506 110.713 139.915 109.317C139.36 109.355 138.671 109.928 138.319 109.132C138.1 108.634 138.472 108.392 139.543 108.232ZM92.8353 114.324V5.14363C91.713 7.37604 90.8202 9.63959 89.8459 11.8816C88.8699 14.128 87.7726 16.343 86.7988 18.5905C84.8953 22.9828 83.0483 27.3898 81.1642 31.7872C79.9245 34.6803 78.6735 37.5706 77.4054 40.4559C74.9135 46.1253 72.3818 51.7839 69.9135 57.4592C68.0043 61.847 66.1823 66.2578 64.2907 70.6505C63.2302 73.1142 62.0891 75.5563 61.0154 78.0166C59.5205 81.442 58.0664 84.8784 56.5728 88.3045C55.4071 90.9786 54.1789 93.6367 53.0299 96.3152C51.3047 100.337 49.6456 104.376 47.9164 108.396C47.179 110.111 46.323 111.794 45.5545 113.501C45.449 113.736 45.5401 114.024 45.5401 114.324L92.8353 114.324ZM94.1476 0C94.5518 0.945324 94.8924 1.7394 95.2304 2.53419C95.709 3.65947 96.1671 4.78987 96.6667 5.90967C98.3836 9.75593 100.131 13.594 101.834 17.4443C103.11 20.3282 104.346 23.2237 105.583 26.1181C107.325 30.1953 109.031 34.2821 110.793 38.3538C111.929 40.9766 113.167 43.5724 114.308 46.1938C115.822 49.6712 117.269 53.1661 118.778 56.6446C119.776 58.9451 120.861 61.2233 121.857 63.5245C123.805 68.0256 125.71 72.5387 127.65 77.0419C130.607 83.9033 133.564 90.7641 136.553 97.617C137.672 100.184 138.922 102.717 140.037 105.285C141.34 108.283 142.565 111.303 143.816 114.314C144.244 115.344 143.948 115.703 142.639 115.764C142.27 115.781 141.898 115.766 141.528 115.766C109.622 115.766 77.7146 115.769 45.808 115.754C44.9734 115.754 43.9983 116.048 43.1992 115.148C43.9712 113.36 44.7781 111.448 45.6232 109.545C47.0004 106.446 48.5391 103.385 49.7617 100.25C51.4488 95.9235 53.4485 91.6814 55.2219 87.3787C56.2628 84.8524 57.5203 82.3808 58.6071 79.8651C60.8981 74.5607 63.1269 69.2402 65.4082 63.9337C66.5594 61.2555 67.7854 58.5971 68.9492 55.9227C70.7204 51.8523 72.4671 47.7754 74.2248 43.702C76.0279 39.5242 77.8167 35.3423 79.6422 31.1704C80.7412 28.6581 81.9358 26.1711 83.023 23.6558C85.3161 18.352 87.5667 13.0373 89.8345 7.72672C90.7264 5.63766 91.6662 3.55991 92.4776 1.45168C92.7158 0.833447 93.1278 0.463604 94.1476 0Z" fill="#E04C2D"/>
<path d="M124.73 106.149C124.431 105.704 124.187 105.34 123.811 104.781C124.628 104.731 125.15 104.699 125.625 104.67C126.087 105.386 125.708 105.736 124.73 106.149Z" fill="#E04C2D"/>
<path d="M102.587 62.7732C103.196 62.5508 103.677 62.3749 104.343 62.1317C104.433 62.7003 104.493 63.0728 104.551 63.4389C103.655 63.9148 103.163 63.6124 102.587 62.7732Z" fill="#E04C2D"/>
<path d="M100.111 62.9408C99.7314 63.5669 99.2808 63.8492 98.3963 63.5436V62.4557C99.1831 62.0879 99.6451 62.3934 100.111 62.9408Z" fill="#E04C2D"/>
<path d="M108.714 58.3029C109.053 58.8123 109.296 59.1774 109.669 59.7364C108.853 59.7847 108.33 59.8151 107.871 59.8428C107.362 59.1148 107.836 58.7952 108.714 58.3029Z" fill="#E04C2D"/>
<path d="M102.169 28.5797H100.793C100.168 27.9122 100.72 27.5762 101.346 27.1954C102.072 27.4596 102.462 27.7907 102.169 28.5797Z" fill="#E04C2D"/>
<path d="M124.899 89.6949C125.701 89.9957 126.06 90.3484 125.673 91.0371H124.272C123.816 90.4237 124.21 90.0634 124.899 89.6949Z" fill="#E04C2D"/>
<path d="M120.903 93.5449V94.7192C120.112 95.1787 119.62 94.8666 119.222 94.298C119.628 93.8913 120.189 93.6403 120.903 93.5449Z" fill="#E04C2D"/>
<path d="M119.154 75.883C119.54 75.261 119.986 74.9709 120.871 75.2771V76.3706C120.091 76.7247 119.627 76.4229 119.154 75.883Z" fill="#E04C2D"/>
<path d="M111.023 104.406C111.318 104.783 111.605 104.988 111.618 105.201C111.644 105.646 111.276 106.018 110.712 105.965C110.412 105.937 109.892 105.459 109.956 105.316C110.094 105.008 110.545 104.786 111.023 104.406Z" fill="#E04C2D"/>
<path d="M111.92 83.2218C111.502 83.502 111.289 83.7582 111.022 83.8C110.436 83.8906 109.965 83.5923 109.949 83.1738C109.94 82.9422 110.496 82.4742 110.679 82.5077C111.082 82.5809 111.41 82.9056 111.92 83.2218Z" fill="#E04C2D"/>
<path d="M98.9183 17.9661C99.3929 18.35 99.84 18.5744 99.9762 18.883C100.038 19.0243 99.5137 19.4988 99.2129 19.5252C98.6511 19.5741 98.2776 19.2073 98.3135 18.7585C98.3306 18.5443 98.6183 18.3431 98.9183 17.9661Z" fill="#E04C2D"/>
<path d="M99.0412 27.1127C98.6892 26.775 98.3669 26.6022 98.3178 26.3904C98.211 25.9299 98.6037 25.5707 99.1405 25.5673C99.4361 25.5656 100.02 26.0062 99.9743 26.1486C99.8727 26.4633 99.4546 26.7155 99.0412 27.1127Z" fill="#E04C2D"/>
<path d="M134.386 100.607C134.739 101.098 135.041 101.398 135.146 101.735C135.181 101.85 134.731 102.182 134.477 102.2C133.907 102.242 133.442 101.944 133.488 101.502C133.513 101.247 133.953 101.018 134.386 100.607Z" fill="#E04C2D"/>
<path d="M122.426 80.4525C122.923 80.8326 123.381 81.0478 123.526 81.3537C123.594 81.4957 123.086 81.9825 122.786 82.0161C122.223 82.0784 121.848 81.7133 121.866 81.2661C121.876 81.0499 122.147 80.8409 122.426 80.4525Z" fill="#E04C2D"/>
<path d="M107.593 92.005C108.384 91.7713 109.094 91.5133 109.36 92.1901C109.638 92.8979 108.749 92.8942 108.036 93.1593C107.875 92.7419 107.732 92.3679 107.593 92.005Z" fill="#E04C2D"/>
<path d="M120.772 102.322C120.188 102.153 119.757 102.027 119.145 101.85C119.493 101.445 119.669 101.055 120.02 100.885C120.36 100.721 120.913 100.792 120.944 101.267C120.965 101.574 120.849 101.887 120.772 102.322Z" fill="#E04C2D"/>
<path d="M114.393 80.9757C113.86 81.6161 113.773 82.3374 112.884 82.0257C112.249 81.8033 112.484 81.2839 112.685 80.6972C113.175 80.7772 113.658 80.8559 114.393 80.9757Z" fill="#E04C2D"/>
<path d="M100.329 37.3726C99.7497 37.6391 99.3662 37.9624 99.0618 37.922C98.5631 37.8556 98.1423 37.4937 98.3371 37.0345C98.4173 36.8464 98.9126 36.5829 99.0746 36.6342C99.484 36.7632 99.8115 37.0506 100.329 37.3726Z" fill="#E04C2D"/>
<path d="M103.704 38.2049C103.287 37.7913 102.853 37.5549 102.836 37.3017C102.807 36.8587 103.288 36.5744 103.849 36.6212C104.1 36.6421 104.538 36.9901 104.498 37.1071C104.384 37.4407 104.068 37.7325 103.704 38.2049Z" fill="#E04C2D"/>
<path d="M107.989 67.5329C107.826 66.9868 107.725 66.6444 107.611 66.2636C108.349 66.0891 109.053 65.8308 109.353 66.4699C109.685 67.1791 108.744 67.175 107.989 67.5329Z" fill="#E04C2D"/>
<path d="M108.126 80.4518C108.67 80.8193 109.146 81.0129 109.317 81.313C109.397 81.4529 108.929 81.963 108.627 82.0161C108.051 82.117 107.683 81.7451 107.659 81.3062C107.647 81.0889 107.889 80.8634 108.126 80.4518Z" fill="#E04C2D"/>
<path d="M104.838 81.1819C104.349 81.5514 104.062 81.9021 103.667 82.0068C103.483 82.0554 102.876 81.6483 102.841 81.4129C102.776 80.9705 103.256 80.6869 103.824 80.7094C104.097 80.7201 104.357 80.9472 104.838 81.1819Z" fill="#E04C2D"/>
<path d="M100.338 81.3835C99.7914 81.6887 99.4621 82.023 99.1425 82.0175C98.5956 82.0086 98.2094 81.6429 98.3223 81.1909C98.3714 80.9969 98.8337 80.6849 98.99 80.7232C99.4104 80.8255 99.7677 81.0872 100.338 81.3835Z" fill="#E04C2D"/>
<path d="M111.942 49.9391C111.453 50.3076 111.166 50.6576 110.771 50.7626C110.589 50.8115 109.983 50.402 109.948 50.1663C109.884 49.7235 110.363 49.4406 110.932 49.4656C111.205 49.4779 111.464 49.7047 111.942 49.9391Z" fill="#E04C2D"/>
<path d="M99.2216 50.9836C99.5924 51.4229 100.016 51.6983 99.9874 51.9416C99.9401 52.3497 99.4817 52.6693 98.8954 52.5509C98.6502 52.5013 98.2806 52.1305 98.3362 52.0042C98.4777 51.6816 98.8262 51.4143 99.2216 50.9836Z" fill="#E04C2D"/>
<path d="M104.841 52.1606C104.326 52.361 104.045 52.5615 103.768 52.5588C103.201 52.5536 102.729 52.2639 102.841 51.816C102.9 51.5799 103.539 51.2043 103.72 51.2625C104.107 51.387 104.367 51.7537 104.841 52.1606Z" fill="#E04C2D"/>
<path d="M109.701 51.9594C109.069 52.2307 108.683 52.4654 108.25 52.5445C108.103 52.5718 107.68 52.217 107.66 52.02C107.616 51.5789 107.987 51.2091 108.559 51.2505C108.886 51.2748 109.176 51.618 109.701 51.9594Z" fill="#E04C2D"/>
<path d="M100.335 55.7266C99.7716 56.0136 99.417 56.3428 99.1065 56.3188C98.5903 56.2788 98.1677 55.9288 98.3288 55.4666C98.3962 55.2736 98.871 54.9862 99.0321 55.03C99.445 55.1419 99.7856 55.4159 100.335 55.7266Z" fill="#E04C2D"/>
<path d="M131.925 96.8955C131.574 96.5585 131.249 96.3843 131.205 96.1746C131.11 95.7216 131.483 95.3494 132.029 95.3507C132.326 95.3514 132.905 95.7911 132.859 95.9361C132.76 96.2495 132.338 96.5006 131.925 96.8955Z" fill="#E04C2D"/>
<path d="M107.327 55.4629C107.819 55.2388 108.085 55.0222 108.361 55.0129C108.936 54.9948 109.402 55.2894 109.324 55.7294C109.282 55.9654 108.664 56.3657 108.484 56.3137C108.091 56.2002 107.813 55.8457 107.327 55.4629Z" fill="#E04C2D"/>
<path d="M100.364 70.3703C99.7266 70.6357 99.336 70.8663 98.9007 70.9426C98.7554 70.9679 98.342 70.6077 98.3219 70.4072C98.2776 69.961 98.6639 69.6032 99.2327 69.6507C99.5602 69.6778 99.8444 70.0233 100.364 70.3703Z" fill="#E04C2D"/>
<path d="M109.684 70.3117C109.091 70.6011 108.724 70.854 108.3 70.9477C108.145 70.9819 107.693 70.6521 107.658 70.4578C107.577 70.0134 107.948 69.6408 108.509 69.6511C108.833 69.6576 109.146 69.9935 109.684 70.3117Z" fill="#E04C2D"/>
<path d="M117.76 74.9887C117.418 74.5354 117.005 74.2367 117.055 73.9975C117.137 73.6034 117.604 73.2791 118.19 73.4306C118.432 73.4932 118.77 73.8788 118.705 74.0061C118.544 74.3243 118.177 74.5782 117.76 74.9887Z" fill="#E04C2D"/>
<path d="M119.051 70.5067C118.562 70.7315 118.298 70.9498 118.021 70.9594C117.448 70.9792 116.977 70.6888 117.054 70.2464C117.096 70.0093 117.714 69.6069 117.892 69.6583C118.285 69.7722 118.565 70.126 119.051 70.5067Z" fill="#E04C2D"/>
<path d="M117.796 76.6798C118.2 77.102 118.556 77.3641 118.706 77.6854C118.765 77.8113 118.407 78.1856 118.16 78.2434C117.566 78.3823 117.117 78.0477 117.055 77.6495C117.017 77.4083 117.437 77.1236 117.796 76.6798Z" fill="#E04C2D"/>
<path d="M102.609 61.0054C102.124 61.393 101.848 61.7488 101.456 61.8655C101.278 61.9186 100.654 61.5217 100.611 61.287C100.532 60.8494 100.994 60.5531 101.568 60.5695C101.845 60.5774 102.113 60.7885 102.609 61.0054Z" fill="#E04C2D"/>
<path d="M98.9121 73.1583C99.3898 73.5418 99.8385 73.7649 99.9756 74.0725C100.039 74.2148 99.5189 74.6924 99.2199 74.7188C98.6629 74.7681 98.2802 74.4068 98.3135 73.9562C98.3297 73.7417 98.6143 73.5387 98.9121 73.1583Z" fill="#E04C2D"/>
<path d="M104.847 73.7731C104.377 74.2035 104.132 74.5785 103.748 74.7133C103.568 74.777 102.91 74.4163 102.841 74.1816C102.711 73.7365 103.17 73.4347 103.74 73.4173C104.024 73.4087 104.318 73.5945 104.847 73.7731Z" fill="#E04C2D"/>
<path d="M108.568 76.6778C108.935 77.1202 109.357 77.399 109.326 77.6426C109.273 78.0473 108.82 78.3737 108.229 78.2454C107.983 78.1917 107.62 77.8205 107.676 77.6939C107.82 77.3716 108.171 77.1058 108.568 76.6778Z" fill="#E04C2D"/>
<path d="M104.843 70.5598C104.325 70.7609 104.044 70.9608 103.767 70.958C103.198 70.9529 102.728 70.661 102.84 70.2132C102.9 69.9778 103.539 69.6032 103.722 69.6617C104.109 69.7849 104.368 70.1523 104.843 70.5598Z" fill="#E04C2D"/>
<path d="M118.13 91.5592C118.425 91.9372 118.714 92.1422 118.725 92.3557C118.747 92.7984 118.381 93.1727 117.816 93.1169C117.514 93.0871 116.995 92.6085 117.06 92.4662C117.199 92.1593 117.651 91.9379 118.13 91.5592Z" fill="#E04C2D"/>
<path d="M110.761 113.536C110.368 113.108 109.941 112.853 109.945 112.602C109.953 112.17 110.429 111.877 111.003 111.961C111.25 111.997 111.652 112.36 111.603 112.48C111.469 112.813 111.134 113.095 110.761 113.536Z" fill="#E04C2D"/>
<path d="M135.475 112.525C134.964 112.847 134.639 113.175 134.238 113.249C134.051 113.284 133.492 112.826 133.494 112.594C133.498 112.168 133.977 111.878 134.559 111.958C134.826 111.994 135.044 112.247 135.475 112.525Z" fill="#E04C2D"/>
<path d="M139.181 113.533C138.797 113.093 138.457 112.817 138.323 112.491C138.272 112.368 138.663 112.004 138.911 111.962C139.491 111.865 139.96 112.17 139.983 112.592C139.997 112.84 139.567 113.103 139.181 113.533Z" fill="#E04C2D"/>
<path d="M110.803 89.6864C111.504 90.0798 112.022 90.4852 111.387 90.9964C110.979 91.3255 110.406 91.1223 110.082 90.7538C109.561 90.1626 110.203 89.9761 110.803 89.6864Z" fill="#E04C2D"/>
<path d="M101.416 89.6446C102.007 90.0398 102.651 90.2697 102.012 90.823C101.615 91.1671 101.05 91.3084 100.7 90.9369C100.17 90.3761 100.767 90.033 101.416 89.6446Z" fill="#E04C2D"/>
<path d="M123.645 88.6391C123.312 89.2248 122.871 89.557 122.101 89.2847C121.694 89.141 121.734 88.5707 122.185 88.2521C122.987 87.6859 123.263 88.2497 123.645 88.6391Z" fill="#E04C2D"/>
<path d="M135.498 105C135.031 105.441 134.792 105.818 134.41 105.958C134.233 106.023 133.569 105.669 133.494 105.434C133.353 104.989 133.812 104.686 134.38 104.663C134.667 104.651 134.967 104.832 135.498 105Z" fill="#E04C2D"/>
<path d="M102.697 88.7154C103.084 88.2415 103.338 87.7516 104.084 88.1697C104.553 88.4331 104.799 88.8741 104.366 89.1913C103.687 89.6884 103.192 89.2519 102.697 88.7154Z" fill="#E04C2D"/>
<path d="M99.2186 87.7813C99.5912 88.2203 100.014 88.4937 99.9875 88.7376C99.9429 89.1478 99.4809 89.4626 98.8981 89.349C98.6533 89.3011 98.2816 88.9278 98.3372 88.8029C98.4821 88.4766 98.8311 88.2056 99.2186 87.7813Z" fill="#E04C2D"/>
<path d="M110.652 87.8317C110.31 87.379 109.897 87.0797 109.949 86.8426C110.034 86.4529 110.497 86.1231 111.084 86.2746C111.325 86.3372 111.663 86.7242 111.598 86.8525C111.437 87.1696 111.069 87.4228 110.652 87.8317Z" fill="#E04C2D"/>
<path d="M108.416 75.012C108.072 74.5169 107.775 74.2131 107.674 73.8741C107.641 73.7612 108.1 73.4361 108.355 73.4197C108.925 73.3831 109.389 73.6794 109.331 74.1262C109.298 74.3818 108.856 74.6052 108.416 75.012Z" fill="#E04C2D"/>
<path d="M102.518 105.366C102.02 105.641 101.666 105.985 101.374 105.956C101.073 105.925 100.613 105.521 100.628 105.298C100.643 105.077 101.165 104.714 101.465 104.714C101.773 104.714 102.082 105.077 102.518 105.366Z" fill="#E04C2D"/>
<path d="M117.979 102.671C118.314 103.031 118.68 103.25 118.711 103.494C118.771 103.979 118.227 103.97 117.781 103.969C117.278 103.968 116.836 103.821 117.012 103.38C117.109 103.14 117.537 102.981 117.979 102.671Z" fill="#E04C2D"/>
<path d="M108.468 104.192C108.1 103.848 107.71 103.646 107.663 103.403C107.574 102.935 108.088 102.892 108.552 102.894C109.037 102.896 109.515 102.999 109.376 103.451C109.302 103.693 108.883 103.869 108.468 104.192Z" fill="#E04C2D"/>
<path d="M129.689 102.565C129.308 102.055 129.031 101.823 128.96 101.556C128.868 101.211 128.97 100.856 129.59 100.834C130.198 100.812 130.373 101.124 130.298 101.495C130.242 101.77 130.007 102.025 129.689 102.565Z" fill="#E04C2D"/>
<path d="M125.018 100.668C125.36 101.059 125.795 101.341 125.753 101.569C125.711 101.805 125.184 102.165 124.904 102.146C124.615 102.127 124.166 101.721 124.161 101.48C124.156 101.248 124.631 101.011 125.018 100.668Z" fill="#E04C2D"/>
<path d="M115.732 100.723C116.028 101.145 116.227 101.428 116.423 101.707C116.005 102.202 115.39 102.515 114.874 101.999C114.366 101.492 114.968 101.113 115.732 100.723Z" fill="#E04C2D"/>
<path d="M110.714 102.394C110.363 102.004 109.924 101.729 109.96 101.499C109.997 101.264 110.498 101.073 110.796 100.863C111.065 101.096 111.534 101.324 111.545 101.564C111.556 101.795 111.092 102.04 110.714 102.394Z" fill="#E04C2D"/>
<path d="M107.054 101.489C106.64 101.812 106.414 102.14 106.106 102.197C105.532 102.303 105.394 101.934 105.391 101.553C105.389 101.187 105.451 100.791 106.044 100.859C106.354 100.895 106.613 101.202 107.054 101.489Z" fill="#E04C2D"/>
<path d="M102.519 101.552C102.023 101.83 101.674 102.175 101.38 102.148C101.08 102.121 100.613 101.72 100.628 101.499C100.643 101.276 101.151 100.917 101.459 100.907C101.754 100.898 102.069 101.26 102.519 101.552Z" fill="#E04C2D"/>
<path d="M95.7774 101.529C96.2021 101.223 96.4438 100.904 96.753 100.857C97.3375 100.769 97.4369 101.155 97.4386 101.527C97.4404 101.901 97.3336 102.284 96.7542 102.201C96.446 102.156 96.203 101.836 95.7774 101.529Z" fill="#E04C2D"/>
<path d="M132.104 100.644C131.73 100.294 131.267 100.051 131.275 99.8173C131.284 99.5785 131.754 99.35 132.022 99.117C132.32 99.3274 132.823 99.5183 132.86 99.754C132.896 99.9832 132.455 100.258 132.104 100.644Z" fill="#E04C2D"/>
<path d="M123.779 99.8631C123.246 100.092 122.852 100.262 122.502 100.413C121.87 100.06 121.511 99.5925 122.052 99.2538C122.837 98.7614 123.262 99.315 123.779 99.8631Z" fill="#E04C2D"/>
<path d="M108.471 100.645C108.124 100.254 107.687 99.9751 107.726 99.7445C107.764 99.5108 108.287 99.1512 108.571 99.1659C108.854 99.1803 109.307 99.5871 109.313 99.8269C109.318 100.06 108.85 100.3 108.471 100.645Z" fill="#E04C2D"/>
<path d="M103.886 100.413C103.642 100.06 102.489 100.363 102.928 99.5289C103.137 99.1323 103.733 98.9004 104.174 99.1491C104.872 99.545 104.578 100.001 103.886 100.413Z" fill="#E04C2D"/>
<path d="M100.134 99.9226C99.6731 100.114 99.3632 100.243 98.995 100.396C98.3907 100.145 98.0005 99.7961 98.4729 99.251C98.7908 98.8839 99.2471 99.0598 100.134 99.9226Z" fill="#E04C2D"/>
<path d="M126.285 97.8418C125.632 98.134 125.332 98.3468 124.991 98.4015C124.546 98.473 124.095 98.3865 124.071 97.9058C124.049 97.436 124.449 97.2947 124.924 97.3553C125.276 97.4005 125.599 97.5879 126.285 97.8418Z" fill="#E04C2D"/>
<path d="M101.271 98.6369C100.95 98.2756 100.592 98.0515 100.568 97.8076C100.52 97.3269 101.066 97.3437 101.506 97.3416C102.022 97.3389 102.434 97.5202 102.263 97.9417C102.166 98.1795 101.725 98.3328 101.271 98.6369Z" fill="#E04C2D"/>
<path d="M122.49 95.348C122.733 95.7008 123.886 95.3935 123.45 96.2297C123.243 96.6266 122.649 96.8609 122.207 96.6105C121.512 96.2177 121.796 95.7599 122.49 95.348Z" fill="#E04C2D"/>
<path d="M109.49 95.814C109.101 96.5502 108.573 96.9071 107.914 96.5674C107.306 96.2543 107.594 95.787 108.234 95.3603C108.575 95.4835 108.987 95.6323 109.49 95.814Z" fill="#E04C2D"/>
<path d="M102.701 95.8571C103.157 95.6597 103.518 95.5037 103.87 95.3511C104.513 95.6819 104.914 96.165 104.244 96.5636C103.621 96.9345 103.071 96.5468 102.701 95.8571Z" fill="#E04C2D"/>
<path d="M100.131 95.853C99.7607 96.5417 99.2111 96.9331 98.5858 96.5646C97.9102 96.166 98.3165 95.6836 98.954 95.3521C99.3109 95.504 99.6757 95.6593 100.131 95.853Z" fill="#E04C2D"/>
<path d="M130.6 94.1239C130.207 94.4769 130.01 94.8184 129.704 94.894C129.157 95.0291 128.94 94.7007 128.938 94.299C128.936 93.9483 128.928 93.5285 129.54 93.5669C129.853 93.586 130.138 93.8693 130.6 94.1239Z" fill="#E04C2D"/>
<path d="M124.995 93.364C125.349 93.754 125.789 94.0277 125.753 94.2566C125.716 94.4934 125.217 94.6857 124.92 94.8971C124.649 94.6652 124.177 94.439 124.164 94.1985C124.152 93.9669 124.616 93.7205 124.995 93.364Z" fill="#E04C2D"/>
<path d="M116.725 94.276C116.222 94.5439 115.861 94.8837 115.568 94.8515C115.267 94.8183 115.032 94.4211 114.768 94.1833C115.073 93.9777 115.376 93.614 115.684 93.6116C115.982 93.6092 116.286 93.977 116.725 94.276Z" fill="#E04C2D"/>
<path d="M111.862 94.272C111.359 94.5419 111.001 94.8824 110.706 94.8512C110.405 94.8194 110.167 94.4236 109.902 94.1871C110.206 93.9798 110.511 93.6082 110.811 93.611C111.122 93.6137 111.427 93.9795 111.862 94.272Z" fill="#E04C2D"/>
<path d="M107.051 94.1256C106.659 94.4773 106.462 94.8184 106.157 94.894C105.609 95.0288 105.394 94.7018 105.392 94.2994C105.391 93.9487 105.382 93.5296 105.993 93.5672C106.305 93.5864 106.59 93.8707 107.051 94.1256Z" fill="#E04C2D"/>
<path d="M101.369 93.367C101.75 93.7167 102.217 93.9586 102.209 94.1902C102.2 94.4314 101.734 94.663 101.468 94.8988C101.166 94.6901 100.662 94.5022 100.622 94.2662C100.583 94.0376 101.02 93.7588 101.369 93.367Z" fill="#E04C2D"/>
<path d="M96.8572 94.9405C95.8882 94.842 96.0041 94.3647 96.1118 94.0055C96.1679 93.8176 96.5777 93.5621 96.8225 93.5658C97.6068 93.5771 97.4842 94.0914 97.3909 94.4588C97.3397 94.6617 96.9991 94.8201 96.8572 94.9405Z" fill="#E04C2D"/>
<path d="M117.813 98.9171C118.195 99.2682 118.664 99.5111 118.654 99.7413C118.643 99.9836 118.176 100.214 117.908 100.45C117.608 100.24 117.106 100.052 117.065 99.8152C117.026 99.587 117.464 99.3089 117.813 98.9171Z" fill="#E04C2D"/>
<path d="M102.519 64.696C102.075 64.994 101.768 65.36 101.473 65.3546C101.165 65.3488 100.644 64.9953 100.627 64.775C100.61 64.5509 101.066 64.1441 101.367 64.1116C101.659 64.0801 102.017 64.4233 102.519 64.696Z" fill="#E04C2D"/>
<path d="M116.471 90.5489C115.978 91.0997 115.414 91.3642 114.941 90.9584C114.353 90.4548 114.899 90.0583 115.598 89.6819C115.875 89.9573 116.154 90.2344 116.471 90.5489Z" fill="#E04C2D"/>
<path d="M118.965 88.7119C118.467 88.9877 118.114 89.3319 117.821 89.3035C117.52 89.2737 117.056 88.8724 117.07 88.6497C117.084 88.4287 117.604 88.0632 117.904 88.0626C118.214 88.0619 118.524 88.4239 118.965 88.7119Z" fill="#E04C2D"/>
<path d="M97.7189 50.0366C97.3257 50.3883 97.1265 50.729 96.8204 50.8047C96.2691 50.9402 96.0615 50.6072 96.0602 50.2076C96.0593 49.859 96.0431 49.4372 96.6592 49.4775C96.9709 49.4974 97.2552 49.78 97.7189 50.0366Z" fill="#E04C2D"/>
<path d="M100.319 50.0979C100.817 49.8307 101.175 49.4909 101.468 49.522C101.767 49.5546 102.228 49.9651 102.204 50.1831C102.18 50.4092 101.658 50.7677 101.358 50.765C101.05 50.7623 100.747 50.3924 100.319 50.0979Z" fill="#E04C2D"/>
<path d="M106.13 51.179C105.756 50.6661 105.486 50.4314 105.415 50.1642C105.321 49.8149 105.435 49.4659 106.049 49.4471C106.653 49.4283 106.829 49.7427 106.751 50.1129C106.692 50.3887 106.454 50.6412 106.13 51.179Z" fill="#E04C2D"/>
<path d="M102.519 39.0134C102.068 39.307 101.753 39.6693 101.459 39.6597C101.151 39.6505 100.636 39.2892 100.626 39.0702C100.615 38.8441 101.078 38.4441 101.379 38.415C101.672 38.3866 102.023 38.7342 102.519 39.0134Z" fill="#E04C2D"/>
<path d="M102.519 31.7814C102.018 32.0521 101.661 32.3928 101.368 32.3617C101.067 32.3302 100.604 31.9214 100.626 31.7027C100.649 31.4762 101.164 31.1225 101.472 31.117C101.768 31.1115 102.075 31.481 102.519 31.7814Z" fill="#E04C2D"/>
<path d="M123.754 73.614C123.34 74.1912 123.138 74.4731 122.868 74.8495C122.553 74.6777 122.138 74.5703 122.048 74.3729C121.929 74.1118 122.066 73.78 122.092 73.4785C122.536 73.5148 122.98 73.5511 123.754 73.614Z" fill="#E04C2D"/>
<path d="M102.736 33.3412C103.155 33.1664 103.52 33.0138 103.875 32.866C104.525 33.2006 104.93 33.722 104.235 34.0744C103.487 34.4538 102.951 33.9964 102.736 33.3412Z" fill="#E04C2D"/>
<path d="M102.516 68.5155C102.068 68.8057 101.753 69.166 101.456 69.1577C101.15 69.1495 100.641 68.7882 100.628 68.5669C100.615 68.3452 101.083 67.9445 101.381 67.9189C101.676 67.8936 102.024 68.2388 102.516 68.5155Z" fill="#E04C2D"/>
<path d="M122.472 76.9706C122.814 77.0969 123.181 77.2327 123.676 77.4151C123.486 77.6741 123.387 78.0056 123.15 78.0853C122.821 78.1951 122.199 78.2413 122.036 78.0922C121.576 77.6717 121.886 77.2772 122.472 76.9706Z" fill="#E04C2D"/>
<path d="M115.668 76.6959C115.289 76.3497 114.82 76.1088 114.827 75.8765C114.834 75.6366 115.288 75.2316 115.571 75.2179C115.855 75.2039 116.375 75.5641 116.414 75.7985C116.452 76.028 116.015 76.3062 115.668 76.6959Z" fill="#E04C2D"/>
<path d="M111.856 68.571C111.355 68.845 111 69.1875 110.708 69.1574C110.407 69.1263 109.941 68.7205 109.961 68.5019C109.982 68.2761 110.494 67.9226 110.804 67.9137C111.098 67.9055 111.409 68.2726 111.856 68.571Z" fill="#E04C2D"/>
<path d="M101.454 82.2658C101.806 82.6562 102.243 82.9323 102.206 83.1612C102.168 83.3959 101.665 83.5848 101.366 83.7938C101.099 83.5605 100.631 83.3312 100.622 83.0917C100.614 82.8594 101.077 82.6169 101.454 82.2658Z" fill="#E04C2D"/>
<path d="M109.732 64.6446C110.218 64.4339 110.571 64.281 110.964 64.1109C111.567 64.3969 112.035 64.8687 111.402 65.2762C110.623 65.7774 110.207 65.1856 109.732 64.6446Z" fill="#E04C2D"/>
<path d="M106.479 82.401C106.684 82.8899 107.547 83.2867 106.6 83.6888C106.325 83.8054 105.597 83.7264 105.513 83.582C105.194 83.0336 105.555 82.6446 106.479 82.401Z" fill="#E04C2D"/>
<path d="M108.519 41.7012C108.128 41.3686 107.718 41.1787 107.66 40.9369C107.551 40.4815 108.044 40.4032 108.52 40.4038C108.997 40.4045 109.491 40.4825 109.38 40.9382C109.322 41.1798 108.911 41.369 108.519 41.7012Z" fill="#E04C2D"/>
<path d="M103.854 56.3134C103.49 56.157 103.128 56.001 102.616 55.7807C102.963 55.4792 103.178 55.1628 103.508 55.0482C103.746 54.9654 104.185 55.0964 104.445 55.2343C104.67 55.353 104.414 55.78 103.854 56.3134Z" fill="#E04C2D"/>
<path d="M119.18 66.7194C118.472 66.9497 118.138 67.1214 117.781 67.1594C117.288 67.212 116.929 67.0441 116.975 66.577C117.024 66.0803 117.505 66.043 117.926 66.1145C118.26 66.171 118.545 66.4015 119.18 66.7194Z" fill="#E04C2D"/>
<path d="M120.632 69.3103C119.926 69.0028 119.567 68.8464 119.065 68.6274C119.347 68.3561 119.514 68.0431 119.773 67.9849C120.113 67.9089 120.527 68.0342 120.909 68.0728C120.831 68.4201 120.753 68.767 120.632 69.3103Z" fill="#E04C2D"/>
<path d="M101.365 41.9807C101.748 42.3301 102.218 42.5712 102.209 42.8015C102.2 43.0444 101.735 43.2771 101.468 43.5142C101.167 43.3048 100.665 43.1173 100.623 42.8795C100.583 42.652 101.019 42.3725 101.365 41.9807Z" fill="#E04C2D"/>
<path d="M102.522 57.4061C102.071 57.7027 101.76 58.0664 101.465 58.0586C101.157 58.05 100.864 57.6849 100.564 57.4756C100.832 57.2416 101.073 56.8491 101.375 56.8187C101.667 56.7889 102.021 57.1317 102.522 57.4061Z" fill="#E04C2D"/>
<path d="M115.73 82.311C116.02 82.7281 116.236 83.0377 116.425 83.3093C115.976 83.8058 115.376 84.0798 114.944 83.6587C114.31 83.0408 115.024 82.7127 115.73 82.311Z" fill="#E04C2D"/>
<path d="M111.855 57.3925C111.416 57.6936 111.112 58.0641 110.818 58.0603C110.508 58.0559 109.987 57.7059 109.964 57.4818C109.942 57.2618 110.404 56.8447 110.699 56.8177C111.003 56.79 111.361 57.129 111.855 57.3925Z" fill="#E04C2D"/>
<path d="M96.7963 32.7787C96.4228 32.2669 96.1523 32.0325 96.0818 31.766C95.9907 31.4191 96.0957 31.065 96.7127 31.0468C97.3135 31.0294 97.4961 31.3417 97.4186 31.713C97.3612 31.988 97.1212 32.2405 96.7963 32.7787Z" fill="#E04C2D"/>
<path d="M114.166 70.3808C113.703 70.6408 113.421 70.9241 113.108 70.9481C112.482 70.9963 112.501 70.5693 112.501 70.2221C112.502 69.8283 112.691 69.4831 113.257 69.6223C113.564 69.6983 113.767 70.0332 114.166 70.3808Z" fill="#E04C2D"/>
<path d="M100.287 44.6288C99.7839 44.8995 99.4261 45.2403 99.131 45.2098C98.831 45.179 98.5933 44.7821 98.3284 44.5454C98.6314 44.3391 98.9379 43.9685 99.2374 43.972C99.5496 43.9754 99.8548 44.3394 100.287 44.6288Z" fill="#E04C2D"/>
<path d="M119.275 83.3131C119.505 82.9915 119.704 82.7137 119.926 82.4023C120.783 82.6572 121.345 83.0462 120.786 83.6453C120.384 84.075 119.765 83.815 119.275 83.3131Z" fill="#E04C2D"/>
<path d="M103.706 43.7345C104.046 44.1215 104.481 44.4013 104.442 44.6306C104.401 44.8636 103.873 45.2225 103.594 45.2036C103.304 45.1845 102.852 44.7808 102.848 44.5416C102.844 44.31 103.321 44.0739 103.706 43.7345Z" fill="#E04C2D"/>
<path d="M109.626 44.6281C109.124 44.8991 108.767 45.2399 108.472 45.2098C108.172 45.1793 107.933 44.7831 107.667 44.5467C107.97 44.3397 108.275 43.9682 108.574 43.9712C108.886 43.9743 109.192 44.3383 109.626 44.6281Z" fill="#E04C2D"/>
<path d="M102.689 77.4424C103.147 77.2512 103.458 77.1215 103.811 76.9747C104.469 77.204 104.809 77.5721 104.365 78.1123C104.059 78.4842 103.582 78.3039 102.689 77.4424Z" fill="#E04C2D"/>
<path d="M101.478 47.1952C101.093 46.8541 100.62 46.6183 100.623 46.3867C100.626 46.1455 101.089 45.9077 101.35 45.6689C101.655 45.8739 102.164 46.0566 102.208 46.2916C102.25 46.5201 101.817 46.8031 101.478 47.1952Z" fill="#E04C2D"/>
<path d="M102.697 30.1231C103.064 29.4295 103.622 29.0467 104.245 29.4101C104.947 29.8199 104.473 30.2866 103.893 30.6363C103.517 30.4751 103.152 30.3184 102.697 30.1231Z" fill="#E04C2D"/>
<path d="M111.859 75.8721C111.357 76.143 111.001 76.4835 110.708 76.4527C110.406 76.4215 110.167 76.0271 109.9 75.7917C110.203 75.584 110.507 75.2124 110.807 75.2145C111.117 75.2169 111.424 75.5809 111.859 75.8721Z" fill="#E04C2D"/>
<path d="M126.068 83.0993C125.616 83.3949 125.304 83.7586 125.008 83.7497C124.698 83.7408 124.405 83.3761 124.104 83.1667C124.374 82.9323 124.622 82.5338 124.92 82.5088C125.223 82.4835 125.576 82.8277 126.068 83.0993Z" fill="#E04C2D"/>
<path d="M108.459 84.2735C108.878 84.5954 109.298 84.7692 109.375 85.0101C109.518 85.4597 109.045 85.5681 108.558 85.5739C108.09 85.5791 107.584 85.5294 107.665 85.0672C107.707 84.8253 108.096 84.6201 108.459 84.2735Z" fill="#E04C2D"/>
<path d="M109.623 62.949C109.179 63.2463 108.871 63.6128 108.575 63.6066C108.265 63.6008 107.967 63.2364 107.664 63.0291C107.931 62.7927 108.174 62.3913 108.471 62.3657C108.774 62.3387 109.13 62.6812 109.623 62.949Z" fill="#E04C2D"/>
<path d="M112.217 62.987C112.643 62.6804 112.886 62.3595 113.195 62.3144C113.775 62.2299 113.881 62.6134 113.881 62.9873C113.88 63.3599 113.778 63.7448 113.195 63.6579C112.886 63.6117 112.643 63.2925 112.217 62.987Z" fill="#E04C2D"/>
<path d="M118.969 63.0134C118.472 63.2898 118.121 63.6337 117.826 63.6063C117.525 63.5782 117.057 63.1783 117.071 62.9572C117.085 62.7345 117.596 62.3739 117.903 62.365C118.2 62.3565 118.515 62.7184 118.969 63.0134Z" fill="#E04C2D"/>
<path d="M118.767 84.9461C118.641 85.6988 118.037 85.6218 117.572 85.5325C117.329 85.4863 117.004 85.1685 117.007 84.9759C117.016 84.3583 117.68 84.463 118.147 84.5325C118.407 84.5708 118.612 84.8356 118.767 84.9461Z" fill="#E04C2D"/>
<path d="M101.369 87.7978C101.021 87.4057 100.584 87.1272 100.623 86.8977C100.663 86.6626 101.168 86.4758 101.47 86.2678C101.735 86.5039 102.211 86.7413 102.209 86.976C102.207 87.2182 101.74 87.4581 101.369 87.7978Z" fill="#E04C2D"/>
<path d="M110.955 45.7011C111.607 46.0391 112.019 46.5188 111.352 46.9191C110.732 47.2909 110.178 46.9078 109.817 46.2331C110.189 46.0593 110.571 45.881 110.955 45.7011Z" fill="#E04C2D"/>
<path d="M116.443 105.14C115.976 105.337 116.371 106.238 115.299 105.897C114.789 105.735 114.493 105.275 114.812 104.926C115.32 104.369 115.897 104.622 116.443 105.14Z" fill="#E04C2D"/>
<path d="M119.913 106.083C119.668 105.725 119.502 105.482 119.313 105.205C119.61 104.696 120.079 104.426 120.771 104.774C121.245 105.013 121.014 105.386 119.913 106.083Z" fill="#E04C2D"/>
<path d="M126.059 86.9024C125.617 87.196 125.307 87.561 125.011 87.5546C124.703 87.5474 124.186 87.1888 124.172 86.9688C124.158 86.7433 124.619 86.34 124.92 86.3099C125.212 86.2812 125.565 86.6277 126.059 86.9024Z" fill="#E04C2D"/>
<path d="M116.761 81.34C117.261 81.0731 117.621 80.7337 117.914 80.7662C118.214 80.7994 118.674 81.2117 118.649 81.4303C118.624 81.6561 118.105 82.0065 117.796 82.0102C117.5 82.0137 117.197 81.6414 116.761 81.34Z" fill="#E04C2D"/>
<path d="M100.284 107.043C99.8382 107.339 99.5287 107.703 99.2327 107.697C98.9231 107.689 98.6266 107.326 98.3244 107.118C98.592 106.883 98.8328 106.489 99.135 106.458C99.4279 106.428 99.7839 106.77 100.284 107.043Z" fill="#E04C2D"/>
<path d="M104.749 107.03C104.311 107.33 104.009 107.699 103.712 107.697C103.403 107.694 103.1 107.332 102.794 107.127C103.058 106.889 103.292 106.492 103.594 106.457C103.885 106.424 104.248 106.764 104.749 107.03Z" fill="#E04C2D"/>
<path d="M108.484 107.94C108.13 107.551 107.69 107.276 107.726 107.048C107.763 106.813 108.277 106.448 108.561 106.46C108.846 106.473 109.304 106.873 109.315 107.114C109.325 107.345 108.86 107.589 108.484 107.94Z" fill="#E04C2D"/>
<path d="M114.159 107.079C113.735 107.384 113.492 107.703 113.182 107.749C112.601 107.834 112.499 107.45 112.499 107.078C112.499 106.705 112.602 106.321 113.182 106.406C113.491 106.451 113.735 106.773 114.159 107.079Z" fill="#E04C2D"/>
<path d="M118.97 107.103C118.47 107.381 118.12 107.724 117.827 107.696C117.525 107.668 117.278 107.278 117.008 107.047C117.305 106.835 117.594 106.466 117.901 106.456C118.197 106.446 118.513 106.808 118.97 107.103Z" fill="#E04C2D"/>
<path d="M122.679 106.222C123.06 106.565 123.53 106.804 123.525 107.036C123.518 107.275 123.061 107.68 122.778 107.693C122.491 107.706 121.97 107.347 121.931 107.114C121.893 106.885 122.333 106.607 122.679 106.222Z" fill="#E04C2D"/>
<path d="M133.169 107.042C132.725 107.338 132.417 107.703 132.122 107.697C131.812 107.69 131.515 107.327 131.213 107.119C131.479 106.884 131.719 106.489 132.02 106.457C132.313 106.427 132.669 106.769 133.169 107.042Z" fill="#E04C2D"/>
<path d="M137.71 106.994C137.31 107.336 137.102 107.671 136.795 107.742C136.232 107.872 136.049 107.523 136.05 107.132C136.05 106.782 136.048 106.36 136.665 106.412C136.977 106.438 137.254 106.728 137.71 106.994Z" fill="#E04C2D"/>
<path d="M102.52 108.787C102.077 109.084 101.77 109.451 101.472 109.446C101.165 109.441 100.645 109.087 100.627 108.866C100.609 108.643 101.072 108.23 101.367 108.205C101.671 108.179 102.026 108.52 102.52 108.787Z" fill="#E04C2D"/>
<path d="M124.935 107.961C125.306 108.317 125.766 108.565 125.752 108.796C125.738 109.037 125.273 109.437 124.994 109.444C124.704 109.45 124.195 109.085 124.162 108.849C124.128 108.619 124.575 108.347 124.935 107.961Z" fill="#E04C2D"/>
<path d="M133.442 108.654C133.809 108.501 134.175 108.348 134.53 108.2C135.172 108.538 135.514 108.951 134.903 109.437C134.533 109.732 134.006 109.435 133.442 108.654Z" fill="#E04C2D"/>
<path d="M109.626 88.7174C109.125 88.9904 108.77 89.3332 108.475 89.3038C108.175 89.274 107.935 88.8782 107.668 88.6421C107.97 88.4345 108.267 88.0687 108.574 88.0639C108.873 88.0588 109.182 88.4229 109.626 88.7174Z" fill="#E04C2D"/>
<path d="M109.848 110.768C109.155 111.019 108.831 111.203 108.478 111.248C108.002 111.307 107.603 111.169 107.632 110.696C107.66 110.216 108.108 110.129 108.554 110.203C108.894 110.258 109.193 110.472 109.848 110.768Z" fill="#E04C2D"/>
<path d="M119.18 110.811C118.472 111.04 118.138 111.21 117.781 111.248C117.288 111.301 116.928 111.135 116.975 110.668C117.024 110.173 117.504 110.133 117.926 110.205C118.26 110.262 118.545 110.493 119.18 110.811Z" fill="#E04C2D"/>
<path d="M102.516 112.587C102.075 112.887 101.769 113.255 101.473 113.25C101.165 113.246 100.865 112.881 100.562 112.674C100.828 112.438 101.066 112.043 101.367 112.011C101.659 111.979 102.018 112.319 102.516 112.587Z" fill="#E04C2D"/>
<path d="M101.462 76.6929C101.084 76.348 100.616 76.1078 100.623 75.8766C100.631 75.6364 101.085 75.2303 101.367 75.2183C101.653 75.206 102.171 75.5642 102.211 75.7992C102.25 76.0267 101.81 76.3049 101.462 76.6929Z" fill="#E04C2D"/>
<path d="M116.502 112.228C116.246 112.677 116.083 112.964 115.908 113.273C115.19 113.305 114.819 113.026 114.756 112.534C114.733 112.358 114.968 111.999 115.071 112.002C115.517 112.015 115.957 112.131 116.502 112.228Z" fill="#E04C2D"/>
<path d="M119.972 113.423C119.704 113.045 119.505 112.768 119.287 112.461C119.659 111.998 120.265 111.628 120.783 112.12C121.42 112.723 120.681 113.06 119.972 113.423Z" fill="#E04C2D"/>
<path d="M126.065 112.674C125.561 112.943 125.201 113.284 124.909 113.251C124.607 113.217 124.372 112.82 124.107 112.582C124.412 112.376 124.714 112.013 125.022 112.01C125.321 112.008 125.625 112.375 126.065 112.674Z" fill="#E04C2D"/>
<path d="M101.457 23.5787C101.807 23.9705 102.245 24.2469 102.207 24.4762C102.169 24.7119 101.651 25.0756 101.371 25.0609C101.083 25.0458 100.627 24.6459 100.618 24.405C100.608 24.1737 101.076 23.9304 101.457 23.5787Z" fill="#E04C2D"/>
<path d="M126.131 79.7864C125.415 79.875 124.956 80.0027 124.531 79.952C124.35 79.9301 124.076 79.5069 124.131 79.3173C124.293 78.7607 124.938 78.9003 125.389 79.0005C125.626 79.0529 125.764 79.3796 126.131 79.7864Z" fill="#E04C2D"/>
<path d="M114.164 88.5925C113.763 88.9384 113.556 89.2761 113.248 89.3469C112.689 89.4759 112.498 89.1314 112.501 88.7379C112.505 88.391 112.489 87.9647 113.114 88.0184C113.428 88.0451 113.705 88.3298 114.164 88.5925Z" fill="#E04C2D"/>
<path d="M109.438 48.1689C109.279 48.9072 108.673 48.8162 108.215 48.73C107.979 48.6851 107.661 48.3564 107.671 48.1651C107.701 47.5534 108.363 47.6611 108.828 47.7347C109.086 47.7754 109.283 48.0515 109.438 48.1689Z" fill="#E04C2D"/>
<path d="M116.42 68.3715C116.219 68.6565 116.021 68.9381 115.748 69.3261C115.402 69.119 115.079 68.9969 114.889 68.7975C114.538 68.4287 114.907 68.1676 115.258 67.9835C115.863 67.6667 116.137 68.0554 116.42 68.3715Z" fill="#E04C2D"/>
<path d="M107.142 72.138C106.711 72.6608 106.164 72.9646 105.651 72.5958C104.988 72.1178 105.541 71.7179 106.09 71.3542C106.43 71.6074 106.738 71.8373 107.142 72.138Z" fill="#E04C2D"/>
<path d="M119.156 72.1C119.499 71.8574 119.816 71.6334 120.17 71.3829C120.876 71.6501 121.312 72.0439 120.803 72.5338C120.361 72.9602 119.776 72.7172 119.156 72.1Z" fill="#E04C2D"/>
<path d="M100.415 71.8554C100.827 71.7514 101.029 71.6598 101.231 71.6587C101.647 71.6563 102.183 71.5667 102.264 72.0484C102.296 72.2403 102.105 72.63 102.025 72.6283C101.626 72.6194 101.213 72.5435 100.84 72.4237C100.691 72.3758 100.631 72.1575 100.415 71.8554Z" fill="#E04C2D"/>
<path d="M114.271 73.977C113.896 74.3068 113.611 74.5559 113.367 74.7707C112.596 74.4809 112.229 73.9151 112.582 73.6328C113.202 73.1377 113.73 73.4056 114.271 73.977Z" fill="#E04C2D"/>
<path d="M116.476 108.936C116.046 109.46 115.498 109.766 114.991 109.39C114.379 108.936 114.783 108.495 115.457 108.178C115.764 108.406 116.072 108.635 116.476 108.936Z" fill="#E04C2D"/>
<path d="M96.2419 74.9877C96.7424 75.2939 97.1255 75.4489 97.3462 75.6935C97.4723 75.8331 97.4311 76.1773 97.2879 76.3207C97.1522 76.4561 96.7486 76.5355 96.5287 76.4801C96.3282 76.4298 96.118 76.1756 96.0873 75.9932C96.0435 75.7325 96.1591 75.4554 96.2419 74.9877Z" fill="#E04C2D"/>
<path d="M106.717 75.244C106.717 75.5728 106.787 75.9159 106.684 76.2235C106.639 76.3607 106.169 76.5509 106.024 76.4976C105.764 76.4007 105.387 76.0802 105.442 75.9584C105.589 75.6313 105.939 75.36 106.208 75.0668C106.377 75.1256 106.547 75.1848 106.717 75.244Z" fill="#E04C2D"/>
<path d="M99.1445 76.8632C99.4436 77.1051 99.7813 77.3774 100.09 77.6275C99.5781 78.2512 98.9909 78.5526 98.4317 78.0542C97.9794 77.6501 98.3931 77.2231 99.1445 76.8632Z" fill="#E04C2D"/>
<path d="M112.996 76.6768C113.658 77.1972 113.959 77.4336 114.37 77.7566C113.904 77.9666 113.58 78.1774 113.21 78.2527C113.032 78.2889 112.57 78.0583 112.579 77.969C112.613 77.6207 112.784 77.281 112.996 76.6768Z" fill="#E04C2D"/>
<path d="M109.893 79.8141C109.953 79.5999 109.95 79.4788 110.017 79.3902C110.318 78.995 110.786 78.8229 111.32 79.0108C111.497 79.073 111.639 79.4045 111.603 79.5893C111.486 80.1764 110.871 80.0043 110.389 79.9883C110.258 79.9841 110.132 79.901 109.893 79.8141Z" fill="#E04C2D"/>
<path d="M96.2336 82.285C96.7371 82.5888 97.1216 82.7417 97.3445 82.985C97.4724 83.1242 97.4351 83.4691 97.2924 83.6135C97.1584 83.7493 96.7556 83.8297 96.5331 83.7763C96.333 83.7278 96.1197 83.4753 96.0878 83.294C96.0422 83.0326 96.1552 82.7541 96.2336 82.285Z" fill="#E04C2D"/>
<path d="M127.29 85.9284C126.98 85.6567 126.696 85.408 126.388 85.138C126.703 84.5619 127.222 84.2482 127.845 84.6344C128.413 84.9868 128.063 85.433 127.29 85.9284Z" fill="#E04C2D"/>
<path d="M116.424 86.7539C116.23 87.0314 116.032 87.314 115.769 87.69C115.454 87.5231 115.129 87.4132 114.919 87.2251C114.527 86.872 114.877 86.6017 115.215 86.3974C115.809 86.0382 116.099 86.4221 116.424 86.7539Z" fill="#E04C2D"/>
<path d="M119.225 86.8183C119.716 86.2736 120.252 86.004 120.765 86.394C121.281 86.7854 120.959 87.2097 120.293 87.5768C119.977 87.3527 119.637 87.1108 119.225 86.8183Z" fill="#E04C2D"/>
<path d="M119.156 90.4897C119.528 90.2499 119.858 90.037 120.22 89.8041C120.899 90.0542 121.314 90.4651 120.786 90.9471C120.327 91.3659 119.751 91.1039 119.156 90.4897Z" fill="#E04C2D"/>
<path d="M100.121 92.4272C99.7646 92.6482 99.4296 92.8565 99.0267 93.1066C98.4019 92.8658 97.9601 92.4792 98.4633 91.9848C98.9086 91.5468 99.4861 91.7929 100.121 92.4272Z" fill="#E04C2D"/>
<path d="M102.81 92.3697C103.222 91.8312 103.791 91.5181 104.372 91.9913C104.854 92.3847 104.459 92.8165 103.838 93.1347C103.505 92.8867 103.156 92.628 102.81 92.3697Z" fill="#E04C2D"/>
<path d="M113.243 93.1416C112.557 92.8207 112.148 92.3773 112.757 91.9215C113.26 91.5445 113.813 91.8592 114.226 92.3389C113.906 92.6 113.574 92.8713 113.243 93.1416Z" fill="#E04C2D"/>
<path d="M123.65 92.4573C123.315 92.6742 122.938 92.9178 122.572 93.1546C121.886 92.7981 121.482 92.3407 122.121 91.9027C122.636 91.5503 123.186 91.875 123.65 92.4573Z" fill="#E04C2D"/>
<path d="M127.284 93.2206C126.981 92.9517 126.7 92.7016 126.382 92.4183C126.71 91.8716 127.21 91.537 127.841 91.928C128.407 92.2787 128.076 92.7259 127.284 93.2206Z" fill="#E04C2D"/>
<path d="M114.26 96.0976C113.762 96.6307 113.23 96.9123 112.716 96.5171C112.206 96.1257 112.524 95.7004 113.194 95.3364C113.509 95.5608 113.85 95.8048 114.26 96.0976Z" fill="#E04C2D"/>
<path d="M116.884 95.8698C117.579 95.58 118.127 95.0541 118.593 95.7593C118.705 95.9286 118.432 96.4264 118.17 96.5393C117.456 96.8473 117.239 96.3536 116.884 95.8698Z" fill="#E04C2D"/>
<path d="M126.341 96.0849C126.643 95.803 126.955 95.5119 127.23 95.2546C127.993 95.6357 128.402 96.0606 127.932 96.4609C127.357 96.9512 126.785 96.6289 126.341 96.0849Z" fill="#E04C2D"/>
<path d="M120.486 98.9308C119.831 98.4197 119.529 98.1843 119.116 97.8626C119.577 97.6536 119.9 97.4418 120.269 97.3666C120.449 97.3303 120.914 97.5616 120.905 97.6492C120.869 97.9985 120.696 98.3389 120.486 98.9308Z" fill="#E04C2D"/>
<path d="M126.76 100.387C126.76 100.061 126.69 99.7201 126.791 99.4136C126.837 99.2716 127.285 99.0687 127.428 99.117C127.695 99.2069 128.095 99.5142 128.047 99.6336C127.915 99.9593 127.577 100.234 127.321 100.529C127.134 100.482 126.947 100.435 126.76 100.387Z" fill="#E04C2D"/>
<path d="M100.088 103.372C99.4502 103.989 98.8871 104.209 98.4334 103.758C98.0008 103.327 98.3941 102.925 99.1459 102.549C99.4349 102.802 99.7598 103.085 100.088 103.372Z" fill="#E04C2D"/>
<path d="M102.801 103.392C103.101 103.102 103.407 102.807 103.677 102.545C104.448 102.932 104.852 103.365 104.382 103.76C103.808 104.243 103.229 103.925 102.801 103.392Z" fill="#E04C2D"/>
<path d="M113.319 102.554C113.613 102.838 113.883 103.099 114.203 103.407C113.854 103.876 113.353 104.238 112.729 103.816C112.208 103.463 112.509 103.007 113.319 102.554Z" fill="#E04C2D"/>
<path d="M123.591 103.384C123.086 103.952 122.54 104.2 122.04 103.802C121.54 103.403 121.883 102.983 122.529 102.627C122.852 102.857 123.198 103.104 123.591 103.384Z" fill="#E04C2D"/>
<path d="M126.267 103.334C126.606 103.102 126.927 102.883 127.301 102.628C127.968 102.898 128.423 103.279 127.913 103.775C127.467 104.21 126.89 103.97 126.267 103.334Z" fill="#E04C2D"/>
<path d="M133.331 103.051C132.702 103.491 132.405 103.793 132.013 103.928C131.842 103.987 131.314 103.741 131.246 103.564C131.183 103.397 131.461 103 131.678 102.952C132.048 102.872 132.488 102.985 133.331 103.051Z" fill="#E04C2D"/>
<path d="M102.713 59.241C103.068 59.0158 103.401 58.8044 103.785 58.5608C104.446 58.8 104.867 59.1996 104.36 59.6881C103.914 60.1185 103.332 59.876 102.713 59.241Z" fill="#E04C2D"/>
<path d="M96.2283 12.6589C97.0782 12.7575 97.4889 13.0312 97.3978 13.5789C97.3707 13.7424 97.0835 13.9724 96.8764 14.0015C96.6487 14.0336 96.1758 13.8892 96.1587 13.7859C96.0987 13.4297 96.1911 13.0578 96.2283 12.6589Z" fill="#E04C2D"/>
<path d="M99.0308 23.3796C98.3372 22.993 97.9882 22.5735 98.4891 22.1743C98.987 21.7771 99.5326 22.0299 100.01 22.54C99.7152 22.7929 99.4034 23.0604 99.0308 23.3796Z" fill="#E04C2D"/>
<path d="M100.341 29.6752C99.7059 30.209 99.4156 30.4529 99.0394 30.7683C98.7207 30.4553 98.3887 30.2675 98.3419 30.0437C98.2968 29.8278 98.5443 29.3738 98.6664 29.3731C99.1065 29.3704 99.5483 29.5151 100.341 29.6752Z" fill="#E04C2D"/>
<path d="M98.1392 33.1923H99.9003C99.9612 33.3788 100.065 33.5105 100.019 33.5868C99.74 34.0535 99.2637 34.3433 98.6195 34.1154C98.3997 34.0378 98.3617 33.6467 98.1392 33.1923Z" fill="#E04C2D"/>
<path d="M102.166 35.8867C101.746 35.8867 101.307 35.9418 100.913 35.8617C100.738 35.8258 100.496 35.458 100.565 35.3451C100.689 35.1408 101.098 34.8466 101.256 34.889C101.668 34.9999 102.009 35.2726 102.378 35.4809C102.307 35.6164 102.237 35.7512 102.166 35.8867Z" fill="#E04C2D"/>
<path d="M96.1995 38.2709C97.2035 38.5368 97.6225 38.869 97.3559 39.389C97.2552 39.5861 96.7197 39.6477 96.1995 39.8376V38.2709Z" fill="#E04C2D"/>
<path d="M106.725 38.4325C106.725 38.7596 106.795 39.101 106.694 39.4075C106.647 39.5506 106.198 39.7538 106.055 39.7059C105.788 39.6162 105.389 39.3073 105.438 39.1883C105.573 38.8585 105.911 38.5786 106.169 38.2792C106.354 38.3305 106.539 38.3815 106.725 38.4325Z" fill="#E04C2D"/>
<path d="M96.2432 43.8225C96.1683 43.1724 96.0273 42.8231 96.1337 42.5285C96.1941 42.3622 96.717 42.1522 96.9311 42.2062C97.157 42.263 97.4622 42.6818 97.3825 42.8156C97.2004 43.1214 96.805 43.3496 96.2432 43.8225Z" fill="#E04C2D"/>
<path d="M106.593 43.5378C105.744 43.4297 105.337 43.1495 105.433 42.6024C105.461 42.4399 105.755 42.2134 105.963 42.1874C106.193 42.158 106.667 42.3054 106.683 42.4084C106.736 42.7663 106.637 43.1382 106.593 43.5378Z" fill="#E04C2D"/>
<path d="M113.308 51.169C113.628 51.4325 113.921 51.6744 114.25 51.9453C113.857 52.4897 113.362 52.8527 112.734 52.4315C112.211 52.0798 112.503 51.622 113.308 51.169Z" fill="#E04C2D"/>
<path d="M102.291 53.384C102.164 54.0491 101.813 54.369 101.112 54.2975C100.903 54.2756 100.61 54.0505 100.573 53.8883C100.533 53.7104 100.718 53.3416 100.85 53.3279C101.308 53.2824 101.786 53.3546 102.291 53.384Z" fill="#E04C2D"/>
<path d="M107.218 53.8866C106.857 54.1052 106.518 54.3109 106.112 54.5565C105.499 54.3297 105.069 53.9338 105.571 53.4436C106.016 53.0094 106.596 53.2543 107.218 53.8866Z" fill="#E04C2D"/>
<path d="M109.635 109.148C110.248 108.612 110.532 108.365 110.898 108.044C111.221 108.373 111.549 108.566 111.593 108.792C111.635 109.005 111.377 109.45 111.25 109.45C110.812 109.451 110.373 109.303 109.635 109.148Z" fill="#E04C2D"/>
<path d="M120.234 108.154C120.946 108.532 121.271 108.956 120.781 109.354C120.279 109.76 119.739 109.496 119.264 108.985C119.553 108.738 119.864 108.471 120.234 108.154Z" fill="#E04C2D"/>
<path d="M111.158 54.8497C110.482 54.356 110.17 54.1285 109.769 53.8363C110.169 53.59 110.41 53.3306 110.699 53.2943C110.975 53.2591 111.558 53.4562 111.558 53.5486C111.554 53.8952 111.367 54.2404 111.158 54.8497Z" fill="#E04C2D"/>
<path d="M114.321 55.6277C113.948 55.8648 113.616 56.0756 113.24 56.314C112.591 56.0568 112.163 55.6544 112.701 55.1689C113.166 54.7502 113.735 55.0167 114.321 55.6277Z" fill="#E04C2D"/>
<path d="M96.3216 56.7664C96.597 56.8139 96.7516 56.8126 96.8659 56.8645C97.3774 57.0986 97.5857 57.4674 97.3466 57.8827C97.2674 58.0206 96.8423 58.1322 96.6062 58.1031C95.8579 58.009 96.0764 57.5293 96.0965 57.1516C96.1022 57.05 96.2095 56.9515 96.3216 56.7664Z" fill="#E04C2D"/>
<path d="M106.53 56.4376C106.638 57.0945 106.796 57.4294 106.702 57.7137C106.645 57.8896 106.163 58.126 105.95 58.0853C105.721 58.0415 105.378 57.6409 105.446 57.5095C105.607 57.1985 105.981 56.9549 106.53 56.4376Z" fill="#E04C2D"/>
<path d="M115.709 56.5717C116.041 57.0664 116.232 57.3514 116.417 57.6271C116.028 58.0637 115.615 58.3596 115.046 57.8512C114.347 57.2268 115.1 57.0376 115.709 56.5717Z" fill="#E04C2D"/>
<path d="M132.813 111.222C132.393 111.222 131.954 111.277 131.56 111.196C131.387 111.161 131.149 110.791 131.219 110.676C131.344 110.474 131.754 110.184 131.914 110.227C132.323 110.336 132.66 110.61 133.026 110.818C132.955 110.952 132.885 111.087 132.813 111.222Z" fill="#E04C2D"/>
<path d="M96.2704 113.422C96.1749 113.067 96.0309 112.84 96.0813 112.642C96.1426 112.401 96.3059 112.122 96.5441 111.983C96.6802 111.904 97.2307 112.024 97.2806 112.138C97.3835 112.374 97.3796 112.712 97.2263 112.921C97.0779 113.123 96.6859 113.216 96.2704 113.422Z" fill="#E04C2D"/>
<path d="M99.0991 58.4619C99.4231 58.7295 99.7161 58.9714 100.032 59.2321C99.6473 59.8 99.1389 60.1442 98.5158 59.7234C97.9847 59.3645 98.3052 58.9142 99.0991 58.4619Z" fill="#E04C2D"/>
<path d="M106.504 113.303C106.228 113.255 106.072 113.257 105.96 113.204C105.456 112.965 105.24 112.598 105.485 112.182C105.566 112.044 105.993 111.933 106.227 111.965C106.965 112.065 106.759 112.54 106.732 112.919C106.725 113.021 106.617 113.119 106.504 113.303Z" fill="#E04C2D"/>
<path d="M112.977 58.2704C113.661 58.7678 113.974 58.995 114.379 59.2896C113.979 59.538 113.739 59.7966 113.453 59.8339C113.176 59.8698 112.595 59.6789 112.594 59.5845C112.59 59.2407 112.773 58.8955 112.977 58.2704Z" fill="#E04C2D"/>
<path d="M107.229 61.1764C106.859 61.4033 106.521 61.6103 106.119 61.8563C105.5 61.6215 105.065 61.2277 105.574 60.7371C106.02 60.3084 106.599 60.5568 107.229 61.1764Z" fill="#E04C2D"/>
<path d="M109.886 61.1039C110.452 60.549 111.005 60.3112 111.48 60.7416C111.949 61.1685 111.525 61.5624 110.967 61.9083C110.612 61.6438 110.264 61.3851 109.886 61.1039Z" fill="#E04C2D"/>
<path d="M116.74 60.9312C116.1 61.4447 115.803 61.6832 115.43 61.9822C115.152 61.6944 114.824 61.4977 114.78 61.2681C114.739 61.0577 115.007 60.6157 115.135 60.6164C115.574 60.6194 116.011 60.772 116.74 60.9312Z" fill="#E04C2D"/>
<path d="M130.29 111.859C130.234 112.472 130.197 112.878 130.152 113.367C129.231 113.162 128.737 112.851 129.033 112.236C129.119 112.058 129.697 112.025 130.29 111.859Z" fill="#E04C2D"/>
<path d="M106.202 64.0059C106.5 64.2717 106.781 64.5222 107.117 64.8219C106.761 65.3251 106.283 65.6929 105.644 65.293C105.085 64.944 105.395 64.4938 106.202 64.0059Z" fill="#E04C2D"/>
<path d="M115.481 64.0644C115.844 64.3012 116.217 64.5441 116.546 64.7586C116.06 65.358 115.514 65.6734 115.003 65.3077C114.374 64.8581 114.793 64.4124 115.481 64.0644Z" fill="#E04C2D"/>
<path d="M99.0548 67.5093C98.2649 67.0026 97.9733 66.563 98.5591 66.2085C99.1078 65.8766 99.6323 66.1668 100.097 66.773C99.7816 66.9961 99.4204 67.2513 99.0548 67.5093Z" fill="#E04C2D"/>
<path d="M96.2983 69.5364C96.1911 68.8819 96.0339 68.548 96.1268 68.2637C96.1846 68.0882 96.6657 67.8518 96.8785 67.8925C97.1075 67.9363 97.45 68.3366 97.3821 68.4673C97.221 68.778 96.847 69.0212 96.2983 69.5364Z" fill="#E04C2D"/>
<path d="M107.093 97.848C106.723 98.4012 106.213 98.6291 105.539 98.212C105.391 98.1207 105.354 97.6957 105.485 97.5921C106.135 97.0754 106.644 97.3717 107.093 97.848Z" fill="#E04C2D"/>
<path d="M106.082 89.7873C106.75 90.1534 107.03 90.5455 106.531 90.9803C106.39 91.1035 105.729 91.0836 105.596 90.9516C105.135 90.4931 105.456 90.1116 106.082 89.7873Z" fill="#E04C2D"/>
<path d="M102.825 48.2483C103.254 47.7313 103.75 47.4983 104.331 47.8617C104.497 47.9657 104.512 48.4843 104.351 48.5938C103.787 48.9784 103.288 48.7488 102.825 48.2483Z" fill="#E04C2D"/>
<path d="M96.7477 20.0052C97.3936 20.3227 97.736 20.7223 97.1431 21.2434C97.0196 21.3522 96.4736 21.3532 96.3527 21.2461C95.7699 20.7271 96.0918 20.3224 96.7477 20.0052Z" fill="#E04C2D"/>
<path d="M96.7293 64.0927C97.3795 64.415 97.6939 64.7951 97.2328 65.2536C97.0984 65.3874 96.4408 65.4123 96.2997 65.2905C95.7962 64.856 96.086 64.4657 96.7293 64.0927Z" fill="#E04C2D"/>
<path d="M96.7551 45.7007C97.4036 46.061 97.7062 46.4487 97.1973 46.8869C97.0524 47.0121 96.3916 46.9964 96.262 46.8661C95.811 46.4114 96.1053 46.0244 96.7551 45.7007Z" fill="#E04C2D"/>
<path d="M129.639 89.7869C130.292 90.1513 130.585 90.5424 130.078 90.9796C129.934 91.1038 129.271 91.0853 129.141 90.9539C128.688 90.4965 128.986 90.1089 129.639 89.7869Z" fill="#E04C2D"/>
<path d="M116.444 72.175C116.021 72.7001 115.505 72.9574 114.845 72.4901C114.709 72.3936 114.715 71.9752 114.856 71.8736C115.542 71.3747 116.018 71.7305 116.444 72.175Z" fill="#E04C2D"/>
<path d="M96.746 61.8809C96.0826 61.5145 95.7967 61.1238 96.2999 60.6882C96.4417 60.5654 97.1006 60.5859 97.2338 60.718C97.6935 61.1761 97.3774 61.5583 96.746 61.8809Z" fill="#E04C2D"/>
<path d="M99.9762 85.0484C99.5514 85.5777 99.0242 85.8073 98.3814 85.3221C98.2509 85.224 98.2842 84.7939 98.4305 84.7043C99.0987 84.2937 99.6167 84.5014 99.9762 85.0484Z" fill="#E04C2D"/>
<path d="M96.7469 54.5815C96.0817 54.2626 95.7717 53.8541 96.3567 53.3385C96.4779 53.2314 97.0275 53.2372 97.1505 53.3471C97.7346 53.8705 97.3927 54.2688 96.7469 54.5815Z" fill="#E04C2D"/>
<path d="M102.832 40.9496C103.239 40.4425 103.732 40.2085 104.317 40.5619C104.488 40.6649 104.516 41.1825 104.36 41.2934C103.802 41.6868 103.3 41.4641 102.832 40.9496Z" fill="#E04C2D"/>
<path d="M126.746 107.933C126.799 107.249 126.832 106.839 126.869 106.361C127.887 106.81 127.846 107.334 126.746 107.933Z" fill="#E04C2D"/>
<path d="M102.476 79.9058H100.528C101.046 79.0961 101.695 79.0961 102.476 79.9058Z" fill="#E04C2D"/>
<path d="M102.851 85.018C103.276 84.4921 103.805 84.2625 104.448 84.7456C104.578 84.8431 104.543 85.2728 104.396 85.3642C103.726 85.7799 103.21 85.5654 102.851 85.018Z" fill="#E04C2D"/>
<path d="M96.7397 108.19C97.3829 108.505 97.6912 108.887 97.2336 109.345C97.1001 109.479 96.4381 109.505 96.2997 109.383C95.8058 108.952 96.0706 108.555 96.7397 108.19Z" fill="#E04C2D"/>
<path d="M106.057 108.202C106.754 108.483 107.039 108.882 106.508 109.409C106.392 109.523 105.847 109.552 105.718 109.45C105.078 108.947 105.404 108.54 106.057 108.202Z" fill="#E04C2D"/>
<path d="M123.543 85.0337C123.138 85.5431 122.623 85.8042 121.956 85.343C121.817 85.2468 121.817 84.8185 121.955 84.7241C122.619 84.2711 123.139 84.5198 123.543 85.0337Z" fill="#E04C2D"/>
<path d="M114.123 66.5318C114.137 66.589 114.179 66.6522 114.155 66.6844C113.806 67.1364 113.308 67.3687 112.72 67.019C112.55 66.9181 112.519 66.398 112.677 66.2855C113.235 65.8872 113.736 66.1151 114.123 66.5318Z" fill="#E04C2D"/>
<path d="M99.9902 40.9424C99.5891 41.4531 99.0759 41.7104 98.4099 41.2526C98.271 41.1565 98.268 40.7295 98.4051 40.6351C99.0671 40.1797 99.5874 40.424 99.9902 40.9424Z" fill="#E04C2D"/>
<path d="M96.7486 105.969C96.09 105.655 95.7713 105.25 96.3501 104.731C96.4705 104.622 97.0187 104.621 97.1418 104.729C97.7324 105.249 97.4023 105.652 96.7486 105.969Z" fill="#E04C2D"/>
<path d="M114.212 85.044C113.729 85.5575 113.226 85.7836 112.672 85.3803C112.516 85.267 112.554 84.7487 112.726 84.6474C113.318 84.2998 113.809 84.5448 114.212 85.044Z" fill="#E04C2D"/>
<path d="M129.635 108.192C130.295 108.549 130.58 108.939 130.083 109.378C129.942 109.502 129.282 109.486 129.148 109.355C128.683 108.899 128.987 108.515 129.635 108.192Z" fill="#E04C2D"/>
<path d="M96.7665 87.5785C96.0812 87.2148 95.798 86.8244 96.2923 86.3855C96.4324 86.261 97.0892 86.2743 97.2249 86.405C97.6987 86.8597 97.3651 87.2367 96.7665 87.5785Z" fill="#E04C2D"/>
<path d="M99.9892 110.725C99.5886 111.245 99.0672 111.485 98.4042 111.034C98.2667 110.94 98.2689 110.512 98.4082 110.416C99.0729 109.957 99.589 110.21 99.9892 110.725Z" fill="#E04C2D"/>
<path d="M102.825 110.739C103.252 110.215 103.751 109.991 104.33 110.35C104.497 110.454 104.512 110.973 104.351 111.083C103.786 111.47 103.288 111.237 102.825 110.739Z" fill="#E04C2D"/>
<path d="M106.197 87.5063C106.135 87.5138 106.054 87.5456 106.013 87.5265C105.441 87.2514 105.137 86.8658 105.599 86.4091C105.732 86.277 106.296 86.276 106.546 86.3821C106.929 86.5449 106.848 86.7269 106.197 87.5063Z" fill="#E04C2D"/>
<path d="M114.203 110.726C113.795 111.247 113.271 111.487 112.611 111.031C112.474 110.936 112.482 110.506 112.623 110.41C113.293 109.956 113.805 110.217 114.203 110.726Z" fill="#E04C2D"/>
<path d="M116.433 79.4733C116.027 79.9797 115.535 80.2123 114.952 79.8589C114.784 79.7573 114.757 79.2424 114.914 79.1308C115.471 78.735 115.97 78.9594 116.433 79.4733Z" fill="#E04C2D"/>
<path d="M123.564 110.714C123.07 111.252 122.564 111.464 122.012 111.071C121.858 110.96 121.892 110.447 122.065 110.34C122.662 109.972 123.132 110.263 123.564 110.714Z" fill="#E04C2D"/>
<path d="M96.7454 98.6725C96.0886 98.3526 95.7651 97.9462 96.3549 97.4285C96.4771 97.3211 97.0266 97.3255 97.1488 97.4353C97.7324 97.9598 97.3926 98.3602 96.7454 98.6725Z" fill="#E04C2D"/>
<path d="M126.47 110.823C126.458 110.768 126.417 110.705 126.441 110.673C126.79 110.224 127.282 109.987 127.867 110.347C128.037 110.452 128.065 110.966 127.909 111.076C127.352 111.466 126.851 111.248 126.47 110.823Z" fill="#E04C2D"/>
<path d="M106.098 105.96C105.42 105.671 105.118 105.274 105.663 104.748C105.781 104.633 106.33 104.608 106.454 104.711C107.068 105.215 106.771 105.627 106.098 105.96Z" fill="#E04C2D"/>
<path d="M109.937 97.8849C110.349 97.381 110.841 97.1429 111.426 97.5011C111.594 97.6041 111.617 98.1193 111.46 98.2295C110.903 98.6185 110.399 98.404 109.937 97.8849Z" fill="#E04C2D"/>
<path d="M116.43 97.8791C116.029 98.3943 115.512 98.6469 114.849 98.187C114.711 98.0912 114.712 97.6656 114.85 97.5701C115.516 97.1096 116.029 97.3683 116.43 97.8791Z" fill="#E04C2D"/>
<path d="M119.357 79.5777C119.345 79.5226 119.304 79.459 119.329 79.4278C119.683 78.9848 120.175 78.7401 120.762 79.1011C120.931 79.2047 120.958 79.7214 120.8 79.8315C120.242 80.2223 119.74 80.0009 119.357 79.5777Z" fill="#E04C2D"/>
<path d="M109.935 72.187C110.345 71.6806 110.859 71.4168 111.525 71.8794C111.663 71.9748 111.662 72.4008 111.523 72.4963C110.856 72.9571 110.343 72.693 109.935 72.187Z" fill="#E04C2D"/>
<path d="M102.816 66.643C103.305 66.1048 103.811 65.8917 104.365 66.2876C104.521 66.3994 104.488 66.915 104.317 67.0197C103.722 67.382 103.243 67.1097 102.816 66.643Z" fill="#E04C2D"/>
<path d="M126.877 89.75C126.828 88.9179 126.803 88.5053 126.78 88.1163C127.595 87.9178 128.009 88.2439 128.002 88.6384C127.997 88.909 127.488 89.1735 126.877 89.75Z" fill="#E04C2D"/>
<path d="M99.9927 48.2281C99.5877 48.7399 99.0912 48.9647 98.5088 48.6157C98.3398 48.5148 98.3126 47.9975 98.4702 47.8856C99.0281 47.4894 99.5282 47.7142 99.9927 48.2281Z" fill="#E04C2D"/>
<path d="M96.7477 89.791C97.3918 90.1065 97.7351 90.5051 97.1449 91.0268C97.0214 91.1363 96.4727 91.1397 96.3531 91.033C95.7747 90.516 96.0817 90.1075 96.7477 89.791Z" fill="#E04C2D"/>
<path d="M106.069 45.6846C106.757 46.072 107.032 46.4668 106.523 46.8975C106.38 47.018 105.724 46.9892 105.588 46.8544C105.12 46.3871 105.49 46.02 106.069 45.6846Z" fill="#E04C2D"/>
<path d="M113.184 100.414C112.532 100.095 112.204 99.691 112.799 99.1747C112.922 99.0687 113.466 99.0742 113.588 99.1833C114.171 99.7057 113.84 100.105 113.184 100.414Z" fill="#E04C2D"/>
<path d="M96.7284 27.3115C97.4119 27.5964 97.7088 27.994 97.1707 28.5206C97.0529 28.6358 96.5034 28.6632 96.3781 28.5616C95.7585 28.059 96.0563 27.6464 96.7284 27.3115Z" fill="#E04C2D"/>
<path d="M106.07 69.1759C105.419 68.806 105.124 68.4163 105.638 67.9818C105.782 67.86 106.438 67.884 106.568 68.0164C107.022 68.4759 106.712 68.858 106.07 69.1759Z" fill="#E04C2D"/>
<path d="M129.619 105.972C128.952 105.602 128.677 105.207 129.185 104.775C129.329 104.653 129.991 104.679 130.121 104.812C130.567 105.273 130.263 105.657 129.619 105.972Z" fill="#E04C2D"/>
<path d="M96.7298 25.067C96.0554 24.7372 95.7646 24.3256 96.3763 23.8227C96.4998 23.7214 97.0459 23.7471 97.1645 23.8614C97.7053 24.3838 97.4251 24.7841 96.7298 25.067Z" fill="#E04C2D"/>
<path d="M96.7626 78.7511C97.063 79.0656 97.3576 79.2418 97.4067 79.4529C97.5065 79.8809 97.1203 80.0899 96.6391 79.9801C96.4022 79.926 96.1154 79.6222 96.1141 79.4302C96.1132 79.2455 96.4499 79.0594 96.7626 78.7511Z" fill="#E04C2D"/>
<path d="M107.009 79.6201C106.566 79.7963 106.267 80.0163 106.036 79.979C105.788 79.9386 105.459 79.6721 105.424 79.4764C105.349 79.0529 105.765 78.8661 106.237 78.9807C106.488 79.0419 106.655 79.3146 107.009 79.6201Z" fill="#E04C2D"/>
<path d="M97.6755 72.046C97.32 72.3515 97.1523 72.6222 96.8992 72.6855C96.425 72.8035 96.0129 72.6167 96.0918 72.1911C96.1281 71.9947 96.4534 71.7265 96.6991 71.6875C96.932 71.6505 97.2316 71.8705 97.6755 72.046Z" fill="#E04C2D"/>
<path d="M130.559 97.9574C130.134 98.1647 129.887 98.3765 129.616 98.3987C129.056 98.4442 128.829 98.1161 128.994 97.7562C129.076 97.5756 129.493 97.3727 129.741 97.386C129.975 97.398 130.186 97.6806 130.559 97.9574Z" fill="#E04C2D"/>
<path d="M95.8181 17.0628C96.1934 16.7898 96.4071 16.5079 96.6409 16.4977C96.8883 16.4867 97.2986 16.6937 97.3813 16.8767C97.5464 17.2421 97.2998 17.5565 96.7507 17.5083C96.4801 17.485 96.2372 17.2719 95.8181 17.0628Z" fill="#E04C2D"/>
<path d="M105.985 36.1145C105.719 35.7837 105.444 35.5907 105.419 35.3796C105.368 34.9485 105.785 34.7665 106.245 34.8944C106.475 34.9581 106.729 35.2858 106.712 35.4802C106.696 35.6625 106.336 35.8257 105.985 36.1145Z" fill="#E04C2D"/>
<path d="M97.6759 35.4686C97.2521 35.6752 97.006 35.8863 96.7341 35.9079C96.1758 35.9527 95.9524 35.6242 96.1153 35.2664C96.1972 35.0861 96.6132 34.8822 96.8584 34.8965C97.0935 34.9106 97.3033 35.1925 97.6759 35.4686Z" fill="#E04C2D"/>
<path d="M136.753 109.995C137.052 110.309 137.346 110.486 137.395 110.696C137.495 111.124 137.11 111.334 136.628 111.225C136.391 111.171 136.103 110.866 136.103 110.676C136.103 110.489 136.441 110.303 136.753 109.995Z" fill="#E04C2D"/>
</svg>
