<svg width="144" height="144" viewBox="0 0 144 144" fill="none" xmlns="http://www.w3.org/2000/svg">
<path d="M40.6081 62.7341C41.6817 60.6075 44.7183 60.6075 45.7919 62.7341V62.7341C46.7139 64.5606 49.1853 64.8859 50.5486 63.3604V63.3604C52.136 61.5841 55.0691 62.37 55.5557 64.702V64.702C55.9736 66.7048 58.2766 67.6588 59.9883 66.538V66.538C61.9814 65.2331 64.6111 66.7514 64.4776 69.1299V69.1299C64.3628 71.1727 66.3404 72.6901 68.2839 72.0506V72.0506C70.5468 71.306 72.694 73.4532 71.9494 75.7161V75.7161C71.3098 77.6595 72.8273 79.6371 74.8701 79.5224V79.5224C77.2486 79.3889 78.7669 82.0186 77.4619 84.0117V84.0117C76.3412 85.7234 77.2951 88.0264 79.298 88.4443V88.4443C81.63 88.9308 82.4159 91.8639 80.6396 93.4514V93.4514C79.1141 94.8147 79.4394 97.2861 81.2659 98.2081V98.2081C83.3925 99.2817 83.3925 102.318 81.2659 103.392V103.392C79.4394 104.314 79.1141 106.785 80.6396 108.149V108.149C82.4159 109.736 81.63 112.669 79.298 113.156V113.156C77.2951 113.574 76.3412 115.877 77.4619 117.588V117.588C78.7668 119.581 77.2486 122.211 74.8701 122.078V122.078C72.8273 121.963 71.3098 123.94 71.9494 125.884V125.884C72.694 128.147 70.5468 130.294 68.2839 129.549V129.549C66.3404 128.91 64.3628 130.427 64.4776 132.47V132.47C64.6111 134.849 61.9814 136.367 59.9883 135.062V135.062C58.2766 133.941 55.9736 134.895 55.5557 136.898V136.898C55.0691 139.23 52.136 140.016 50.5486 138.24V138.24C49.1853 136.714 46.7139 137.039 45.7919 138.866V138.866C44.7183 140.992 41.6817 140.992 40.6081 138.866V138.866C39.6861 137.039 37.2147 136.714 35.8514 138.24V138.24C34.264 140.016 31.3309 139.23 30.8443 136.898V136.898C30.4264 134.895 28.1234 133.941 26.4117 135.062V135.062C24.4186 136.367 21.7889 134.849 21.9225 132.47V132.47C22.0372 130.427 20.0596 128.91 18.1161 129.549V129.549C15.8532 130.294 13.706 128.147 14.4506 125.884V125.884C15.0902 123.94 13.5727 121.963 11.5299 122.078V122.078C9.15144 122.211 7.63315 119.581 8.93807 117.588V117.588C10.0588 115.877 9.10487 113.574 7.10202 113.156V113.156C4.77001 112.669 3.98409 109.736 5.76038 108.149V108.149C7.28594 106.785 6.96058 104.314 5.13414 103.392V103.392C3.00752 102.318 3.00752 99.2817 5.13414 98.2081V98.2081C6.96058 97.2861 7.28594 94.8147 5.76038 93.4514V93.4514C3.98409 91.864 4.77001 88.9308 7.10202 88.4443V88.4443C9.10487 88.0264 10.0588 85.7234 8.93807 84.0117V84.0117C7.63315 82.0186 9.15144 79.3889 11.5299 79.5224V79.5224C13.5727 79.6371 15.0902 77.6595 14.4506 75.7161V75.7161C13.706 73.4532 15.8532 71.306 18.1161 72.0506V72.0506C20.0596 72.6901 22.0372 71.1727 21.9225 69.1299V69.1299C21.7889 66.7514 24.4186 65.2331 26.4117 66.538V66.538C28.1234 67.6588 30.4264 66.7048 30.8443 64.702V64.702C31.3309 62.37 34.264 61.5841 35.8514 63.3604V63.3604C37.2147 64.8859 39.6861 64.5606 40.6081 62.7341V62.7341Z" fill="#E04C2D" fill-opacity="0.4"/>
<path d="M83.5753 1.93203C83.0287 1.89289 82.6683 1.86684 82.3075 1.84085C78.9231 1.59629 75.5964 2.24381 72.3324 2.87779C66.6952 3.97242 61.3124 5.89994 56.2524 8.72881C51.33 11.481 46.8982 14.8704 42.7966 18.6846C41.0604 20.2992 39.6044 22.2384 38.1525 24.1316C33.6271 30.0326 30.1626 36.4761 27.9923 43.6375C26.288 49.2615 25.765 55.0116 25.5663 60.82C25.5237 62.0697 25.9239 63.331 25.9197 64.5863C25.9095 67.5218 26.5099 70.3576 27.1483 73.1884C28.4208 78.8286 30.561 84.1153 33.5128 89.1002C36.1894 93.62 39.213 97.8539 42.9708 101.534C43.8213 102.367 44.7658 103.108 45.6946 103.856C47.7245 105.492 49.6771 107.247 51.8326 108.7C56.559 111.887 61.7417 114.173 67.1788 115.857C69.943 116.713 72.7457 117.429 75.6488 117.704C77.9386 117.92 80.215 118.269 82.5016 118.526C82.8397 118.564 83.1987 118.414 83.5753 118.346V1.93203ZM24 61.8426C24.1598 43.0486 30.2826 28.2664 42.7549 16.4833C54.1882 5.68226 67.9687 0.0597518 83.8667 0.000472101C100.029 -0.0599382 114.014 5.67818 125.567 16.6791C137.783 28.3121 143.963 42.9383 144 59.8807C144.037 76.5646 138.098 91.0135 126.228 102.701C114.566 114.179 100.417 120.058 83.9001 120C67.3999 119.941 53.3108 114.039 41.6686 102.49C29.993 90.9084 24.3789 76.6656 24 61.8426Z" fill="#E04C2D"/>
</svg>
