<svg preserveAspectRatio="none" width="100%" height="100%" overflow="visible" style="display: block;" viewBox="0 0 138.118 138.118" fill="none" xmlns="http://www.w3.org/2000/svg">
<path id="Star 10" d="M63.9429 2.51615C66.8241 -0.171818 71.2941 -0.171818 74.1753 2.51615L77.1763 5.31596C79.534 7.51547 82.9337 8.19192 85.9537 7.06205L89.7974 5.62358C93.4879 4.24281 97.6173 5.95364 99.2505 9.53959L100.952 13.274C102.288 16.2083 105.171 18.1338 108.393 18.2456L112.495 18.3882C116.433 18.5249 119.593 21.6857 119.73 25.6236L119.873 29.7251C119.984 32.9476 121.91 35.8301 124.844 37.1665L128.579 38.8677C132.165 40.501 133.875 44.6303 132.495 48.3208L131.056 52.1646C129.926 55.1845 130.603 58.5843 132.802 60.9419L135.602 63.9429C138.29 66.8241 138.29 71.2941 135.602 74.1753L132.802 77.1763C130.603 79.534 129.926 82.9337 131.056 85.9537L132.495 89.7974C133.875 93.4879 132.165 97.6173 128.579 99.2505L124.844 100.952C121.91 102.288 119.984 105.171 119.873 108.393L119.73 112.495C119.593 116.433 116.433 119.593 112.495 119.73L108.393 119.873C105.171 119.984 102.288 121.91 100.952 124.844L99.2505 128.579C97.6173 132.165 93.4879 133.875 89.7974 132.495L85.9537 131.056C82.9337 129.926 79.534 130.603 77.1763 132.802L74.1753 135.602C71.2941 138.29 66.8241 138.29 63.9429 135.602L60.9419 132.802C58.5843 130.603 55.1845 129.926 52.1646 131.056L48.3208 132.495C44.6303 133.875 40.501 132.165 38.8677 128.579L37.1665 124.844C35.8301 121.91 32.9476 119.984 29.7251 119.873L25.6236 119.73C21.6857 119.593 18.5249 116.433 18.3882 112.495L18.2456 108.393C18.1338 105.171 16.2083 102.288 13.274 100.952L9.53959 99.2505C5.95364 97.6173 4.24281 93.4879 5.62358 89.7974L7.06205 85.9537C8.19192 82.9337 7.51547 79.534 5.31596 77.1763L2.51615 74.1753C-0.171818 71.2941 -0.171818 66.8241 2.51615 63.9429L5.31596 60.9419C7.51547 58.5843 8.19192 55.1845 7.06205 52.1646L5.62358 48.3208C4.24281 44.6303 5.95364 40.501 9.53959 38.8677L13.274 37.1665C16.2083 35.8301 18.1338 32.9476 18.2456 29.7251L18.3882 25.6236C18.5249 21.6857 21.6857 18.5249 25.6236 18.3882L29.7251 18.2456C32.9476 18.1338 35.8301 16.2083 37.1665 13.274L38.8677 9.53959C40.501 5.95364 44.6303 4.24281 48.3208 5.62358L52.1646 7.06205C55.1845 8.19192 58.5843 7.51547 60.9419 5.31596L63.9429 2.51615Z" fill="var(--fill-0, #E04C2D)" fill-opacity="0.3" stroke="var(--stroke-0, #E04C2D)"/>
</svg>
