<svg preserveAspectRatio="none" width="100%" height="100%" overflow="visible" style="display: block;" viewBox="0 0 141.138 141.138" fill="none" xmlns="http://www.w3.org/2000/svg">
<path id="Star 11" d="M66.5973 1.6383C69.0278 0.120933 72.1102 0.120933 74.5406 1.6383L92.8668 13.0797C93.6636 13.5771 94.5377 13.9383 95.4528 14.15L116.502 19.0192C119.293 19.6648 121.473 21.8448 122.119 24.6363L126.988 45.6852C127.2 46.6003 127.561 47.4744 128.058 48.2711L139.5 66.5973C141.017 69.0278 141.017 72.1102 139.5 74.5406L128.058 92.8668C127.561 93.6636 127.2 94.5377 126.988 95.4528L122.119 116.502C121.473 119.293 119.293 121.473 116.502 122.119L95.4528 126.988C94.5377 127.2 93.6636 127.561 92.8668 128.058L74.5406 139.5C72.1102 141.017 69.0278 141.017 66.5973 139.5L48.2711 128.058C47.4744 127.561 46.6003 127.2 45.6852 126.988L24.6363 122.119C21.8448 121.473 19.6648 119.293 19.0192 116.502L14.15 95.4528C13.9383 94.5377 13.5771 93.6636 13.0797 92.8668L1.6383 74.5406C0.120934 72.1102 0.120934 69.0278 1.6383 66.5973L13.0797 48.2711C13.5771 47.4744 13.9383 46.6003 14.15 45.6852L19.0192 24.6363C19.6648 21.8448 21.8448 19.6648 24.6363 19.0192L45.6852 14.15C46.6003 13.9383 47.4744 13.5771 48.2711 13.0797L66.5973 1.6383Z" fill="var(--fill-0, #E04C2D)" fill-opacity="0.3" stroke="var(--stroke-0, #E04C2D)"/>
</svg>
