<svg preserveAspectRatio="none" width="100%" height="100%" overflow="visible" style="display: block;" viewBox="0 0 134.248 134.248" fill="none" xmlns="http://www.w3.org/2000/svg">
<path id="Star 12" d="M64.0001 2.42294C65.2943 -0.140649 68.954 -0.140649 70.2481 2.42294L71.5518 5.00497C72.9809 7.83578 76.8118 8.34015 78.9249 5.97568L80.8517 3.81845C82.7651 1.67727 86.301 2.62476 86.8878 5.43564L87.4786 8.26767C88.1263 11.3718 91.6957 12.8502 94.3487 11.1134L96.7686 9.52841C99.1712 7.95536 102.342 9.78619 102.181 12.6534L102.019 15.5411C101.841 18.7072 104.906 21.0596 107.918 20.0684L110.665 19.1642C113.393 18.2665 115.982 20.8552 115.084 23.5831L114.18 26.3302C113.189 29.3424 115.541 32.4074 118.707 32.2296L121.595 32.0675C124.462 31.9065 126.293 35.077 124.72 37.4796L123.135 39.8995C121.398 42.5525 122.876 46.1219 125.981 46.7696L128.813 47.3604C131.623 47.9473 132.571 51.4831 130.43 53.3966L128.273 55.3233C125.908 57.4364 126.412 61.2673 129.243 62.6964L131.825 64.0001C134.389 65.2943 134.389 68.954 131.825 70.2481L129.243 71.5518C126.412 72.9809 125.908 76.8118 128.273 78.9249L130.43 80.8517C132.571 82.7651 131.623 86.301 128.813 86.8878L125.981 87.4786C122.876 88.1263 121.398 91.6957 123.135 94.3487L124.72 96.7686C126.293 99.1712 124.462 102.342 121.595 102.181L118.707 102.019C115.541 101.841 113.189 104.906 114.18 107.918L115.084 110.665C115.982 113.393 113.393 115.982 110.665 115.084L107.918 114.18C104.906 113.189 101.841 115.541 102.019 118.707L102.181 121.595C102.342 124.462 99.1712 126.293 96.7686 124.72L94.3487 123.135C91.6957 121.398 88.1263 122.876 87.4786 125.981L86.8878 128.813C86.301 131.623 82.7651 132.571 80.8517 130.43L78.9249 128.273C76.8118 125.908 72.9809 126.412 71.5518 129.243L70.2481 131.825C68.954 134.389 65.2943 134.389 64.0001 131.825L62.6964 129.243C61.2673 126.412 57.4364 125.908 55.3233 128.273L53.3966 130.43C51.4831 132.571 47.9473 131.623 47.3604 128.813L46.7696 125.981C46.1219 122.876 42.5525 121.398 39.8995 123.135L37.4796 124.72C35.077 126.293 31.9065 124.462 32.0675 121.595L32.2296 118.707C32.4074 115.541 29.3424 113.189 26.3302 114.18L23.5831 115.084C20.8552 115.982 18.2665 113.393 19.1642 110.665L20.0684 107.918C21.0596 104.906 18.7072 101.841 15.5411 102.019L12.6534 102.181C9.78619 102.342 7.95536 99.1712 9.52841 96.7686L11.1134 94.3487C12.8502 91.6957 11.3718 88.1263 8.26767 87.4786L5.43564 86.8878C2.62476 86.301 1.67727 82.7651 3.81845 80.8517L5.97568 78.9249C8.34015 76.8118 7.83578 72.9809 5.00497 71.5518L2.42294 70.2481C-0.140649 68.954 -0.140649 65.2943 2.42294 64.0001L5.00497 62.6964C7.83578 61.2673 8.34015 57.4364 5.97568 55.3233L3.81845 53.3966C1.67727 51.4831 2.62476 47.9473 5.43564 47.3604L8.26767 46.7696C11.3718 46.1219 12.8502 42.5525 11.1134 39.8995L9.52841 37.4796C7.95536 35.077 9.78619 31.9065 12.6534 32.0675L15.5411 32.2296C18.7072 32.4074 21.0596 29.3424 20.0684 26.3302L19.1642 23.5831C18.2665 20.8552 20.8552 18.2665 23.5831 19.1642L26.3302 20.0684C29.3424 21.0596 32.4074 18.7072 32.2296 15.5411L32.0675 12.6534C31.9065 9.78619 35.077 7.95536 37.4796 9.52841L39.8995 11.1134C42.5525 12.8502 46.1219 11.3718 46.7696 8.26767L47.3604 5.43564C47.9473 2.62476 51.4831 1.67727 53.3966 3.81845L55.3233 5.97568C57.4364 8.34015 61.2673 7.83578 62.6964 5.00497L64.0001 2.42294Z" fill="var(--fill-0, #E04C2D)" fill-opacity="0.3" stroke="var(--stroke-0, #E04C2D)"/>
</svg>
