<svg preserveAspectRatio="none" width="100%" height="100%" overflow="visible" style="display: block;" viewBox="0 0 136.243 136.243" fill="none" xmlns="http://www.w3.org/2000/svg">
<path id="Star 13" d="M62.5775 2.94862C65.5524 -0.316313 70.6906 -0.316312 73.6654 2.94862L79.2055 9.02968C81.442 11.4844 84.9035 12.4121 88.0678 11.4047L95.9066 8.90858C100.116 7.56833 104.565 10.1374 105.509 14.4525L107.267 22.4887C107.977 25.7328 110.51 28.2664 113.754 28.976L121.79 30.7338C126.106 31.6775 128.675 36.1274 127.334 40.3363L124.838 48.1752C123.831 51.3394 124.759 54.801 127.213 57.0375L133.294 62.5775C136.559 65.5524 136.559 70.6906 133.294 73.6654L127.213 79.2055C124.759 81.442 123.831 84.9035 124.838 88.0678L127.334 95.9066C128.675 100.116 126.106 104.565 121.79 105.509L113.754 107.267C110.51 107.977 107.977 110.51 107.267 113.754L105.509 121.79C104.565 126.106 100.116 128.675 95.9066 127.334L88.0678 124.838C84.9035 123.831 81.442 124.759 79.2055 127.213L73.6654 133.294C70.6906 136.559 65.5524 136.559 62.5775 133.294L57.0375 127.213C54.801 124.759 51.3394 123.831 48.1752 124.838L40.3363 127.334C36.1274 128.675 31.6775 126.106 30.7338 121.79L28.976 113.754C28.2664 110.51 25.7328 107.977 22.4887 107.267L14.4525 105.509C10.1374 104.565 7.56833 100.116 8.90858 95.9066L11.4047 88.0678C12.4121 84.9035 11.4844 81.442 9.02968 79.2055L2.94862 73.6654C-0.316314 70.6906 -0.316312 65.5524 2.94862 62.5775L9.02968 57.0375C11.4844 54.801 12.4121 51.3394 11.4047 48.1752L8.90858 40.3363C7.56833 36.1274 10.1374 31.6775 14.4525 30.7338L22.4887 28.976C25.7328 28.2664 28.2664 25.7328 28.976 22.4887L30.7338 14.4525C31.6775 10.1374 36.1274 7.56833 40.3363 8.90858L48.1752 11.4047C51.3394 12.4121 54.801 11.4844 57.0375 9.02968L62.5775 2.94862Z" fill="var(--fill-0, #E04C2D)" fill-opacity="0.3" stroke="var(--stroke-0, #E04C2D)"/>
</svg>
