<svg preserveAspectRatio="none" width="100%" height="100%" overflow="visible" style="display: block;" viewBox="0 0 5.33333 1172.83" fill="none" xmlns="http://www.w3.org/2000/svg">
<path id="Vector 6" d="M0 2.66667C0 4.13943 1.19391 5.33333 2.66667 5.33333C4.13943 5.33333 5.33333 4.13943 5.33333 2.66667C5.33333 1.19391 4.13943 0 2.66667 0C1.19391 0 0 1.19391 0 2.66667ZM0 1170.17C0 1171.64 1.19391 1172.83 2.66667 1172.83C4.13943 1172.83 5.33333 1171.64 5.33333 1170.17C5.33333 1168.69 4.13943 1167.5 2.66667 1167.5C1.19391 1167.5 0 1168.69 0 1170.17ZM2.66667 2.66667H2.16667V1170.17H2.66667H3.16667V2.66667H2.66667Z" fill="var(--stroke-0, #E04C2D)"/>
</svg>
