<?xml version="1.0" encoding="UTF-8"?>
<svg id="Layer_1" data-name="Layer 1" xmlns="http://www.w3.org/2000/svg" viewBox="0 0 478.99 109.97">
  <defs>
    <style>
      .cls-1 {
        fill: none;
      }

      .cls-2 {
        fill: #231f20;
      }
    </style>
  </defs>
  <rect class="cls-1" width="478.99" height="109.97"/>
  <path class="cls-2" d="M147.21,77.29v-1.16h.47v-.24h-1.19v.24h.47v1.16h.26ZM149.52,77.29v-1.4h-.36l-.42.96-.42-.96h-.36v1.4h.26v-1.05l.39.91h.27l.39-.91v1.06h.26ZM212.57,67.11v-15.03c0-5.66-3.61-9.47-9.42-9.52-3.06-.05-6.21.9-8.41,4.26-1.65-2.65-4.26-4.26-7.91-4.26-2.55,0-5.06.75-7.01,3.56v-2.96h-5.21v23.94h5.26v-13.27c0-4.16,2.3-6.36,5.86-6.36s5.21,2.25,5.21,6.31v13.32h5.26v-13.27c0-4.16,2.4-6.36,5.86-6.36s5.26,2.25,5.26,6.31v13.32h5.26ZM290.41,43.17h-8.51v-7.26h-5.26v7.26h-4.86v4.76h4.86v10.92c0,5.56,2.15,8.87,8.31,8.87,2.25,0,4.86-.7,6.51-1.85l-1.5-4.46c-1.55.9-3.26,1.35-4.61,1.35-2.6,0-3.46-1.6-3.46-4.01v-10.82h8.51v-4.76ZM334.84,42.57c-3,0-4.96,1.4-6.31,3.51v-2.9h-5.16v23.94h5.21v-13.42c0-3.96,1.7-6.16,5.11-6.16,1.05,0,2.15.15,3.26.6l1.6-4.91c-1.15-.45-2.65-.65-3.71-.65h0ZM267.67,45.07c-2.5-1.65-5.96-2.5-9.77-2.5-6.06,0-9.97,2.91-9.97,7.66,0,3.91,2.9,6.31,8.26,7.06l2.45.35c2.85.4,4.21,1.15,4.21,2.5,0,1.85-1.9,2.9-5.46,2.9s-6.21-1.15-7.96-2.5l-2.45,4.06c2.85,2.1,6.46,3.11,10.37,3.11,6.91,0,10.92-3.26,10.92-7.81,0-4.21-3.16-6.41-8.36-7.16l-2.45-.35c-2.25-.3-4.06-.75-4.06-2.35,0-1.75,1.7-2.81,4.56-2.81,3.06,0,6.01,1.15,7.46,2.05l2.25-4.21ZM407.21,42.57c-3.01,0-4.96,1.4-6.31,3.51v-2.9h-5.16v23.94h5.21v-13.42c0-3.96,1.7-6.16,5.11-6.16,1.05,0,2.15.15,3.26.6l1.6-4.91c-1.15-.45-2.65-.65-3.71-.65h0ZM340.1,55.14c0,7.26,5.06,12.57,12.77,12.57,3.61,0,6.01-.8,8.61-2.86l-2.5-4.21c-1.95,1.4-4.01,2.15-6.26,2.15-4.16-.05-7.21-3.06-7.21-7.66s3.06-7.61,7.21-7.66c2.25,0,4.31.75,6.26,2.15l2.5-4.21c-2.6-2.05-5.01-2.86-8.61-2.86-7.71,0-12.77,5.31-12.77,12.57h0ZM388.88,55.14v-11.97h-5.21v2.9c-1.65-2.15-4.16-3.51-7.56-3.51-6.71,0-11.97,5.26-11.97,12.57s5.26,12.57,11.97,12.57c3.41,0,5.91-1.35,7.56-3.51v2.9h5.21v-11.97ZM369.5,55.14c0-4.21,2.75-7.66,7.26-7.66s7.21,3.31,7.21,7.66-2.9,7.66-7.21,7.66-7.26-3.46-7.26-7.66h0ZM306.64,42.57c-7.01,0-11.92,5.11-11.92,12.57s5.11,12.57,12.27,12.57c3.61,0,6.91-.9,9.82-3.36l-2.55-3.86c-2,1.6-4.56,2.5-6.96,2.5-3.36,0-6.41-1.55-7.16-5.86h17.78c.05-.65.1-1.3.1-2-.05-7.46-4.66-12.57-11.37-12.57h0ZM306.54,47.22c3.36,0,5.51,2.1,6.06,5.81h-12.42c.55-3.46,2.65-5.81,6.36-5.81h0ZM437.21,55.14v-21.59h-5.21v12.52c-1.65-2.15-4.16-3.51-7.56-3.51-6.71,0-11.97,5.26-11.97,12.57s5.26,12.57,11.97,12.57c3.41,0,5.91-1.35,7.56-3.51v2.9h5.21v-11.97ZM443.3,64.9c.21,0,.41.04.6.12.19.08.35.19.49.33.14.14.25.3.33.48.08.18.12.38.12.59s-.04.4-.12.59c-.08.18-.19.34-.33.48-.14.14-.3.25-.49.33-.19.08-.39.12-.6.12s-.42-.04-.61-.12c-.19-.08-.35-.19-.49-.33-.14-.14-.25-.3-.33-.48-.08-.18-.12-.38-.12-.59s.04-.41.12-.59c.08-.19.19-.35.33-.48.14-.14.3-.25.49-.33s.39-.12.61-.12ZM443.3,67.6c.16,0,.32-.03.46-.09.14-.06.27-.15.37-.25.11-.11.19-.23.25-.38.06-.14.09-.3.09-.46s-.03-.32-.09-.46c-.06-.14-.14-.27-.25-.38-.11-.11-.23-.19-.37-.25-.14-.06-.29-.09-.46-.09s-.32.03-.47.09c-.14.06-.27.14-.38.25-.11.11-.19.23-.25.38-.06.14-.09.3-.09.46s.03.32.09.46c.06.14.14.27.25.38.11.11.23.19.38.25.15.06.3.09.47.09ZM443.39,65.71c.18,0,.32.04.42.12.1.08.15.19.15.33,0,.12-.04.21-.12.29-.08.08-.19.12-.33.14l.46.53h-.36l-.43-.53h-.14v.53h-.3v-1.41h.65ZM443.04,65.97v.38h.35c.08,0,.14-.02.19-.05.05-.03.07-.08.07-.14s-.02-.11-.07-.14c-.05-.03-.11-.05-.19-.05h-.35ZM417.83,55.14c0-4.21,2.75-7.66,7.26-7.66s7.21,3.31,7.21,7.66-2.9,7.66-7.21,7.66-7.26-3.46-7.26-7.66h0ZM241.93,55.14v-11.97h-5.21v2.9c-1.65-2.15-4.16-3.51-7.56-3.51-6.71,0-11.97,5.26-11.97,12.57s5.26,12.57,11.97,12.57c3.41,0,5.91-1.35,7.56-3.51v2.9h5.21v-11.97ZM222.54,55.14c0-4.21,2.75-7.66,7.26-7.66s7.21,3.31,7.21,7.66-2.9,7.66-7.21,7.66-7.26-3.46-7.26-7.66ZM89.2,84.25c.28.24.58.48.87.72-5.71,3.8-12.56,6.02-19.93,6.02-19.88,0-36-16.12-36-36s16.12-36,36-36c7.37,0,14.22,2.22,19.93,6.02-.29.24-.59.47-.87.72-8.48,7.38-13.35,18.05-13.35,29.26s4.86,21.88,13.35,29.26ZM114.64,18.98c-7.37,0-14.22,2.22-19.93,6.02.29.24.59.47.87.72,8.48,7.38,13.35,18.04,13.35,29.26s-4.86,21.88-13.34,29.26c-.28.24-.58.48-.87.72,5.71,3.8,12.56,6.02,19.93,6.02,19.88,0,36-16.12,36-36s-16.12-36-36-36ZM92.39,26.69c-.46.36-.92.74-1.36,1.13-7.59,6.6-12.39,16.32-12.39,27.16s4.8,20.56,12.39,27.16c.44.39.9.76,1.36,1.13.46-.37.92-.74,1.36-1.13,7.59-6.6,12.39-16.32,12.39-27.16s-4.8-20.56-12.39-27.16c-.44-.39-.9-.76-1.36-1.13"/>
</svg>