<svg width="1695" height="362" viewBox="0 0 1695 362" fill="none" xmlns="http://www.w3.org/2000/svg">
<g clip-path="url(#clip0_2938_1695)">
<path d="M275.48 0H205.66V181H275.5L275.48 0ZM69.86 181H0V362H69.86V181ZM172.68 362H102.82V0H172.67L172.68 362Z" fill="black"/>
<path d="M611.14 100.81L562.55 232.37L505.82 100.81H482.57L550.23 260.13L529.09 322.71H552.59L634 100.81H611.14ZM1671.68 100.81L1623.09 232.37L1566.36 100.81H1543.11L1610.77 260.13L1589.63 322.71H1613.14L1694.55 100.81H1671.68ZM423.11 168.22C387.44 162.33 381.22 156 381.22 143C381.22 129.15 395.66 119.85 416.47 119.85C438.22 119.85 450.47 127.76 453.97 144.78L454.16 145.67H477.57L477.05 142.58C472.33 114.37 450.93 98.8399 416.8 98.8399C382.89 98.8399 358.3 117.41 358.3 143C358.3 176.52 386.7 184 418.3 189.32C448.1 194.46 457.24 198.62 457.24 216.24C457.24 232.43 442.63 242.49 419.86 242.49C388.8 242.49 379.23 226.13 376.8 211.74H352.8C355.71 243.64 381.34 263.49 419.8 263.49C455.69 263.49 480.74 243.81 480.74 215.67C480.75 180.91 453.49 173.39 423.11 168.22ZM1211.11 98.5499C1190.27 98.5499 1173.61 107.13 1162.6 118.26V100.81H1140.19V260.94H1162.6V165.25C1162.6 142.68 1178.78 119.84 1209.69 119.84C1215 119.759 1220.29 120.519 1225.37 122.09V99.7899C1220.65 98.9525 1215.86 98.5375 1211.07 98.5499H1211.11ZM881.9 241.91C850.53 241.91 827.76 216.77 827.76 182.14V179.89C827.76 145.09 850.65 119.89 882.18 119.89C904.06 119.89 921.34 131.71 929.9 150.7H954C943.7 119.48 916.64 98.8799 882.23 98.8799C838.23 98.8799 805.11 133.72 805.11 179.94V182.19C805.11 227.64 838.74 263.25 881.66 263.25C918.85 263.25 948.25 238.05 956.3 202.08H933.08C926.31 226.25 907.14 241.91 881.9 241.91ZM1477.5 98.5399C1456.66 98.5399 1440 107.12 1428.99 118.26V100.81H1406.58V260.93H1429V165.25C1429 142.68 1445.19 119.84 1476.1 119.84C1502.1 119.84 1514.19 133.64 1514.19 163.27V260.93H1536.6V163.55C1536.59 121.64 1515.61 98.5399 1477.5 98.5399ZM1358.68 181.86V179.61C1358.68 144.41 1336.68 119.84 1305.1 119.84C1273.52 119.84 1250.68 145.09 1250.68 179.84V182.09C1250.68 216.73 1273.45 241.86 1304.82 241.86C1336.55 241.86 1358.7 217.17 1358.7 181.86H1358.68ZM1381.38 179.61V181.86C1381.38 228.23 1348.38 263.2 1304.54 263.2C1261.6 263.2 1227.98 227.59 1227.98 182.14V179.89C1227.98 133.67 1261.14 98.8299 1305.1 98.8299C1349.32 98.8299 1381.4 132.83 1381.4 179.61H1381.38ZM1048.38 98.5399C1027.54 98.5399 1010.88 107.12 999.87 118.26V30.3799H977.46V260.93H999.87V165.25C999.87 142.68 1016.05 119.84 1046.98 119.84C1072.98 119.84 1085.06 133.64 1085.06 163.27V260.93H1107.47V163.55C1107.47 121.64 1086.49 98.5399 1048.38 98.5399ZM783.05 163.54V260.92H760.63V163.27C760.63 133.64 748.52 119.84 722.54 119.84C691.63 119.84 675.44 142.68 675.44 165.25V260.93H653V100.81H675.42V118.26C686.42 107.12 703.09 98.5399 723.93 98.5399C762.05 98.5399 783.05 121.64 783.05 163.55V163.54Z" fill="black"/>
</g>
<defs>
<clipPath id="clip0_2938_1695">
<rect width="1694.55" height="361.91" fill="white"/>
</clipPath>
</defs>
</svg>
