<svg width="3545" height="512" viewBox="0 0 3545 512" fill="none" xmlns="http://www.w3.org/2000/svg">
<g clip-path="url(#clip0_2939_1711)">
<path d="M1964.83 84.4901L2052.96 84.4143C2117.1 84.3894 2172.23 83.0213 2223.53 130.85C2256.1 161.728 2275.09 204.267 2276.34 249.133C2278.03 299.343 2262.41 340.6 2228.35 377.054C2173.9 428.36 2123.77 428.058 2054.67 428.056L1964.83 428V84.4901ZM2031.17 366.832C2083.61 366.968 2137.1 374.41 2176.91 334.95C2218.35 289.433 2218.19 216.426 2172.87 173.54C2135.66 138.329 2078.77 145.039 2031.17 145.168V366.832Z" fill="black"/>
<path d="M918.388 83.4902H982.546C990.516 105.73 998.851 135.795 1005.99 158.802L1055.84 319.078C1061.61 294.296 1070.46 264.558 1077.21 239.598L1119.31 84.1684H1189.05C1156.99 198.833 1121.23 315.631 1087.83 430.168H1027.05C1004.7 357.807 980.029 283.967 956.782 211.733L948.198 185.173L870.805 430.168H811.659C801.391 392.604 788.637 352.486 777.493 314.909L709.06 84.1684H780.616C787.976 107.857 795.299 138.387 801.864 162.744L843.945 318.632C869.554 241.636 893.795 161.079 918.388 83.4902Z" fill="black"/>
<path d="M3079.24 84.4907L3147.82 84.4902L3248.4 240.092L3348.51 84.4902H3417.17V428H3351V269.5V194.922C3330.21 227.123 3307.38 259.537 3286.3 291.712C3279.68 301.816 3256.9 336.992 3250.23 344.444C3248.73 344.694 3247.14 345.045 3245.63 344.746C3241.98 344.025 3154.54 210.961 3144.83 196.477V428H3079.17L3079.24 84.4907Z" fill="black"/>
<path d="M1575.23 84.4918L1635.35 84.4902C1691.03 158.986 1752.95 235.795 1810 309.749V84.4902H1875.51V315.538C1875.51 328.974 1876.49 424.66 1874.28 427.653L1871.25 428H1820.56C1761.79 350.143 1699.48 273.455 1640.51 195.54V428H1575V201.527C1575 165.341 1573.78 120.086 1575.23 84.4918Z" fill="black"/>
<path d="M2827.05 81.832H2886.78C2900.64 114.609 2916.11 148.346 2930.51 180.988L3039.39 428H2967.42L2933.5 346.832H2887.5H2778.87L2744.33 428H2674.18C2679.83 416.57 2686.18 401.004 2691.5 388.961L2725.5 311.985L2827.05 81.832ZM2803.79 287H2857.5H2908.22C2903.02 274.745 2858.66 169.285 2855.45 166.554C2838.99 205.111 2818.98 248.513 2803.79 287Z" fill="black"/>
<path d="M2341.24 84.4907L2408 84.4902V224.168H2561.49V84.4902H2627.83L2627.85 312.721V387.367C2627.85 392.406 2628.59 425.591 2626.72 428H2561.49V286.168H2408V428H2341.17L2341.24 84.4907Z" fill="black"/>
<path d="M1214.53 84.4902H1292.96C1320.86 128.929 1348.36 174.997 1375.73 219.835C1403.52 178.003 1432.9 127.575 1460.03 84.4902H1536.42L1455.39 211.5L1408.83 284.529V428H1341.83V286.175L1214.53 84.4902Z" fill="black"/>
<path d="M556 512H0V0H556V512ZM411.755 179.616C402.391 170.249 387.491 168.937 374.775 170.259C332.808 177.624 325.503 209.899 303.639 239.998C296.315 250.082 242.709 338.866 238.488 340.384C235.766 339.87 233.717 337.593 232.297 335.321C216.345 310.094 201.088 285.37 184.919 260.164C171.077 238.585 159.135 213.448 131.127 207.98C119.982 205.805 95.1846 208.63 91.7881 224.044C91.3756 225.916 92.2339 226.98 93.2197 228.48C96.644 229.877 106.837 231.709 107.839 232.461C118.019 240.117 129.525 261.134 136.242 271.992L188.132 354.255C194.007 363.578 209.506 389.433 215.888 396.256C219.917 400.489 225.11 403.432 230.811 404.712C239.299 406.696 248.23 405.175 255.585 400.494C265.246 394.375 284.363 360.682 291.063 349.968L346.468 261.265C358.858 241.389 372.278 215.925 389.172 199.643C395.383 193.657 412.275 195.528 416.433 187.13C416.154 183.392 414.195 182.057 411.755 179.616ZM462.015 227.572C467.724 212.148 439.102 207.215 428.977 207.49C404.012 210.241 394.69 221.705 381.736 241.177C349.522 289.602 319.992 340.882 287.561 389.036C297.766 402.304 306.178 407.094 323.326 404.844C341.973 399.373 351.863 377.302 361.851 361.429L412.729 280.535C421.769 266.156 431.092 249.583 442.023 236.687C450.108 227.15 455.268 232.817 462.015 227.572ZM241.725 223.952C221.931 192.773 207.5 167.228 165.799 170.196C158.126 171.521 133.4 179.271 139.708 190.772C147.124 193.81 155.983 194.09 164.051 198.104C181.773 206.922 228.821 302.21 238.531 304.694C247.261 291.499 257.809 275.577 265.68 261.99L241.725 223.952ZM314.222 130.258C300.237 116.917 300.911 105.639 273.657 106.489C254.357 108.888 248.516 115.27 239.391 131.716C225.046 132.644 212.589 135.471 201.93 145.816C198.668 148.983 197.253 155.22 200.693 158.688C207.359 162.074 223.11 166.465 227.42 171.038C243.693 188.303 254.478 211.296 268.168 230.649C271.542 235.418 272.103 239.631 278.052 240.402C292.754 217.82 306.934 193.993 323.318 172.737C328.57 165.924 347.784 162.427 353.396 157.112C357.197 153.511 348.555 143.07 345.447 141.071C334.912 134.295 325.582 134.088 314.222 130.258Z" fill="black"/>
<path d="M3545 130.411C3541.61 146.015 3530.61 160.239 3514.85 163.899C3480.66 171.838 3451.35 136.424 3469.9 104.818C3475.45 95.3281 3484.54 88.4306 3495.17 85.6435C3520.56 79.0443 3538.82 94.7524 3545 118.589V130.411ZM3510.49 159.78C3529.82 156.662 3542.99 138.516 3539.97 119.176C3536.95 99.8368 3518.86 86.5739 3499.51 89.4999C3480.02 92.4465 3466.64 110.682 3469.69 130.158C3472.73 149.633 3491.03 162.919 3510.49 159.78Z" fill="black"/>
<path d="M3488.17 102C3508.01 101.6 3540.6 102.068 3516.23 129.701C3514.62 131.533 3524.18 139.532 3523.89 144.697L3520.02 145.7C3504.82 142.929 3513.42 130.742 3499.11 131.506C3495.99 131.673 3499.06 141.168 3497.06 144.795C3493.67 145.663 3492.97 145.492 3489.65 144.599C3489.22 144.151 3488.71 143.618 3488.11 143C3488.13 132.314 3488.16 111.632 3488.17 102ZM3513.44 121.434C3514.08 118.185 3514.71 116.402 3513.22 113.394C3509.71 109.474 3502.8 110.412 3497.83 110.51C3497.69 114.178 3497.06 118.731 3498.96 121.706C3503.44 124.44 3506.12 123.307 3511.59 121.971C3512.21 121.82 3512.83 121.641 3513.44 121.434Z" fill="black"/>
</g>
<defs>
<clipPath id="clip0_2939_1711">
<rect width="3545" height="512" fill="white"/>
</clipPath>
</defs>
</svg>
