<svg version="1.1" id="Layer_1" xmlns:x="ns_extend;" xmlns:i="ns_ai;" xmlns:graph="ns_graphs;" xmlns="http://www.w3.org/2000/svg" xmlns:xlink="http://www.w3.org/1999/xlink" x="0px" y="0px" viewBox="0 0 71.1 45" style="enable-background:new 0 0 71.1 45;" xml:space="preserve">
 <style type="text/css">
  .st0{clip-path:url(#SVGID_2_);}
	.st1{clip-path:url(#SVGID_4_);}
 </style>
 <metadata>
  <sfw xmlns="ns_sfw;">
   <slices>
   </slices>
   <sliceSourceBounds bottomLeftOrigin="true" height="45" width="71.1" x="213.6" y="135.3">
   </sliceSourceBounds>
  </sfw>
 </metadata>
 <g>
  <g>
   <defs>
    <rect id="SVGID_1_" y="0" width="71.1" height="45">
    </rect>
   </defs>
   <clipPath id="SVGID_2_">
    <use href="#SVGID_1_" style="overflow:visible;">
    </use>
   </clipPath>
   <path class="st0" d="M7.8,23.1V2.8C7.9,1,8.5,0.4,10.6,0.4h3.7c9,0,13.3,4.6,13.3,11.2c0,6.3-4.7,11.5-11.5,11.5
			C16,23.1,10.7,23.1,7.8,23.1 M66.9,42.2V2.8C67,0.9,67.6,0.4,70,0.4h1V0.1H59.2v0.2h1c2.4,0,3,0.6,3.1,2.4v20.3H41.1V2.8
			c0.1-1.8,0.7-2.4,3.1-2.4h1V0.1H33.4v0.2h1c2.4,0,3,0.6,3.1,2.4v41.8c-0.1,0-0.2,0-0.3,0c-3.2,0-3.9-2.1-5.3-5.1
			c-4.4-9.3-7-15-18.1-16.2h2.3c6.3,0,15.1-2.3,15.1-11.8c0-10.8-12.1-11.4-15.2-11.4H0.1v0.2h1c2.4,0,3,0.6,3.1,2.4v39.4
			c-0.1,1.8-0.7,2.4-3.1,2.4c-0.6,0-1,0-1,0v0.2h11.7v-0.2c0,0-0.4,0-1,0c-2.4,0-3-0.6-3.1-2.4V23.3h3c3.4,0,6.4,0.7,8.6,2.5
			c6.1,5,6.5,19,16.8,19h8.9v-0.2c0,0-0.4,0-1,0c-2.4,0-3-0.6-3.1-2.4V23.3h22.1v18.9c-0.1,1.8-0.7,2.4-3.1,2.4c-0.6,0-1,0-1,0v0.2
			H71v-0.2c0,0-0.4,0-1,0C67.6,44.6,67,44,66.9,42.2">
   </path>
  </g>
  <g>
   <defs>
    <rect id="SVGID_3_" x="0" width="71.1" height="45">
    </rect>
   </defs>
   <clipPath id="SVGID_4_">
    <use xlink:href="#SVGID_3_" style="overflow:visible;">
    </use>
   </clipPath>
   <g class="st1">
    <path d="M71.1,45h-12v-0.5h1.1c2.4,0,2.9-0.6,2.9-2.3l0-18.8H41.3v18.8c0.1,1.8,0.7,2.3,2.9,2.3h1.1V45h-9.1
				c-6.5,0-9.1-5.5-11.6-10.8c-1.5-3.3-3-6.4-5.3-8.2c-2-1.7-4.9-2.5-8.5-2.5H8v18.8c0.1,1.8,0.7,2.3,2.9,2.3H12V45H0v-0.5h1.1
				c2.4,0,2.9-0.6,2.9-2.3l0-39.4C4,1,3.4,0.5,1.1,0.5H0V0h15.9c1.9,0,5.6,0.2,8.9,1.7c4.3,1.9,6.5,5.2,6.5,9.9
				c0,4.3-1.8,7.5-5.3,9.5c-3.5,2-7.7,2.3-10,2.4h-0.4c9.7,1.7,12.2,7.2,16.4,16.1c0.1,0.3,0.2,0.5,0.3,0.7c1.2,2.6,2,4.3,4.8,4.3
				h0.2V2.8c-0.1-1.8-0.7-2.3-2.9-2.3h-1.1V0h12v0.5h-1.1c-2.4,0-2.9,0.6-2.9,2.3l0,20.2h21.9V2.8c-0.1-1.8-0.7-2.3-2.9-2.3h-1.1V0
				h12v0.5H70c-2.4,0-2.9,0.6-2.9,2.3l0,39.4c0.1,1.9,0.8,2.3,2.9,2.3h1.1V45z M61,44.7h8.2c-1.7-0.1-2.3-0.8-2.4-2.5l0,0V2.8
				c0.1-1.7,0.6-2.4,2.4-2.5H61c1.7,0.1,2.3,0.8,2.4,2.5l0,39.4C63.3,43.9,62.8,44.6,61,44.7z M37.6,44.7h5.8
				c-1.7-0.1-2.3-0.8-2.4-2.5l0-19h0V2.8c0.1-1.7,0.6-2.4,2.4-2.5h-8.2C37,0.4,37.5,1,37.6,2.8L37.6,44.7z M14.9,23.6
				c1.9,0.4,3.4,1.1,4.7,2.2c2.3,1.9,3.8,5,5.4,8.3c2.5,5.2,5,10.7,11.3,10.7h0.3c-2.5-0.2-3.3-1.9-4.4-4.4
				c-0.1-0.2-0.2-0.5-0.3-0.7C27.6,30.6,25,25.1,14.9,23.6z M1.9,44.7h8.2c-1.7-0.1-2.3-0.8-2.4-2.5l0-39.4C7.8,1.1,8.4,0.4,10,0.3
				H1.9C3.7,0.4,4.3,1,4.3,2.8l0,39.4C4.3,43.9,3.7,44.6,1.9,44.7z M12.2,23.2c0.5,0,1.1,0.1,1.5,0.2l0-0.2
				C13.3,23.2,12.8,23.2,12.2,23.2z M15.5,0.3c7.8,0.4,12.2,4.5,12.2,11.3c0,6.1-4.2,10.8-10.1,11.5c2.3-0.1,5.6-0.7,8.3-2.3
				c3.4-2,5.1-5.1,5.1-9.3c0-4.5-2.1-7.8-6.4-9.6c-3.2-1.4-6.9-1.7-8.7-1.7H15.5z M10.6,0.5C8.6,0.5,8.1,1,8,2.8l0,20.2
				c2.7,0,7.5,0,8,0l0,0H16c3.2,0,6.1-1.2,8.2-3.3c2-2.1,3.2-4.9,3.2-8c0-7.1-4.8-11.1-13.2-11.1H10.6z">
    </path>
   </g>
  </g>
 </g>
</svg>