<svg width="4096" height="500" viewBox="0 0 4096 500" fill="none" xmlns="http://www.w3.org/2000/svg">
<g clip-path="url(#clip0_2938_1684)">
<path d="M2095 11.0571L2224.58 11.024C2294.6 11.0194 2349.97 8.21891 2415.85 39.0714C2440.69 50.5822 2463.36 66.2846 2482.87 85.4903C2527.04 129.463 2548.66 188.323 2548.23 250.033C2547.76 317.414 2527.45 371.9 2479.93 419.504C2404.35 490.629 2322.17 488.966 2228.06 488.979L2095 488.943V11.0571ZM2205.87 393.131C2273.22 393.248 2341.01 401.644 2393.36 351.314C2446.7 296.79 2447.8 203.055 2393.38 148.682C2343.13 98.4787 2271.11 106.749 2205.87 106.869V393.131Z" fill="black"/>
<path d="M3141.04 11.0564L3298.31 11.0151C3360.71 11.0125 3420.63 6.03223 3477.31 37.7733C3553.28 80.3155 3570.45 186.001 3530.26 258.554C3509.62 295.813 3469.51 317.705 3429.7 328.077C3444.23 344.321 3459.71 363.451 3473.91 380.22L3566.14 488.943H3535.5H3437.15C3423.42 473.86 3407.52 453.842 3394.19 437.992L3310.18 338.087H3249.6V488.943H3141.04V11.0564ZM3420.05 227.386C3458.08 187.244 3441.32 116.868 3384.58 107.551C3363.29 104.053 3345.7 104.675 3324.29 104.683L3249.6 104.745V247.853L3315.71 247.935C3349.76 247.964 3393.59 252.161 3420.05 227.386Z" fill="black"/>
<path d="M2592.66 11.0566H3009.68V109.979H2661.92C2643.71 69.8812 2623.54 41.9462 2592.66 11.0566Z" fill="black"/>
<path d="M2663.78 390.025L3011.74 390.021V488.943H2948.5H2597.8C2625.82 462.894 2648.27 424.606 2663.78 390.025Z" fill="black"/>
<path d="M2686.41 199.583L2953 199.582C2953.01 210.452 2953.88 293.851 2951.88 297.189H2687.1C2692.16 261.437 2690.44 235.125 2686.41 199.583Z" fill="black"/>
<path d="M540.438 11.0566H651.137V391.263H875V488.943H540.438V11.0566Z" fill="black"/>
<path d="M1157.51 0H1176.93C1194.1 2.74055 1206.39 2.40842 1225.57 6.43867C1284.47 18.5991 1336.72 52.2861 1372.1 100.916C1411.9 155.847 1426.69 226.339 1416.04 292.969C1406.36 356.81 1371.57 414.136 1319.41 452.193C1287.37 475.261 1250.29 490.346 1211.25 496.192C1202.18 497.601 1183.04 498.61 1176.5 500H1158.42C1154.72 499.116 1129.5 497.172 1123.05 496.152C1082.64 490.087 1044.36 474.089 1011.64 449.592C902.703 367.622 883.965 204.758 965.272 97.1095C1000.94 50.1606 1052.5 17.8285 1110.29 6.17244C1129.09 2.27979 1139.95 2.44479 1157.51 0ZM1182.47 398.635C1360.63 377.593 1338.12 83.1713 1152.17 101.335C977.422 122.867 991.893 413.615 1182.47 398.635Z" fill="black"/>
<path d="M3793.34 11.0566H3892.17C3908.49 45.9693 3925.52 88.9422 3940.83 124.825L4042 362.041C4059.42 402.906 4077.66 448.058 4096 488.187V488.943H3984.03L3945.26 391.263H3742.59C3729.32 421.773 3716.25 457.635 3703.62 488.943H3591.6L3793.34 11.0566ZM3777.57 302.633H3845.5H3909.99C3904.4 288.255 3845.79 138.659 3843.43 136.686C3821.76 191.542 3800.04 248.29 3777.57 302.633Z" fill="black"/>
<path d="M1527.73 11.0566H1638.16V199.447C1638.16 236.337 1635.42 276.323 1641.62 312.417C1661.57 428.438 1823.3 428.604 1843.47 312.692C1849.86 276.018 1847.05 234.758 1847.02 197.388L1846.98 11.0566H1957.75L1957.78 186.789C1957.79 238.479 1961.05 292.079 1950.03 341.017C1930.59 427.311 1863.37 487.664 1776 497.508C1768.76 498.323 1758.13 498.585 1751.47 500H1734.2C1727.49 498.966 1720.27 498.578 1713.51 497.979C1620.2 489.711 1549.07 422.443 1532.86 330.547C1525.12 286.694 1527.68 242.876 1527.69 198.465L1527.73 11.0566Z" fill="black"/>
<path d="M245.196 0H263.857C274.837 1.69136 286.708 1.63282 297.367 3.5142C347.639 12.3877 391.644 34.1374 427.296 70.9344L355.917 142.356C323.571 113.106 292.519 99.894 248.608 101.509C116.277 106.376 71.3976 280.815 163.216 364.052C221.209 416.625 310.911 408.109 362.213 350.884C362.524 350.537 362.832 350.188 363.136 349.835C386.687 373.439 410.413 397.685 434.222 420.963C395.85 462.279 357.137 484.126 301.25 495.584C291.683 497.545 268.232 498.606 262.776 500H246.163C243.207 499.233 217.218 497.157 210.649 496.109C170.221 489.8 131.939 473.736 99.1159 449.306C52.365 414.511 19.5805 364.16 6.67162 307.33C2.42618 288.213 2.60363 277.553 0 259.664V240.336C1.13708 235.632 2.71981 213.864 3.98091 206.224C10.3567 168.242 25.6296 132.308 48.5514 101.358C84.315 53.4462 136.06 19.9322 194.408 6.89012C214.796 2.47961 226.519 2.771 245.196 0Z" fill="black"/>
</g>
<defs>
<clipPath id="clip0_2938_1684">
<rect width="4096" height="500" fill="white"/>
</clipPath>
</defs>
</svg>
