<svg width="505" height="94" viewBox="0 0 505 94" fill="none" xmlns="http://www.w3.org/2000/svg">
<g clip-path="url(#clip0_2938_1698)">
<path d="M31.35 6.53H0V91.76H31.35C54.89 91.76 73.97 72.68 73.97 49.14C73.97 25.6 54.88 6.53 31.35 6.53ZM30.01 68.64H24.72V29.65H30.01C40.77 29.65 49.5 38.38 49.5 49.14C49.5 59.9 40.77 68.63 30.01 68.63V68.64ZM222.15 91.76V57.05C222.15 53.88 219.58 51.32 216.42 51.32C213.26 51.32 210.69 53.89 210.69 57.05V91.76H186.34V57.05C186.34 53.88 183.77 51.32 180.61 51.32C177.45 51.32 174.88 53.89 174.88 57.05V91.76H150.53V29.65H165.58L172.07 36.14C176.05 30.95 182.19 27.88 188.72 27.82C188.79 27.82 188.86 27.82 188.93 27.82C195.26 27.82 201.26 30.64 205.3 35.52C209.8 30.6 216.15 27.82 222.79 27.82C235.79 27.82 246.36 38.32 246.46 51.32L246.5 91.76H222.15ZM144.36 60.7C144.36 78.85 129.64 93.57 111.49 93.57C93.34 93.57 78.62 78.85 78.62 60.7C78.62 42.55 93.34 27.83 111.49 27.83C129.64 27.83 144.36 42.55 144.36 60.7ZM122.59 60.71C122.59 57.87 121.51 55.03 119.35 52.87C117.18 50.71 114.34 49.63 111.5 49.63C108.66 49.63 105.82 50.71 103.66 52.87C101.5 55.04 100.41 57.88 100.41 60.72C100.41 63.56 101.49 66.4 103.66 68.56C105.83 70.72 108.67 71.8 111.51 71.8C114.35 71.8 117.19 70.72 119.35 68.56C121.51 66.39 122.59 63.55 122.59 60.71ZM254.54 91.76H278.89V29.65H254.54V91.76ZM500 73.18C500 68.41 498.11 64.06 494.09 60.69C486.08 54.6 473.7 53.59 470.01 52.18C467.63 51.27 466.61 49.86 466.61 48.56C466.61 46.9 468.26 45.43 470.83 45.43C474.79 45.43 476.03 47.6 477.21 50.99L498.88 48.16C495.58 36.33 485.8 27.83 470.53 27.83C455.26 27.83 442.79 36.25 442.79 48.2C442.79 52.97 444.68 57.32 448.7 60.69C456.71 66.78 469.09 67.79 472.78 69.2C475.16 70.11 476.18 71.52 476.18 72.82C476.18 74.48 474.53 75.95 471.96 75.95C467.96 75.95 466.06 73.6 464.67 70.51L441.73 73.2C445.03 85.03 457.01 93.54 472.27 93.54C487.53 93.54 500.01 85.12 500.01 73.17L500 73.18ZM423.17 60.7C423.17 78.85 408.45 93.57 390.3 93.57C372.15 93.57 357.43 78.85 357.43 60.7C357.43 42.55 372.15 27.83 390.3 27.83C408.45 27.83 423.17 42.55 423.17 60.7ZM401.39 60.71C401.39 57.87 400.31 55.03 398.15 52.87C395.98 50.71 393.14 49.63 390.3 49.63C387.46 49.63 384.62 50.71 382.46 52.87C380.3 55.04 379.21 57.88 379.21 60.72C379.21 63.56 380.29 66.4 382.46 68.56C384.63 70.72 387.47 71.8 390.31 71.8C393.15 71.8 395.99 70.72 398.15 68.56C400.31 66.39 401.39 63.55 401.39 60.71ZM266.72 0C263.46 0 260.2 1.25 257.71 3.74C255.22 6.22 253.97 9.48 253.97 12.74C253.97 16 255.22 19.26 257.71 21.75C260.19 24.24 263.45 25.49 266.71 25.49C269.97 25.49 273.23 24.24 275.72 21.75C278.21 19.27 279.46 16.01 279.46 12.75C279.46 9.49 278.21 6.23 275.72 3.74C273.24 1.25 269.98 0 266.72 0ZM351.6 51.32C351.12 38.48 340.77 28.2 327.92 27.83C327.68 27.83 327.45 27.82 327.21 27.82C320.19 27.82 313.5 30.85 308.86 36.14L302.37 29.65H287.32V91.76H311.67V58.53C311.67 54.23 315.16 50.74 319.46 50.74C323.76 50.74 327.25 54.23 327.25 58.53V91.76H351.6V51.32ZM429.85 46.41C437.71 41.87 442.03 34.08 442.03 28.13C442.03 21.65 436.78 16.4 430.3 16.4C423.82 16.4 418.56 21.67 418.56 28.13C418.56 34.59 423.82 39.87 430.3 39.87C430.67 39.87 431.03 39.85 431.39 39.82C431.05 41.88 430.17 43.8 428.84 45.4L429.85 46.41ZM493.1 28.04C493.1 31.27 495.66 33.62 498.68 33.62C501.7 33.62 504.23 31.26 504.23 28.04C504.23 24.82 501.67 22.49 498.68 22.49C495.69 22.49 493.1 24.85 493.1 28.04ZM498.68 32.72C496.13 32.72 494.16 30.75 494.16 28.04C494.16 25.33 496.13 23.39 498.68 23.39C501.23 23.39 503.17 25.39 503.17 28.04C503.17 30.69 501.2 32.72 498.68 32.72ZM501.22 26.68C501.22 25.42 500.48 24.85 498.97 24.85H496.54V31.27H497.52V28.48H498.61L500.3 31.27H501.37L499.56 28.45C500.51 28.33 501.22 27.83 501.22 26.68ZM497.52 27.67V25.66H498.84C499.95 25.66 500.25 26.01 500.25 26.62C500.25 27.33 499.86 27.67 498.68 27.67H497.53H497.52Z" fill="black"/>
</g>
<defs>
<clipPath id="clip0_2938_1698">
<rect width="504.24" height="93.57" fill="white"/>
</clipPath>
</defs>
</svg>
