<svg xmlns="http://www.w3.org/2000/svg" viewBox="0 0 32 32">
<circle cx="16" cy="16" r="16" fill="#E04C2D"/>
<path d="M16 30.8145C16.3272 30.8145 16.5927 31.08 16.5928 31.4072C16.5928 31.7345 16.3273 32 16 32C15.6728 31.9999 15.4072 31.7345 15.4072 31.4072C15.4073 31.0801 15.6728 30.8145 16 30.8145ZM15.999 17.7773C15.999 17.7773 18.3691 20.4313 18.3691 23.7041C18.3689 26.9767 15.999 29.6299 15.999 29.6299C15.999 29.6299 13.6281 26.9767 13.6279 23.7041C13.6279 20.4313 15.999 17.7773 15.999 17.7773ZM23.25 23.207C23.25 23.207 24.6267 23.2849 25.5234 24.1816C26.4202 25.0784 26.498 26.4551 26.498 26.4551C26.498 26.4551 25.1214 26.3772 24.2246 25.4805C23.3278 24.5837 23.25 23.207 23.25 23.207ZM8.85645 23.1025C8.85601 23.1102 8.77609 24.4817 7.88184 25.376C6.99476 26.2628 5.63857 26.3479 5.60938 26.3496C5.6109 26.3238 5.69504 24.9654 6.58301 24.0771C7.47977 23.1804 8.85645 23.1025 8.85645 23.1025ZM9.71387 21.4473C9.9453 21.216 10.3204 21.2159 10.5518 21.4473C10.7831 21.6786 10.783 22.0537 10.5518 22.2852C10.3203 22.5166 9.94529 22.5166 9.71387 22.2852C9.48245 22.0537 9.48245 21.6787 9.71387 21.4473ZM21.4473 21.4473C21.6787 21.2161 22.0538 21.2159 22.2852 21.4473C22.5164 21.6786 22.5163 22.0537 22.2852 22.2852C22.0538 22.5166 21.6787 22.5165 21.4473 22.2852C21.2158 22.0537 21.2158 21.6787 21.4473 21.4473ZM14.7432 17.2568C14.7432 17.2568 13.4865 19.3523 13.0674 19.7715C12.6484 20.1905 12.3333 19.8762 12.2285 19.7715C12.1237 19.6667 11.8102 19.3523 12.2285 18.9336C12.6475 18.5146 14.7432 17.2568 14.7432 17.2568ZM17.2578 17.2568C17.281 17.2708 19.3548 18.5169 19.7715 18.9336C20.1903 19.3525 19.8762 19.6667 19.7715 19.7715C19.6666 19.8764 19.3523 20.19 18.9336 19.7715C18.515 19.3529 17.2606 17.2615 17.2578 17.2568ZM8.29492 13.6299C11.5528 13.6299 14.1966 15.9785 14.2207 16C14.1973 16.0209 11.5532 18.3701 8.29492 18.3701C5.02219 18.37 2.36914 16 2.36914 16C2.37313 15.9964 5.02465 13.63 8.29492 13.6299ZM23.7021 13.6299C26.9749 13.6299 29.6289 16 29.6289 16C29.6289 16 26.9749 18.3701 23.7021 18.3701C20.4296 18.3699 17.7764 16 17.7764 16C17.7764 16 20.4296 13.6301 23.7021 13.6299ZM0.592773 15.4072C0.919959 15.4073 1.18553 15.6728 1.18555 16C1.18555 16.3272 0.91997 16.5927 0.592773 16.5928C0.265494 16.5928 0 16.3273 0 16C1.77163e-05 15.6727 0.265505 15.4072 0.592773 15.4072ZM16 15.4072C16.3273 15.4072 16.5928 15.6727 16.5928 16C16.5928 16.3273 16.3273 16.5928 16 16.5928C15.6728 16.5927 15.4072 16.3272 15.4072 16C15.4072 15.6728 15.6728 15.4073 16 15.4072ZM31.4072 15.4072C31.7344 15.4073 32 15.6728 32 16C32 16.3272 31.7344 16.5927 31.4072 16.5928C31.0799 16.5928 30.8145 16.3273 30.8145 16C30.8145 15.6727 31.08 15.4072 31.4072 15.4072ZM12.2285 12.2285C12.3333 12.1238 12.6484 11.8095 13.0674 12.2285C13.4865 12.6477 14.7432 14.7432 14.7432 14.7432C14.7432 14.7432 12.6475 13.4854 12.2285 13.0664C11.8102 12.6477 12.1237 12.3333 12.2285 12.2285ZM18.9336 12.2285C19.3523 11.81 19.6666 12.1236 19.7715 12.2285C19.8762 12.3333 20.1903 12.6475 19.7715 13.0664C19.3548 13.4831 17.281 14.7292 17.2578 14.7432C17.2606 14.7385 18.515 12.6471 18.9336 12.2285ZM15.999 2.37012C15.999 2.37012 18.369 5.02328 18.3691 8.2959C18.3691 11.5687 15.999 14.2227 15.999 14.2227C15.999 14.2227 13.6279 11.5687 13.6279 8.2959C13.6281 5.02328 15.999 2.37012 15.999 2.37012ZM9.71484 9.71484C9.94624 9.48345 10.3213 9.4835 10.5527 9.71484C10.7842 9.94627 10.7842 10.3213 10.5527 10.5527C10.3213 10.7839 9.94618 10.7841 9.71484 10.5527C9.48358 10.3214 9.4837 9.94626 9.71484 9.71484ZM21.4473 9.71484C21.6787 9.48342 22.0537 9.48343 22.2852 9.71484C22.5166 9.94627 22.5166 10.3213 22.2852 10.5527C22.0537 10.784 21.6786 10.7841 21.4473 10.5527C21.2159 10.3214 21.216 9.94628 21.4473 9.71484ZM5.65039 5.6084C5.67429 5.60981 7.03399 5.69356 7.92285 6.58203C8.81417 7.47335 8.8965 8.83894 8.89746 8.85547C8.88506 8.85475 7.51672 8.77445 6.62402 7.88184C5.7343 6.99211 5.65164 5.62972 5.65039 5.6084ZM26.4541 5.50293C26.4541 5.50293 26.3763 6.87961 25.4795 7.77637C24.5921 8.66371 23.2354 8.74929 23.207 8.75098C23.207 8.75098 23.2839 7.3743 24.1807 6.47754C25.0774 5.58078 26.4541 5.50293 26.4541 5.50293ZM16 0C16.3273 0 16.5928 0.265494 16.5928 0.592773C16.5927 0.91997 16.3272 1.18555 16 1.18555C15.6728 1.18547 15.4073 0.919922 15.4072 0.592773C15.4072 0.265542 15.6728 7.80056e-05 16 0Z" fill="#FAF8EA"/>
</svg>
