<svg preserveAspectRatio="none" width="100%" height="100%" overflow="visible" style="display: block;" viewBox="0 0 40 40" fill="none" xmlns="http://www.w3.org/2000/svg">
<path id="Subtract" fill-rule="evenodd" clip-rule="evenodd" d="M19.0865 0.272618C19.6412 -0.0908715 20.3588 -0.0908737 20.9135 0.272618L23.014 1.64957C23.375 1.88612 23.8139 1.97329 24.2379 1.8929L26.7054 1.42496C27.3571 1.3014 28.0199 1.57585 28.3933 2.12402L29.8069 4.19921C30.0499 4.55594 30.422 4.80449 30.8445 4.89257L33.303 5.40445C33.9525 5.53964 34.4602 6.04735 34.5954 6.69677L35.1073 9.15526C35.1953 9.57791 35.4438 9.9498 35.8006 10.1929L37.8759 11.6064C38.4241 11.9798 38.6994 12.6434 38.5757 13.2951L38.107 15.7617C38.0265 16.1859 38.1145 16.6253 38.3511 16.9865L39.7273 19.0861C40.0909 19.6409 40.0909 20.3591 39.7273 20.9139L38.3511 23.0143C38.1145 23.3754 38.0265 23.8141 38.107 24.2383L38.5757 26.7057C38.6992 27.3573 38.424 28.0202 37.8759 28.3935L35.8006 29.8071C35.4438 30.0501 35.1953 30.4221 35.1073 30.8447L34.5954 33.3032C34.4602 33.9526 33.9525 34.4603 33.303 34.5955L30.8445 35.1074C30.422 35.1955 30.0499 35.444 29.8069 35.8007L28.3933 37.8759C28.0199 38.4242 27.3571 38.6986 26.7054 38.575L24.2379 38.1071C23.8138 38.0267 23.375 38.1146 23.014 38.3512L20.9135 39.7273C20.3587 40.0909 19.6413 40.0909 19.0865 39.7273L16.986 38.3512C16.625 38.1146 16.1862 38.0267 15.7621 38.1071L13.2946 38.575C12.6429 38.6986 11.9801 38.4242 11.6067 37.8759L10.1931 35.8007C9.95014 35.444 9.57804 35.1955 9.1555 35.1074L6.69697 34.5955C6.04754 34.4603 5.53982 33.9526 5.40463 33.3032L4.89274 30.8447C4.80471 30.4221 4.55616 30.0501 4.19937 29.8071L2.12414 28.3935C1.57601 28.0202 1.30084 27.3573 1.42426 26.7057L1.89302 24.2383C1.97347 23.8141 1.88548 23.3754 1.64887 23.0143L0.272709 20.9139C-0.0909032 20.3591 -0.0909032 19.6409 0.272709 19.0861L1.64887 16.9865C1.88555 16.6253 1.97348 16.1859 1.89302 15.7617L1.42426 13.2951C1.30063 12.6434 1.57589 11.9798 2.12414 11.6064L4.19937 10.1929C4.55616 9.9498 4.80474 9.57791 4.89274 9.15526L5.40463 6.69677C5.53982 6.04735 6.04754 5.53964 6.69697 5.40445L9.1555 4.89257C9.57803 4.80449 9.95014 4.55594 10.1931 4.19921L11.6067 2.12402C11.9801 1.57585 12.6429 1.3014 13.2946 1.42496L15.7621 1.8929C16.1861 1.97329 16.625 1.88612 16.986 1.64957L19.0865 0.272618ZM19.9996 32.5464C19.7228 32.5465 19.4985 32.7709 19.4983 33.0477C19.4983 33.3246 19.7226 33.5496 19.9996 33.5498C20.2767 33.5498 20.5017 33.3247 20.5017 33.0477C20.5015 32.7708 20.2765 32.5464 19.9996 32.5464ZM20.0037 21.5055C19.981 21.5309 17.997 23.7678 17.9968 26.5234C17.9968 29.2809 19.9834 31.5194 20.0037 31.5421C20.0089 31.5362 22.0113 29.2913 22.0113 26.5234C22.0112 23.752 20.0037 21.5055 20.0037 21.5055ZM26.1447 26.1051C26.1456 26.1201 26.2159 27.2747 26.9699 28.0289C27.7253 28.7843 28.8831 28.8535 28.8946 28.8541C28.8939 28.8419 28.8245 27.6846 28.0694 26.9295C27.3102 26.1706 26.1447 26.1051 26.1447 26.1051ZM13.9497 26.0148C13.9309 26.0159 12.778 26.087 12.025 26.84C11.2749 27.5904 11.2022 28.7374 11.2006 28.7638C11.2036 28.7636 12.3671 28.6976 13.1253 27.9394C13.8844 27.1803 13.9497 26.0148 13.9497 26.0148ZM15.3869 24.6134C15.191 24.4176 14.8731 24.4175 14.6772 24.6134C14.4815 24.8093 14.4815 25.1272 14.6772 25.3231C14.8731 25.5188 15.191 25.5188 15.3869 25.3231C15.5828 25.1272 15.5827 24.8093 15.3869 24.6134ZM25.3268 24.6126C25.1309 24.417 24.813 24.4169 24.6172 24.6126C24.4213 24.8084 24.4215 25.1263 24.6172 25.3222C24.8131 25.5181 25.1309 25.5181 25.3268 25.3222C25.5226 25.1263 25.5227 24.8085 25.3268 24.6126ZM18.9384 21.0644C18.9318 21.0684 17.1635 22.1296 16.8094 22.4837C16.4558 22.8376 16.7203 23.1034 16.8094 23.1925C16.8981 23.2812 17.1643 23.5472 17.5191 23.1925C17.8739 22.8377 18.9384 21.0644 18.9384 21.0644ZM21.0673 21.0644C21.0772 21.0809 22.1334 22.8393 22.4866 23.1925C22.8411 23.5468 23.1066 23.2814 23.1954 23.1925C23.2841 23.1038 23.5502 22.8376 23.1954 22.4829C22.8406 22.1286 21.0757 21.0694 21.0673 21.0644ZM13.4785 17.9923C10.7081 17.9924 8.46165 19.9982 8.45969 20C8.46321 20.0031 10.709 22.0068 13.4785 22.0068C16.2501 22.0068 18.4973 20 18.4973 20C18.4808 19.9853 16.2399 17.9924 13.4785 17.9923ZM26.524 17.9923C23.7535 17.9924 21.5071 19.9982 21.5052 20C21.5273 20.0197 23.7661 22.0068 26.524 22.0068C29.2752 22.0067 31.5093 20.029 31.5419 20C31.5229 19.983 29.2837 17.9924 26.524 17.9923ZM19.9996 19.4979C19.7228 19.498 19.4986 19.7224 19.4983 19.9992C19.4983 20.2761 19.7226 20.5011 19.9996 20.5013C20.2767 20.5013 20.5017 20.2762 20.5017 19.9992C20.5014 19.7223 20.2765 19.4979 19.9996 19.4979ZM33.0499 19.4979C32.7732 19.4981 32.5489 19.7225 32.5486 19.9992C32.5486 20.2761 32.7731 20.501 33.0499 20.5013C33.327 20.5013 33.5521 20.2762 33.5521 19.9992C33.5518 19.7223 33.3268 19.4979 33.0499 19.4979ZM6.95251 19.4979C6.67568 19.4981 6.45125 19.7223 6.4512 19.9992C6.4512 20.2761 6.67564 20.5002 6.95251 20.5005C7.22957 20.5005 7.45463 20.2762 7.45463 19.9992C7.45458 19.7221 7.22954 19.4979 6.95251 19.4979ZM17.5191 16.8066C17.1645 16.4522 16.8981 16.718 16.8094 16.8066C16.7206 16.8955 16.4553 17.1619 16.8094 17.5163C17.1623 17.8691 18.92 18.9237 18.9384 18.9347C18.9236 18.9101 17.8713 17.1588 17.5191 16.8066ZM23.1963 16.8066C23.1075 16.7179 22.8411 16.4523 22.4866 16.8066C22.1344 17.1588 21.0825 18.9094 21.0673 18.9347C21.0832 18.9251 22.8431 17.8694 23.1963 17.5163C23.5506 17.1618 23.285 16.8954 23.1963 16.8066ZM20.0037 8.45702C19.9814 8.48201 17.997 10.7191 17.9968 13.4749C17.9968 16.2321 19.983 18.4705 20.0037 18.4936C20.0089 18.4877 22.0113 16.2428 22.0113 13.4749C22.0112 10.7035 20.0037 8.45702 20.0037 8.45702ZM15.3869 14.6769C15.191 14.4811 14.8731 14.481 14.6772 14.6769C14.4816 14.8728 14.4816 15.1899 14.6772 15.3857C14.8732 15.5816 15.191 15.5816 15.3869 15.3857C15.5825 15.1899 15.5824 14.8728 15.3869 14.6769ZM25.3268 14.6769C25.1309 14.4811 24.8131 14.481 24.6172 14.6769C24.4216 14.8727 24.4217 15.1899 24.6172 15.3857C24.8131 15.5816 25.1309 15.5816 25.3268 15.3857C25.5226 15.1898 25.5226 14.8728 25.3268 14.6769ZM11.2356 11.2003C11.2356 11.2003 11.3017 12.3658 12.0608 13.125C12.8162 13.8801 13.974 13.9487 13.9855 13.9494C13.9846 13.9343 13.9145 12.7789 13.1603 12.0247C12.4011 11.2658 11.2356 11.2003 11.2356 11.2003ZM28.8555 11.1108C28.8313 11.1123 27.6828 11.1842 26.9317 11.9352C26.1763 12.6905 26.1071 13.8482 26.1065 13.8598C26.1065 13.8598 27.272 13.7938 28.0311 13.0347C28.7821 12.2836 28.8541 11.1352 28.8555 11.1108ZM19.9996 6.44937C19.7228 6.4495 19.4985 6.6739 19.4983 6.95067C19.4983 7.22765 19.7226 7.45266 19.9996 7.45279C20.2767 7.45279 20.5017 7.22773 20.5017 6.95067C20.5015 6.67382 20.2765 6.44937 19.9996 6.44937Z" fill="var(--fill-0, #E04C2D)"/>
</svg>
