<svg preserveAspectRatio="none" width="100%" height="100%" overflow="visible" style="display: block;" viewBox="0 0 48 48" fill="none" xmlns="http://www.w3.org/2000/svg">
<path id="Union" d="M24 46.2227C24.4909 46.2227 24.8887 46.6204 24.8887 47.1113C24.8885 47.6021 24.4908 48 24 48C23.5092 48 23.1115 47.6021 23.1113 47.1113C23.1113 46.6204 23.5091 46.2227 24 46.2227ZM23.999 26.667C24.0406 26.7138 27.5537 30.6755 27.5537 35.5557C27.5536 40.4414 24.0327 44.4066 23.999 44.4443C23.999 44.4443 20.4434 40.4648 20.4434 35.5557C20.4434 30.6465 23.999 26.667 23.999 26.667ZM34.875 34.8105C34.875 34.8105 36.94 34.9273 38.2852 36.2725C39.6185 37.6059 39.744 39.6462 39.7461 39.6816C39.71 39.6795 37.6701 39.5538 36.3369 38.2207C34.9918 36.8756 34.875 34.8105 34.875 34.8105ZM13.2842 34.6533C13.2842 34.6533 13.1681 36.7183 11.8232 38.0635C10.4837 39.4031 8.43001 39.5244 8.41309 39.5254C8.41309 39.5254 8.52908 37.4604 9.87402 36.1152C11.2192 34.7701 13.2842 34.6533 13.2842 34.6533ZM14.5713 32.1709C14.9184 31.824 15.4811 31.8239 15.8281 32.1709C16.1751 32.5179 16.175 33.0806 15.8281 33.4277C15.481 33.7749 14.9184 33.7748 14.5713 33.4277C14.2242 33.0806 14.2242 32.518 14.5713 32.1709ZM32.1709 32.1709C32.518 31.824 33.0807 31.8239 33.4277 32.1709C33.7748 32.518 33.7746 33.0806 33.4277 33.4277C33.0806 33.7749 32.518 33.7749 32.1709 33.4277C31.8238 33.0806 31.8238 32.518 32.1709 32.1709ZM22.1143 25.8857C22.1048 25.9015 20.2266 29.0303 19.5996 29.6572C18.9714 30.2851 18.5 29.8144 18.3428 29.6572C18.1856 29.5001 17.7142 29.028 18.3428 28.3994C18.9708 27.7715 22.1072 25.89 22.1143 25.8857ZM25.8857 25.8857C25.8857 25.8857 29.0283 27.7707 29.6572 28.3994C30.2858 29.028 29.8144 29.5001 29.6572 29.6572C29.4999 29.8145 29.0285 30.285 28.4004 29.6572C27.7719 29.0287 25.8857 25.8857 25.8857 25.8857ZM12.4434 20.4443C17.3524 20.4445 21.332 24 21.332 24C21.332 24 17.3524 27.5555 12.4434 27.5557C7.53416 27.5557 3.55371 24 3.55371 24C3.55371 24 7.53416 20.4443 12.4434 20.4443ZM35.5537 20.4443C40.4629 20.4443 44.4434 24 44.4434 24C44.4434 24 40.4629 27.5557 35.5537 27.5557C30.6447 27.5555 26.665 24 26.665 24C26.665 24 30.6447 20.4445 35.5537 20.4443ZM0.888672 23.1113C1.37958 23.1113 1.77732 23.5091 1.77734 24C1.77734 24.4909 1.37959 24.8887 0.888672 24.8887C0.397852 24.8886 0 24.4908 0 24C2.34788e-05 23.5092 0.397866 23.1114 0.888672 23.1113ZM24 23.1113C24.4909 23.1114 24.8886 23.5091 24.8887 24C24.8887 24.4909 24.4909 24.8886 24 24.8887C23.5091 24.8887 23.1113 24.4909 23.1113 24C23.1114 23.5091 23.5091 23.1113 24 23.1113ZM47.1113 23.1113C47.6021 23.1115 48 23.5092 48 24C48 24.4908 47.6021 24.8885 47.1113 24.8887C46.6204 24.8887 46.2217 24.4909 46.2217 24C46.2217 23.5091 46.6204 23.1113 47.1113 23.1113ZM18.3428 18.3428C18.5 18.1856 18.9714 17.7149 19.5996 18.3428C20.2266 18.9697 22.1048 22.0985 22.1143 22.1143C22.1072 22.11 18.9708 20.2285 18.3428 19.6006C17.7142 18.972 18.1856 18.4999 18.3428 18.3428ZM28.4004 18.3428C29.0285 17.715 29.4999 18.1855 29.6572 18.3428C29.8144 18.4999 30.2858 18.972 29.6572 19.6006C29.0283 20.2293 25.8857 22.1143 25.8857 22.1143C25.8857 22.1143 27.7719 18.9713 28.4004 18.3428ZM23.999 3.55566C24.0338 3.59476 27.5537 7.55946 27.5537 12.4443C27.5537 17.3251 24.0397 21.2874 23.999 21.333C23.999 21.333 20.4434 17.3535 20.4434 12.4443C20.4434 7.53518 23.999 3.55566 23.999 3.55566ZM14.5723 14.5723C14.9194 14.2251 15.482 14.2251 15.8291 14.5723C16.1762 14.9194 16.1762 15.482 15.8291 15.8291C15.482 16.176 14.9193 16.1761 14.5723 15.8291C14.2252 15.482 14.2254 14.9194 14.5723 14.5723ZM32.1709 14.5723C32.518 14.2251 33.0806 14.2251 33.4277 14.5723C33.7747 14.9194 33.7748 15.482 33.4277 15.8291C33.0806 16.1761 32.518 16.1761 32.1709 15.8291C31.8238 15.482 31.8239 14.9194 32.1709 14.5723ZM8.47461 8.41211C8.47461 8.41211 10.5396 8.52888 11.8848 9.87402C13.2213 11.2109 13.3442 13.258 13.3457 13.2832C13.3226 13.2819 11.2741 13.1595 9.93652 11.8223C8.59138 10.4771 8.47461 8.41211 8.47461 8.41211ZM39.6816 8.25488C39.6816 8.25488 39.5649 10.3199 38.2197 11.665C36.8838 13.0008 34.8384 13.1243 34.8105 13.126C34.8123 13.0959 34.9365 11.052 36.2715 9.7168C37.6166 8.37166 39.6816 8.25488 39.6816 8.25488ZM24 0C24.4908 3.32048e-05 24.8886 0.397872 24.8887 0.888672C24.8887 1.37957 24.4909 1.77731 24 1.77734C23.5091 1.77734 23.1113 1.37959 23.1113 0.888672C23.1114 0.397852 23.5092 0 24 0Z" fill="var(--fill-0, #E04C2D)"/>
</svg>
